<svg width="35" height="48" viewBox="0 0 35 48" fill="none" xmlns="http://www.w3.org/2000/svg">
<g filter="url(#filter0_i_99_3064)">
<path fill-rule="evenodd" clip-rule="evenodd" d="M0 2.12121C0 0.9497 0.949699 0 2.12121 0H20.1637C21.3554 0 22.4966 0.48131 23.3284 1.33473L33.7455 12.0229C34.5499 12.8481 35 13.9549 35 15.1073V45.8788C35 47.0503 34.0503 48 32.8788 48H2.12121C0.949699 48 0 47.0503 0 45.8788V24V2.12121Z" fill="url(#paint0_linear_99_3064)"/>
</g>
<ellipse cx="17.5477" cy="35.6113" rx="5.88105" ry="2" fill="url(#paint1_linear_99_3064)"/>
<path d="M23.3775 34.9893C23.3775 35.2464 23.2244 35.4982 22.9322 35.7333C22.6403 35.9681 22.2152 36.1816 21.686 36.3616C20.6281 36.7216 19.1637 36.9451 17.5442 36.9451C15.9247 36.9451 14.4603 36.7216 13.4024 36.3616C12.8732 36.1816 12.4482 35.9681 12.1563 35.7333C11.864 35.4982 11.7109 35.2464 11.7109 34.9893C11.7109 34.7321 11.864 34.4803 12.1563 34.2452C12.4482 34.0104 12.8732 33.797 13.4024 33.6169C14.4603 33.2569 15.9247 33.0334 17.5442 33.0334C19.1637 33.0334 20.6281 33.2569 21.686 33.6169C22.2152 33.797 22.6403 34.0104 22.9322 34.2452C23.2244 34.4803 23.3775 34.7321 23.3775 34.9893Z" fill="url(#paint2_linear_99_3064)" stroke="url(#paint3_linear_99_3064)" stroke-width="0.0883838"/>
<mask id="mask0_99_3064" style="mask-type:alpha" maskUnits="userSpaceOnUse" x="11" y="32" width="13" height="5">
<path d="M23.3775 34.9893C23.3775 35.2464 23.2244 35.4982 22.9322 35.7333C22.6403 35.9681 22.2152 36.1816 21.686 36.3616C20.6281 36.7216 19.1637 36.9451 17.5442 36.9451C15.9247 36.9451 14.4603 36.7216 13.4024 36.3616C12.8732 36.1816 12.4482 35.9681 12.1563 35.7333C11.864 35.4982 11.7109 35.2464 11.7109 34.9893C11.7109 34.7321 11.864 34.4803 12.1563 34.2452C12.4482 34.0104 12.8732 33.797 13.4024 33.6169C14.4603 33.2569 15.9247 33.0334 17.5442 33.0334C19.1637 33.0334 20.6281 33.2569 21.686 33.6169C22.2152 33.797 22.6403 34.0104 22.9322 34.2452C23.2244 34.4803 23.3775 34.7321 23.3775 34.9893Z" fill="white" stroke="white" stroke-width="0.0883838"/>
</mask>
<g mask="url(#mask0_99_3064)">
<g opacity="0.534975" filter="url(#filter1_f_99_3064)">
<path fill-rule="evenodd" clip-rule="evenodd" d="M11.8829 35.4599L16.8568 35.0342L22.8858 36.0662L20.4239 37.1273L16.3795 37.4557L12.8875 36.5453L11.8829 35.4599Z" fill="#ECF7FE"/>
</g>
<g filter="url(#filter2_f_99_3064)">
<rect x="16.6201" y="34.6777" width="1.94444" height="1.86667" fill="url(#paint4_linear_99_3064)"/>
</g>
<g filter="url(#filter3_f_99_3064)">
<path fill-rule="evenodd" clip-rule="evenodd" d="M12.3851 33.8174L17.5442 34.4491L23.2878 33.8174L24.3178 35.4597L17.5884 34.6385L11.4055 35.4597L11.6667 34.4491L12.3851 33.8174Z" fill="#98BDD8"/>
</g>
</g>
<g filter="url(#filter4_i_99_3064)">
<path fill-rule="evenodd" clip-rule="evenodd" d="M16.6403 20.3662H18.5204V34.521V34.6811C18.5204 34.6811 18.3819 34.9619 17.5694 34.9619C16.7569 34.9619 16.6403 34.7032 16.6403 34.7032L16.6403 34.5011V20.3662Z" fill="url(#paint5_linear_99_3064)"/>
</g>
<path fill-rule="evenodd" clip-rule="evenodd" d="M16.6327 20.2783H18.4722V24.2289C18.4722 24.2289 18.4241 24.0117 17.5044 24.0117C16.5846 24.0117 16.6327 24.7228 16.6327 24.7228V20.2783Z" fill="url(#paint6_linear_99_3064)"/>
<g filter="url(#filter5_f_99_3064)">
<path fill-rule="evenodd" clip-rule="evenodd" d="M16.7152 38.7538C16.7152 38.7538 16.9581 38.4006 17.1417 38.1373C17.3253 37.8739 17.3604 38.4006 17.5506 38.5198C17.7407 38.639 18.2935 38.7538 18.2935 38.7538H16.7152Z" fill="white"/>
</g>
<path fill-rule="evenodd" clip-rule="evenodd" d="M5.14136 19.7334L29.934 19.8223L29.8559 20.3824C29.8155 20.6728 29.5672 20.889 29.274 20.889H5.83172C5.57478 20.889 5.35264 20.7097 5.2983 20.4586L5.14136 19.7334Z" fill="url(#paint7_linear_99_3064)"/>
<g filter="url(#filter6_i_99_3064)">
<path fill-rule="evenodd" clip-rule="evenodd" d="M7.19017 9.75365C7.24199 9.50845 7.45839 9.33301 7.70901 9.33301H27.3794C27.6301 9.33301 27.8465 9.50845 27.8983 9.75365L29.9586 19.502C30.0515 19.9416 29.7161 20.3552 29.2668 20.3552H5.82165C5.37231 20.3552 5.03695 19.9416 5.12986 19.502L7.19017 9.75365Z" fill="url(#paint8_linear_99_3064)"/>
</g>
<g filter="url(#filter7_d_99_3064)">
<path fill-rule="evenodd" clip-rule="evenodd" d="M10.3985 10.9307H24.6378L25.6053 18.2196H9.43103L10.3985 10.9307Z" fill="white"/>
</g>
<g filter="url(#filter8_i_99_3064)">
<path fill-rule="evenodd" clip-rule="evenodd" d="M5.88956 19.0832C5.89601 19.0399 5.9332 19.0078 5.97698 19.0078H29.1065C29.1553 19.0078 29.1948 19.0474 29.1948 19.0962V19.2715H5.86151L5.88956 19.0832Z" fill="url(#paint9_linear_99_3064)"/>
</g>
<path fill-rule="evenodd" clip-rule="evenodd" d="M5.87509 19.4079C5.83262 19.3495 5.87436 19.2676 5.94658 19.2676H29.1345C29.2015 19.2676 29.2442 19.3393 29.2121 19.3982L29.0415 19.712H6.09613L5.87509 19.4079Z" fill="url(#paint10_linear_99_3064)"/>
<rect x="11.2057" y="12.5449" width="12.6389" height="0.0883838" fill="#9B9B9B"/>
<g filter="url(#filter9_i_99_3064)">
<ellipse cx="14.4065" cy="15.2114" rx="3.18182" ry="2.04444" fill="#27B1F6"/>
</g>
<mask id="mask1_99_3064" style="mask-type:alpha" maskUnits="userSpaceOnUse" x="11" y="13" width="7" height="5">
<ellipse cx="14.4065" cy="15.2114" rx="3.18182" ry="2.04444" fill="white"/>
</mask>
<g mask="url(#mask1_99_3064)">
<g filter="url(#filter10_i_99_3064)">
<path fill-rule="evenodd" clip-rule="evenodd" d="M15.2581 13.1113L14.5586 15.1534L17.5884 13.75L15.2581 13.1113Z" fill="#E785F9"/>
</g>
<path fill-rule="evenodd" clip-rule="evenodd" d="M17.3156 13.8643L14.5586 15.1537L18.2955 15.8328L17.3156 13.8643Z" fill="#FB5352"/>
<path fill-rule="evenodd" clip-rule="evenodd" d="M18.0303 15.4893L14.5586 15.1533L16.8037 16.988L18.0303 15.4893Z" fill="#FFE143"/>
<g filter="url(#filter11_i_99_3064)">
<path fill-rule="evenodd" clip-rule="evenodd" d="M14.5586 15.1533L11.3908 16.1685L11.819 16.8229L13.0919 17.2762L14.6032 17.4325L16.2739 17.2762L16.8813 16.8229L14.5586 15.1533Z" fill="#8FE564"/>
</g>
</g>
<g filter="url(#filter12_i_99_3064)">
<ellipse cx="19.0719" cy="13.5669" rx="0.353535" ry="0.222222" fill="#23B3F8"/>
</g>
<g filter="url(#filter13_i_99_3064)">
<ellipse cx="19.0719" cy="14.2779" rx="0.353535" ry="0.222222" fill="#E786F9"/>
</g>
<g filter="url(#filter14_i_99_3064)">
<ellipse cx="19.0719" cy="15.0767" rx="0.353535" ry="0.222222" fill="#FC5352"/>
</g>
<g filter="url(#filter15_i_99_3064)">
<ellipse cx="19.0719" cy="15.7896" rx="0.353535" ry="0.222222" fill="#FFE143"/>
</g>
<g filter="url(#filter16_i_99_3064)">
<ellipse cx="19.0719" cy="16.5884" rx="0.353535" ry="0.222222" fill="#8FE564"/>
</g>
<path fill-rule="evenodd" clip-rule="evenodd" d="M14.8524 13.0312L14.1925 14.9824L11.1199 15.9828L11.2873 16.2304L14.5585 15.1546L15.2581 13.1125L14.8524 13.0312Z" fill="white"/>
<path fill-rule="evenodd" clip-rule="evenodd" d="M20.4865 13.4655C20.4807 13.4693 20.4736 13.4712 20.465 13.4712C20.4563 13.4712 20.4493 13.4693 20.4437 13.4655C20.4379 13.4618 20.4351 13.4571 20.4351 13.4515C20.4351 13.4459 20.4379 13.4412 20.4437 13.4374C20.4493 13.4335 20.4563 13.4316 20.465 13.4316C20.4736 13.4316 20.4807 13.4335 20.4865 13.4374C20.492 13.4412 20.4948 13.4459 20.4948 13.4515C20.4948 13.4571 20.492 13.4618 20.4865 13.4655ZM20.3468 13.6657V13.529H20.3981V13.5016H20.3463V13.4871C20.3463 13.4719 20.3573 13.4643 20.3792 13.4643C20.3864 13.4643 20.3933 13.4647 20.3999 13.4655V13.4395C20.3911 13.4385 20.3824 13.438 20.3738 13.438C20.349 13.438 20.3308 13.4417 20.319 13.449C20.3067 13.4566 20.3005 13.4687 20.3005 13.4852V13.5016H20.262V13.529H20.3005V13.6657H20.3468ZM19.9619 13.447V13.6655H19.9138V13.447H19.9619ZM20.0706 13.5683V13.6638H20.0245V13.5006H20.0688V13.5265H20.0723C20.078 13.5174 20.0872 13.5103 20.1001 13.5052C20.1131 13.5 20.1283 13.4974 20.1459 13.4974C20.1719 13.4974 20.1919 13.5027 20.206 13.5132C20.2201 13.5238 20.2272 13.5387 20.2272 13.5581V13.6638H20.1812V13.5662C20.1812 13.54 20.1642 13.527 20.1303 13.527C20.1117 13.527 20.0972 13.5307 20.0866 13.538C20.0759 13.5454 20.0706 13.5555 20.0706 13.5683ZM20.4876 13.6636V13.5005H20.4418V13.6636H20.4876ZM20.5923 13.5684V13.6638H20.5463V13.5006H20.5906V13.5266H20.594C20.5997 13.5175 20.609 13.5104 20.6218 13.5053C20.6348 13.5001 20.6501 13.4975 20.6676 13.4975C20.6936 13.4975 20.7136 13.5027 20.7277 13.5132C20.7419 13.5238 20.7489 13.5388 20.7489 13.5582V13.6638H20.7029V13.5663C20.7029 13.5401 20.6859 13.527 20.652 13.527C20.6334 13.527 20.6189 13.5307 20.6083 13.5381C20.5976 13.5455 20.5923 13.5556 20.5923 13.5684ZM20.829 13.4712C20.8376 13.4712 20.8448 13.4693 20.8505 13.4655C20.8561 13.4618 20.8589 13.4571 20.8589 13.4515C20.8589 13.4459 20.8561 13.4412 20.8505 13.4374C20.8448 13.4335 20.8376 13.4316 20.829 13.4316C20.8204 13.4316 20.8133 13.4335 20.8077 13.4374C20.802 13.4412 20.7991 13.4459 20.7991 13.4515C20.7991 13.4571 20.802 13.4618 20.8077 13.4655C20.8133 13.4693 20.8204 13.4712 20.829 13.4712ZM20.8517 13.5005V13.6636H20.8059V13.5005H20.8517ZM20.998 13.6656C21.0056 13.6656 21.0138 13.665 21.0226 13.6639V13.637C21.0155 13.6375 21.0098 13.6377 21.0055 13.6377C20.9941 13.6377 20.9857 13.6358 20.9804 13.6318C20.9752 13.6278 20.9725 13.6215 20.9725 13.613V13.5286H21.0247V13.5013H20.9725V13.4608H20.9265V13.5013H20.8882V13.5286H20.9265V13.6213C20.9265 13.6372 20.932 13.6485 20.943 13.6554C20.9541 13.6622 20.9725 13.6656 20.998 13.6656ZM21.2292 13.6551C21.2113 13.6636 21.189 13.6678 21.1623 13.6678C21.1288 13.6678 21.1024 13.6602 21.0832 13.645C21.0639 13.63 21.0542 13.6094 21.0542 13.5832C21.0542 13.557 21.0639 13.5361 21.0834 13.5207C21.1029 13.5052 21.1292 13.4975 21.1621 13.4975C21.1947 13.4975 21.2203 13.5048 21.2389 13.5195C21.2574 13.5341 21.2666 13.5544 21.2666 13.5801V13.5914H21.1013V13.5932C21.102 13.6077 21.1079 13.6191 21.1191 13.6276C21.1303 13.636 21.1451 13.6402 21.1636 13.6402C21.1919 13.6402 21.2104 13.6336 21.2193 13.6203H21.2638C21.2585 13.6351 21.247 13.6467 21.2292 13.6551ZM21.1012 13.5666C21.1025 13.5538 21.1087 13.5435 21.1196 13.5358C21.1306 13.5282 21.1446 13.5243 21.1616 13.5243C21.1786 13.5243 21.1923 13.5282 21.2027 13.5358C21.2129 13.5434 21.2184 13.5537 21.2189 13.5666H21.1012ZM21.6221 13.6342V13.6654H21.4285V13.4469H21.4767V13.6342H21.6221ZM21.756 13.6678C21.7903 13.6678 21.8172 13.6602 21.8369 13.645C21.8565 13.6299 21.8663 13.6091 21.8663 13.5826C21.8663 13.5562 21.8564 13.5354 21.8366 13.5202C21.817 13.5051 21.7901 13.4975 21.756 13.4975C21.7217 13.4975 21.6948 13.5051 21.6751 13.5202C21.6554 13.5354 21.6455 13.5562 21.6455 13.5826C21.6455 13.6091 21.6553 13.6299 21.6749 13.645C21.6946 13.6602 21.7216 13.6678 21.756 13.6678ZM21.7095 13.6238C21.7203 13.6336 21.7357 13.6385 21.7557 13.6385C21.7755 13.6385 21.7909 13.6335 21.8019 13.6236C21.8128 13.6139 21.8182 13.6001 21.8182 13.5823C21.8182 13.5646 21.8128 13.5508 21.8019 13.5409C21.7909 13.5311 21.7755 13.5262 21.7557 13.5262C21.7357 13.5262 21.7203 13.5311 21.7095 13.5409C21.6986 13.5507 21.6932 13.5645 21.6932 13.5823C21.6932 13.6002 21.6986 13.614 21.7095 13.6238ZM22.011 13.6678C22.0453 13.6678 22.0723 13.6602 22.0919 13.645C22.1115 13.6299 22.1214 13.6091 22.1214 13.5826C22.1214 13.5562 22.1115 13.5354 22.0917 13.5202C22.072 13.5051 22.0452 13.4975 22.011 13.4975C21.9768 13.4975 21.9498 13.5051 21.9302 13.5202C21.9104 13.5354 21.9005 13.5562 21.9005 13.5826C21.9005 13.6091 21.9103 13.6299 21.93 13.645C21.9496 13.6602 21.9766 13.6678 22.011 13.6678ZM21.9645 13.6238C21.9754 13.6336 21.9908 13.6385 22.0107 13.6385C22.0306 13.6385 22.046 13.6335 22.057 13.6236C22.0678 13.6139 22.0732 13.6001 22.0732 13.5823C22.0732 13.5646 22.0678 13.5508 22.057 13.5409C22.046 13.5311 22.0306 13.5262 22.0107 13.5262C21.9908 13.5262 21.9754 13.5311 21.9645 13.5409C21.9537 13.5507 21.9482 13.5645 21.9482 13.5823C21.9482 13.6002 21.9537 13.614 21.9645 13.6238ZM22.2134 13.7186V13.6401H22.217C22.2301 13.6586 22.2541 13.6678 22.2891 13.6678C22.3188 13.6678 22.3423 13.6602 22.3596 13.6448C22.3771 13.6295 22.3858 13.6087 22.3858 13.5826C22.3858 13.5564 22.3771 13.5357 22.3596 13.5204C22.3421 13.5051 22.3185 13.4975 22.2886 13.4975C22.2727 13.4975 22.2583 13.5001 22.2452 13.5054C22.2322 13.5107 22.2221 13.5181 22.2151 13.5275H22.2117V13.5002H22.1672V13.7186H22.2134ZM22.2294 13.6222C22.2407 13.632 22.256 13.637 22.2752 13.637C22.2948 13.637 22.3101 13.6321 22.3212 13.6223C22.3322 13.6124 22.3377 13.5988 22.3377 13.5815C22.3377 13.5643 22.3322 13.5507 22.3212 13.5409C22.3101 13.5311 22.2948 13.5262 22.2754 13.5262C22.256 13.5262 22.2407 13.5312 22.2294 13.5411C22.2182 13.5511 22.2125 13.5646 22.2125 13.5817C22.2125 13.5987 22.2182 13.6122 22.2294 13.6222Z" fill="#828282"/>
<path fill-rule="evenodd" clip-rule="evenodd" d="M20.7921 14.187C20.8013 14.187 20.8091 14.1852 20.8153 14.1816C20.8213 14.1781 20.8243 14.1737 20.8243 14.1684C20.8243 14.163 20.8213 14.1585 20.8153 14.1549C20.8091 14.1513 20.8013 14.1494 20.7921 14.1494C20.7828 14.1494 20.7752 14.1512 20.7691 14.1548C20.7629 14.1584 20.7599 14.1629 20.7599 14.1682C20.7599 14.1736 20.7629 14.178 20.7691 14.1816C20.7752 14.1852 20.7828 14.187 20.7921 14.187ZM19.9699 14.2214V14.3736L19.9217 14.3737V14.1627L19.9824 14.1628L20.0888 14.3228L20.0927 14.3228L20.1994 14.1632L20.2601 14.1633V14.373L20.2119 14.3731V14.2216L20.2086 14.2216L20.1106 14.3672L20.0712 14.3673L19.9731 14.2214L19.9699 14.2214ZM20.4733 14.3491C20.4576 14.3655 20.4323 14.3738 20.3975 14.3738C20.3728 14.3739 20.3527 14.3697 20.3373 14.3613C20.3214 14.3525 20.3134 14.3411 20.3134 14.327C20.3134 14.3129 20.3215 14.3018 20.3377 14.2937C20.354 14.2857 20.3771 14.2812 20.4073 14.28L20.4756 14.2775V14.264C20.4756 14.2467 20.4584 14.2381 20.424 14.2381C20.3948 14.2381 20.3772 14.2439 20.3713 14.2555L20.3231 14.2555C20.3256 14.242 20.3363 14.2313 20.3551 14.2232C20.3738 14.2152 20.3975 14.2113 20.4263 14.2113C20.4578 14.2113 20.4822 14.216 20.4995 14.2253C20.5167 14.2345 20.5253 14.2474 20.5253 14.264V14.371L20.4773 14.3711V14.3491L20.4733 14.3491ZM20.4101 14.3473C20.3962 14.3473 20.3851 14.3454 20.3766 14.3415C20.3679 14.3375 20.3635 14.332 20.3635 14.3251C20.3635 14.3116 20.3802 14.304 20.4138 14.3026L20.4751 14.3001V14.3131C20.4751 14.3229 20.469 14.331 20.4567 14.3375C20.4442 14.344 20.4287 14.3473 20.4101 14.3473ZM20.6353 14.2785V14.3703L20.5857 14.3704V14.2148L20.6335 14.2148V14.2386L20.6372 14.2386C20.6407 14.2309 20.6488 14.2246 20.6614 14.2197C20.674 14.2147 20.6885 14.2123 20.7048 14.2123C20.7142 14.2123 20.7215 14.2127 20.7267 14.2136V14.2438C20.721 14.2426 20.7118 14.242 20.6992 14.2419C20.6805 14.2419 20.6652 14.2453 20.6533 14.2521C20.6413 14.2588 20.6353 14.2676 20.6353 14.2785ZM20.8165 14.2143V14.3693L20.7672 14.3694V14.2143L20.8165 14.2143ZM20.9495 14.3721C20.9842 14.3721 21.0095 14.3639 21.0253 14.3476L21.0292 14.3476V14.3694L21.0772 14.3693V14.2635C21.0772 14.2471 21.0686 14.2343 21.0515 14.2252C21.0341 14.216 21.0097 14.2113 20.9782 14.2113C20.9495 14.2113 20.9257 14.2152 20.9071 14.2231C20.8882 14.2311 20.8775 14.2417 20.8751 14.255L20.9233 14.255C20.9291 14.2435 20.9467 14.2378 20.9759 14.2378C21.0103 14.2378 21.0276 14.2464 21.0276 14.2635V14.2768L20.9592 14.2793C20.9291 14.2804 20.9059 14.285 20.8897 14.2929C20.8734 14.3009 20.8653 14.3118 20.8653 14.3257C20.8653 14.3397 20.8733 14.3511 20.8892 14.3597C20.9047 14.368 20.9247 14.3722 20.9495 14.3721ZM20.9285 14.3403C20.937 14.3442 20.9481 14.3461 20.9619 14.3461C20.9806 14.346 20.9961 14.3428 21.0085 14.3364C21.0208 14.3299 21.027 14.3219 21.027 14.3122V14.2993L20.9656 14.3018C20.9321 14.3033 20.9153 14.3107 20.9153 14.3241C20.9153 14.331 20.9197 14.3363 20.9285 14.3403ZM21.1875 14.3698V14.2794C21.1875 14.2672 21.1933 14.2577 21.2049 14.2507C21.2163 14.2437 21.2321 14.2402 21.2522 14.2402C21.2889 14.2402 21.3073 14.2526 21.3073 14.2773V14.3695L21.3572 14.3694V14.2697C21.3572 14.2514 21.3495 14.2372 21.3342 14.2272C21.3189 14.2173 21.2972 14.2123 21.2691 14.2123C21.2501 14.2123 21.2335 14.2147 21.2195 14.2196C21.2056 14.2244 21.1955 14.2311 21.1894 14.2398L21.1856 14.2398V14.2152L21.1377 14.2152V14.3699L21.1875 14.3698ZM21.4656 14.1825C21.4594 14.186 21.4517 14.1878 21.4424 14.1878C21.4332 14.1878 21.4255 14.186 21.4195 14.1824C21.4133 14.1789 21.4102 14.1745 21.4102 14.1692C21.4102 14.164 21.4133 14.1595 21.4195 14.156C21.4255 14.1524 21.4332 14.1506 21.4424 14.1506C21.4517 14.1507 21.4594 14.1525 21.4656 14.1561C21.4716 14.1596 21.4746 14.1641 21.4746 14.1693C21.4746 14.1746 21.4716 14.179 21.4656 14.1825ZM21.4669 14.3683V14.2153L21.4175 14.2153V14.3684L21.4669 14.3683ZM21.7136 14.3154L21.6828 14.3696L21.6295 14.3697L21.7502 14.1657L21.8061 14.1658L21.9269 14.3691L21.8717 14.3692L21.8411 14.3153L21.7136 14.3154ZM21.8274 14.2879L21.7268 14.288L21.7753 14.2027L21.7792 14.2027L21.8274 14.2879ZM22.151 14.2155L22.0601 14.3674L22.0066 14.3675L21.9155 14.2153L21.9688 14.2153L22.0316 14.3353L22.0356 14.3353L22.0982 14.2154L22.151 14.2155ZM22.2854 14.3705C22.3142 14.3704 22.3382 14.3665 22.3575 14.3587C22.3767 14.3508 22.3891 14.3401 22.3948 14.3265L22.3468 14.3266C22.3373 14.3388 22.3172 14.345 22.2868 14.345C22.2669 14.3451 22.2509 14.3412 22.2388 14.3334C22.2268 14.3256 22.2204 14.3151 22.2196 14.3017V14.3001L22.3978 14.2999V14.2895C22.3978 14.2658 22.3879 14.2471 22.3679 14.2336C22.3478 14.2201 22.3203 14.2133 22.2852 14.2133C22.2496 14.2132 22.2214 14.2204 22.2003 14.2346C22.1793 14.2489 22.1688 14.2682 22.1688 14.2924C22.1688 14.3167 22.1793 14.3357 22.2001 14.3496C22.2208 14.3636 22.2493 14.3705 22.2854 14.3705ZM22.2394 14.2494C22.2276 14.2565 22.221 14.266 22.2196 14.2778L22.3465 14.2777C22.3458 14.2658 22.34 14.2564 22.3289 14.2494C22.3177 14.2423 22.3029 14.2388 22.2846 14.2387C22.2663 14.2387 22.2513 14.2423 22.2394 14.2494Z" fill="#828282"/>
<path fill-rule="evenodd" clip-rule="evenodd" d="M22.3714 15.1452V14.8838H22.3203V15.1452H22.3714ZM20.8113 15.0787L20.7796 15.1448H20.725L20.8488 14.8957H20.9061L21.0299 15.1448H20.9733L20.942 15.0787H20.8113ZM20.134 15.1459C20.1852 15.1459 20.2249 15.135 20.2531 15.1131C20.2813 15.0913 20.2954 15.0604 20.2954 15.0206C20.2954 14.9815 20.2812 14.951 20.2528 14.9293C20.2245 14.9076 20.1849 14.8968 20.134 14.8968H20.0102V15.1459H20.134ZM20.0626 15.1083V14.9305H20.1269C20.1624 14.9305 20.19 14.9382 20.2097 14.9538C20.2296 14.9694 20.2395 14.9912 20.2395 15.0191C20.2395 15.0475 20.2297 15.0695 20.2099 15.0851C20.1904 15.1006 20.1627 15.1083 20.1269 15.1083H20.0626ZM20.5311 15.134C20.5113 15.1436 20.4866 15.1485 20.4571 15.1485C20.4201 15.1485 20.3909 15.1398 20.3697 15.1224C20.3483 15.1051 20.3376 15.0815 20.3376 15.0514C20.3376 15.0214 20.3484 14.9975 20.3699 14.9798C20.3915 14.9621 20.4205 14.9532 20.4569 14.9532C20.4929 14.9532 20.5212 14.9616 20.5418 14.9784C20.5622 14.9952 20.5724 15.0184 20.5724 15.048V15.0609H20.3897V15.063C20.3905 15.0796 20.397 15.0927 20.4094 15.1024C20.4217 15.112 20.4381 15.1169 20.4586 15.1169C20.4898 15.1169 20.5103 15.1093 20.5201 15.0941H20.5693C20.5635 15.111 20.5507 15.1243 20.5311 15.134ZM20.3897 15.0332C20.3911 15.0186 20.3979 15.0069 20.41 14.9982C20.4222 14.9894 20.4376 14.985 20.4564 14.985C20.4751 14.985 20.4903 14.9894 20.5018 14.9982C20.5131 15.0068 20.5191 15.0185 20.5198 15.0332H20.3897ZM20.9279 15.0455H20.8248L20.8744 14.9413H20.8785L20.9279 15.0455ZM21.124 15.0349V15.1448H21.0729V14.9568H21.1221V14.9867H21.1259C21.1322 14.9762 21.1425 14.9681 21.1568 14.9622C21.1712 14.9562 21.1881 14.9532 21.2076 14.9532C21.2365 14.9532 21.2587 14.9592 21.2744 14.9713C21.2901 14.9835 21.2979 15.0008 21.2979 15.0231V15.1448H21.2468V15.0324C21.2468 15.0023 21.228 14.9872 21.1903 14.9872C21.1697 14.9872 21.1535 14.9915 21.1418 15C21.1299 15.0085 21.124 15.0201 21.124 15.0349ZM21.557 15.1443V15.113H21.4169V15.1101L21.5555 14.9841V14.9572H21.354V14.9884H21.4948V14.9914L21.3531 15.1192V15.1443H21.557ZM21.7647 15.1184C21.7485 15.1381 21.7226 15.1479 21.687 15.1479C21.6616 15.1479 21.641 15.1429 21.6252 15.1327C21.6089 15.1223 21.6007 15.1086 21.6007 15.0917C21.6007 15.0749 21.609 15.0616 21.6257 15.052C21.6423 15.0424 21.6661 15.0369 21.6969 15.0356L21.767 15.0326V15.0164C21.767 14.9957 21.7494 14.9853 21.7141 14.9853C21.6841 14.9853 21.6661 14.9923 21.6601 15.0062H21.6107C21.6132 14.9901 21.6241 14.9772 21.6435 14.9675C21.6626 14.958 21.687 14.9532 21.7164 14.9532C21.7487 14.9532 21.7738 14.9588 21.7915 14.97C21.8091 14.981 21.8179 14.9965 21.8179 15.0164V15.1448H21.7687V15.1184H21.7647ZM21.6998 15.1155C21.6856 15.1155 21.6742 15.1132 21.6655 15.1085C21.6565 15.1037 21.652 15.0973 21.652 15.0891C21.652 15.0729 21.6692 15.0639 21.7036 15.0622L21.7665 15.0593V15.0749C21.7665 15.0865 21.7602 15.0962 21.7476 15.1039C21.7348 15.1117 21.7189 15.1155 21.6998 15.1155ZM22.2352 15.126C22.2144 15.1385 22.1857 15.1448 22.1491 15.1448H22.0082V14.8957H22.146C22.1782 14.8957 22.2035 14.9013 22.2219 14.9124C22.2401 14.9235 22.2492 14.9386 22.2492 14.9578C22.2492 14.9708 22.2434 14.9825 22.2318 14.9929C22.2203 15.0031 22.206 15.0093 22.1891 15.0114V15.0143C22.2122 15.016 22.2309 15.0223 22.2451 15.0333C22.2592 15.0443 22.2663 15.058 22.2663 15.0742C22.2663 15.0962 22.2559 15.1134 22.2352 15.126ZM22.0615 15.0004V14.9285H22.1334C22.153 14.9285 22.1683 14.9317 22.1793 14.9381C22.1902 14.9443 22.1956 14.9532 22.1956 14.9645C22.1956 14.9885 22.1719 15.0004 22.1244 15.0004H22.0615ZM22.0615 15.0309V15.1103H22.1381C22.1869 15.1103 22.2112 15.0969 22.2112 15.0701C22.2112 15.0439 22.1858 15.0309 22.1351 15.0309H22.0615ZM22.6563 14.9572L22.5632 15.1452H22.5083L22.4149 14.9572H22.4695L22.5339 15.1055H22.538L22.6021 14.9572H22.6563ZM22.782 15.1483C22.8197 15.1483 22.8468 15.1373 22.8633 15.1155H22.8673V15.1452H22.9163V14.8838H22.8652V14.987H22.8614C22.8544 14.9767 22.8439 14.9686 22.8298 14.9627C22.8157 14.9569 22.7998 14.9541 22.782 14.9541C22.7492 14.9541 22.7232 14.9628 22.7038 14.9803C22.6844 14.9978 22.6746 15.0214 22.6746 15.0511C22.6746 15.0809 22.6843 15.1045 22.7036 15.122C22.7229 15.1395 22.7491 15.1483 22.782 15.1483ZM22.7456 15.0964C22.7579 15.1076 22.7747 15.1132 22.7962 15.1132C22.8176 15.1132 22.8345 15.1075 22.8468 15.0963C22.8593 15.085 22.8655 15.0696 22.8655 15.0501C22.8655 15.0308 22.8593 15.0154 22.8468 15.004C22.8343 14.9926 22.8175 14.9869 22.7962 14.9869C22.7747 14.9869 22.758 14.9926 22.7458 15.0038C22.7335 15.015 22.7274 15.0304 22.7274 15.05C22.7274 15.0697 22.7334 15.0852 22.7456 15.0964Z" fill="#828282"/>
<path fill-rule="evenodd" clip-rule="evenodd" d="M20.1454 15.9549V15.7278H20.2536V15.6904H19.9835V15.7278H20.0919V15.9549H20.1454ZM20.3389 15.9577C20.3747 15.9577 20.4008 15.9472 20.417 15.9263H20.4211V15.9544H20.4705V15.818C20.4705 15.7969 20.4616 15.7804 20.444 15.7687C20.4261 15.7568 20.401 15.7509 20.3685 15.7509C20.3389 15.7509 20.3145 15.756 20.2952 15.7661C20.2758 15.7764 20.2648 15.7901 20.2622 15.8072H20.3119C20.318 15.7924 20.336 15.785 20.3661 15.785C20.4016 15.785 20.4194 15.796 20.4194 15.818V15.8352L20.3489 15.8384C20.3179 15.8398 20.294 15.8456 20.2773 15.8558C20.2606 15.866 20.2522 15.8801 20.2522 15.8979C20.2522 15.9159 20.2604 15.9304 20.2768 15.9416C20.2927 15.9523 20.3134 15.9577 20.3389 15.9577ZM20.3174 15.9165C20.3261 15.9214 20.3376 15.9239 20.3518 15.9239C20.371 15.9239 20.387 15.9198 20.3999 15.9116C20.4125 15.9034 20.4189 15.8931 20.4189 15.8807V15.8642L20.3557 15.8673C20.3211 15.8691 20.3038 15.8786 20.3038 15.8958C20.3038 15.9045 20.3084 15.9114 20.3174 15.9165ZM20.5842 15.9544V15.8376C20.5842 15.822 20.5902 15.8096 20.6021 15.8006C20.6139 15.7916 20.6301 15.787 20.6508 15.787C20.6887 15.787 20.7077 15.803 20.7077 15.8351V15.9544H20.759V15.8252C20.759 15.8015 20.7511 15.7831 20.7354 15.7702C20.7196 15.7573 20.6972 15.7509 20.6683 15.7509C20.6487 15.7509 20.6316 15.7541 20.6172 15.7605C20.6028 15.7667 20.5925 15.7754 20.5861 15.7865H20.5823V15.7548H20.5329V15.9544H20.5842ZM20.9457 15.9534C20.9359 15.9547 20.9267 15.9554 20.9183 15.9554C20.8898 15.9554 20.8693 15.9512 20.8569 15.9429C20.8446 15.9346 20.8385 15.9208 20.8385 15.9015V15.7888H20.7958V15.7556H20.8385V15.7063H20.8899V15.7556H20.9481V15.7888H20.8899V15.8914C20.8899 15.9018 20.8928 15.9095 20.8987 15.9143C20.9046 15.9191 20.9139 15.9215 20.9266 15.9215C20.9314 15.9215 20.9378 15.9212 20.9457 15.9206V15.9534ZM21.0678 15.9577C21.1036 15.9577 21.1296 15.9472 21.1459 15.9263H21.1499V15.9544H21.1994V15.818C21.1994 15.7969 21.1905 15.7804 21.1729 15.7687C21.155 15.7568 21.1299 15.7509 21.0974 15.7509C21.0678 15.7509 21.0433 15.756 21.0241 15.7661C21.0047 15.7764 20.9937 15.7901 20.9911 15.8072H21.0408C21.0468 15.7924 21.0649 15.785 21.095 15.785C21.1305 15.785 21.1483 15.796 21.1483 15.818V15.8352L21.0778 15.8384C21.0468 15.8398 21.0229 15.8456 21.0062 15.8558C20.9894 15.866 20.9811 15.8801 20.9811 15.8979C20.9811 15.9159 20.9893 15.9304 21.0057 15.9416C21.0216 15.9523 21.0423 15.9577 21.0678 15.9577ZM21.0462 15.9165C21.0549 15.9214 21.0664 15.9239 21.0807 15.9239C21.0998 15.9239 21.1158 15.9198 21.1287 15.9116C21.1414 15.9034 21.1477 15.8931 21.1477 15.8807V15.8642L21.0845 15.8673C21.0499 15.8691 21.0327 15.8786 21.0327 15.8958C21.0327 15.9045 21.0372 15.9114 21.0462 15.9165ZM21.3513 15.9584C21.3923 15.9584 21.4195 15.9465 21.4327 15.9228H21.4368V15.9545H21.4859V15.7549H21.4348V15.8717C21.4348 15.8873 21.4289 15.8996 21.4169 15.9085C21.405 15.9174 21.3887 15.9219 21.368 15.9219C21.3298 15.9219 21.3107 15.906 21.3107 15.8742V15.7549H21.2593V15.8841C21.2593 15.9077 21.2674 15.926 21.2837 15.9389C21.2998 15.9519 21.3223 15.9584 21.3513 15.9584ZM21.7391 15.8847L21.7073 15.9549H21.6524L21.7768 15.6904H21.8344L21.9588 15.9549H21.902L21.8704 15.8847H21.7391ZM21.8563 15.8487H21.7527L21.8026 15.738H21.8066L21.8563 15.8487ZM22.1897 15.7549L22.0961 15.9545H22.041L21.9471 15.7549H22.002L22.0667 15.9123H22.0708L22.1353 15.7549H22.1897ZM22.3282 15.9582C22.3578 15.9582 22.3826 15.9531 22.4025 15.9428C22.4222 15.9326 22.4351 15.9185 22.4409 15.9005H22.3915C22.3816 15.9166 22.361 15.9247 22.3297 15.9247C22.3091 15.9247 22.2926 15.9196 22.2802 15.9093C22.2678 15.899 22.2612 15.8851 22.2604 15.8675V15.8653H22.444V15.8516C22.444 15.8201 22.4338 15.7955 22.4132 15.7777C22.3925 15.7598 22.3641 15.7509 22.328 15.7509C22.2914 15.7509 22.2622 15.7603 22.2406 15.7792C22.2189 15.798 22.2081 15.8233 22.2081 15.8552C22.2081 15.8871 22.2188 15.9122 22.2403 15.9306C22.2617 15.949 22.291 15.9582 22.3282 15.9582ZM22.2808 15.7982C22.2686 15.8075 22.2618 15.8199 22.2604 15.8354H22.3911C22.3905 15.8198 22.3845 15.8074 22.3731 15.7982C22.3615 15.7889 22.3463 15.7842 22.3274 15.7842C22.3086 15.7842 22.2931 15.7889 22.2808 15.7982Z" fill="#828282"/>
<path fill-rule="evenodd" clip-rule="evenodd" d="M20.616 16.4736V16.7853H20.5648V16.4736H20.616ZM20.2802 16.4888L20.158 16.7859H20.0994L19.9766 16.4888H20.0347L20.1273 16.7282H20.1313L20.2235 16.4888H20.2802ZM20.4469 16.753C20.4307 16.7764 20.4047 16.7882 20.369 16.7882C20.3436 16.7882 20.323 16.7821 20.3071 16.77C20.2908 16.7576 20.2826 16.7412 20.2826 16.721C20.2826 16.701 20.2909 16.6852 20.3076 16.6737C20.3243 16.6623 20.3481 16.6558 20.379 16.6541L20.4493 16.6506V16.6313C20.4493 16.6066 20.4316 16.5942 20.3962 16.5942C20.3662 16.5942 20.3481 16.6025 20.3421 16.6191H20.2926C20.2951 16.5999 20.3061 16.5846 20.3254 16.573C20.3447 16.5616 20.369 16.5559 20.3985 16.5559C20.4309 16.5559 20.456 16.5626 20.4738 16.5759C20.4914 16.5891 20.5002 16.6075 20.5002 16.6313V16.7845H20.4509V16.753H20.4469ZM20.3819 16.7495C20.3677 16.7495 20.3562 16.7467 20.3475 16.7411C20.3385 16.7354 20.334 16.7277 20.334 16.7179C20.334 16.6986 20.3512 16.6879 20.3857 16.6859L20.4487 16.6824V16.701C20.4487 16.7148 20.4424 16.7264 20.4298 16.7356C20.417 16.7448 20.401 16.7495 20.3819 16.7495ZM20.7355 16.7853V16.4736H20.6843V16.7853H20.7355ZM20.9824 16.7715C20.9626 16.783 20.9379 16.7888 20.9084 16.7888C20.8712 16.7888 20.842 16.7784 20.8207 16.7577C20.7993 16.7371 20.7886 16.7089 20.7886 16.6731C20.7886 16.6373 20.7994 16.6088 20.821 16.5876C20.8426 16.5665 20.8716 16.5559 20.9081 16.5559C20.9442 16.5559 20.9725 16.566 20.9931 16.586C21.0136 16.606 21.0239 16.6337 21.0239 16.669V16.6844H20.8407V16.6869C20.8415 16.7066 20.8481 16.7223 20.8605 16.7338C20.8729 16.7453 20.8893 16.7511 20.9098 16.7511C20.9411 16.7511 20.9616 16.742 20.9715 16.7239H21.0208C21.0149 16.7441 21.0021 16.76 20.9824 16.7715ZM20.8408 16.6515C20.8422 16.6341 20.849 16.6202 20.8611 16.6097C20.8733 16.5992 20.8888 16.594 20.9076 16.594C20.9264 16.594 20.9416 16.5992 20.9531 16.6097C20.9645 16.62 20.9705 16.6339 20.9711 16.6515H20.8408ZM21.1558 16.851C21.1415 16.8614 21.1211 16.8666 21.0946 16.8666C21.0844 16.8666 21.0774 16.8663 21.0734 16.8656V16.8275C21.0771 16.8281 21.0826 16.8283 21.0901 16.8283C21.1023 16.8283 21.1121 16.8259 21.1194 16.8211C21.1267 16.8162 21.1325 16.8081 21.137 16.7968L21.1408 16.7859L21.047 16.5609H21.1027L21.1677 16.739H21.1718L21.2365 16.5609H21.2908L21.1941 16.7944C21.183 16.8217 21.1702 16.8405 21.1558 16.851ZM21.6058 16.7921C21.6509 16.7921 21.6869 16.7807 21.7137 16.7581C21.7407 16.7356 21.7542 16.7053 21.7542 16.6673V16.6302H21.6132V16.6689H21.7018V16.6753C21.7016 16.6973 21.6927 16.7151 21.6751 16.7286C21.6575 16.7422 21.6346 16.749 21.6065 16.749C21.5741 16.749 21.5486 16.7389 21.5299 16.7186C21.511 16.6984 21.5015 16.6708 21.5015 16.6358C21.5015 16.6015 21.5109 16.5742 21.5296 16.5539C21.5484 16.5337 21.5736 16.5236 21.6053 16.5236C21.6534 16.5236 21.6844 16.5421 21.6982 16.579H21.7518C21.7459 16.5489 21.7298 16.525 21.7035 16.5071C21.6771 16.4894 21.6444 16.4806 21.6053 16.4806C21.5572 16.4806 21.5188 16.4946 21.4901 16.5228C21.4614 16.5511 21.447 16.5889 21.447 16.6362C21.447 16.6841 21.4613 16.7221 21.4899 16.7501C21.5184 16.7781 21.5571 16.7921 21.6058 16.7921ZM21.8621 16.6525V16.7848H21.8109V16.5606H21.8602V16.595H21.864C21.8676 16.5839 21.876 16.5748 21.889 16.5676C21.902 16.5605 21.9169 16.5569 21.9337 16.5569C21.9434 16.5569 21.951 16.5576 21.9564 16.5588V16.6024C21.9505 16.6006 21.941 16.5998 21.928 16.5998C21.9087 16.5998 21.8929 16.6046 21.8806 16.6144C21.8683 16.6241 21.8621 16.6368 21.8621 16.6525ZM22.0952 16.7888C22.1247 16.7888 22.1494 16.783 22.1693 16.7715C22.1889 16.76 22.2017 16.7441 22.2076 16.7239H22.1583C22.1485 16.742 22.1279 16.7511 22.0966 16.7511C22.0762 16.7511 22.0597 16.7453 22.0473 16.7338C22.035 16.7223 22.0284 16.7066 22.0276 16.6869V16.6844H22.2107V16.669C22.2107 16.6337 22.2005 16.606 22.18 16.586C22.1593 16.566 22.131 16.5559 22.095 16.5559C22.0585 16.5559 22.0294 16.5665 22.0078 16.5876C21.9862 16.6088 21.9754 16.6373 21.9754 16.6731C21.9754 16.7089 21.9861 16.7371 22.0076 16.7577C22.0288 16.7784 22.0581 16.7888 22.0952 16.7888ZM22.0479 16.6097C22.0358 16.6202 22.029 16.6341 22.0276 16.6515H22.1579C22.1573 16.6339 22.1513 16.62 22.1399 16.6097C22.1284 16.5992 22.1132 16.594 22.0944 16.594C22.0756 16.594 22.0601 16.5992 22.0479 16.6097ZM22.3683 16.7888C22.3979 16.7888 22.4226 16.783 22.4424 16.7715C22.4621 16.76 22.4749 16.7441 22.4807 16.7239H22.4315C22.4216 16.742 22.4011 16.7511 22.3698 16.7511C22.3493 16.7511 22.3329 16.7453 22.3205 16.7338C22.3081 16.7223 22.3015 16.7066 22.3007 16.6869V16.6844H22.4838V16.669C22.4838 16.6337 22.4736 16.606 22.4531 16.586C22.4325 16.566 22.4041 16.5559 22.3681 16.5559C22.3316 16.5559 22.3025 16.5665 22.281 16.5876C22.2594 16.6088 22.2486 16.6373 22.2486 16.6731C22.2486 16.7089 22.2593 16.7371 22.2807 16.7577C22.302 16.7784 22.3312 16.7888 22.3683 16.7888ZM22.3211 16.6097C22.3089 16.6202 22.3021 16.6341 22.3007 16.6515H22.431C22.4304 16.6339 22.4244 16.62 22.413 16.6097C22.4015 16.5992 22.3863 16.594 22.3675 16.594C22.3487 16.594 22.3332 16.5992 22.3211 16.6097ZM22.5857 16.7845V16.6533C22.5857 16.6358 22.5917 16.6219 22.6036 16.6117C22.6154 16.6016 22.6315 16.5965 22.6522 16.5965C22.69 16.5965 22.7089 16.6145 22.7089 16.6504V16.7845H22.7601V16.6393C22.7601 16.6127 22.7522 16.5921 22.7365 16.5776C22.7208 16.5631 22.6985 16.5559 22.6696 16.5559C22.65 16.5559 22.6331 16.5595 22.6186 16.5666C22.6043 16.5736 22.594 16.5834 22.5876 16.5959H22.5838V16.5603H22.5345V16.7845H22.5857ZM23.1932 16.7465C23.165 16.7725 23.1252 16.7856 23.0739 16.7856H22.9499V16.4885H23.0739C23.1249 16.4885 23.1646 16.5014 23.193 16.5272C23.2214 16.5532 23.2356 16.5895 23.2356 16.6361C23.2356 16.6836 23.2215 16.7204 23.1932 16.7465ZM23.0032 16.7432V16.5302H23.068C23.1037 16.5302 23.1315 16.5395 23.1514 16.5582C23.1714 16.5768 23.1814 16.6029 23.1814 16.6364C23.1814 16.6704 23.1714 16.6968 23.1516 16.7154C23.1319 16.734 23.104 16.7432 23.068 16.7432H23.0032ZM23.3421 16.6525V16.7848H23.2909V16.5606H23.3402V16.595H23.344C23.3476 16.5839 23.356 16.5748 23.369 16.5676C23.382 16.5605 23.3969 16.5569 23.4138 16.5569C23.4234 16.5569 23.431 16.5576 23.4364 16.5588V16.6024C23.4305 16.6006 23.4211 16.5998 23.408 16.5998C23.3887 16.5998 23.3729 16.6046 23.3607 16.6144C23.3483 16.6241 23.3421 16.6368 23.3421 16.6525Z" fill="#828282"/>
<path fill-rule="evenodd" clip-rule="evenodd" d="M16.4701 12.1092C16.6345 12.1088 16.7658 12.0776 16.8638 12.0155C16.9604 11.9541 17.0106 11.8707 17.0148 11.7653C17.019 11.6599 16.9755 11.5765 16.8847 11.5151C16.7941 11.4533 16.6683 11.4222 16.5069 11.4219C16.346 11.4216 16.2168 11.4521 16.1192 11.5136C16.0207 11.5754 15.9678 11.6593 15.9607 11.7653C15.9535 11.8716 15.9951 11.9555 16.0856 12.017C16.1769 12.0788 16.3052 12.1095 16.4701 12.1092ZM11.5636 11.8812L11.524 12.1024L11.347 12.1027L11.4707 11.4289L11.6446 11.4292L11.5881 11.7446L11.6006 11.7446L12.1205 11.4301L12.3262 11.4304L11.8425 11.7218L12.2555 12.1011L12.0343 12.1015L11.7057 11.7968L11.5636 11.8812ZM13.2425 12.0049L13.2296 12.0992L12.5059 12.1005L12.6096 11.4308L13.3207 11.4321L13.3078 11.5264L12.7693 11.5257L12.7408 11.7149L13.2531 11.715L13.2408 11.8047L12.7273 11.8048L12.6971 12.0056L13.2425 12.0049ZM14.0402 12.098L14.0713 11.8301L14.5124 11.4345L14.3191 11.4342L14.0033 11.7215L13.99 11.7215L13.7423 11.4331L13.549 11.4328L13.8955 11.8302L13.8632 12.0983L14.0402 12.098ZM14.922 11.6266L14.8776 12.0963L14.7053 12.0966L14.771 11.4348L14.9278 11.4351L15.4656 11.9043L15.4782 11.9043L15.5155 11.4361L15.6847 11.4364L15.6352 12.0949L15.4756 12.0952L14.9345 11.6266L14.922 11.6266ZM16.2223 11.9461C16.2821 11.9912 16.3665 12.0136 16.4753 12.0135C16.583 12.0133 16.6692 11.9907 16.7339 11.9456C16.7983 11.9007 16.8322 11.8404 16.8355 11.7646C16.8389 11.6884 16.8106 11.6281 16.7508 11.5836C16.6911 11.5387 16.6082 11.5162 16.5019 11.5161C16.3961 11.5159 16.3107 11.5383 16.2458 11.5831C16.1801 11.6279 16.1449 11.6884 16.1401 11.7646C16.1353 11.8407 16.1627 11.9012 16.2223 11.9461ZM17.72 12.0907L17.7316 11.5317L18.0841 11.5322L18.0852 11.4403L17.2071 11.4387L17.2039 11.531L17.5573 11.5315L17.5431 12.091L17.72 12.0907ZM19.0806 11.9968L19.082 12.0881L18.3584 12.0894L18.3608 11.4407L19.0719 11.442L19.0733 11.5334L18.5348 11.5327L18.535 11.7159L19.0473 11.716L19.0485 11.8029L18.535 11.803L18.5352 11.9975L19.0806 11.9968Z" fill="#080808"/>
<g filter="url(#filter17_f_99_3064)">
<path fill-rule="evenodd" clip-rule="evenodd" d="M11.8829 35.459C11.8829 35.459 12.6758 36.694 16.189 36.9889C19.7022 37.2837 22.2342 36.2239 22.2342 36.2239C22.2342 36.2239 19.4796 37.1339 16.0592 36.8392C12.6388 36.5444 11.8829 35.459 11.8829 35.459Z" fill="white"/>
</g>
<mask id="mask2_99_3064" style="mask-type:alpha" maskUnits="userSpaceOnUse" x="0" y="0" width="35" height="48">
<path fill-rule="evenodd" clip-rule="evenodd" d="M0 2.12121C0 0.9497 0.949699 0 2.12121 0H20.1637C21.3554 0 22.4966 0.48131 23.3284 1.33473L33.7455 12.0229C34.5499 12.8481 35 13.9549 35 15.1073V45.8788C35 47.0503 34.0503 48 32.8788 48H2.12121C0.949699 48 0 47.0503 0 45.8788V24V2.12121Z" fill="white"/>
</mask>
<g mask="url(#mask2_99_3064)">
<g opacity="0.1994" filter="url(#filter18_f_99_3064)">
<path fill-rule="evenodd" clip-rule="evenodd" d="M21.1895 -0.329329C24.841 -0.730189 32.3134 5.01617 32.3134 5.01617C32.3134 5.01617 35.6187 10.8918 35.6187 15.0918C30.6754 14.1793 18.649 16.4445 18.649 16.4445C18.649 16.4445 19.5588 5.01617 21.1895 -0.329329Z" fill="#050A5B"/>
</g>
<path fill-rule="evenodd" clip-rule="evenodd" d="M18.5606 -0.259595L22.6796 -0.355469L29.7773 5.26114L35.0884 11.7182V15.1112L35.0165 14.6471C34.9163 14.001 34.3601 13.5244 33.7063 13.5244H23.5874C22.5623 13.5244 21.7313 12.6934 21.7313 11.6683V1.33737C21.7313 0.676191 21.2441 0.116081 20.5893 0.024414L18.5606 -0.259595Z" fill="url(#paint11_linear_99_3064)"/>
</g>
<defs>
<filter id="filter0_i_99_3064" x="-1.94444" y="0" width="36.9444" height="49.8561" filterUnits="userSpaceOnUse" color-interpolation-filters="sRGB">
<feFlood flood-opacity="0" result="BackgroundImageFix"/>
<feBlend mode="normal" in="SourceGraphic" in2="BackgroundImageFix" result="shape"/>
<feColorMatrix in="SourceAlpha" type="matrix" values="0 0 0 0 0 0 0 0 0 0 0 0 0 0 0 0 0 0 127 0" result="hardAlpha"/>
<feOffset dx="-1.94444" dy="1.85606"/>
<feGaussianBlur stdDeviation="9.67803"/>
<feComposite in2="hardAlpha" operator="arithmetic" k2="-1" k3="1"/>
<feColorMatrix type="matrix" values="0 0 0 0 0 0 0 0 0 0 0 0 0 0 0 0 0 0 0.0275623 0"/>
<feBlend mode="normal" in2="shape" result="effect1_innerShadow_99_3064"/>
</filter>
<filter id="filter1_f_99_3064" x="10.6816" y="33.8329" width="13.4055" height="4.8244" filterUnits="userSpaceOnUse" color-interpolation-filters="sRGB">
<feFlood flood-opacity="0" result="BackgroundImageFix"/>
<feBlend mode="normal" in="SourceGraphic" in2="BackgroundImageFix" result="shape"/>
<feGaussianBlur stdDeviation="0.60063" result="effect1_foregroundBlur_99_3064"/>
</filter>
<filter id="filter2_f_99_3064" x="16.3799" y="34.4375" width="2.42496" height="2.34672" filterUnits="userSpaceOnUse" color-interpolation-filters="sRGB">
<feFlood flood-opacity="0" result="BackgroundImageFix"/>
<feBlend mode="normal" in="SourceGraphic" in2="BackgroundImageFix" result="shape"/>
<feGaussianBlur stdDeviation="0.120126" result="effect1_foregroundBlur_99_3064"/>
</filter>
<filter id="filter3_f_99_3064" x="10.925" y="33.3369" width="13.8732" height="2.60359" filterUnits="userSpaceOnUse" color-interpolation-filters="sRGB">
<feFlood flood-opacity="0" result="BackgroundImageFix"/>
<feBlend mode="normal" in="SourceGraphic" in2="BackgroundImageFix" result="shape"/>
<feGaussianBlur stdDeviation="0.240252" result="effect1_foregroundBlur_99_3064"/>
</filter>
<filter id="filter4_i_99_3064" x="16.6403" y="20.2778" width="1.88019" height="14.6841" filterUnits="userSpaceOnUse" color-interpolation-filters="sRGB">
<feFlood flood-opacity="0" result="BackgroundImageFix"/>
<feBlend mode="normal" in="SourceGraphic" in2="BackgroundImageFix" result="shape"/>
<feColorMatrix in="SourceAlpha" type="matrix" values="0 0 0 0 0 0 0 0 0 0 0 0 0 0 0 0 0 0 127 0" result="hardAlpha"/>
<feOffset dy="-0.0883838"/>
<feGaussianBlur stdDeviation="0.132576"/>
<feComposite in2="hardAlpha" operator="arithmetic" k2="-1" k3="1"/>
<feColorMatrix type="matrix" values="0 0 0 0 0 0 0 0 0 0 0 0 0 0 0 0 0 0 0.181818 0"/>
<feBlend mode="normal" in2="shape" result="effect1_innerShadow_99_3064"/>
</filter>
<filter id="filter5_f_99_3064" x="16.2346" y="37.5839" width="2.53938" height="1.65046" filterUnits="userSpaceOnUse" color-interpolation-filters="sRGB">
<feFlood flood-opacity="0" result="BackgroundImageFix"/>
<feBlend mode="normal" in="SourceGraphic" in2="BackgroundImageFix" result="shape"/>
<feGaussianBlur stdDeviation="0.240252" result="effect1_foregroundBlur_99_3064"/>
</filter>
<filter id="filter6_i_99_3064" x="5.11432" y="9.33301" width="24.9482" height="11.1108" filterUnits="userSpaceOnUse" color-interpolation-filters="sRGB">
<feFlood flood-opacity="0" result="BackgroundImageFix"/>
<feBlend mode="normal" in="SourceGraphic" in2="BackgroundImageFix" result="shape"/>
<feColorMatrix in="SourceAlpha" type="matrix" values="0 0 0 0 0 0 0 0 0 0 0 0 0 0 0 0 0 0 127 0" result="hardAlpha"/>
<feOffset dx="0.0883838" dy="0.0883838"/>
<feGaussianBlur stdDeviation="0.176768"/>
<feComposite in2="hardAlpha" operator="arithmetic" k2="-1" k3="1"/>
<feColorMatrix type="matrix" values="0 0 0 0 1 0 0 0 0 1 0 0 0 0 1 0 0 0 0.355633 0"/>
<feBlend mode="normal" in2="shape" result="effect1_innerShadow_99_3064"/>
</filter>
<filter id="filter7_d_99_3064" x="9.34265" y="10.8423" width="16.5278" height="7.6426" filterUnits="userSpaceOnUse" color-interpolation-filters="sRGB">
<feFlood flood-opacity="0" result="BackgroundImageFix"/>
<feColorMatrix in="SourceAlpha" type="matrix" values="0 0 0 0 0 0 0 0 0 0 0 0 0 0 0 0 0 0 127 0" result="hardAlpha"/>
<feOffset dx="0.0883838" dy="0.0883838"/>
<feGaussianBlur stdDeviation="0.0883838"/>
<feColorMatrix type="matrix" values="0 0 0 0 0 0 0 0 0 0 0 0 0 0 0 0 0 0 0.159419 0"/>
<feBlend mode="normal" in2="BackgroundImageFix" result="effect1_dropShadow_99_3064"/>
<feBlend mode="normal" in="SourceGraphic" in2="effect1_dropShadow_99_3064" result="shape"/>
</filter>
<filter id="filter8_i_99_3064" x="5.86151" y="19.0078" width="23.3333" height="0.352056" filterUnits="userSpaceOnUse" color-interpolation-filters="sRGB">
<feFlood flood-opacity="0" result="BackgroundImageFix"/>
<feBlend mode="normal" in="SourceGraphic" in2="BackgroundImageFix" result="shape"/>
<feColorMatrix in="SourceAlpha" type="matrix" values="0 0 0 0 0 0 0 0 0 0 0 0 0 0 0 0 0 0 127 0" result="hardAlpha"/>
<feOffset dy="0.0883838"/>
<feGaussianBlur stdDeviation="0.0441919"/>
<feComposite in2="hardAlpha" operator="arithmetic" k2="-1" k3="1"/>
<feColorMatrix type="matrix" values="0 0 0 0 0.570884 0 0 0 0 0.830501 0 0 0 0 1 0 0 0 1 0"/>
<feBlend mode="normal" in2="shape" result="effect1_innerShadow_99_3064"/>
</filter>
<filter id="filter9_i_99_3064" x="11.2247" y="13.167" width="6.36365" height="4.17725" filterUnits="userSpaceOnUse" color-interpolation-filters="sRGB">
<feFlood flood-opacity="0" result="BackgroundImageFix"/>
<feBlend mode="normal" in="SourceGraphic" in2="BackgroundImageFix" result="shape"/>
<feColorMatrix in="SourceAlpha" type="matrix" values="0 0 0 0 0 0 0 0 0 0 0 0 0 0 0 0 0 0 127 0" result="hardAlpha"/>
<feOffset dy="0.0883838"/>
<feGaussianBlur stdDeviation="0.0441919"/>
<feComposite in2="hardAlpha" operator="arithmetic" k2="-1" k3="1"/>
<feColorMatrix type="matrix" values="0 0 0 0 0 0 0 0 0 0 0 0 0 0 0 0 0 0 0.109075 0"/>
<feBlend mode="normal" in2="shape" result="effect1_innerShadow_99_3064"/>
</filter>
<filter id="filter10_i_99_3064" x="14.5586" y="13.1113" width="3.02979" height="2.04199" filterUnits="userSpaceOnUse" color-interpolation-filters="sRGB">
<feFlood flood-opacity="0" result="BackgroundImageFix"/>
<feBlend mode="normal" in="SourceGraphic" in2="BackgroundImageFix" result="shape"/>
<feColorMatrix in="SourceAlpha" type="matrix" values="0 0 0 0 0 0 0 0 0 0 0 0 0 0 0 0 0 0 127 0" result="hardAlpha"/>
<feOffset dx="-0.0883838" dy="0.176768"/>
<feComposite in2="hardAlpha" operator="arithmetic" k2="-1" k3="1"/>
<feColorMatrix type="matrix" values="0 0 0 0 0 0 0 0 0 0 0 0 0 0 0 0 0 0 0.119455 0"/>
<feBlend mode="normal" in2="shape" result="effect1_innerShadow_99_3064"/>
</filter>
<filter id="filter11_i_99_3064" x="11.3908" y="15.1533" width="5.57886" height="2.2793" filterUnits="userSpaceOnUse" color-interpolation-filters="sRGB">
<feFlood flood-opacity="0" result="BackgroundImageFix"/>
<feBlend mode="normal" in="SourceGraphic" in2="BackgroundImageFix" result="shape"/>
<feColorMatrix in="SourceAlpha" type="matrix" values="0 0 0 0 0 0 0 0 0 0 0 0 0 0 0 0 0 0 127 0" result="hardAlpha"/>
<feOffset dx="0.0883838"/>
<feGaussianBlur stdDeviation="0.0441919"/>
<feComposite in2="hardAlpha" operator="arithmetic" k2="-1" k3="1"/>
<feColorMatrix type="matrix" values="0 0 0 0 0 0 0 0 0 0 0 0 0 0 0 0 0 0 0.286741 0"/>
<feBlend mode="normal" in2="shape" result="effect1_innerShadow_99_3064"/>
</filter>
<filter id="filter12_i_99_3064" x="18.7184" y="13.3447" width="0.707092" height="0.444336" filterUnits="userSpaceOnUse" color-interpolation-filters="sRGB">
<feFlood flood-opacity="0" result="BackgroundImageFix"/>
<feBlend mode="normal" in="SourceGraphic" in2="BackgroundImageFix" result="shape"/>
<feColorMatrix in="SourceAlpha" type="matrix" values="0 0 0 0 0 0 0 0 0 0 0 0 0 0 0 0 0 0 127 0" result="hardAlpha"/>
<feOffset dy="0.0883838"/>
<feComposite in2="hardAlpha" operator="arithmetic" k2="-1" k3="1"/>
<feColorMatrix type="matrix" values="0 0 0 0 0 0 0 0 0 0 0 0 0 0 0 0 0 0 0.154229 0"/>
<feBlend mode="normal" in2="shape" result="effect1_innerShadow_99_3064"/>
</filter>
<filter id="filter13_i_99_3064" x="18.7184" y="14.0557" width="0.707092" height="0.444336" filterUnits="userSpaceOnUse" color-interpolation-filters="sRGB">
<feFlood flood-opacity="0" result="BackgroundImageFix"/>
<feBlend mode="normal" in="SourceGraphic" in2="BackgroundImageFix" result="shape"/>
<feColorMatrix in="SourceAlpha" type="matrix" values="0 0 0 0 0 0 0 0 0 0 0 0 0 0 0 0 0 0 127 0" result="hardAlpha"/>
<feOffset dy="0.0883838"/>
<feComposite in2="hardAlpha" operator="arithmetic" k2="-1" k3="1"/>
<feColorMatrix type="matrix" values="0 0 0 0 0 0 0 0 0 0 0 0 0 0 0 0 0 0 0.154229 0"/>
<feBlend mode="normal" in2="shape" result="effect1_innerShadow_99_3064"/>
</filter>
<filter id="filter14_i_99_3064" x="18.7184" y="14.8545" width="0.707092" height="0.444336" filterUnits="userSpaceOnUse" color-interpolation-filters="sRGB">
<feFlood flood-opacity="0" result="BackgroundImageFix"/>
<feBlend mode="normal" in="SourceGraphic" in2="BackgroundImageFix" result="shape"/>
<feColorMatrix in="SourceAlpha" type="matrix" values="0 0 0 0 0 0 0 0 0 0 0 0 0 0 0 0 0 0 127 0" result="hardAlpha"/>
<feOffset dy="0.0883838"/>
<feComposite in2="hardAlpha" operator="arithmetic" k2="-1" k3="1"/>
<feColorMatrix type="matrix" values="0 0 0 0 0 0 0 0 0 0 0 0 0 0 0 0 0 0 0.154229 0"/>
<feBlend mode="normal" in2="shape" result="effect1_innerShadow_99_3064"/>
</filter>
<filter id="filter15_i_99_3064" x="18.7184" y="15.5674" width="0.707092" height="0.444336" filterUnits="userSpaceOnUse" color-interpolation-filters="sRGB">
<feFlood flood-opacity="0" result="BackgroundImageFix"/>
<feBlend mode="normal" in="SourceGraphic" in2="BackgroundImageFix" result="shape"/>
<feColorMatrix in="SourceAlpha" type="matrix" values="0 0 0 0 0 0 0 0 0 0 0 0 0 0 0 0 0 0 127 0" result="hardAlpha"/>
<feOffset dy="0.0883838"/>
<feComposite in2="hardAlpha" operator="arithmetic" k2="-1" k3="1"/>
<feColorMatrix type="matrix" values="0 0 0 0 0 0 0 0 0 0 0 0 0 0 0 0 0 0 0.154229 0"/>
<feBlend mode="normal" in2="shape" result="effect1_innerShadow_99_3064"/>
</filter>
<filter id="filter16_i_99_3064" x="18.7184" y="16.3662" width="0.707092" height="0.444336" filterUnits="userSpaceOnUse" color-interpolation-filters="sRGB">
<feFlood flood-opacity="0" result="BackgroundImageFix"/>
<feBlend mode="normal" in="SourceGraphic" in2="BackgroundImageFix" result="shape"/>
<feColorMatrix in="SourceAlpha" type="matrix" values="0 0 0 0 0 0 0 0 0 0 0 0 0 0 0 0 0 0 127 0" result="hardAlpha"/>
<feOffset dy="0.0883838"/>
<feComposite in2="hardAlpha" operator="arithmetic" k2="-1" k3="1"/>
<feColorMatrix type="matrix" values="0 0 0 0 0 0 0 0 0 0 0 0 0 0 0 0 0 0 0.154229 0"/>
<feBlend mode="normal" in2="shape" result="effect1_innerShadow_99_3064"/>
</filter>
<filter id="filter17_f_99_3064" x="11.6426" y="35.2187" width="10.8319" height="2.06254" filterUnits="userSpaceOnUse" color-interpolation-filters="sRGB">
<feFlood flood-opacity="0" result="BackgroundImageFix"/>
<feBlend mode="normal" in="SourceGraphic" in2="BackgroundImageFix" result="shape"/>
<feGaussianBlur stdDeviation="0.120126" result="effect1_foregroundBlur_99_3064"/>
</filter>
<filter id="filter18_f_99_3064" x="13.3634" y="-5.63516" width="27.5408" height="27.365" filterUnits="userSpaceOnUse" color-interpolation-filters="sRGB">
<feFlood flood-opacity="0" result="BackgroundImageFix"/>
<feBlend mode="normal" in="SourceGraphic" in2="BackgroundImageFix" result="shape"/>
<feGaussianBlur stdDeviation="2.64277" result="effect1_foregroundBlur_99_3064"/>
</filter>
<linearGradient id="paint0_linear_99_3064" x1="10.9343" y1="-10.972" x2="-23.9742" y2="19.1411" gradientUnits="userSpaceOnUse">
<stop stop-color="#F1F1F1"/>
<stop offset="1" stop-color="#FBFBFB"/>
</linearGradient>
<linearGradient id="paint1_linear_99_3064" x1="11.4876" y1="37.851" x2="23.4288" y2="37.851" gradientUnits="userSpaceOnUse">
<stop stop-color="#706A66"/>
<stop offset="0.0334243" stop-color="#948F90"/>
<stop offset="0.0715318" stop-color="#87878A"/>
<stop offset="0.182923" stop-color="#ADC0CA"/>
<stop offset="0.484864" stop-color="#698EAB"/>
<stop offset="0.700207" stop-color="#6B7782"/>
<stop offset="0.752403" stop-color="#68605B"/>
<stop offset="0.78057" stop-color="#928274"/>
<stop offset="0.837102" stop-color="#645545"/>
<stop offset="0.934194" stop-color="#4F4029"/>
<stop offset="0.964128" stop-color="#73695F"/>
<stop offset="1" stop-color="#51402B"/>
</linearGradient>
<linearGradient id="paint2_linear_99_3064" x1="11.6667" y1="32.9893" x2="11.6667" y2="36.9893" gradientUnits="userSpaceOnUse">
<stop stop-color="#B7CDDF"/>
<stop offset="0.424996" stop-color="#A7C4DA"/>
<stop offset="1" stop-color="#E2E8EF"/>
</linearGradient>
<linearGradient id="paint3_linear_99_3064" x1="23.4217" y1="32.9893" x2="11.6667" y2="32.9893" gradientUnits="userSpaceOnUse">
<stop stop-color="#968E87"/>
<stop offset="0.0976312" stop-color="#89B2DE"/>
<stop offset="0.569721" stop-color="white"/>
<stop offset="0.902816" stop-color="#C1E1FF"/>
<stop offset="1" stop-color="#79A3CA"/>
</linearGradient>
<linearGradient id="paint4_linear_99_3064" x1="16.6201" y1="34.6777" x2="16.6201" y2="36.5444" gradientUnits="userSpaceOnUse">
<stop stop-color="#82898F"/>
<stop offset="1" stop-color="white" stop-opacity="0.01"/>
</linearGradient>
<linearGradient id="paint5_linear_99_3064" x1="16.6403" y1="36.2703" x2="18.5204" y2="36.2703" gradientUnits="userSpaceOnUse">
<stop stop-color="#414141"/>
<stop offset="0.176214" stop-color="#C6D1DA"/>
<stop offset="0.346047" stop-color="#F5F8FD"/>
<stop offset="0.572491" stop-color="#A6B0B9"/>
<stop offset="0.692737" stop-color="#9BB3C8"/>
<stop offset="0.853174" stop-color="#83796B"/>
<stop offset="0.925456" stop-color="#969FA6"/>
<stop offset="1" stop-color="#4E6B89"/>
</linearGradient>
<linearGradient id="paint6_linear_99_3064" x1="17.068" y1="20.6403" x2="17.068" y2="22.9723" gradientUnits="userSpaceOnUse">
<stop stop-color="#0F1943" stop-opacity="0.533845"/>
<stop offset="1" stop-color="#000D5B" stop-opacity="0.01"/>
</linearGradient>
<linearGradient id="paint7_linear_99_3064" x1="29.934" y1="20.3112" x2="5.14136" y2="20.3112" gradientUnits="userSpaceOnUse">
<stop stop-color="#00558D"/>
<stop offset="0.943322" stop-color="#0071A1"/>
<stop offset="0.970911" stop-color="#1D8DB9"/>
<stop offset="1" stop-color="#0080AB"/>
</linearGradient>
<linearGradient id="paint8_linear_99_3064" x1="4.94952" y1="9.33301" x2="4.94952" y2="20.3552" gradientUnits="userSpaceOnUse">
<stop stop-color="#008EE5"/>
<stop offset="1" stop-color="#66D5FE"/>
</linearGradient>
<linearGradient id="paint9_linear_99_3064" x1="5.86151" y1="19.2715" x2="29.1948" y2="19.2715" gradientUnits="userSpaceOnUse">
<stop stop-color="#81E3FC"/>
<stop offset="0.615412" stop-color="#94E8FC"/>
<stop offset="1" stop-color="#7EE3FC"/>
</linearGradient>
<linearGradient id="paint10_linear_99_3064" x1="5.77307" y1="19.712" x2="29.2832" y2="19.712" gradientUnits="userSpaceOnUse">
<stop stop-color="#005990"/>
<stop offset="0.476946" stop-color="#0081AC"/>
<stop offset="1" stop-color="#00548C"/>
</linearGradient>
<linearGradient id="paint11_linear_99_3064" x1="25.3793" y1="3.54064" x2="19.3949" y2="10.2009" gradientUnits="userSpaceOnUse">
<stop stop-color="#EBEBEB"/>
<stop offset="1" stop-color="#FBFBFB"/>
</linearGradient>
</defs>
</svg>
