<svg width="52" height="53" viewBox="0 0 52 53" fill="none" xmlns="http://www.w3.org/2000/svg">
<g filter="url(#filter0_d_98_132)">
<g filter="url(#filter1_i_98_132)">
<path d="M49.9968 15.2396C49.994 14.7595 49.9885 14.2796 49.9751 13.7997C49.9469 12.7539 49.8855 11.6992 49.6995 10.665C49.5108 9.61594 49.2029 8.6396 48.7174 7.68638C48.2402 6.74955 47.6168 5.89224 46.873 5.149C46.1294 4.40576 45.2719 3.78281 44.3347 3.3059C43.3805 2.82037 42.4031 2.51245 41.3529 2.32388C40.3186 2.13817 39.2636 2.0766 38.2178 2.04835C37.7376 2.03536 37.2574 2.02988 36.7772 2.02691C36.207 2.02342 35.6368 2.02371 35.0666 2.02371L28.4464 2H23.495L16.9919 2.02371C16.4206 2.02371 15.8493 2.02342 15.2781 2.02691C14.7968 2.02988 14.3157 2.03536 13.8346 2.04835C12.7864 2.0766 11.729 2.13823 10.6922 2.32417C9.64063 2.51268 8.66175 2.82048 7.70632 3.30566C6.76709 3.78263 5.90772 4.40564 5.16256 5.149C4.41752 5.89218 3.793 6.74932 3.31492 7.68602C2.82817 8.63965 2.51955 9.61659 2.33046 10.6663C2.14429 11.7 2.0826 12.7544 2.05423 13.7997C2.0413 14.2796 2.03571 14.7596 2.0328 15.2396C2.0293 15.8095 2 16.5175 2 17.0873V23.5003V28.5048L2.02959 35.054C2.02959 35.6246 2.02936 36.1953 2.0328 36.7659C2.03571 37.2466 2.0413 37.7272 2.05429 38.2077C2.0826 39.2548 2.14441 40.3112 2.33075 41.3467C2.51978 42.3972 2.82834 43.3749 3.31469 44.3293C3.79282 45.2675 4.41746 46.1259 5.16256 46.8702C5.90766 47.6145 6.76682 48.2383 7.70586 48.716C8.66189 49.202 9.64118 49.5103 10.6935 49.6991C11.7297 49.8851 12.7868 49.9469 13.8346 49.9751C14.3157 49.988 14.7968 49.9935 15.2781 49.9968C15.8494 50 16.4206 50 16.9919 50H23.5538H28.5175H35.0666C35.6368 50 36.207 50 36.7772 49.9968C37.2574 49.9935 37.7376 49.988 38.2178 49.9751C39.264 49.9469 40.3194 49.8851 41.3541 49.6991C42.4037 49.5103 43.3807 49.202 44.3343 48.716C45.2717 48.2383 46.1294 47.6146 46.873 46.8702C47.6167 46.126 48.2402 45.2678 48.7174 44.3297C49.2029 43.3748 49.5108 42.3966 49.6995 41.3455C49.8855 40.3103 49.9469 39.2545 49.9755 38.2077C49.9885 37.7271 49.994 37.2465 49.9968 36.7659C50 36.1953 50 35.6246 50 35.054C50 35.054 50 28.6204 50 28.5048V23.495C50 23.4097 50 16.9491 50 16.9491C50 16.3793 50 15.8095 49.9968 15.2396Z" fill="url(#paint0_linear_98_132)"/>
</g>
<mask id="mask0_98_132" style="mask-type:alpha" maskUnits="userSpaceOnUse" x="2" y="2" width="48" height="48">
<path d="M49.9968 15.2396C49.994 14.7595 49.9885 14.2796 49.9751 13.7997C49.9469 12.7539 49.8855 11.6992 49.6995 10.665C49.5108 9.61594 49.2029 8.6396 48.7174 7.68638C48.2402 6.74955 47.6168 5.89224 46.873 5.149C46.1294 4.40576 45.2719 3.78281 44.3347 3.3059C43.3805 2.82037 42.4031 2.51245 41.3529 2.32388C40.3186 2.13817 39.2636 2.0766 38.2178 2.04835C37.7376 2.03536 37.2574 2.02988 36.7772 2.02691C36.207 2.02342 35.6368 2.02371 35.0666 2.02371L28.4464 2H23.495L16.9919 2.02371C16.4206 2.02371 15.8493 2.02342 15.2781 2.02691C14.7968 2.02988 14.3157 2.03536 13.8346 2.04835C12.7864 2.0766 11.729 2.13823 10.6922 2.32417C9.64063 2.51268 8.66175 2.82048 7.70632 3.30566C6.76709 3.78263 5.90772 4.40564 5.16256 5.149C4.41752 5.89218 3.793 6.74932 3.31492 7.68602C2.82817 8.63965 2.51955 9.61659 2.33046 10.6663C2.14429 11.7 2.0826 12.7544 2.05423 13.7997C2.0413 14.2796 2.03571 14.7596 2.0328 15.2396C2.0293 15.8095 2 16.5175 2 17.0873V23.5003V28.5048L2.02959 35.054C2.02959 35.6246 2.02936 36.1953 2.0328 36.7659C2.03571 37.2466 2.0413 37.7272 2.05429 38.2077C2.0826 39.2548 2.14441 40.3112 2.33075 41.3467C2.51978 42.3972 2.82834 43.3749 3.31469 44.3293C3.79282 45.2675 4.41746 46.1259 5.16256 46.8702C5.90766 47.6145 6.76682 48.2383 7.70586 48.716C8.66189 49.202 9.64118 49.5103 10.6935 49.6991C11.7297 49.8851 12.7868 49.9469 13.8346 49.9751C14.3157 49.988 14.7968 49.9935 15.2781 49.9968C15.8494 50 16.4206 50 16.9919 50H23.5538H28.5175H35.0666C35.6368 50 36.207 50 36.7772 49.9968C37.2574 49.9935 37.7376 49.988 38.2178 49.9751C39.264 49.9469 40.3194 49.8851 41.3541 49.6991C42.4037 49.5103 43.3807 49.202 44.3343 48.716C45.2717 48.2383 46.1294 47.6146 46.873 46.8702C47.6167 46.126 48.2402 45.2678 48.7174 44.3297C49.2029 43.3748 49.5108 42.3966 49.6995 41.3455C49.8855 40.3103 49.9469 39.2545 49.9755 38.2077C49.9885 37.7271 49.994 37.2465 49.9968 36.7659C50 36.1953 50 35.6246 50 35.054C50 35.054 50 28.6204 50 28.5048V23.495C50 23.4097 50 16.9491 50 16.9491C50 16.3793 50 15.8095 49.9968 15.2396Z" fill="white"/>
</mask>
<g mask="url(#mask0_98_132)">
<g filter="url(#filter2_f_98_132)">
<ellipse cx="25.6" cy="3.46589" rx="22.2667" ry="22.2667" fill="#18B6F2" fill-opacity="0.4"/>
</g>
</g>
<g filter="url(#filter3_d_98_132)">
<path fill-rule="evenodd" clip-rule="evenodd" d="M27.4737 29.5551C29.3631 29.6069 30.4957 30.4424 30.8713 32.0615C31.0168 32.6889 30.952 33.1745 30.8392 33.5446L30.8215 33.6007C30.8185 33.6098 30.8155 33.619 30.8124 33.628L30.7938 33.6813C30.7875 33.6988 30.7812 33.716 30.7748 33.7329L11.2 33.7328C10.0463 33.7328 9.11112 32.7976 9.11112 31.6439C9.11112 30.4903 10.0463 29.5551 11.2 29.5551H27.4737ZM41.0666 29.5547C42.2203 29.5547 43.1555 30.4899 43.1555 31.6436C43.1555 32.7972 42.2203 33.7325 41.0666 33.7325L33.8206 33.7325L31.4576 29.5547L41.0666 29.5547Z" fill="white"/>
<mask id="mask1_98_132" style="mask-type:alpha" maskUnits="userSpaceOnUse" x="9" y="29" width="35" height="5">
<path fill-rule="evenodd" clip-rule="evenodd" d="M27.4737 29.5551C29.3631 29.6069 30.4957 30.4424 30.8713 32.0615C31.0168 32.6889 30.952 33.1745 30.8392 33.5446L30.8215 33.6007C30.8185 33.6098 30.8155 33.619 30.8124 33.628L30.7938 33.6813C30.7875 33.6988 30.7812 33.716 30.7748 33.7329L11.2 33.7328C10.0463 33.7328 9.11112 32.7976 9.11112 31.6439C9.11112 30.4903 10.0463 29.5551 11.2 29.5551H27.4737ZM41.0666 29.5547C42.2203 29.5547 43.1555 30.4899 43.1555 31.6436C43.1555 32.7972 42.2203 33.7325 41.0666 33.7325L33.8206 33.7325L31.4576 29.5547L41.0666 29.5547Z" fill="white"/>
</mask>
<g mask="url(#mask1_98_132)">
<g filter="url(#filter4_ii_98_132)">
<rect x="43.6212" y="28.9219" width="4.88889" height="34.9333" rx="2.19646" transform="rotate(90 43.6212 28.9219)" fill="black" fill-opacity="0.01"/>
</g>
</g>
<path fill-rule="evenodd" clip-rule="evenodd" d="M29.2456 18.6865L40.0959 37.4799C40.6948 38.5172 40.3406 39.8435 39.3043 40.4441C38.2832 41.0359 36.9785 40.6973 36.3725 39.6897L36.3498 39.651L28.9046 26.6782L29.1337 27.0558L29.0661 26.9413L28.9643 26.7668L28.8668 26.5968L28.7736 26.4313L28.7138 26.3234L28.6559 26.2176L28.5999 26.1138L28.5458 26.0119L28.4936 25.9121L28.4433 25.8143L28.3949 25.7185L28.3484 25.6246C28.3408 25.6092 28.3333 25.5938 28.3259 25.5785L28.2822 25.4877L28.2404 25.3988C28.2336 25.3842 28.2269 25.3697 28.2202 25.3552L28.1813 25.2694L28.1443 25.1856L28.1092 25.1038C28.1035 25.0903 28.0978 25.0769 28.0923 25.0636L28.06 24.9848C28.0496 24.9589 28.0394 24.9333 28.0296 24.908L28.0011 24.8332L27.9745 24.7604L27.9498 24.6896C27.9459 24.678 27.942 24.6664 27.9382 24.655L27.9163 24.5872L27.8964 24.5214C27.871 24.435 27.8508 24.354 27.8355 24.2783L27.825 24.2225L27.8208 24.1973C27.6584 23.186 27.6528 21.8897 28.0032 20.8246C28.0992 20.5326 28.2107 20.2646 28.327 20.0242L28.3682 19.9405C28.4234 19.8304 28.4794 19.7266 28.5351 19.6293L28.5767 19.5576C28.5836 19.5459 28.5906 19.5343 28.5975 19.5227L28.6388 19.4548C28.6456 19.4437 28.6525 19.4327 28.6593 19.4218L28.7 19.3577L28.7401 19.2963L28.7796 19.2375L28.8184 19.1813L28.8563 19.1279L28.8933 19.0773L28.9292 19.0294L28.964 18.9843C28.9697 18.9771 28.9753 18.9699 28.9809 18.9629L29.0138 18.9221L29.0452 18.8843L29.0751 18.8494L29.1034 18.8175L29.1299 18.7886L29.1546 18.7628C29.1871 18.7296 29.2174 18.7042 29.2456 18.6865ZM25.2194 11.7127L26.121 13.2742L23.6545 17.53L21.4978 13.7721C20.9287 12.7805 21.2621 11.518 22.2407 10.9351L22.2847 10.9096L22.299 10.9016C23.3308 10.3307 24.6298 10.6915 25.2194 11.7127Z" fill="white"/>
<mask id="mask2_98_132" style="mask-type:alpha" maskUnits="userSpaceOnUse" x="21" y="10" width="20" height="31">
<path fill-rule="evenodd" clip-rule="evenodd" d="M29.2456 18.6865L40.0959 37.4799C40.6948 38.5172 40.3406 39.8435 39.3043 40.4441C38.2832 41.0359 36.9785 40.6973 36.3725 39.6897L36.3498 39.651L28.9046 26.6782L29.1337 27.0558L29.0661 26.9413L28.9643 26.7668L28.8668 26.5968L28.7736 26.4313L28.7138 26.3234L28.6559 26.2176L28.5999 26.1138L28.5458 26.0119L28.4936 25.9121L28.4433 25.8143L28.3949 25.7185L28.3484 25.6246C28.3408 25.6092 28.3333 25.5938 28.3259 25.5785L28.2822 25.4877L28.2404 25.3988C28.2336 25.3842 28.2269 25.3697 28.2202 25.3552L28.1813 25.2694L28.1443 25.1856L28.1092 25.1038C28.1035 25.0903 28.0978 25.0769 28.0923 25.0636L28.06 24.9848C28.0496 24.9589 28.0394 24.9333 28.0296 24.908L28.0011 24.8332L27.9745 24.7604L27.9498 24.6896C27.9459 24.678 27.942 24.6664 27.9382 24.655L27.9163 24.5872L27.8964 24.5214C27.871 24.435 27.8508 24.354 27.8355 24.2783L27.825 24.2225L27.8208 24.1973C27.6584 23.186 27.6528 21.8897 28.0032 20.8246C28.0992 20.5326 28.2107 20.2646 28.327 20.0242L28.3682 19.9405C28.4234 19.8304 28.4794 19.7266 28.5351 19.6293L28.5767 19.5576C28.5836 19.5459 28.5906 19.5343 28.5975 19.5227L28.6388 19.4548C28.6456 19.4437 28.6525 19.4327 28.6593 19.4218L28.7 19.3577L28.7401 19.2963L28.7796 19.2375L28.8184 19.1813L28.8563 19.1279L28.8933 19.0773L28.9292 19.0294L28.964 18.9843C28.9697 18.9771 28.9753 18.9699 28.9809 18.9629L29.0138 18.9221L29.0452 18.8843L29.0751 18.8494L29.1034 18.8175L29.1299 18.7886L29.1546 18.7628C29.1871 18.7296 29.2174 18.7042 29.2456 18.6865ZM25.2194 11.7127L26.121 13.2742L23.6545 17.53L21.4978 13.7721C20.9287 12.7805 21.2621 11.518 22.2407 10.9351L22.2847 10.9096L22.299 10.9016C23.3308 10.3307 24.6298 10.6915 25.2194 11.7127Z" fill="white"/>
</mask>
<g mask="url(#mask2_98_132)">
<g filter="url(#filter5_ii_98_132)">
<rect x="41.4189" y="39.3604" width="4.88889" height="34.9333" rx="2.19646" transform="rotate(150 41.4189 39.3604)" fill="black" fill-opacity="0.01"/>
</g>
</g>
<path fill-rule="evenodd" clip-rule="evenodd" d="M16.1587 34.8215C16.8127 34.998 17.3992 35.4154 17.9184 36.0737L15.9269 39.523C15.3376 40.5436 14.0451 40.9086 13.0108 40.3529L12.9748 40.3331C11.9623 39.768 11.5931 38.4962 12.1396 37.4785L12.164 37.4343L13.6279 34.8987C14.3956 34.5992 15.2392 34.5735 16.1587 34.8215ZM29.9922 10.8468L29.997 10.8495C31.0095 11.4145 31.3787 12.6863 30.8321 13.704L30.8077 13.7482L21.6816 29.5551H16.7128L27.0449 11.6596C27.6401 10.6286 28.9528 10.2667 29.9922 10.8468Z" fill="white"/>
<mask id="mask3_98_132" style="mask-type:alpha" maskUnits="userSpaceOnUse" x="11" y="10" width="21" height="31">
<path fill-rule="evenodd" clip-rule="evenodd" d="M16.1587 34.8215C16.8127 34.998 17.3992 35.4154 17.9184 36.0737L15.9269 39.523C15.3376 40.5436 14.0451 40.9086 13.0108 40.3529L12.9748 40.3331C11.9623 39.768 11.5931 38.4962 12.1396 37.4785L12.164 37.4343L13.6279 34.8987C14.3956 34.5992 15.2392 34.5735 16.1587 34.8215ZM29.9922 10.8468L29.997 10.8495C31.0095 11.4145 31.3787 12.6863 30.8321 13.704L30.8077 13.7482L21.6816 29.5551H16.7128L27.0449 11.6596C27.6401 10.6286 28.9528 10.2667 29.9922 10.8468Z" fill="white"/>
</mask>
<g mask="url(#mask3_98_132)">
<g filter="url(#filter6_ii_98_132)">
<rect x="28.1872" y="9.1123" width="4.88889" height="34.9333" rx="2.19646" transform="rotate(30 28.1872 9.1123)" fill="black" fill-opacity="0.01"/>
</g>
</g>
</g>
</g>
<defs>
<filter id="filter0_d_98_132" x="0.391667" y="0.838426" width="51.2167" height="51.2167" filterUnits="userSpaceOnUse" color-interpolation-filters="sRGB">
<feFlood flood-opacity="0" result="BackgroundImageFix"/>
<feColorMatrix in="SourceAlpha" type="matrix" values="0 0 0 0 0 0 0 0 0 0 0 0 0 0 0 0 0 0 127 0" result="hardAlpha"/>
<feOffset dy="0.446759"/>
<feGaussianBlur stdDeviation="0.804167"/>
<feColorMatrix type="matrix" values="0 0 0 0 0 0 0 0 0 0 0 0 0 0 0 0 0 0 0.4 0"/>
<feBlend mode="normal" in2="BackgroundImageFix" result="effect1_dropShadow_98_132"/>
<feBlend mode="normal" in="SourceGraphic" in2="effect1_dropShadow_98_132" result="shape"/>
</filter>
<filter id="filter1_i_98_132" x="2" y="0.391667" width="48" height="49.6083" filterUnits="userSpaceOnUse" color-interpolation-filters="sRGB">
<feFlood flood-opacity="0" result="BackgroundImageFix"/>
<feBlend mode="normal" in="SourceGraphic" in2="BackgroundImageFix" result="shape"/>
<feColorMatrix in="SourceAlpha" type="matrix" values="0 0 0 0 0 0 0 0 0 0 0 0 0 0 0 0 0 0 127 0" result="hardAlpha"/>
<feOffset dy="-1.60833"/>
<feGaussianBlur stdDeviation="2.94861"/>
<feComposite in2="hardAlpha" operator="arithmetic" k2="-1" k3="1"/>
<feColorMatrix type="matrix" values="0 0 0 0 0.0745098 0 0 0 0 0.356863 0 0 0 0 0.85098 0 0 0 1 0"/>
<feBlend mode="normal" in2="shape" result="effect1_innerShadow_98_132"/>
</filter>
<filter id="filter2_f_98_132" x="-8.81089" y="-30.945" width="68.8217" height="68.8216" filterUnits="userSpaceOnUse" color-interpolation-filters="sRGB">
<feFlood flood-opacity="0" result="BackgroundImageFix"/>
<feBlend mode="normal" in="SourceGraphic" in2="BackgroundImageFix" result="shape"/>
<feGaussianBlur stdDeviation="6.07209" result="effect1_foregroundBlur_98_132"/>
</filter>
<filter id="filter3_d_98_132" x="7.32409" y="9.58744" width="38.1546" height="34.2752" filterUnits="userSpaceOnUse" color-interpolation-filters="sRGB">
<feFlood flood-opacity="0" result="BackgroundImageFix"/>
<feColorMatrix in="SourceAlpha" type="matrix" values="0 0 0 0 0 0 0 0 0 0 0 0 0 0 0 0 0 0 127 0" result="hardAlpha"/>
<feOffset dx="0.268056" dy="1.07222"/>
<feGaussianBlur stdDeviation="1.02755"/>
<feColorMatrix type="matrix" values="0 0 0 0 0 0 0 0 0 0.00624873 0 0 0 0 0.111696 0 0 0 0.616778 0"/>
<feBlend mode="normal" in2="BackgroundImageFix" result="effect1_dropShadow_98_132"/>
<feBlend mode="normal" in="SourceGraphic" in2="effect1_dropShadow_98_132" result="shape"/>
</filter>
<filter id="filter4_ii_98_132" x="7.88368" y="28.8325" width="35.7375" height="4.97802" filterUnits="userSpaceOnUse" color-interpolation-filters="sRGB">
<feFlood flood-opacity="0" result="BackgroundImageFix"/>
<feBlend mode="normal" in="SourceGraphic" in2="BackgroundImageFix" result="shape"/>
<feColorMatrix in="SourceAlpha" type="matrix" values="0 0 0 0 0 0 0 0 0 0 0 0 0 0 0 0 0 0 127 0" result="hardAlpha"/>
<feOffset dx="-0.804167"/>
<feGaussianBlur stdDeviation="1.34028"/>
<feComposite in2="hardAlpha" operator="arithmetic" k2="-1" k3="1"/>
<feColorMatrix type="matrix" values="0 0 0 0 0.282043 0 0 0 0 0.498681 0 0 0 0 0.731884 0 0 0 0.87052 0"/>
<feBlend mode="normal" in2="shape" result="effect1_innerShadow_98_132"/>
<feColorMatrix in="SourceAlpha" type="matrix" values="0 0 0 0 0 0 0 0 0 0 0 0 0 0 0 0 0 0 127 0" result="hardAlpha"/>
<feOffset dx="-0.268056" dy="-0.0893518"/>
<feGaussianBlur stdDeviation="0.402083"/>
<feComposite in2="hardAlpha" operator="arithmetic" k2="-1" k3="1"/>
<feColorMatrix type="matrix" values="0 0 0 0 1 0 0 0 0 1 0 0 0 0 1 0 0 0 0.51751 0"/>
<feBlend mode="normal" in2="effect1_innerShadow_98_132" result="effect2_innerShadow_98_132"/>
</filter>
<filter id="filter5_ii_98_132" x="19.7177" y="9.82178" width="20.8976" height="31.1792" filterUnits="userSpaceOnUse" color-interpolation-filters="sRGB">
<feFlood flood-opacity="0" result="BackgroundImageFix"/>
<feBlend mode="normal" in="SourceGraphic" in2="BackgroundImageFix" result="shape"/>
<feColorMatrix in="SourceAlpha" type="matrix" values="0 0 0 0 0 0 0 0 0 0 0 0 0 0 0 0 0 0 127 0" result="hardAlpha"/>
<feOffset dx="-0.804167"/>
<feGaussianBlur stdDeviation="1.34028"/>
<feComposite in2="hardAlpha" operator="arithmetic" k2="-1" k3="1"/>
<feColorMatrix type="matrix" values="0 0 0 0 0.282043 0 0 0 0 0.498681 0 0 0 0 0.731884 0 0 0 0.87052 0"/>
<feBlend mode="normal" in2="shape" result="effect1_innerShadow_98_132"/>
<feColorMatrix in="SourceAlpha" type="matrix" values="0 0 0 0 0 0 0 0 0 0 0 0 0 0 0 0 0 0 127 0" result="hardAlpha"/>
<feOffset dx="-0.268056" dy="-0.0893518"/>
<feGaussianBlur stdDeviation="0.402083"/>
<feComposite in2="hardAlpha" operator="arithmetic" k2="-1" k3="1"/>
<feColorMatrix type="matrix" values="0 0 0 0 1 0 0 0 0 1 0 0 0 0 1 0 0 0 0.51751 0"/>
<feBlend mode="normal" in2="effect1_innerShadow_98_132" result="effect2_innerShadow_98_132"/>
</filter>
<filter id="filter6_ii_98_132" x="10.72" y="9.82666" width="20.8976" height="31.1792" filterUnits="userSpaceOnUse" color-interpolation-filters="sRGB">
<feFlood flood-opacity="0" result="BackgroundImageFix"/>
<feBlend mode="normal" in="SourceGraphic" in2="BackgroundImageFix" result="shape"/>
<feColorMatrix in="SourceAlpha" type="matrix" values="0 0 0 0 0 0 0 0 0 0 0 0 0 0 0 0 0 0 127 0" result="hardAlpha"/>
<feOffset dx="-0.804167"/>
<feGaussianBlur stdDeviation="1.34028"/>
<feComposite in2="hardAlpha" operator="arithmetic" k2="-1" k3="1"/>
<feColorMatrix type="matrix" values="0 0 0 0 0.282043 0 0 0 0 0.498681 0 0 0 0 0.731884 0 0 0 0.87052 0"/>
<feBlend mode="normal" in2="shape" result="effect1_innerShadow_98_132"/>
<feColorMatrix in="SourceAlpha" type="matrix" values="0 0 0 0 0 0 0 0 0 0 0 0 0 0 0 0 0 0 127 0" result="hardAlpha"/>
<feOffset dx="-0.268056" dy="-0.0893518"/>
<feGaussianBlur stdDeviation="0.402083"/>
<feComposite in2="hardAlpha" operator="arithmetic" k2="-1" k3="1"/>
<feColorMatrix type="matrix" values="0 0 0 0 1 0 0 0 0 1 0 0 0 0 1 0 0 0 0.51751 0"/>
<feBlend mode="normal" in2="effect1_innerShadow_98_132" result="effect2_innerShadow_98_132"/>
</filter>
<linearGradient id="paint0_linear_98_132" x1="2.37699" y1="2" x2="2.37699" y2="49.246" gradientUnits="userSpaceOnUse">
<stop stop-color="#18B6F2"/>
<stop offset="1" stop-color="#1869E3"/>
</linearGradient>
</defs>
</svg>
