<svg width="52" height="53" viewBox="0 0 52 53" fill="none" xmlns="http://www.w3.org/2000/svg">
<g clip-path="url(#clip0_98_773)" filter="url(#filter0_d_98_773)">
<path d="M49.9968 15.2396C49.994 14.7595 49.9885 14.2796 49.9751 13.7997C49.9469 12.7539 49.8855 11.6992 49.6995 10.665C49.5108 9.61594 49.2029 8.6396 48.7174 7.68638C48.2402 6.74955 47.6168 5.89224 46.873 5.149C46.1294 4.40576 45.2719 3.78281 44.3347 3.3059C43.3805 2.82037 42.4031 2.51245 41.3529 2.32388C40.3186 2.13817 39.2636 2.0766 38.2178 2.04835C37.7376 2.03536 37.2574 2.02988 36.7772 2.02691C36.207 2.02342 35.6368 2.02371 35.0666 2.02371L28.4464 2H23.495L16.9919 2.02371C16.4206 2.02371 15.8493 2.02342 15.2781 2.02691C14.7968 2.02988 14.3157 2.03536 13.8346 2.04835C12.7864 2.0766 11.729 2.13823 10.6922 2.32417C9.64063 2.51268 8.66175 2.82048 7.70632 3.30566C6.76709 3.78263 5.90772 4.40564 5.16256 5.149C4.41752 5.89218 3.793 6.74932 3.31492 7.68602C2.82817 8.63965 2.51955 9.61659 2.33046 10.6663C2.14429 11.7 2.0826 12.7544 2.05423 13.7997C2.0413 14.2796 2.03571 14.7596 2.0328 15.2396C2.0293 15.8095 2 16.5175 2 17.0873V23.5003V28.5048L2.02959 35.054C2.02959 35.6246 2.02936 36.1953 2.0328 36.7659C2.03571 37.2466 2.0413 37.7272 2.05429 38.2077C2.0826 39.2548 2.14441 40.3112 2.33075 41.3467C2.51978 42.3972 2.82834 43.3749 3.31469 44.3293C3.79282 45.2675 4.41746 46.1259 5.16256 46.8702C5.90766 47.6145 6.76682 48.2383 7.70586 48.716C8.66189 49.202 9.64118 49.5103 10.6935 49.6991C11.7297 49.8851 12.7868 49.9469 13.8346 49.9751C14.3157 49.988 14.7968 49.9935 15.2781 49.9968C15.8494 50 16.4206 50 16.9919 50H23.5538H28.5175H35.0666C35.6368 50 36.207 50 36.7772 49.9968C37.2574 49.9935 37.7376 49.988 38.2178 49.9751C39.264 49.9469 40.3194 49.8851 41.3541 49.6991C42.4037 49.5103 43.3807 49.202 44.3343 48.716C45.2717 48.2383 46.1294 47.6146 46.873 46.8702C47.6167 46.126 48.2402 45.2678 48.7174 44.3297C49.2029 43.3748 49.5108 42.3966 49.6995 41.3455C49.8855 40.3103 49.9469 39.2545 49.9755 38.2077C49.9885 37.7271 49.994 37.2465 49.9968 36.7659C50 36.1953 50 35.6246 50 35.054C50 35.054 50 28.6204 50 28.5048V23.495C50 23.4097 50 16.9491 50 16.9491C50 16.3793 50 15.8095 49.9968 15.2396Z" fill="url(#paint0_linear_98_773)"/>
<mask id="mask0_98_773" style="mask-type:alpha" maskUnits="userSpaceOnUse" x="2" y="2" width="48" height="48">
<path d="M49.9968 15.2396C49.994 14.7595 49.9885 14.2796 49.9751 13.7997C49.9469 12.7539 49.8855 11.6992 49.6995 10.665C49.5108 9.61594 49.2029 8.6396 48.7174 7.68638C48.2402 6.74955 47.6168 5.89224 46.873 5.149C46.1294 4.40576 45.2719 3.78281 44.3347 3.3059C43.3805 2.82037 42.4031 2.51245 41.3529 2.32388C40.3186 2.13817 39.2636 2.0766 38.2178 2.04835C37.7376 2.03536 37.2574 2.02988 36.7772 2.02691C36.207 2.02342 35.6368 2.02371 35.0666 2.02371L28.4464 2H23.495L16.9919 2.02371C16.4206 2.02371 15.8493 2.02342 15.2781 2.02691C14.7968 2.02988 14.3157 2.03536 13.8346 2.04835C12.7864 2.0766 11.729 2.13823 10.6922 2.32417C9.64063 2.51268 8.66175 2.82048 7.70632 3.30566C6.76709 3.78263 5.90772 4.40564 5.16256 5.149C4.41752 5.89218 3.793 6.74932 3.31492 7.68602C2.82817 8.63965 2.51955 9.61659 2.33046 10.6663C2.14429 11.7 2.0826 12.7544 2.05423 13.7997C2.0413 14.2796 2.03571 14.7596 2.0328 15.2396C2.0293 15.8095 2 16.5175 2 17.0873V23.5003V28.5048L2.02959 35.054C2.02959 35.6246 2.02936 36.1953 2.0328 36.7659C2.03571 37.2466 2.0413 37.7272 2.05429 38.2077C2.0826 39.2548 2.14441 40.3112 2.33075 41.3467C2.51978 42.3972 2.82834 43.3749 3.31469 44.3293C3.79282 45.2675 4.41746 46.1259 5.16256 46.8702C5.90766 47.6145 6.76682 48.2383 7.70586 48.716C8.66189 49.202 9.64118 49.5103 10.6935 49.6991C11.7297 49.8851 12.7868 49.9469 13.8346 49.9751C14.3157 49.988 14.7968 49.9935 15.2781 49.9968C15.8494 50 16.4206 50 16.9919 50H23.5538H28.5175H35.0666C35.6368 50 36.207 50 36.7772 49.9968C37.2574 49.9935 37.7376 49.988 38.2178 49.9751C39.264 49.9469 40.3194 49.8851 41.3541 49.6991C42.4037 49.5103 43.3807 49.202 44.3343 48.716C45.2717 48.2383 46.1294 47.6146 46.873 46.8702C47.6167 46.126 48.2402 45.2678 48.7174 44.3297C49.2029 43.3748 49.5108 42.3966 49.6995 41.3455C49.8855 40.3103 49.9469 39.2545 49.9755 38.2077C49.9885 37.7271 49.994 37.2465 49.9968 36.7659C50 36.1953 50 35.6246 50 35.054C50 35.054 50 28.6204 50 28.5048V23.495C50 23.4097 50 16.9491 50 16.9491C50 16.3793 50 15.8095 49.9968 15.2396Z" fill="white"/>
</mask>
<g mask="url(#mask0_98_773)">
<g filter="url(#filter1_d_98_773)">
<path fill-rule="evenodd" clip-rule="evenodd" d="M30.948 33.5001C30.4852 33.5822 30.0559 33.6232 29.6602 33.6232C28.324 33.6232 27.3647 33.3694 26.7824 32.8618C26.2075 32.3541 25.9201 31.5106 25.9201 30.3311V23.4443H24.1824V21.4175H25.9201V18.4053H28.3277V21.4175H30.7933V23.4443H28.3277V29.7152C28.3277 30.3497 28.4658 30.8163 28.742 31.1149C29.0182 31.4061 29.4549 31.5516 30.0522 31.5516C30.2761 31.5516 30.4858 31.533 30.8591 31.4956V33.5001H30.948ZM43.2706 21.3608L38.881 33.5554H36.2943L31.8935 21.3608H34.4691L37.5037 30.9798H37.6941L40.7175 21.3608H43.2706Z" fill="white"/>
</g>
<g filter="url(#filter2_d_98_773)">
<path fill-rule="evenodd" clip-rule="evenodd" d="M18.4113 19.0764C17.8224 19.7816 16.8335 20.3105 16.0446 20.3105C15.9557 20.3105 15.8668 20.2995 15.8113 20.2885C15.8002 20.2444 15.778 20.1122 15.778 19.98C15.778 19.0764 16.2335 18.1948 16.7335 17.6329C17.3668 16.8946 18.4224 16.3436 19.3002 16.3105C19.3224 16.4097 19.3335 16.5309 19.3335 16.6521C19.3335 17.5447 18.9446 18.4373 18.4113 19.0764ZM14.6854 33.2263C14.2944 33.3951 13.9239 33.555 13.4211 33.555C12.3458 33.555 11.5997 32.5626 10.7439 31.3496C9.74542 29.916 8.93347 27.6995 8.93347 25.6043C8.93347 22.23 11.1169 20.4436 13.2675 20.4436C13.8952 20.4436 14.4687 20.6749 14.9787 20.8806C15.3869 21.0452 15.7544 21.1934 16.0764 21.1934C16.3556 21.1934 16.7037 21.0552 17.1093 20.8941C17.6759 20.6691 18.3548 20.3995 19.1157 20.3995C19.5985 20.3995 21.365 20.4436 22.5281 22.1197C22.5214 22.1249 22.5072 22.1344 22.4865 22.1481C22.2003 22.338 20.6737 23.3508 20.6737 25.4279C20.6737 27.9973 22.9011 28.9125 22.9779 28.9346C22.9759 28.9395 22.9714 28.9537 22.9642 28.9761C22.891 29.2039 22.5419 30.2897 21.7929 31.3937C21.0578 32.4523 20.2788 33.533 19.1157 33.533C18.5425 33.533 18.1772 33.3704 17.8001 33.2025C17.3976 33.0234 16.9816 32.8382 16.2849 32.8382C15.5844 32.8382 15.1222 33.0378 14.6854 33.2263Z" fill="white"/>
</g>
</g>
</g>
<defs>
<filter id="filter0_d_98_773" x="0.398307" y="0.843222" width="51.2034" height="51.2034" filterUnits="userSpaceOnUse" color-interpolation-filters="sRGB">
<feFlood flood-opacity="0" result="BackgroundImageFix"/>
<feColorMatrix in="SourceAlpha" type="matrix" values="0 0 0 0 0 0 0 0 0 0 0 0 0 0 0 0 0 0 127 0" result="hardAlpha"/>
<feOffset dy="0.444915"/>
<feGaussianBlur stdDeviation="0.800846"/>
<feColorMatrix type="matrix" values="0 0 0 0 0 0 0 0 0 0 0 0 0 0 0 0 0 0 0.4 0"/>
<feBlend mode="normal" in2="BackgroundImageFix" result="effect1_dropShadow_98_773"/>
<feBlend mode="normal" in="SourceGraphic" in2="effect1_dropShadow_98_773" result="shape"/>
</filter>
<filter id="filter1_d_98_773" x="23.6485" y="17.9604" width="20.1561" height="16.2856" filterUnits="userSpaceOnUse" color-interpolation-filters="sRGB">
<feFlood flood-opacity="0" result="BackgroundImageFix"/>
<feColorMatrix in="SourceAlpha" type="matrix" values="0 0 0 0 0 0 0 0 0 0 0 0 0 0 0 0 0 0 127 0" result="hardAlpha"/>
<feOffset dy="0.0889829"/>
<feGaussianBlur stdDeviation="0.266949"/>
<feColorMatrix type="matrix" values="0 0 0 0 0 0 0 0 0 0 0 0 0 0 0 0 0 0 0.916466 0"/>
<feBlend mode="normal" in2="BackgroundImageFix" result="effect1_dropShadow_98_773"/>
<feBlend mode="normal" in="SourceGraphic" in2="effect1_dropShadow_98_773" result="shape"/>
</filter>
<filter id="filter2_d_98_773" x="8.39957" y="15.8656" width="15.1122" height="18.3119" filterUnits="userSpaceOnUse" color-interpolation-filters="sRGB">
<feFlood flood-opacity="0" result="BackgroundImageFix"/>
<feColorMatrix in="SourceAlpha" type="matrix" values="0 0 0 0 0 0 0 0 0 0 0 0 0 0 0 0 0 0 127 0" result="hardAlpha"/>
<feOffset dy="0.0889829"/>
<feGaussianBlur stdDeviation="0.266949"/>
<feColorMatrix type="matrix" values="0 0 0 0 0 0 0 0 0 0 0 0 0 0 0 0 0 0 0.916466 0"/>
<feBlend mode="normal" in2="BackgroundImageFix" result="effect1_dropShadow_98_773"/>
<feBlend mode="normal" in="SourceGraphic" in2="effect1_dropShadow_98_773" result="shape"/>
</filter>
<linearGradient id="paint0_linear_98_773" x1="49.9614" y1="49.9227" x2="49.9614" y2="2" gradientUnits="userSpaceOnUse">
<stop stop-color="#0F1315"/>
<stop offset="1" stop-color="#283732"/>
</linearGradient>
<clipPath id="clip0_98_773">
<rect width="48" height="48" fill="white" transform="translate(2 2)"/>
</clipPath>
</defs>
</svg>
