<svg width="52" height="53" viewBox="0 0 52 53" fill="none" xmlns="http://www.w3.org/2000/svg">
<g filter="url(#filter0_d_98_411)">
<path d="M49.9968 15.2396C49.994 14.7595 49.9885 14.2796 49.9751 13.7997C49.9469 12.7539 49.8855 11.6992 49.6995 10.665C49.5108 9.61594 49.2029 8.6396 48.7174 7.68638C48.2402 6.74955 47.6168 5.89224 46.873 5.149C46.1294 4.40576 45.2719 3.78281 44.3347 3.3059C43.3805 2.82037 42.4031 2.51245 41.3529 2.32388C40.3186 2.13817 39.2636 2.0766 38.2178 2.04835C37.7376 2.03536 37.2574 2.02988 36.7772 2.02691C36.207 2.02342 35.6368 2.02371 35.0666 2.02371L28.4464 2H23.495L16.9919 2.02371C16.4206 2.02371 15.8493 2.02342 15.2781 2.02691C14.7968 2.02988 14.3157 2.03536 13.8346 2.04835C12.7864 2.0766 11.729 2.13823 10.6922 2.32417C9.64063 2.51268 8.66175 2.82048 7.70632 3.30566C6.76709 3.78263 5.90772 4.40564 5.16256 5.149C4.41752 5.89218 3.793 6.74932 3.31492 7.68602C2.82817 8.63965 2.51955 9.61659 2.33046 10.6663C2.14429 11.7 2.0826 12.7544 2.05423 13.7997C2.0413 14.2796 2.03571 14.7596 2.0328 15.2396C2.0293 15.8095 2 16.5175 2 17.0873V23.5003V28.5048L2.02959 35.054C2.02959 35.6246 2.02936 36.1953 2.0328 36.7659C2.03571 37.2466 2.0413 37.7272 2.05429 38.2077C2.0826 39.2548 2.14441 40.3112 2.33075 41.3467C2.51978 42.3972 2.82834 43.3749 3.31469 44.3293C3.79282 45.2675 4.41746 46.1259 5.16256 46.8702C5.90766 47.6145 6.76682 48.2383 7.70586 48.716C8.66189 49.202 9.64118 49.5103 10.6935 49.6991C11.7297 49.8851 12.7868 49.9469 13.8346 49.9751C14.3157 49.988 14.7968 49.9935 15.2781 49.9968C15.8494 50 16.4206 50 16.9919 50H23.5538H28.5175H35.0666C35.6368 50 36.207 50 36.7772 49.9968C37.2574 49.9935 37.7376 49.988 38.2178 49.9751C39.264 49.9469 40.3194 49.8851 41.3541 49.6991C42.4037 49.5103 43.3807 49.202 44.3343 48.716C45.2717 48.2383 46.1294 47.6146 46.873 46.8702C47.6167 46.126 48.2402 45.2678 48.7174 44.3297C49.2029 43.3748 49.5108 42.3966 49.6995 41.3455C49.8855 40.3103 49.9469 39.2545 49.9755 38.2077C49.9885 37.7271 49.994 37.2465 49.9968 36.7659C50 36.1953 50 35.6246 50 35.054C50 35.054 50 28.6204 50 28.5048V23.495C50 23.4097 50 16.9491 50 16.9491C50 16.3793 50 15.8095 49.9968 15.2396Z" fill="url(#paint0_linear_98_411)"/>
<mask id="mask0_98_411" style="mask-type:alpha" maskUnits="userSpaceOnUse" x="2" y="2" width="48" height="48">
<path d="M49.9968 15.2396C49.994 14.7595 49.9885 14.2796 49.9751 13.7997C49.9469 12.7539 49.8855 11.6992 49.6995 10.665C49.5108 9.61594 49.2029 8.6396 48.7174 7.68638C48.2402 6.74955 47.6168 5.89224 46.873 5.149C46.1294 4.40576 45.2719 3.78281 44.3347 3.3059C43.3805 2.82037 42.4031 2.51245 41.3529 2.32388C40.3186 2.13817 39.2636 2.0766 38.2178 2.04835C37.7376 2.03536 37.2574 2.02988 36.7772 2.02691C36.207 2.02342 35.6368 2.02371 35.0666 2.02371L28.4464 2H23.495L16.9919 2.02371C16.4206 2.02371 15.8493 2.02342 15.2781 2.02691C14.7968 2.02988 14.3157 2.03536 13.8346 2.04835C12.7864 2.0766 11.729 2.13823 10.6922 2.32417C9.64063 2.51268 8.66175 2.82048 7.70632 3.30566C6.76709 3.78263 5.90772 4.40564 5.16256 5.149C4.41752 5.89218 3.793 6.74932 3.31492 7.68602C2.82817 8.63965 2.51955 9.61659 2.33046 10.6663C2.14429 11.7 2.0826 12.7544 2.05423 13.7997C2.0413 14.2796 2.03571 14.7596 2.0328 15.2396C2.0293 15.8095 2 16.5175 2 17.0873V23.5003V28.5048L2.02959 35.054C2.02959 35.6246 2.02936 36.1953 2.0328 36.7659C2.03571 37.2466 2.0413 37.7272 2.05429 38.2077C2.0826 39.2548 2.14441 40.3112 2.33075 41.3467C2.51978 42.3972 2.82834 43.3749 3.31469 44.3293C3.79282 45.2675 4.41746 46.1259 5.16256 46.8702C5.90766 47.6145 6.76682 48.2383 7.70586 48.716C8.66189 49.202 9.64118 49.5103 10.6935 49.6991C11.7297 49.8851 12.7868 49.9469 13.8346 49.9751C14.3157 49.988 14.7968 49.9935 15.2781 49.9968C15.8494 50 16.4206 50 16.9919 50H23.5538H28.5175H35.0666C35.6368 50 36.207 50 36.7772 49.9968C37.2574 49.9935 37.7376 49.988 38.2178 49.9751C39.264 49.9469 40.3194 49.8851 41.3541 49.6991C42.4037 49.5103 43.3807 49.202 44.3343 48.716C45.2717 48.2383 46.1294 47.6146 46.873 46.8702C47.6167 46.126 48.2402 45.2678 48.7174 44.3297C49.2029 43.3748 49.5108 42.3966 49.6995 41.3455C49.8855 40.3103 49.9469 39.2545 49.9755 38.2077C49.9885 37.7271 49.994 37.2465 49.9968 36.7659C50 36.1953 50 35.6246 50 35.054C50 35.054 50 28.6204 50 28.5048V23.495C50 23.4097 50 16.9491 50 16.9491C50 16.3793 50 15.8095 49.9968 15.2396Z" fill="white"/>
</mask>
<g mask="url(#mask0_98_411)">
<g filter="url(#filter1_di_98_411)">
<path fill-rule="evenodd" clip-rule="evenodd" d="M18.9559 12.0444C19.3913 12.0444 19.8095 12.2122 20.1238 12.5122L20.1521 12.5398L39.4601 31.8479C39.768 32.1558 39.945 32.5702 39.9551 33.0045L39.9556 33.0441V37.4181C39.9556 38.8054 38.8422 39.9327 37.4602 39.9551L37.4182 39.9555H33.0441C32.6087 39.9555 32.1906 39.7876 31.8763 39.4876L31.848 39.46L12.5399 20.152C12.232 19.844 12.0551 19.4297 12.0449 18.9953L12.0445 18.9558V14.5817C12.0445 13.1944 13.1579 12.0671 14.5399 12.0447L14.5818 12.0444H18.9559ZM12.0444 27.3752C12.0444 27.1474 12.3717 27.0692 12.4765 27.2716L12.5496 27.4119L12.6282 27.5609L12.7123 27.7181L12.8016 27.8832L12.8963 28.0557L12.9624 28.1747L13.0307 28.2967L13.1375 28.4852L13.2116 28.6143L13.2879 28.7461L13.3665 28.8804L13.4473 29.0171L13.5303 29.1561L13.6155 29.2973C13.6299 29.321 13.6443 29.3448 13.6589 29.3687L13.7474 29.5129C13.7623 29.5371 13.7773 29.5614 13.7924 29.5858L13.8841 29.7329C13.915 29.7822 13.9463 29.8318 13.9779 29.8817L14.0738 30.0322L14.1718 30.1841C14.1884 30.2096 14.205 30.2351 14.2216 30.2607L14.3228 30.4147C14.3398 30.4405 14.3569 30.4663 14.3741 30.4922L14.4783 30.648L14.5846 30.8049C14.674 30.9361 14.7655 31.0682 14.859 31.201L14.9722 31.3608L15.0874 31.521C15.8038 32.5109 16.6311 33.526 17.5523 34.4472C18.2992 35.1941 19.1078 35.8792 19.9147 36.4936L20.076 36.6156L20.2372 36.7356C20.5593 36.9737 20.8798 37.2004 21.1946 37.4149L21.3515 37.5211L21.5073 37.6253C21.5332 37.6425 21.559 37.6597 21.5848 37.6767L21.7388 37.7778L21.8915 37.8769L22.0427 37.9739L22.1924 38.0687C22.2172 38.0844 22.2419 38.0999 22.2666 38.1154L22.4137 38.2071L22.5589 38.2966C22.583 38.3113 22.6069 38.326 22.6308 38.3406L22.773 38.4268L22.9132 38.5109L23.051 38.5928L23.1865 38.6725L23.3196 38.75L23.45 38.8252L23.6406 38.9337L23.7641 39.0032L23.8846 39.0704L24.0596 39.1668L24.2272 39.258L24.4385 39.3712L24.5875 39.4498L24.6821 39.4992C24.6975 39.5072 24.7128 39.5152 24.7279 39.523C24.9259 39.6255 24.8553 39.9412 24.6386 39.9546L24.6243 39.955H14.5865C13.1966 39.955 12.0672 38.8395 12.0448 37.455L12.0444 37.4129V27.3752ZM37.4135 12.0439C38.8174 12.0439 39.9556 13.1821 39.9556 14.586V24.6238C39.9556 24.8516 39.6283 24.9297 39.5235 24.7274L39.4504 24.587L39.3718 24.438L39.2877 24.2808L39.1984 24.1158L39.1037 23.9432L39.0038 23.7636L38.9343 23.6401L38.8257 23.4495L38.7505 23.3191L38.6731 23.186L38.5934 23.0505L38.5115 22.9127L38.4274 22.7725L38.3411 22.6303L38.2526 22.486L38.162 22.3398C38.1468 22.3153 38.1314 22.2907 38.1159 22.2661L38.0221 22.1172C38.0063 22.0923 37.9904 22.0673 37.9744 22.0422L37.8774 21.891L37.7784 21.7383C37.7617 21.7127 37.7449 21.6871 37.7281 21.6614L37.6259 21.5068L37.5217 21.3509L37.4154 21.1941L37.3072 21.0362L37.1969 20.8775C37.0485 20.6654 36.8949 20.4514 36.7361 20.2367L36.6161 20.0755C35.9709 19.2154 35.2444 18.3485 34.4477 17.5518C33.7008 16.8049 32.8922 16.1197 32.0853 15.5053L31.924 15.3834L31.7628 15.2634C31.4407 15.0252 31.1202 14.7986 30.8054 14.5841L30.6486 14.4778L30.4927 14.3736C30.4668 14.3564 30.441 14.3393 30.4152 14.3223L30.2612 14.2211L30.1085 14.1221L29.9573 14.0251L29.8076 13.9302C29.7828 13.9146 29.7581 13.899 29.7334 13.8836L29.5863 13.7919L29.4411 13.7024C29.4171 13.6876 29.3931 13.673 29.3692 13.6584L29.227 13.5721L29.0868 13.488L28.949 13.4061L28.8135 13.3264L28.6804 13.249L28.55 13.1738L28.3594 13.0652L28.2359 12.9957L28.1154 12.9286L27.9404 12.8321L27.7729 12.741L27.5615 12.6277L27.4125 12.5491L27.3179 12.4997C27.3025 12.4917 27.2872 12.4838 27.2721 12.476C27.0698 12.3712 27.1479 12.0439 27.3757 12.0439H37.4135Z" fill="#FF3E60"/>
</g>
</g>
</g>
<defs>
<filter id="filter0_d_98_411" x="0.4" y="0.844445" width="51.2" height="51.2" filterUnits="userSpaceOnUse" color-interpolation-filters="sRGB">
<feFlood flood-opacity="0" result="BackgroundImageFix"/>
<feColorMatrix in="SourceAlpha" type="matrix" values="0 0 0 0 0 0 0 0 0 0 0 0 0 0 0 0 0 0 127 0" result="hardAlpha"/>
<feOffset dy="0.444444"/>
<feGaussianBlur stdDeviation="0.8"/>
<feColorMatrix type="matrix" values="0 0 0 0 0 0 0 0 0 0 0 0 0 0 0 0 0 0 0.4 0"/>
<feBlend mode="normal" in2="BackgroundImageFix" result="effect1_dropShadow_98_411"/>
<feBlend mode="normal" in="SourceGraphic" in2="effect1_dropShadow_98_411" result="shape"/>
</filter>
<filter id="filter1_di_98_411" x="11.6" y="12.0439" width="28.8" height="28.8" filterUnits="userSpaceOnUse" color-interpolation-filters="sRGB">
<feFlood flood-opacity="0" result="BackgroundImageFix"/>
<feColorMatrix in="SourceAlpha" type="matrix" values="0 0 0 0 0 0 0 0 0 0 0 0 0 0 0 0 0 0 127 0" result="hardAlpha"/>
<feOffset dy="0.444444"/>
<feGaussianBlur stdDeviation="0.222222"/>
<feColorMatrix type="matrix" values="0 0 0 0 1 0 0 0 0 1 0 0 0 0 1 0 0 0 1 0"/>
<feBlend mode="normal" in2="BackgroundImageFix" result="effect1_dropShadow_98_411"/>
<feBlend mode="normal" in="SourceGraphic" in2="effect1_dropShadow_98_411" result="shape"/>
<feColorMatrix in="SourceAlpha" type="matrix" values="0 0 0 0 0 0 0 0 0 0 0 0 0 0 0 0 0 0 127 0" result="hardAlpha"/>
<feOffset dy="0.533333"/>
<feGaussianBlur stdDeviation="0.533333"/>
<feComposite in2="hardAlpha" operator="arithmetic" k2="-1" k3="1"/>
<feColorMatrix type="matrix" values="0 0 0 0 0.174762 0 0 0 0 0 0 0 0 0 0 0 0 0 0.4 0"/>
<feBlend mode="normal" in2="shape" result="effect2_innerShadow_98_411"/>
</filter>
<linearGradient id="paint0_linear_98_411" x1="49.9614" y1="49.9227" x2="49.9614" y2="2" gradientUnits="userSpaceOnUse">
<stop stop-color="#F3F1F0"/>
<stop offset="1" stop-color="white"/>
</linearGradient>
</defs>
</svg>
