<svg width="52" height="53" viewBox="0 0 52 53" fill="none" xmlns="http://www.w3.org/2000/svg">
<g filter="url(#filter0_d_98_163)">
<g opacity="0.847121">
<path d="M49.9968 15.2396C49.994 14.7595 49.9885 14.2796 49.9751 13.7997C49.9469 12.7539 49.8855 11.6992 49.6995 10.665C49.5108 9.61594 49.2029 8.6396 48.7174 7.68638C48.2402 6.74955 47.6168 5.89224 46.873 5.149C46.1294 4.40576 45.2719 3.78281 44.3347 3.3059C43.3805 2.82037 42.4031 2.51245 41.3529 2.32388C40.3186 2.13817 39.2636 2.0766 38.2178 2.04835C37.7376 2.03536 37.2574 2.02988 36.7772 2.02691C36.207 2.02342 35.6368 2.02371 35.0666 2.02371L28.4464 2H23.495L16.9919 2.02371C16.4206 2.02371 15.8493 2.02342 15.2781 2.02691C14.7968 2.02988 14.3157 2.03536 13.8346 2.04835C12.7864 2.0766 11.729 2.13823 10.6922 2.32417C9.64063 2.51268 8.66175 2.82048 7.70632 3.30566C6.76709 3.78263 5.90772 4.40564 5.16256 5.149C4.41752 5.89218 3.793 6.74932 3.31492 7.68602C2.82817 8.63965 2.51955 9.61659 2.33046 10.6663C2.14429 11.7 2.0826 12.7544 2.05423 13.7997C2.0413 14.2796 2.03571 14.7596 2.0328 15.2396C2.0293 15.8095 2 16.5175 2 17.0873V23.5003V28.5048L2.02959 35.054C2.02959 35.6246 2.02936 36.1953 2.0328 36.7659C2.03571 37.2466 2.0413 37.7272 2.05429 38.2077C2.0826 39.2548 2.14441 40.3112 2.33075 41.3467C2.51978 42.3972 2.82834 43.3749 3.31469 44.3293C3.79282 45.2675 4.41746 46.1259 5.16256 46.8702C5.90766 47.6145 6.76682 48.2383 7.70586 48.716C8.66189 49.202 9.64118 49.5103 10.6935 49.6991C11.7297 49.8851 12.7868 49.9469 13.8346 49.9751C14.3157 49.988 14.7968 49.9935 15.2781 49.9968C15.8494 50 16.4206 50 16.9919 50H23.5538H28.5175H35.0666C35.6368 50 36.207 50 36.7772 49.9968C37.2574 49.9935 37.7376 49.988 38.2178 49.9751C39.264 49.9469 40.3194 49.8851 41.3541 49.6991C42.4037 49.5103 43.3807 49.202 44.3343 48.716C45.2717 48.2383 46.1294 47.6146 46.873 46.8702C47.6167 46.126 48.2402 45.2678 48.7174 44.3297C49.2029 43.3748 49.5108 42.3966 49.6995 41.3455C49.8855 40.3103 49.9469 39.2545 49.9755 38.2077C49.9885 37.7271 49.994 37.2465 49.9968 36.7659C50 36.1953 50 35.6246 50 35.054C50 35.054 50 28.6204 50 28.5048V23.495C50 23.4097 50 16.9491 50 16.9491C50 16.3793 50 15.8095 49.9968 15.2396Z" fill="#F2F1EA" style="mix-blend-mode:overlay"/>
</g>
<mask id="mask0_98_163" style="mask-type:alpha" maskUnits="userSpaceOnUse" x="2" y="2" width="48" height="48">
<path d="M49.9968 15.2396C49.994 14.7595 49.9885 14.2796 49.9751 13.7997C49.9469 12.7539 49.8855 11.6992 49.6995 10.665C49.5108 9.61594 49.2029 8.6396 48.7174 7.68638C48.2402 6.74955 47.6168 5.89224 46.873 5.149C46.1294 4.40576 45.2719 3.78281 44.3347 3.3059C43.3805 2.82037 42.4031 2.51245 41.3529 2.32388C40.3186 2.13817 39.2636 2.0766 38.2178 2.04835C37.7376 2.03536 37.2574 2.02988 36.7772 2.02691C36.207 2.02342 35.6368 2.02371 35.0666 2.02371L28.4464 2H23.495L16.9919 2.02371C16.4206 2.02371 15.8493 2.02342 15.2781 2.02691C14.7968 2.02988 14.3157 2.03536 13.8346 2.04835C12.7864 2.0766 11.729 2.13823 10.6922 2.32417C9.64063 2.51268 8.66175 2.82048 7.70632 3.30566C6.76709 3.78263 5.90772 4.40564 5.16256 5.149C4.41752 5.89218 3.793 6.74932 3.31492 7.68602C2.82817 8.63965 2.51955 9.61659 2.33046 10.6663C2.14429 11.7 2.0826 12.7544 2.05423 13.7997C2.0413 14.2796 2.03571 14.7596 2.0328 15.2396C2.0293 15.8095 2 16.5175 2 17.0873V23.5003V28.5048L2.02959 35.054C2.02959 35.6246 2.02936 36.1953 2.0328 36.7659C2.03571 37.2466 2.0413 37.7272 2.05429 38.2077C2.0826 39.2548 2.14441 40.3112 2.33075 41.3467C2.51978 42.3972 2.82834 43.3749 3.31469 44.3293C3.79282 45.2675 4.41746 46.1259 5.16256 46.8702C5.90766 47.6145 6.76682 48.2383 7.70586 48.716C8.66189 49.202 9.64118 49.5103 10.6935 49.6991C11.7297 49.8851 12.7868 49.9469 13.8346 49.9751C14.3157 49.988 14.7968 49.9935 15.2781 49.9968C15.8494 50 16.4206 50 16.9919 50H23.5538H28.5175H35.0666C35.6368 50 36.207 50 36.7772 49.9968C37.2574 49.9935 37.7376 49.988 38.2178 49.9751C39.264 49.9469 40.3194 49.8851 41.3541 49.6991C42.4037 49.5103 43.3807 49.202 44.3343 48.716C45.2717 48.2383 46.1294 47.6146 46.873 46.8702C47.6167 46.126 48.2402 45.2678 48.7174 44.3297C49.2029 43.3748 49.5108 42.3966 49.6995 41.3455C49.8855 40.3103 49.9469 39.2545 49.9755 38.2077C49.9885 37.7271 49.994 37.2465 49.9968 36.7659C50 36.1953 50 35.6246 50 35.054C50 35.054 50 28.6204 50 28.5048V23.495C50 23.4097 50 16.9491 50 16.9491C50 16.3793 50 15.8095 49.9968 15.2396Z" fill="white"/>
<path d="M49.9968 15.2396C49.994 14.7595 49.9885 14.2796 49.9751 13.7997C49.9469 12.7539 49.8855 11.6992 49.6995 10.665C49.5108 9.61594 49.2029 8.6396 48.7174 7.68638C48.2402 6.74955 47.6168 5.89224 46.873 5.149C46.1294 4.40576 45.2719 3.78281 44.3347 3.3059C43.3805 2.82037 42.4031 2.51245 41.3529 2.32388C40.3186 2.13817 39.2636 2.0766 38.2178 2.04835C37.7376 2.03536 37.2574 2.02988 36.7772 2.02691C36.207 2.02342 35.6368 2.02371 35.0666 2.02371L28.4464 2H23.495L16.9919 2.02371C16.4206 2.02371 15.8493 2.02342 15.2781 2.02691C14.7968 2.02988 14.3157 2.03536 13.8346 2.04835C12.7864 2.0766 11.729 2.13823 10.6922 2.32417C9.64063 2.51268 8.66175 2.82048 7.70632 3.30566C6.76709 3.78263 5.90772 4.40564 5.16256 5.149C4.41752 5.89218 3.793 6.74932 3.31492 7.68602C2.82817 8.63965 2.51955 9.61659 2.33046 10.6663C2.14429 11.7 2.0826 12.7544 2.05423 13.7997C2.0413 14.2796 2.03571 14.7596 2.0328 15.2396C2.0293 15.8095 2 16.5175 2 17.0873V23.5003V28.5048L2.02959 35.054C2.02959 35.6246 2.02936 36.1953 2.0328 36.7659C2.03571 37.2466 2.0413 37.7272 2.05429 38.2077C2.0826 39.2548 2.14441 40.3112 2.33075 41.3467C2.51978 42.3972 2.82834 43.3749 3.31469 44.3293C3.79282 45.2675 4.41746 46.1259 5.16256 46.8702C5.90766 47.6145 6.76682 48.2383 7.70586 48.716C8.66189 49.202 9.64118 49.5103 10.6935 49.6991C11.7297 49.8851 12.7868 49.9469 13.8346 49.9751C14.3157 49.988 14.7968 49.9935 15.2781 49.9968C15.8494 50 16.4206 50 16.9919 50H23.5538H28.5175H35.0666C35.6368 50 36.207 50 36.7772 49.9968C37.2574 49.9935 37.7376 49.988 38.2178 49.9751C39.264 49.9469 40.3194 49.8851 41.3541 49.6991C42.4037 49.5103 43.3807 49.202 44.3343 48.716C45.2717 48.2383 46.1294 47.6146 46.873 46.8702C47.6167 46.126 48.2402 45.2678 48.7174 44.3297C49.2029 43.3748 49.5108 42.3966 49.6995 41.3455C49.8855 40.3103 49.9469 39.2545 49.9755 38.2077C49.9885 37.7271 49.994 37.2465 49.9968 36.7659C50 36.1953 50 35.6246 50 35.054C50 35.054 50 28.6204 50 28.5048V23.495C50 23.4097 50 16.9491 50 16.9491C50 16.3793 50 15.8095 49.9968 15.2396Z" stroke="white"/>
</mask>
<g mask="url(#mask0_98_163)">
<path fill-rule="evenodd" clip-rule="evenodd" d="M18.3308 2L18.4215 20.8444L50 43.6076V2H18.3308Z" fill="url(#paint0_linear_98_163)"/>
<path fill-rule="evenodd" clip-rule="evenodd" d="M10.2864 49.9998V17.5321L0.319305 11.0781V49.9998H10.2864Z" fill="#FFCBD4"/>
<path fill-rule="evenodd" clip-rule="evenodd" d="M2 8.09752L13.5363 15.8115V2.5332L2 2.5332V8.09752Z" fill="#F1F0ED"/>
<g filter="url(#filter1_d_98_163)">
<path fill-rule="evenodd" clip-rule="evenodd" d="M0.319298 6.69141L52.0167 42.9173L44.0986 51.8429L-0.551559 20.7126L0.319298 6.69141Z" fill="url(#paint1_linear_98_163)"/>
<path d="M-0.0924866 20.4909L0.713726 7.51049L51.3534 42.9952L44.0285 51.2522L-0.0924866 20.4909Z" stroke="#FFB01A" stroke-width="0.888889"/>
</g>
<g filter="url(#filter2_d_98_163)">
<path fill-rule="evenodd" clip-rule="evenodd" d="M18.9975 -5.28906V54.7998H8.95305L8.95305 -5.28906L18.9975 -5.28906Z" fill="white"/>
<path d="M19.4419 -5.28906V-5.73351H18.9975H8.95305H8.5086V-5.28906V54.7998V55.2443H8.95305H18.9975H19.4419V54.7998V-5.28906Z" stroke="black" stroke-opacity="0.676819" stroke-width="0.888889" style="mix-blend-mode:overlay"/>
</g>
<path d="M16.6419 -5.73331V24.7556H11.3086V-5.73331H16.6419Z" fill="url(#paint2_linear_98_163)" stroke="url(#paint3_linear_98_163)" stroke-width="0.711111"/>
<g filter="url(#filter3_dii_98_163)">
<circle cx="13.8864" cy="30.5773" r="8.62222" fill="url(#paint4_linear_98_163)"/>
</g>
<g filter="url(#filter4_i_98_163)">
<circle cx="13.9308" cy="30.6223" r="5.06667" fill="#007EEE"/>
</g>
<g filter="url(#filter5_d_98_163)">
<mask id="path-13-outside-1_98_163" maskUnits="userSpaceOnUse" x="22.8667" y="-23.1777" width="52" height="52" fill="black">
<rect fill="white" x="22.8667" y="-23.1777" width="52" height="52"/>
<path fill-rule="evenodd" clip-rule="evenodd" d="M48.8889 -22.1777C62.7083 -22.1777 73.9111 -10.9749 73.9111 2.84449C73.9111 16.6639 62.7083 27.8667 48.8889 27.8667C35.0695 27.8667 23.8667 16.6639 23.8667 2.84449C23.8667 -10.9749 35.0695 -22.1777 48.8889 -22.1777ZM48.8889 -11.689C40.8624 -11.689 34.3556 -5.18219 34.3556 2.84435C34.3556 10.8709 40.8624 17.3777 48.8889 17.3777C56.9154 17.3777 63.4222 10.8709 63.4222 2.84435C63.4222 -5.18219 56.9154 -11.689 48.8889 -11.689Z"/>
</mask>
<path fill-rule="evenodd" clip-rule="evenodd" d="M48.8889 -22.1777C62.7083 -22.1777 73.9111 -10.9749 73.9111 2.84449C73.9111 16.6639 62.7083 27.8667 48.8889 27.8667C35.0695 27.8667 23.8667 16.6639 23.8667 2.84449C23.8667 -10.9749 35.0695 -22.1777 48.8889 -22.1777ZM48.8889 -11.689C40.8624 -11.689 34.3556 -5.18219 34.3556 2.84435C34.3556 10.8709 40.8624 17.3777 48.8889 17.3777C56.9154 17.3777 63.4222 10.8709 63.4222 2.84435C63.4222 -5.18219 56.9154 -11.689 48.8889 -11.689Z" fill="#F2F1EB"/>
<path d="M48.8889 -21.4666C62.3155 -21.4666 73.2 -10.5822 73.2 2.84449H74.6222C74.6222 -11.3676 63.101 -22.8888 48.8889 -22.8888V-21.4666ZM73.2 2.84449C73.2 16.2711 62.3155 27.1556 48.8889 27.1556V28.5778C63.101 28.5778 74.6222 17.0566 74.6222 2.84449H73.2ZM48.8889 27.1556C35.4622 27.1556 24.5778 16.2711 24.5778 2.84449H23.1556C23.1556 17.0566 34.6768 28.5778 48.8889 28.5778V27.1556ZM24.5778 2.84449C24.5778 -10.5822 35.4622 -21.4666 48.8889 -21.4666V-22.8888C34.6768 -22.8888 23.1556 -11.3676 23.1556 2.84449H24.5778ZM48.8889 -12.4001C40.4696 -12.4001 33.6445 -5.57493 33.6445 2.84435H35.0667C35.0667 -4.78946 41.2551 -10.9779 48.8889 -10.9779V-12.4001ZM33.6445 2.84435C33.6445 11.2636 40.4696 18.0888 48.8889 18.0888V16.6666C41.2551 16.6666 35.0667 10.4781 35.0667 2.84435H33.6445ZM48.8889 18.0888C57.3082 18.0888 64.1333 11.2636 64.1333 2.84435H62.7111C62.7111 10.4781 56.5227 16.6666 48.8889 16.6666V18.0888ZM64.1333 2.84435C64.1333 -5.57493 57.3082 -12.4001 48.8889 -12.4001V-10.9779C56.5227 -10.9779 62.7111 -4.78946 62.7111 2.84435H64.1333Z" fill="white" fill-opacity="0.660976" mask="url(#path-13-outside-1_98_163)"/>
</g>
<g filter="url(#filter6_d_98_163)">
<path fill-rule="evenodd" clip-rule="evenodd" d="M37.9107 32.3105C39.046 33.1599 40.4603 33.6637 41.9935 33.6637C43.3409 33.6637 44.5965 33.2746 45.6516 32.6038C46.7661 34.1394 47.4222 36.0226 47.4222 38.0574C47.4222 43.2291 43.1839 47.4216 37.9556 47.4216C32.7273 47.4216 28.4889 43.2291 28.4889 38.0574C28.4889 36.0397 29.134 34.1711 30.2313 32.6423C31.2735 33.2895 32.5065 33.6637 33.8279 33.6637C35.3611 33.6637 36.7753 33.16 37.9107 32.3105Z" fill="#1E6BD4"/>
</g>
<path fill-rule="evenodd" clip-rule="evenodd" d="M29.4667 36.5781H46.0889V37.2892H29.4667V36.5781Z" fill="white"/>
<path fill-rule="evenodd" clip-rule="evenodd" d="M30 36.5779H45.8222L45.2762 34.3407L37.9111 33.6445L30.665 34.5066L30 36.5779Z" fill="#E31E23"/>
<path d="M33.8279 34.4637C35.3298 34.4637 36.7318 34.0301 37.9107 33.2818C39.0895 34.0301 40.4915 34.4637 41.9935 34.4637C43.2162 34.4637 44.3731 34.1763 45.3972 33.6653C46.1755 34.9495 46.6222 36.4512 46.6222 38.0574C46.6222 42.7791 42.7503 46.6216 37.9556 46.6216C33.1609 46.6216 29.2889 42.7791 29.2889 38.0574C29.2889 36.4654 29.7278 34.9761 30.4932 33.6993C31.5002 34.189 32.6326 34.4637 33.8279 34.4637Z" stroke="white" stroke-width="1.6"/>
<path d="M33.8279 34.4637C35.3298 34.4637 36.7318 34.0301 37.9107 33.2818C39.0895 34.0301 40.4915 34.4637 41.9935 34.4637C43.2162 34.4637 44.3731 34.1763 45.3972 33.6653C46.1755 34.9495 46.6222 36.4512 46.6222 38.0574C46.6222 42.7791 42.7503 46.6216 37.9556 46.6216C33.1609 46.6216 29.2889 42.7791 29.2889 38.0574C29.2889 36.4654 29.7278 34.9761 30.4932 33.6993C31.5002 34.189 32.6326 34.4637 33.8279 34.4637Z" stroke="#007ADB" stroke-width="1.6"/>
<g filter="url(#filter7_i_98_163)">
<path fill-rule="evenodd" clip-rule="evenodd" d="M37.9107 32.3105C39.046 33.1599 40.4603 33.6637 41.9935 33.6637C43.3409 33.6637 44.5965 33.2746 45.6516 32.6038C46.7661 34.1394 47.4222 36.0226 47.4222 38.0574C47.4222 43.2291 43.1839 47.4216 37.9556 47.4216C32.7273 47.4216 28.4889 43.2291 28.4889 38.0574C28.4889 36.0397 29.134 34.1711 30.2313 32.6423C31.2735 33.2895 32.5065 33.6637 33.8279 33.6637C35.3611 33.6637 36.7753 33.16 37.9107 32.3105Z" fill="black" fill-opacity="0.01"/>
</g>
<path fill-rule="evenodd" clip-rule="evenodd" d="M35.9096 42.1135V42.7998H33.0632V42.2229L34.3511 40.9623C34.6281 40.6925 34.8132 40.4893 34.9061 40.3525C34.9991 40.2195 35.0456 40.0882 35.0456 39.9588C35.0456 39.8002 34.9882 39.6699 34.8733 39.5678C34.7567 39.4675 34.6081 39.4174 34.4276 39.4174C34.2362 39.4174 34.0813 39.4748 33.9628 39.5896C33.8425 39.7027 33.7823 39.8503 33.7823 40.0326V40.049H33.0167V40.0354C33.0167 39.6544 33.1498 39.3454 33.4159 39.1084C33.682 38.8714 34.0284 38.7529 34.455 38.7529C34.8669 38.7529 35.2024 38.8596 35.4612 39.0729C35.7219 39.288 35.8522 39.565 35.8522 39.9041C35.8522 40.1192 35.7848 40.3325 35.6499 40.5439C35.515 40.7572 35.2771 41.0243 34.9362 41.3451L34.1815 42.0643V42.1135H35.9096ZM39.2401 42.5784C38.9448 42.7935 38.5602 42.901 38.0862 42.901C37.6123 42.901 37.2285 42.7944 36.935 42.5811C36.6416 42.3678 36.4948 42.0898 36.4948 41.7471C36.4948 41.4992 36.5741 41.2841 36.7327 41.1018C36.8895 40.9177 37.1 40.7965 37.3643 40.7381V40.6889C37.1492 40.6397 36.977 40.5367 36.8475 40.3799C36.7181 40.2232 36.6534 40.04 36.6534 39.8303C36.6534 39.515 36.7874 39.257 37.0554 39.0565C37.3251 38.8541 37.6697 38.753 38.0889 38.753C38.5064 38.753 38.85 38.8541 39.1198 39.0565C39.3878 39.257 39.5218 39.515 39.5218 39.8303C39.5218 40.04 39.457 40.2232 39.3276 40.3799C39.2 40.5349 39.0277 40.6379 38.8108 40.6889V40.7381C39.0733 40.7874 39.2848 40.9031 39.4452 41.0854C39.6038 41.2695 39.6831 41.4874 39.6831 41.7389C39.6831 42.0853 39.5354 42.3651 39.2401 42.5784ZM38.0862 40.4509C37.9039 40.4509 37.7554 40.3998 37.6405 40.2977C37.5257 40.1975 37.4683 40.0681 37.4683 39.9095C37.4683 39.7491 37.5257 39.6187 37.6405 39.5185C37.7554 39.4164 37.9039 39.3653 38.0862 39.3653C38.2685 39.3653 38.418 39.4164 38.5347 39.5185C38.6495 39.6187 38.7069 39.7491 38.7069 39.9095C38.7069 40.0681 38.6495 40.1975 38.5347 40.2977C38.418 40.3998 38.2685 40.4509 38.0862 40.4509ZM37.5585 42.1083C37.6934 42.2213 37.8693 42.2778 38.0862 42.2778C38.3031 42.2778 38.48 42.2213 38.6167 42.1083C38.7534 41.9953 38.8218 41.8494 38.8218 41.6708C38.8218 41.4903 38.7534 41.3436 38.6167 41.2305C38.48 41.1175 38.3031 41.061 38.0862 41.061C37.8693 41.061 37.6934 41.1175 37.5585 41.2305C37.4218 41.3436 37.3534 41.4903 37.3534 41.6708C37.3534 41.8494 37.4218 41.9953 37.5585 42.1083ZM41.7968 42.901C42.2853 42.901 42.6681 42.7178 42.9452 42.3514C43.2241 41.9832 43.3636 41.4737 43.3636 40.8229C43.3636 40.1721 43.2232 39.6635 42.9425 39.2971C42.6654 38.9344 42.2835 38.753 41.7968 38.753C41.3082 38.753 40.9254 38.9344 40.6483 39.2971C40.3694 39.6617 40.23 40.1694 40.23 40.8202C40.23 41.4728 40.3694 41.9832 40.6483 42.3514C40.9254 42.7178 41.3082 42.901 41.7968 42.901ZM41.2636 41.8704C41.3893 42.1092 41.5671 42.2286 41.7968 42.2286C42.0264 42.2286 42.2051 42.1092 42.3327 41.8704C42.4621 41.6261 42.5268 41.2761 42.5268 40.8204C42.5268 40.3683 42.4612 40.021 42.33 39.7786C42.2042 39.5452 42.0264 39.4286 41.7968 39.4286C41.5689 39.4286 41.3912 39.5461 41.2636 39.7813C41.1323 40.0238 41.0667 40.3701 41.0667 40.8204C41.0667 41.2743 41.1323 41.6243 41.2636 41.8704Z" fill="white"/>
<path fill-rule="evenodd" clip-rule="evenodd" d="M37.9212 34.2666C38.79 34.9061 40.2279 35.2855 41.4012 35.2855C42.4323 35.2855 43.9265 35.0814 44.7339 34.5763C45.2889 35.8666 45.6445 37.0616 45.6445 38.5936C45.6445 42.4877 42.3556 45.6444 38.0445 45.6444C33.7333 45.6444 30.2667 42.4877 30.2667 38.5936C30.2667 37.0744 30.6667 35.7777 31.1556 34.6053C31.9532 35.0926 33.3412 35.2855 34.3524 35.2855C35.5257 35.2855 37.0524 34.9062 37.9212 34.2666Z" stroke="white" stroke-width="0.622222"/>
</g>
</g>
<defs>
<filter id="filter0_d_98_163" x="0.4" y="0.844445" width="51.2" height="51.2" filterUnits="userSpaceOnUse" color-interpolation-filters="sRGB">
<feFlood flood-opacity="0" result="BackgroundImageFix"/>
<feColorMatrix in="SourceAlpha" type="matrix" values="0 0 0 0 0 0 0 0 0 0 0 0 0 0 0 0 0 0 127 0" result="hardAlpha"/>
<feOffset dy="0.444444"/>
<feGaussianBlur stdDeviation="0.8"/>
<feColorMatrix type="matrix" values="0 0 0 0 0 0 0 0 0 0 0 0 0 0 0 0 0 0 0.4 0"/>
<feBlend mode="normal" in2="BackgroundImageFix" result="effect1_dropShadow_98_163"/>
<feBlend mode="normal" in="SourceGraphic" in2="effect1_dropShadow_98_163" result="shape"/>
</filter>
<filter id="filter1_d_98_163" x="-3.48489" y="5.71363" width="57.3682" height="49.9514" filterUnits="userSpaceOnUse" color-interpolation-filters="sRGB">
<feFlood flood-opacity="0" result="BackgroundImageFix"/>
<feColorMatrix in="SourceAlpha" type="matrix" values="0 0 0 0 0 0 0 0 0 0 0 0 0 0 0 0 0 0 127 0" result="hardAlpha"/>
<feOffset dx="-0.533333" dy="1.42222"/>
<feGaussianBlur stdDeviation="1.2"/>
<feColorMatrix type="matrix" values="0 0 0 0 0 0 0 0 0 0 0 0 0 0 0 0 0 0 0.12093 0"/>
<feBlend mode="normal" in2="BackgroundImageFix" result="effect1_dropShadow_98_163"/>
<feBlend mode="normal" in="SourceGraphic" in2="effect1_dropShadow_98_163" result="shape"/>
</filter>
<filter id="filter2_d_98_163" x="5.75305" y="-8.48885" width="16.4444" height="66.4884" filterUnits="userSpaceOnUse" color-interpolation-filters="sRGB">
<feFlood flood-opacity="0" result="BackgroundImageFix"/>
<feColorMatrix in="SourceAlpha" type="matrix" values="0 0 0 0 0 0 0 0 0 0 0 0 0 0 0 0 0 0 127 0" result="hardAlpha"/>
<feOffset/>
<feGaussianBlur stdDeviation="1.15556"/>
<feColorMatrix type="matrix" values="0 0 0 0 0 0 0 0 0 0 0 0 0 0 0 0 0 0 0.192854 0"/>
<feBlend mode="normal" in2="BackgroundImageFix" result="effect1_dropShadow_98_163"/>
<feBlend mode="normal" in="SourceGraphic" in2="effect1_dropShadow_98_163" result="shape"/>
</filter>
<filter id="filter3_dii_98_163" x="2.6864" y="20.5329" width="22.4" height="22.3997" filterUnits="userSpaceOnUse" color-interpolation-filters="sRGB">
<feFlood flood-opacity="0" result="BackgroundImageFix"/>
<feColorMatrix in="SourceAlpha" type="matrix" values="0 0 0 0 0 0 0 0 0 0 0 0 0 0 0 0 0 0 127 0" result="hardAlpha"/>
<feOffset dy="1.15556"/>
<feGaussianBlur stdDeviation="1.28889"/>
<feColorMatrix type="matrix" values="0 0 0 0 0 0 0 0 0 0 0 0 0 0 0 0 0 0 0.45 0"/>
<feBlend mode="normal" in2="BackgroundImageFix" result="effect1_dropShadow_98_163"/>
<feBlend mode="normal" in="SourceGraphic" in2="effect1_dropShadow_98_163" result="shape"/>
<feColorMatrix in="SourceAlpha" type="matrix" values="0 0 0 0 0 0 0 0 0 0 0 0 0 0 0 0 0 0 127 0" result="hardAlpha"/>
<feOffset dy="0.266667"/>
<feGaussianBlur stdDeviation="0.222222"/>
<feComposite in2="hardAlpha" operator="arithmetic" k2="-1" k3="1"/>
<feColorMatrix type="matrix" values="0 0 0 0 1 0 0 0 0 1 0 0 0 0 1 0 0 0 0.5 0"/>
<feBlend mode="normal" in2="shape" result="effect2_innerShadow_98_163"/>
<feColorMatrix in="SourceAlpha" type="matrix" values="0 0 0 0 0 0 0 0 0 0 0 0 0 0 0 0 0 0 127 0" result="hardAlpha"/>
<feOffset dy="-0.266667"/>
<feGaussianBlur stdDeviation="0.222222"/>
<feComposite in2="hardAlpha" operator="arithmetic" k2="-1" k3="1"/>
<feColorMatrix type="matrix" values="0 0 0 0 0 0 0 0 0 0 0 0 0 0 0 0 0 0 0.147891 0"/>
<feBlend mode="normal" in2="effect2_innerShadow_98_163" result="effect3_innerShadow_98_163"/>
</filter>
<filter id="filter4_i_98_163" x="8.86418" y="25.5557" width="10.1333" height="10.4005" filterUnits="userSpaceOnUse" color-interpolation-filters="sRGB">
<feFlood flood-opacity="0" result="BackgroundImageFix"/>
<feBlend mode="normal" in="SourceGraphic" in2="BackgroundImageFix" result="shape"/>
<feColorMatrix in="SourceAlpha" type="matrix" values="0 0 0 0 0 0 0 0 0 0 0 0 0 0 0 0 0 0 127 0" result="hardAlpha"/>
<feOffset dy="0.266667"/>
<feGaussianBlur stdDeviation="0.844444"/>
<feComposite in2="hardAlpha" operator="arithmetic" k2="-1" k3="1"/>
<feColorMatrix type="matrix" values="0 0 0 0 0.0125295 0 0 0 0 0 0 0 0 0 0.178753 0 0 0 0.715062 0"/>
<feBlend mode="normal" in2="shape" result="effect1_innerShadow_98_163"/>
</filter>
<filter id="filter5_d_98_163" x="20.4" y="-24.0442" width="56.9778" height="56.9779" filterUnits="userSpaceOnUse" color-interpolation-filters="sRGB">
<feFlood flood-opacity="0" result="BackgroundImageFix"/>
<feColorMatrix in="SourceAlpha" type="matrix" values="0 0 0 0 0 0 0 0 0 0 0 0 0 0 0 0 0 0 127 0" result="hardAlpha"/>
<feOffset dy="1.6"/>
<feGaussianBlur stdDeviation="1.37778"/>
<feColorMatrix type="matrix" values="0 0 0 0 0.00043063 0 0 0 0 0.24632 0 0 0 0 0 0 0 0 0.357026 0"/>
<feBlend mode="normal" in2="BackgroundImageFix" result="effect1_dropShadow_98_163"/>
<feBlend mode="normal" in="SourceGraphic" in2="effect1_dropShadow_98_163" result="shape"/>
</filter>
<filter id="filter6_d_98_163" x="26.1778" y="31.155" width="23.5556" height="19.7336" filterUnits="userSpaceOnUse" color-interpolation-filters="sRGB">
<feFlood flood-opacity="0" result="BackgroundImageFix"/>
<feColorMatrix in="SourceAlpha" type="matrix" values="0 0 0 0 0 0 0 0 0 0 0 0 0 0 0 0 0 0 127 0" result="hardAlpha"/>
<feOffset dy="1.15556"/>
<feGaussianBlur stdDeviation="1.15556"/>
<feColorMatrix type="matrix" values="0 0 0 0 0 0 0 0 0 0 0 0 0 0 0 0 0 0 0.168925 0"/>
<feBlend mode="normal" in2="BackgroundImageFix" result="effect1_dropShadow_98_163"/>
<feBlend mode="normal" in="SourceGraphic" in2="effect1_dropShadow_98_163" result="shape"/>
</filter>
<filter id="filter7_i_98_163" x="28.4889" y="32.3105" width="18.9333" height="15.2891" filterUnits="userSpaceOnUse" color-interpolation-filters="sRGB">
<feFlood flood-opacity="0" result="BackgroundImageFix"/>
<feBlend mode="normal" in="SourceGraphic" in2="BackgroundImageFix" result="shape"/>
<feColorMatrix in="SourceAlpha" type="matrix" values="0 0 0 0 0 0 0 0 0 0 0 0 0 0 0 0 0 0 127 0" result="hardAlpha"/>
<feOffset dy="0.266667"/>
<feGaussianBlur stdDeviation="0.0888889"/>
<feComposite in2="hardAlpha" operator="arithmetic" k2="-1" k3="1"/>
<feColorMatrix type="matrix" values="0 0 0 0 1 0 0 0 0 1 0 0 0 0 1 0 0 0 0.382867 0"/>
<feBlend mode="normal" in2="shape" result="effect1_innerShadow_98_163"/>
</filter>
<linearGradient id="paint0_linear_98_163" x1="33.3212" y1="-4.45956" x2="15.7259" y2="19.5412" gradientUnits="userSpaceOnUse">
<stop stop-color="#9DEF71"/>
<stop offset="1" stop-color="#82DC59"/>
</linearGradient>
<linearGradient id="paint1_linear_98_163" x1="27.6548" y1="38.8077" x2="32.7405" y2="28.6767" gradientUnits="userSpaceOnUse">
<stop stop-color="#FFD531"/>
<stop offset="0.869906" stop-color="#FFF041"/>
<stop offset="1" stop-color="white"/>
</linearGradient>
<linearGradient id="paint2_linear_98_163" x1="12.0813" y1="2.19481" x2="12.0813" y2="21.7478" gradientUnits="userSpaceOnUse">
<stop stop-color="#00A6F5"/>
<stop offset="1" stop-color="#0083E2"/>
</linearGradient>
<linearGradient id="paint3_linear_98_163" x1="12.0694" y1="2.03965" x2="12.0694" y2="21.7149" gradientUnits="userSpaceOnUse">
<stop stop-color="#4B97DE"/>
<stop offset="1" stop-color="#1D5CD5"/>
</linearGradient>
<linearGradient id="paint4_linear_98_163" x1="5.26418" y1="21.9551" x2="5.26418" y2="39.1995" gradientUnits="userSpaceOnUse">
<stop stop-color="white"/>
<stop offset="1" stop-color="#EFEDEB"/>
</linearGradient>
</defs>
</svg>
