<svg width="52" height="53" viewBox="0 0 52 53" fill="none" xmlns="http://www.w3.org/2000/svg">
<g filter="url(#filter0_d_98_250)">
<path d="M49.9968 15.2396C49.994 14.7595 49.9885 14.2796 49.9751 13.7997C49.9469 12.7539 49.8855 11.6992 49.6995 10.665C49.5108 9.61594 49.2029 8.6396 48.7174 7.68638C48.2402 6.74955 47.6168 5.89224 46.873 5.149C46.1294 4.40576 45.2719 3.78281 44.3347 3.3059C43.3805 2.82037 42.4031 2.51245 41.3529 2.32388C40.3186 2.13817 39.2636 2.0766 38.2178 2.04835C37.7376 2.03536 37.2574 2.02988 36.7772 2.02691C36.207 2.02342 35.6368 2.02371 35.0666 2.02371L28.4464 2H23.495L16.9919 2.02371C16.4206 2.02371 15.8493 2.02342 15.2781 2.02691C14.7968 2.02988 14.3157 2.03536 13.8346 2.04835C12.7864 2.0766 11.729 2.13823 10.6922 2.32417C9.64063 2.51268 8.66175 2.82048 7.70632 3.30566C6.76709 3.78263 5.90772 4.40564 5.16256 5.149C4.41752 5.89218 3.793 6.74932 3.31492 7.68602C2.82817 8.63965 2.51955 9.61659 2.33046 10.6663C2.14429 11.7 2.0826 12.7544 2.05423 13.7997C2.0413 14.2796 2.03571 14.7596 2.0328 15.2396C2.0293 15.8095 2 16.5175 2 17.0873V23.5003V28.5048L2.02959 35.054C2.02959 35.6246 2.02936 36.1953 2.0328 36.7659C2.03571 37.2466 2.0413 37.7272 2.05429 38.2077C2.0826 39.2548 2.14441 40.3112 2.33075 41.3467C2.51978 42.3972 2.82834 43.3749 3.31469 44.3293C3.79282 45.2675 4.41746 46.1259 5.16256 46.8702C5.90766 47.6145 6.76682 48.2383 7.70586 48.716C8.66189 49.202 9.64118 49.5103 10.6935 49.6991C11.7297 49.8851 12.7868 49.9469 13.8346 49.9751C14.3157 49.988 14.7968 49.9935 15.2781 49.9968C15.8494 50 16.4206 50 16.9919 50H23.5538H28.5175H35.0666C35.6368 50 36.207 50 36.7772 49.9968C37.2574 49.9935 37.7376 49.988 38.2178 49.9751C39.264 49.9469 40.3194 49.8851 41.3541 49.6991C42.4037 49.5103 43.3807 49.202 44.3343 48.716C45.2717 48.2383 46.1294 47.6146 46.873 46.8702C47.6167 46.126 48.2402 45.2678 48.7174 44.3297C49.2029 43.3748 49.5108 42.3966 49.6995 41.3455C49.8855 40.3103 49.9469 39.2545 49.9755 38.2077C49.9885 37.7271 49.994 37.2465 49.9968 36.7659C50 36.1953 50 35.6246 50 35.054C50 35.054 50 28.6204 50 28.5048V23.495C50 23.4097 50 16.9491 50 16.9491C50 16.3793 50 15.8095 49.9968 15.2396Z" fill="url(#paint0_linear_98_250)"/>
<mask id="mask0_98_250" style="mask-type:alpha" maskUnits="userSpaceOnUse" x="2" y="2" width="48" height="48">
<path d="M49.9968 15.2396C49.994 14.7595 49.9885 14.2796 49.9751 13.7997C49.9469 12.7539 49.8855 11.6992 49.6995 10.665C49.5108 9.61594 49.2029 8.6396 48.7174 7.68638C48.2402 6.74955 47.6168 5.89224 46.873 5.149C46.1294 4.40576 45.2719 3.78281 44.3347 3.3059C43.3805 2.82037 42.4031 2.51245 41.3529 2.32388C40.3186 2.13817 39.2636 2.0766 38.2178 2.04835C37.7376 2.03536 37.2574 2.02988 36.7772 2.02691C36.207 2.02342 35.6368 2.02371 35.0666 2.02371L28.4464 2H23.495L16.9919 2.02371C16.4206 2.02371 15.8493 2.02342 15.2781 2.02691C14.7968 2.02988 14.3157 2.03536 13.8346 2.04835C12.7864 2.0766 11.729 2.13823 10.6922 2.32417C9.64063 2.51268 8.66175 2.82048 7.70632 3.30566C6.76709 3.78263 5.90772 4.40564 5.16256 5.149C4.41752 5.89218 3.793 6.74932 3.31492 7.68602C2.82817 8.63965 2.51955 9.61659 2.33046 10.6663C2.14429 11.7 2.0826 12.7544 2.05423 13.7997C2.0413 14.2796 2.03571 14.7596 2.0328 15.2396C2.0293 15.8095 2 16.5175 2 17.0873V23.5003V28.5048L2.02959 35.054C2.02959 35.6246 2.02936 36.1953 2.0328 36.7659C2.03571 37.2466 2.0413 37.7272 2.05429 38.2077C2.0826 39.2548 2.14441 40.3112 2.33075 41.3467C2.51978 42.3972 2.82834 43.3749 3.31469 44.3293C3.79282 45.2675 4.41746 46.1259 5.16256 46.8702C5.90766 47.6145 6.76682 48.2383 7.70586 48.716C8.66189 49.202 9.64118 49.5103 10.6935 49.6991C11.7297 49.8851 12.7868 49.9469 13.8346 49.9751C14.3157 49.988 14.7968 49.9935 15.2781 49.9968C15.8494 50 16.4206 50 16.9919 50H23.5538H28.5175H35.0666C35.6368 50 36.207 50 36.7772 49.9968C37.2574 49.9935 37.7376 49.988 38.2178 49.9751C39.264 49.9469 40.3194 49.8851 41.3541 49.6991C42.4037 49.5103 43.3807 49.202 44.3343 48.716C45.2717 48.2383 46.1294 47.6146 46.873 46.8702C47.6167 46.126 48.2402 45.2678 48.7174 44.3297C49.2029 43.3748 49.5108 42.3966 49.6995 41.3455C49.8855 40.3103 49.9469 39.2545 49.9755 38.2077C49.9885 37.7271 49.994 37.2465 49.9968 36.7659C50 36.1953 50 35.6246 50 35.054C50 35.054 50 28.6204 50 28.5048V23.495C50 23.4097 50 16.9491 50 16.9491C50 16.3793 50 15.8095 49.9968 15.2396Z" fill="white"/>
</mask>
<g mask="url(#mask0_98_250)">
<g filter="url(#filter1_i_98_250)">
<path d="M34.0685 17.1588C34.5329 17.0549 34.9604 17.2354 35.144 17.6148V29.3565C35.0872 29.6493 34.8519 30.0752 34.2974 30.2685C33.5192 30.5252 33.1106 30.6028 32.5509 30.7092C32.3572 30.746 32.1454 30.7862 31.8939 30.8385C31.1384 30.9434 29.4137 31.406 28.4603 32.3204C27.6361 33.2069 27.5712 34.5368 27.5447 35.1704C27.5956 37.3296 29.553 38.6461 31.665 38.5903C33.6828 38.5448 34.6348 38.0171 35.6709 37.1083C36.7407 36.1593 36.9299 34.9534 36.9299 33.8024V29.1285V17.2728V10.4329C36.9299 9.67053 36.3258 9.17413 35.5564 9.29292L19.9907 12.3709C19.2116 12.4707 18.7887 13.1983 18.7987 13.9668V20.5787V32.2064C18.7974 32.2019 18.7962 32.2122 18.7938 32.2344C18.7752 32.4034 18.6805 33.2664 17.816 33.5744C17.0113 33.8304 16.5989 33.9051 15.9825 34.0167C15.7826 34.0529 15.5612 34.093 15.2981 34.1444C14.6389 34.2427 12.9142 34.7054 11.9789 35.6264C11.1366 36.5062 11.0717 37.8362 11.0632 38.4763C11.0961 40.629 13.0535 41.9455 15.0691 41.8963C17.1832 41.8442 18.1354 41.3165 19.1895 40.4143C20.2412 39.4586 20.5665 38.2528 20.5846 37.1083V32.2064V20.4647C20.7132 20.1439 20.9599 19.9076 21.2714 19.8947L34.0685 17.1588Z" fill="white"/>
</g>
<mask id="mask1_98_250" style="mask-type:alpha" maskUnits="userSpaceOnUse" x="11" y="9" width="26" height="33">
<path d="M34.0685 17.1588C34.5329 17.0549 34.9604 17.2354 35.144 17.6148V29.3565C35.0872 29.6493 34.8519 30.0752 34.2974 30.2685C33.5192 30.5252 33.1106 30.6028 32.5509 30.7092C32.3572 30.746 32.1454 30.7862 31.8939 30.8385C31.1384 30.9434 29.4137 31.406 28.4603 32.3204C27.6361 33.2069 27.5712 34.5368 27.5447 35.1704C27.5956 37.3296 29.553 38.6461 31.665 38.5903C33.6828 38.5448 34.6348 38.0171 35.6709 37.1083C36.7407 36.1593 36.9299 34.9534 36.9299 33.8024V29.1285V17.2728V10.4329C36.9299 9.67053 36.3258 9.17413 35.5564 9.29292L19.9907 12.3709C19.2116 12.4707 18.7887 13.1983 18.7987 13.9668V20.5787V32.2064C18.7974 32.2019 18.7962 32.2122 18.7938 32.2344C18.7752 32.4034 18.6805 33.2664 17.816 33.5744C17.0113 33.8304 16.5989 33.9051 15.9825 34.0167C15.7826 34.0529 15.5612 34.093 15.2981 34.1444C14.6389 34.2427 12.9142 34.7054 11.9789 35.6264C11.1366 36.5062 11.0717 37.8362 11.0632 38.4763C11.0961 40.629 13.0535 41.9455 15.0691 41.8963C17.1832 41.8442 18.1354 41.3165 19.1895 40.4143C20.2412 39.4586 20.5665 38.2528 20.5846 37.1083V32.2064V20.4647C20.7132 20.1439 20.9599 19.9076 21.2714 19.8947L34.0685 17.1588Z" fill="white"/>
</mask>
<g mask="url(#mask1_98_250)">
</g>
</g>
</g>
<defs>
<filter id="filter0_d_98_250" x="0.4" y="0.844444" width="51.2" height="51.2" filterUnits="userSpaceOnUse" color-interpolation-filters="sRGB">
<feFlood flood-opacity="0" result="BackgroundImageFix"/>
<feColorMatrix in="SourceAlpha" type="matrix" values="0 0 0 0 0 0 0 0 0 0 0 0 0 0 0 0 0 0 127 0" result="hardAlpha"/>
<feOffset dy="0.444444"/>
<feGaussianBlur stdDeviation="0.8"/>
<feColorMatrix type="matrix" values="0 0 0 0 0 0 0 0 0 0 0 0 0 0 0 0 0 0 0.4 0"/>
<feBlend mode="normal" in2="BackgroundImageFix" result="effect1_dropShadow_98_250"/>
<feBlend mode="normal" in="SourceGraphic" in2="effect1_dropShadow_98_250" result="shape"/>
</filter>
<filter id="filter1_i_98_250" x="11.0632" y="9.27539" width="25.8666" height="33.1554" filterUnits="userSpaceOnUse" color-interpolation-filters="sRGB">
<feFlood flood-opacity="0" result="BackgroundImageFix"/>
<feBlend mode="normal" in="SourceGraphic" in2="BackgroundImageFix" result="shape"/>
<feColorMatrix in="SourceAlpha" type="matrix" values="0 0 0 0 0 0 0 0 0 0 0 0 0 0 0 0 0 0 127 0" result="hardAlpha"/>
<feOffset dy="0.533333"/>
<feGaussianBlur stdDeviation="0.266667"/>
<feComposite in2="hardAlpha" operator="arithmetic" k2="-1" k3="1"/>
<feColorMatrix type="matrix" values="0 0 0 0 0.358299 0 0 0 0 0 0 0 0 0 0 0 0 0 0.67152 0"/>
<feBlend mode="normal" in2="shape" result="effect1_innerShadow_98_250"/>
</filter>
<linearGradient id="paint0_linear_98_250" x1="49.9614" y1="49.9227" x2="49.9614" y2="2" gradientUnits="userSpaceOnUse">
<stop stop-color="#FA233B"/>
<stop offset="1" stop-color="#FB5C74"/>
</linearGradient>
</defs>
</svg>
