<svg width="52" height="53" viewBox="0 0 52 53" fill="none" xmlns="http://www.w3.org/2000/svg">
<g filter="url(#filter0_d_98_461)">
<path d="M49.9968 15.2396C49.994 14.7595 49.9885 14.2796 49.9751 13.7997C49.9469 12.7539 49.8855 11.6992 49.6995 10.665C49.5108 9.61594 49.2029 8.6396 48.7174 7.68638C48.2402 6.74955 47.6168 5.89224 46.873 5.149C46.1294 4.40576 45.2719 3.78281 44.3347 3.3059C43.3805 2.82037 42.4031 2.51245 41.3529 2.32388C40.3186 2.13817 39.2636 2.0766 38.2178 2.04835C37.7376 2.03536 37.2574 2.02988 36.7772 2.02691C36.207 2.02342 35.6368 2.02371 35.0666 2.02371L28.4464 2H23.495L16.9919 2.02371C16.4206 2.02371 15.8493 2.02342 15.2781 2.02691C14.7968 2.02988 14.3157 2.03536 13.8346 2.04835C12.7864 2.0766 11.729 2.13823 10.6922 2.32417C9.64063 2.51268 8.66175 2.82048 7.70632 3.30566C6.76709 3.78263 5.90772 4.40564 5.16256 5.149C4.41752 5.89218 3.793 6.74932 3.31492 7.68602C2.82817 8.63965 2.51955 9.61659 2.33046 10.6663C2.14429 11.7 2.0826 12.7544 2.05423 13.7997C2.0413 14.2796 2.03571 14.7596 2.0328 15.2396C2.0293 15.8095 2 16.5175 2 17.0873V23.5003V28.5048L2.02959 35.054C2.02959 35.6246 2.02936 36.1953 2.0328 36.7659C2.03571 37.2466 2.0413 37.7272 2.05429 38.2077C2.0826 39.2548 2.14441 40.3112 2.33075 41.3467C2.51978 42.3972 2.82834 43.3749 3.31469 44.3293C3.79282 45.2675 4.41746 46.1259 5.16256 46.8702C5.90766 47.6145 6.76682 48.2383 7.70586 48.716C8.66189 49.202 9.64118 49.5103 10.6935 49.6991C11.7297 49.8851 12.7868 49.9469 13.8346 49.9751C14.3157 49.988 14.7968 49.9935 15.2781 49.9968C15.8494 50 16.4206 50 16.9919 50H23.5538H28.5175H35.0666C35.6368 50 36.207 50 36.7772 49.9968C37.2574 49.9935 37.7376 49.988 38.2178 49.9751C39.264 49.9469 40.3194 49.8851 41.3541 49.6991C42.4037 49.5103 43.3807 49.202 44.3343 48.716C45.2717 48.2383 46.1294 47.6146 46.873 46.8702C47.6167 46.126 48.2402 45.2678 48.7174 44.3297C49.2029 43.3748 49.5108 42.3966 49.6995 41.3455C49.8855 40.3103 49.9469 39.2545 49.9755 38.2077C49.9885 37.7271 49.994 37.2465 49.9968 36.7659C50 36.1953 50 35.6246 50 35.054C50 35.054 50 28.6204 50 28.5048V23.495C50 23.4097 50 16.9491 50 16.9491C50 16.3793 50 15.8095 49.9968 15.2396Z" fill="url(#paint0_linear_98_461)"/>
<mask id="mask0_98_461" style="mask-type:alpha" maskUnits="userSpaceOnUse" x="2" y="2" width="48" height="48">
<path d="M49.9968 15.2396C49.994 14.7595 49.9885 14.2796 49.9751 13.7997C49.9469 12.7539 49.8855 11.6992 49.6995 10.665C49.5108 9.61594 49.2029 8.6396 48.7174 7.68638C48.2402 6.74955 47.6168 5.89224 46.873 5.149C46.1294 4.40576 45.2719 3.78281 44.3347 3.3059C43.3805 2.82037 42.4031 2.51245 41.3529 2.32388C40.3186 2.13817 39.2636 2.0766 38.2178 2.04835C37.7376 2.03536 37.2574 2.02988 36.7772 2.02691C36.207 2.02342 35.6368 2.02371 35.0666 2.02371L28.4464 2H23.495L16.9919 2.02371C16.4206 2.02371 15.8493 2.02342 15.2781 2.02691C14.7968 2.02988 14.3157 2.03536 13.8346 2.04835C12.7864 2.0766 11.729 2.13823 10.6922 2.32417C9.64063 2.51268 8.66175 2.82048 7.70632 3.30566C6.76709 3.78263 5.90772 4.40564 5.16256 5.149C4.41752 5.89218 3.793 6.74932 3.31492 7.68602C2.82817 8.63965 2.51955 9.61659 2.33046 10.6663C2.14429 11.7 2.0826 12.7544 2.05423 13.7997C2.0413 14.2796 2.03571 14.7596 2.0328 15.2396C2.0293 15.8095 2 16.5175 2 17.0873V23.5003V28.5048L2.02959 35.054C2.02959 35.6246 2.02936 36.1953 2.0328 36.7659C2.03571 37.2466 2.0413 37.7272 2.05429 38.2077C2.0826 39.2548 2.14441 40.3112 2.33075 41.3467C2.51978 42.3972 2.82834 43.3749 3.31469 44.3293C3.79282 45.2675 4.41746 46.1259 5.16256 46.8702C5.90766 47.6145 6.76682 48.2383 7.70586 48.716C8.66189 49.202 9.64118 49.5103 10.6935 49.6991C11.7297 49.8851 12.7868 49.9469 13.8346 49.9751C14.3157 49.988 14.7968 49.9935 15.2781 49.9968C15.8494 50 16.4206 50 16.9919 50H23.5538H28.5175H35.0666C35.6368 50 36.207 50 36.7772 49.9968C37.2574 49.9935 37.7376 49.988 38.2178 49.9751C39.264 49.9469 40.3194 49.8851 41.3541 49.6991C42.4037 49.5103 43.3807 49.202 44.3343 48.716C45.2717 48.2383 46.1294 47.6146 46.873 46.8702C47.6167 46.126 48.2402 45.2678 48.7174 44.3297C49.2029 43.3748 49.5108 42.3966 49.6995 41.3455C49.8855 40.3103 49.9469 39.2545 49.9755 38.2077C49.9885 37.7271 49.994 37.2465 49.9968 36.7659C50 36.1953 50 35.6246 50 35.054C50 35.054 50 28.6204 50 28.5048V23.495C50 23.4097 50 16.9491 50 16.9491C50 16.3793 50 15.8095 49.9968 15.2396Z" fill="white"/>
</mask>
<g mask="url(#mask0_98_461)">
<path d="M4.88887 1.64453V50.0001" stroke="#8EE18F" stroke-width="0.177778"/>
<path d="M9.51112 1.64453V50.0001" stroke="#8EE18F" stroke-width="0.177778"/>
<path d="M18.8444 1.64453V50.0001" stroke="#8EE18F" stroke-width="0.177778"/>
<path d="M14.2222 1.64453V50.0001" stroke="#8EE18F" stroke-width="0.177778"/>
<path d="M23.5556 1.64453V50.0001" stroke="#8EE18F" stroke-width="0.177778"/>
<path d="M42.1333 1.64453V50.0001" stroke="#8EE18F" stroke-width="0.177778"/>
<path d="M28.1777 1.64453V50.0001" stroke="#8EE18F" stroke-width="0.177778"/>
<path d="M46.8444 1.64453V50.0001" stroke="#8EE18F" stroke-width="0.177778"/>
<path d="M37.5111 1.64453V50.0001" stroke="#8EE18F" stroke-width="0.177778"/>
<path d="M32.7999 1.64453V50.0001" stroke="#8EE18F" stroke-width="0.177778"/>
<path d="M50 4.88917H1.64447" stroke="#8EE18F" stroke-width="0.177778"/>
<path d="M50 9.51124H1.64447" stroke="#8EE18F" stroke-width="0.177778"/>
<path d="M50 18.8442H1.64447" stroke="#8EE18F" stroke-width="0.177778"/>
<path d="M50 14.2222H1.64447" stroke="#8EE18F" stroke-width="0.177778"/>
<path d="M50 23.4673H1.64447" stroke="#8EE18F" stroke-width="0.177778"/>
<path d="M50 42.1333H1.64447" stroke="#8EE18F" stroke-width="0.177778"/>
<path d="M50 28.1782H1.64447" stroke="#8EE18F" stroke-width="0.177778"/>
<path d="M50 46.7554H1.64447" stroke="#8EE18F" stroke-width="0.177778"/>
<path d="M50 37.4224H1.64447" stroke="#8EE18F" stroke-width="0.177778"/>
<path d="M50 32.8003H1.64447" stroke="#8EE18F" stroke-width="0.177778"/>
</g>
<g opacity="0.4" filter="url(#filter1_f_98_461)">
<path fill-rule="evenodd" clip-rule="evenodd" d="M11.4754 28.4834C12.4502 28.4274 13.4251 28.3994 14.4 28.3994C15.3748 28.3994 16.3497 28.4274 17.3246 28.4834C17.6538 28.5024 17.9111 28.7749 17.9111 29.1046V42.8329C17.9111 43.1675 17.6464 43.4422 17.3121 43.4547C16.3149 43.4919 15.3331 43.5105 14.3667 43.5105C13.4069 43.5105 12.4471 43.4922 11.4873 43.4554C11.1531 43.4426 10.8889 43.1681 10.8889 42.8337V29.1046C10.8889 28.7749 11.1461 28.5024 11.4754 28.4834Z" fill="black"/>
</g>
<g opacity="0.4" filter="url(#filter2_f_98_461)">
<path fill-rule="evenodd" clip-rule="evenodd" d="M19.4589 21.5908C20.4393 21.5081 21.4196 21.4668 22.4 21.4668C23.3804 21.4668 24.3608 21.5081 25.3412 21.5908C25.6634 21.6179 25.9111 21.8874 25.9111 22.2108V42.8079C25.9111 43.1383 25.6528 43.4111 25.3229 43.4292C24.322 43.4839 23.3366 43.5112 22.3668 43.5112C21.4033 43.5112 20.4398 43.4842 19.4763 43.4303C19.1467 43.4118 18.8889 43.1391 18.8889 42.809V22.2108C18.8889 21.8874 19.1366 21.6179 19.4589 21.5908Z" fill="black"/>
</g>
<g opacity="0.4" filter="url(#filter3_f_98_461)">
<path fill-rule="evenodd" clip-rule="evenodd" d="M27.792 12.313C28.7799 12.1935 29.7678 12.1338 30.7556 12.1338C31.7435 12.1338 32.7313 12.1935 33.7192 12.313C34.0317 12.3507 34.2667 12.6159 34.2667 12.9307V42.7733C34.2667 43.0981 34.0168 43.3683 33.693 43.3936C32.6871 43.4723 31.6969 43.5116 30.7224 43.5116C29.7539 43.5116 28.7855 43.4727 27.817 43.3951C27.4937 43.3692 27.2445 43.0992 27.2445 42.7749V12.9307C27.2445 12.6159 27.4796 12.3507 27.792 12.313Z" fill="black"/>
</g>
<g opacity="0.4" filter="url(#filter4_f_98_461)">
<path fill-rule="evenodd" clip-rule="evenodd" d="M35.8034 16.9958C36.7875 16.8951 37.7715 16.8447 38.7556 16.8447C39.7397 16.8447 40.7238 16.8951 41.7079 16.9958C42.0253 17.0283 42.2667 17.2957 42.2667 17.6148V42.7908C42.2667 43.1185 42.0126 43.39 41.6857 43.4116C40.6823 43.4781 39.6945 43.5114 38.7224 43.5114C37.7564 43.5114 36.7905 43.4786 35.8245 43.4129C35.498 43.3907 35.2445 43.1194 35.2445 42.7921V17.6148C35.2445 17.2957 35.4859 17.0283 35.8034 16.9958Z" fill="black"/>
</g>
<path fill-rule="evenodd" clip-rule="evenodd" d="M11.0282 27.157C12.004 27.0966 12.9798 27.0664 13.9556 27.0664C14.9313 27.0664 15.9071 27.0966 16.8829 27.157C17.211 27.1773 17.4667 27.4493 17.4667 27.7781V42.6512C17.4667 42.9851 17.2031 43.2595 16.8695 43.2729C15.8717 43.313 14.8893 43.3331 13.9223 43.3331C12.9619 43.3331 12.0015 43.3133 11.0411 43.2737C10.7077 43.2599 10.4445 42.9857 10.4445 42.652V27.7781C10.4445 27.4493 10.7001 27.1773 11.0282 27.157Z" fill="url(#paint1_linear_98_461)"/>
<mask id="mask1_98_461" style="mask-type:alpha" maskUnits="userSpaceOnUse" x="10" y="27" width="8" height="17">
<path fill-rule="evenodd" clip-rule="evenodd" d="M11.0282 27.157C12.004 27.0966 12.9798 27.0664 13.9556 27.0664C14.9313 27.0664 15.9071 27.0966 16.8829 27.157C17.211 27.1773 17.4667 27.4493 17.4667 27.7781V42.6512C17.4667 42.9851 17.2031 43.2595 16.8695 43.2729C15.8717 43.313 14.8893 43.3331 13.9223 43.3331C12.9619 43.3331 12.0015 43.3133 11.0411 43.2737C10.7077 43.2599 10.4445 42.9857 10.4445 42.652V27.7781C10.4445 27.4493 10.7001 27.1773 11.0282 27.157Z" fill="white"/>
</mask>
<g mask="url(#mask1_98_461)">
<path opacity="0.5" fill-rule="evenodd" clip-rule="evenodd" d="M11.5111 44.1332H9.8222L9.8222 26.3555H11.5111V44.1332Z" fill="url(#paint2_linear_98_461)"/>
<path fill-rule="evenodd" clip-rule="evenodd" d="M15.7778 26.3555H17.4667V44.1332H15.7778V26.3555Z" fill="url(#paint3_linear_98_461)"/>
</g>
<path fill-rule="evenodd" clip-rule="evenodd" d="M18.9394 17.9363C19.9151 17.8759 20.8909 17.8457 21.8667 17.8457C22.8425 17.8457 23.8183 17.8759 24.794 17.9363C25.1221 17.9566 25.3778 18.2286 25.3778 18.5574V42.6517C25.3778 42.9856 25.1142 43.26 24.7806 43.2734C23.7828 43.3135 22.8004 43.3336 21.8335 43.3336C20.873 43.3336 19.9126 43.3138 18.9522 43.2742C18.6188 43.2604 18.3556 42.9862 18.3556 42.6525V18.5574C18.3556 18.2286 18.6113 17.9566 18.9394 17.9363Z" fill="url(#paint4_linear_98_461)"/>
<mask id="mask2_98_461" style="mask-type:alpha" maskUnits="userSpaceOnUse" x="18" y="17" width="8" height="27">
<path fill-rule="evenodd" clip-rule="evenodd" d="M18.9394 17.9363C19.9151 17.8759 20.8909 17.8457 21.8667 17.8457C22.8425 17.8457 23.8183 17.8759 24.794 17.9363C25.1221 17.9566 25.3778 18.2286 25.3778 18.5574V42.6517C25.3778 42.9856 25.1142 43.26 24.7806 43.2734C23.7828 43.3135 22.8004 43.3336 21.8335 43.3336C20.873 43.3336 19.9126 43.3138 18.9522 43.2742C18.6188 43.2604 18.3556 42.9862 18.3556 42.6525V18.5574C18.3556 18.2286 18.6113 17.9566 18.9394 17.9363Z" fill="white"/>
</mask>
<g mask="url(#mask2_98_461)">
<path fill-rule="evenodd" clip-rule="evenodd" d="M19.6888 44.1338H18.3555L18.3555 17.8227H19.6888L19.6888 44.1338Z" fill="url(#paint5_linear_98_461)"/>
<path fill-rule="evenodd" clip-rule="evenodd" d="M23.6888 17.8223H25.3777V44.1334H23.6888V17.8223Z" fill="url(#paint6_linear_98_461)"/>
</g>
<path fill-rule="evenodd" clip-rule="evenodd" d="M26.9394 8.09355C27.9151 8.03314 28.8909 8.00293 29.8667 8.00293C30.8425 8.00293 31.8183 8.03314 32.794 8.09355C33.1221 8.11387 33.3778 8.38587 33.3778 8.71459V42.6514C33.3778 42.9853 33.1142 43.2597 32.7806 43.2731C31.7828 43.3132 30.8004 43.3333 29.8335 43.3333C28.873 43.3333 27.9126 43.3135 26.9522 43.2739C26.6188 43.2602 26.3556 42.9859 26.3556 42.6522V8.71458C26.3556 8.38587 26.6113 8.11387 26.9394 8.09355Z" fill="url(#paint7_linear_98_461)"/>
<mask id="mask3_98_461" style="mask-type:alpha" maskUnits="userSpaceOnUse" x="26" y="8" width="8" height="36">
<path fill-rule="evenodd" clip-rule="evenodd" d="M26.9394 8.09355C27.9151 8.03314 28.8909 8.00293 29.8667 8.00293C30.8425 8.00293 31.8183 8.03314 32.794 8.09355C33.1221 8.11387 33.3778 8.38587 33.3778 8.71459V42.6514C33.3778 42.9853 33.1142 43.2597 32.7806 43.2731C31.7828 43.3132 30.8004 43.3333 29.8335 43.3333C28.873 43.3333 27.9126 43.3135 26.9522 43.2739C26.6188 43.2602 26.3556 42.9859 26.3556 42.6522V8.71458C26.3556 8.38587 26.6113 8.11387 26.9394 8.09355Z" fill="white"/>
</mask>
<g mask="url(#mask3_98_461)">
<path opacity="0.856218" fill-rule="evenodd" clip-rule="evenodd" d="M28.4889 44.1338H26.3556L26.3556 7.51157H28.4889L28.4889 44.1338Z" fill="url(#paint8_linear_98_461)"/>
<path fill-rule="evenodd" clip-rule="evenodd" d="M31.6888 7.51074H33.3777V44.133H31.6888V7.51074Z" fill="url(#paint9_linear_98_461)"/>
</g>
<path fill-rule="evenodd" clip-rule="evenodd" d="M34.9394 13.3377C35.9151 13.2773 36.8909 13.2471 37.8667 13.2471C38.8425 13.2471 39.8183 13.2773 40.794 13.3377C41.1221 13.358 41.3778 13.63 41.3778 13.9587V42.6511C41.3778 42.985 41.1142 43.2594 40.7806 43.2728C39.7828 43.3129 38.8004 43.333 37.8335 43.333C36.873 43.333 35.9126 43.3132 34.9522 43.2736C34.6188 43.2599 34.3556 42.9856 34.3556 42.6519V13.9587C34.3556 13.63 34.6113 13.358 34.9394 13.3377Z" fill="url(#paint10_linear_98_461)"/>
<mask id="mask4_98_461" style="mask-type:alpha" maskUnits="userSpaceOnUse" x="34" y="13" width="8" height="31">
<path fill-rule="evenodd" clip-rule="evenodd" d="M34.9394 13.3377C35.9151 13.2773 36.8909 13.2471 37.8667 13.2471C38.8425 13.2471 39.8183 13.2773 40.794 13.3377C41.1221 13.358 41.3778 13.63 41.3778 13.9587V42.6511C41.3778 42.985 41.1142 43.2594 40.7806 43.2728C39.7828 43.3129 38.8004 43.333 37.8335 43.333C36.873 43.333 35.9126 43.3132 34.9522 43.2736C34.6188 43.2599 34.3556 42.9856 34.3556 42.6519V13.9587C34.3556 13.63 34.6113 13.358 34.9394 13.3377Z" fill="white"/>
</mask>
<g mask="url(#mask4_98_461)">
<path fill-rule="evenodd" clip-rule="evenodd" d="M36.0444 44.1338H34.3555L34.3555 12.756H36.0444L36.0444 44.1338Z" fill="url(#paint11_linear_98_461)"/>
<path fill-rule="evenodd" clip-rule="evenodd" d="M40.3112 12.7559H41.3778V44.1336H40.3112V12.7559Z" fill="url(#paint12_linear_98_461)"/>
</g>
</g>
<defs>
<filter id="filter0_d_98_461" x="0.4" y="0.844444" width="51.2" height="51.2" filterUnits="userSpaceOnUse" color-interpolation-filters="sRGB">
<feFlood flood-opacity="0" result="BackgroundImageFix"/>
<feColorMatrix in="SourceAlpha" type="matrix" values="0 0 0 0 0 0 0 0 0 0 0 0 0 0 0 0 0 0 127 0" result="hardAlpha"/>
<feOffset dy="0.444444"/>
<feGaussianBlur stdDeviation="0.8"/>
<feColorMatrix type="matrix" values="0 0 0 0 0 0 0 0 0 0 0 0 0 0 0 0 0 0 0.4 0"/>
<feBlend mode="normal" in2="BackgroundImageFix" result="effect1_dropShadow_98_461"/>
<feBlend mode="normal" in="SourceGraphic" in2="effect1_dropShadow_98_461" result="shape"/>
</filter>
<filter id="filter1_f_98_461" x="8.71423" y="26.2248" width="11.3715" height="19.4606" filterUnits="userSpaceOnUse" color-interpolation-filters="sRGB">
<feFlood flood-opacity="0" result="BackgroundImageFix"/>
<feBlend mode="normal" in="SourceGraphic" in2="BackgroundImageFix" result="shape"/>
<feGaussianBlur stdDeviation="1.08731" result="effect1_foregroundBlur_98_461"/>
</filter>
<filter id="filter2_f_98_461" x="16.7143" y="19.2922" width="11.3715" height="26.3942" filterUnits="userSpaceOnUse" color-interpolation-filters="sRGB">
<feFlood flood-opacity="0" result="BackgroundImageFix"/>
<feBlend mode="normal" in="SourceGraphic" in2="BackgroundImageFix" result="shape"/>
<feGaussianBlur stdDeviation="1.08731" result="effect1_foregroundBlur_98_461"/>
</filter>
<filter id="filter3_f_98_461" x="25.0699" y="9.95916" width="11.3715" height="35.7272" filterUnits="userSpaceOnUse" color-interpolation-filters="sRGB">
<feFlood flood-opacity="0" result="BackgroundImageFix"/>
<feBlend mode="normal" in="SourceGraphic" in2="BackgroundImageFix" result="shape"/>
<feGaussianBlur stdDeviation="1.08731" result="effect1_foregroundBlur_98_461"/>
</filter>
<filter id="filter4_f_98_461" x="33.0699" y="14.6701" width="11.3715" height="31.0162" filterUnits="userSpaceOnUse" color-interpolation-filters="sRGB">
<feFlood flood-opacity="0" result="BackgroundImageFix"/>
<feBlend mode="normal" in="SourceGraphic" in2="BackgroundImageFix" result="shape"/>
<feGaussianBlur stdDeviation="1.08731" result="effect1_foregroundBlur_98_461"/>
</filter>
<linearGradient id="paint0_linear_98_461" x1="49.9614" y1="49.9227" x2="49.9614" y2="2" gradientUnits="userSpaceOnUse">
<stop stop-color="#F3F1F0"/>
<stop offset="1" stop-color="white"/>
</linearGradient>
<linearGradient id="paint1_linear_98_461" x1="10.4445" y1="27.0664" x2="10.4445" y2="43.3331" gradientUnits="userSpaceOnUse">
<stop stop-color="#EF4D5D"/>
<stop offset="1" stop-color="#E02D43"/>
</linearGradient>
<linearGradient id="paint2_linear_98_461" x1="11.5111" y1="30.7999" x2="10.6666" y2="30.7999" gradientUnits="userSpaceOnUse">
<stop stop-opacity="0.01"/>
<stop offset="1" stop-opacity="0.356234"/>
</linearGradient>
<linearGradient id="paint3_linear_98_461" x1="15.9114" y1="44.2024" x2="17.4667" y2="44.2024" gradientUnits="userSpaceOnUse">
<stop stop-color="#720000" stop-opacity="0.01"/>
<stop offset="1" stop-color="#4E0000" stop-opacity="0.643548"/>
</linearGradient>
<linearGradient id="paint4_linear_98_461" x1="18.3556" y1="17.8457" x2="18.3556" y2="43.3336" gradientUnits="userSpaceOnUse">
<stop stop-color="#FFB73A"/>
<stop offset="1" stop-color="#DF720D"/>
</linearGradient>
<linearGradient id="paint5_linear_98_461" x1="19.6888" y1="16.6796" x2="18.3555" y2="16.6796" gradientUnits="userSpaceOnUse">
<stop offset="0.00038243" stop-color="#E74400" stop-opacity="0.01"/>
<stop offset="1" stop-color="#7D1B00" stop-opacity="0.497296"/>
</linearGradient>
<linearGradient id="paint6_linear_98_461" x1="23.6888" y1="45.2764" x2="25.3777" y2="45.2764" gradientUnits="userSpaceOnUse">
<stop offset="0.00038243" stop-color="#E74400" stop-opacity="0.01"/>
<stop offset="1" stop-color="#521200" stop-opacity="0.630163"/>
</linearGradient>
<linearGradient id="paint7_linear_98_461" x1="26.3556" y1="8.00293" x2="26.3556" y2="43.3333" gradientUnits="userSpaceOnUse">
<stop stop-color="#73F662"/>
<stop offset="1" stop-color="#1DD724"/>
</linearGradient>
<linearGradient id="paint8_linear_98_461" x1="28.4889" y1="9.07158" x2="26.7227" y2="9.07158" gradientUnits="userSpaceOnUse">
<stop offset="0.00038243" stop-color="#00E75B" stop-opacity="0.01"/>
<stop offset="1" stop-color="#003907" stop-opacity="0.786604"/>
</linearGradient>
<linearGradient id="paint9_linear_98_461" x1="31.6888" y1="45.724" x2="33.3777" y2="45.724" gradientUnits="userSpaceOnUse">
<stop offset="0.00038243" stop-color="#00E75B" stop-opacity="0.01"/>
<stop offset="1" stop-color="#003907" stop-opacity="0.786604"/>
</linearGradient>
<linearGradient id="paint10_linear_98_461" x1="34.3556" y1="13.2471" x2="34.3556" y2="43.333" gradientUnits="userSpaceOnUse">
<stop stop-color="#2BC7FE"/>
<stop offset="1" stop-color="#1B68EF"/>
</linearGradient>
<linearGradient id="paint11_linear_98_461" x1="36.0444" y1="11.3928" x2="34.3555" y2="11.3928" gradientUnits="userSpaceOnUse">
<stop stop-color="#002471" stop-opacity="0.01"/>
<stop offset="1" stop-color="#0C0B4B" stop-opacity="0.706676"/>
</linearGradient>
<linearGradient id="paint12_linear_98_461" x1="40.3112" y1="45.4968" x2="41.3778" y2="45.4968" gradientUnits="userSpaceOnUse">
<stop stop-color="#002471" stop-opacity="0.01"/>
<stop offset="1" stop-color="#0C0B4B" stop-opacity="0.706676"/>
</linearGradient>
</defs>
</svg>
