<svg width="52" height="53" viewBox="0 0 52 53" fill="none" xmlns="http://www.w3.org/2000/svg">
<g filter="url(#filter0_d_98_772)">
<path d="M49.9968 15.2396C49.994 14.7595 49.9885 14.2796 49.9751 13.7997C49.9469 12.7539 49.8855 11.6992 49.6995 10.665C49.5108 9.61594 49.2029 8.6396 48.7174 7.68638C48.2402 6.74955 47.6168 5.89224 46.873 5.149C46.1294 4.40576 45.2719 3.78281 44.3347 3.3059C43.3805 2.82037 42.4031 2.51245 41.3529 2.32388C40.3186 2.13817 39.2636 2.0766 38.2178 2.04835C37.7376 2.03536 37.2574 2.02988 36.7772 2.02691C36.207 2.02342 35.6368 2.02371 35.0666 2.02371L28.4464 2H23.495L16.9919 2.02371C16.4206 2.02371 15.8493 2.02342 15.2781 2.02691C14.7968 2.02988 14.3157 2.03536 13.8346 2.04835C12.7864 2.0766 11.729 2.13823 10.6922 2.32417C9.64063 2.51268 8.66175 2.82048 7.70632 3.30566C6.76709 3.78263 5.90772 4.40564 5.16256 5.149C4.41752 5.89218 3.793 6.74932 3.31492 7.68602C2.82817 8.63965 2.51955 9.61659 2.33046 10.6663C2.14429 11.7 2.0826 12.7544 2.05423 13.7997C2.0413 14.2796 2.03571 14.7596 2.0328 15.2396C2.0293 15.8095 2 16.5175 2 17.0873V23.5003V28.5048L2.02959 35.054C2.02959 35.6246 2.02936 36.1953 2.0328 36.7659C2.03571 37.2466 2.0413 37.7272 2.05429 38.2077C2.0826 39.2548 2.14441 40.3112 2.33075 41.3467C2.51978 42.3972 2.82834 43.3749 3.31469 44.3293C3.79282 45.2675 4.41746 46.1259 5.16256 46.8702C5.90766 47.6145 6.76682 48.2383 7.70586 48.716C8.66189 49.202 9.64118 49.5103 10.6935 49.6991C11.7297 49.8851 12.7868 49.9469 13.8346 49.9751C14.3157 49.988 14.7968 49.9935 15.2781 49.9968C15.8494 50 16.4206 50 16.9919 50H23.5538H28.5175H35.0666C35.6368 50 36.207 50 36.7772 49.9968C37.2574 49.9935 37.7376 49.988 38.2178 49.9751C39.264 49.9469 40.3194 49.8851 41.3541 49.6991C42.4037 49.5103 43.3807 49.202 44.3343 48.716C45.2717 48.2383 46.1294 47.6146 46.873 46.8702C47.6167 46.126 48.2402 45.2678 48.7174 44.3297C49.2029 43.3748 49.5108 42.3966 49.6995 41.3455C49.8855 40.3103 49.9469 39.2545 49.9755 38.2077C49.9885 37.7271 49.994 37.2465 49.9968 36.7659C50 36.1953 50 35.6246 50 35.054C50 35.054 50 28.6204 50 28.5048V23.495C50 23.4097 50 16.9491 50 16.9491C50 16.3793 50 15.8095 49.9968 15.2396Z" fill="white"/>
<mask id="mask0_98_772" style="mask-type:alpha" maskUnits="userSpaceOnUse" x="2" y="2" width="48" height="48">
<path d="M49.9968 15.2396C49.994 14.7595 49.9885 14.2796 49.9751 13.7997C49.9469 12.7539 49.8855 11.6992 49.6995 10.665C49.5108 9.61594 49.2029 8.6396 48.7174 7.68638C48.2402 6.74955 47.6168 5.89224 46.873 5.149C46.1294 4.40576 45.2719 3.78281 44.3347 3.3059C43.3805 2.82037 42.4031 2.51245 41.3529 2.32388C40.3186 2.13817 39.2636 2.0766 38.2178 2.04835C37.7376 2.03536 37.2574 2.02988 36.7772 2.02691C36.207 2.02342 35.6368 2.02371 35.0666 2.02371L28.4464 2H23.495L16.9919 2.02371C16.4206 2.02371 15.8493 2.02342 15.2781 2.02691C14.7968 2.02988 14.3157 2.03536 13.8346 2.04835C12.7864 2.0766 11.729 2.13823 10.6922 2.32417C9.64063 2.51268 8.66175 2.82048 7.70632 3.30566C6.76709 3.78263 5.90772 4.40564 5.16256 5.149C4.41752 5.89218 3.793 6.74932 3.31492 7.68602C2.82817 8.63965 2.51955 9.61659 2.33046 10.6663C2.14429 11.7 2.0826 12.7544 2.05423 13.7997C2.0413 14.2796 2.03571 14.7596 2.0328 15.2396C2.0293 15.8095 2 16.5175 2 17.0873V23.5003V28.5048L2.02959 35.054C2.02959 35.6246 2.02936 36.1953 2.0328 36.7659C2.03571 37.2466 2.0413 37.7272 2.05429 38.2077C2.0826 39.2548 2.14441 40.3112 2.33075 41.3467C2.51978 42.3972 2.82834 43.3749 3.31469 44.3293C3.79282 45.2675 4.41746 46.1259 5.16256 46.8702C5.90766 47.6145 6.76682 48.2383 7.70586 48.716C8.66189 49.202 9.64118 49.5103 10.6935 49.6991C11.7297 49.8851 12.7868 49.9469 13.8346 49.9751C14.3157 49.988 14.7968 49.9935 15.2781 49.9968C15.8494 50 16.4206 50 16.9919 50H23.5538H28.5175H35.0666C35.6368 50 36.207 50 36.7772 49.9968C37.2574 49.9935 37.7376 49.988 38.2178 49.9751C39.264 49.9469 40.3194 49.8851 41.3541 49.6991C42.4037 49.5103 43.3807 49.202 44.3343 48.716C45.2717 48.2383 46.1294 47.6146 46.873 46.8702C47.6167 46.126 48.2402 45.2678 48.7174 44.3297C49.2029 43.3748 49.5108 42.3966 49.6995 41.3455C49.8855 40.3103 49.9469 39.2545 49.9755 38.2077C49.9885 37.7271 49.994 37.2465 49.9968 36.7659C50 36.1953 50 35.6246 50 35.054C50 35.054 50 28.6204 50 28.5048V23.495C50 23.4097 50 16.9491 50 16.9491C50 16.3793 50 15.8095 49.9968 15.2396Z" fill="white"/>
</mask>
<g mask="url(#mask0_98_772)">
<g opacity="0.6">
<g filter="url(#filter1_f_98_772)">
<path fill-rule="evenodd" clip-rule="evenodd" d="M26.0887 6.71191C29.6233 6.71191 32.4887 9.57729 32.4887 13.1119V19.9564C32.4887 23.491 29.6233 26.3564 26.0887 26.3564C22.5541 26.3564 19.6887 23.491 19.6887 19.9564V13.1119C19.6887 9.57729 22.5541 6.71191 26.0887 6.71191Z" fill="url(#paint0_linear_98_772)"/>
</g>
<g filter="url(#filter2_f_98_772)">
<path fill-rule="evenodd" clip-rule="evenodd" d="M26.0887 28.9346C29.6233 28.9346 32.4887 31.7999 32.4887 35.3346V42.179C32.4887 45.7136 29.6233 48.579 26.0887 48.579C22.5541 48.579 19.6887 45.7136 19.6887 42.179V35.3346C19.6887 31.7999 22.5541 28.9346 26.0887 28.9346Z" fill="url(#paint1_linear_98_772)"/>
</g>
<g filter="url(#filter3_f_98_772)">
<path fill-rule="evenodd" clip-rule="evenodd" d="M47.0221 27.6451C47.0221 31.1797 44.1568 34.0451 40.6221 34.0451H33.7777C30.2431 34.0451 27.3777 31.1797 27.3777 27.6451C27.3777 24.1105 30.2431 21.2451 33.7777 21.2451L40.6221 21.2451C44.1568 21.2451 47.0221 24.1105 47.0221 27.6451Z" fill="url(#paint2_linear_98_772)"/>
</g>
<g filter="url(#filter4_f_98_772)">
<path fill-rule="evenodd" clip-rule="evenodd" d="M24.7998 27.6451C24.7998 31.1797 21.9345 34.0451 18.3998 34.0451H11.5554C8.02077 34.0451 5.1554 31.1797 5.1554 27.6451C5.1554 24.1105 8.02077 21.2451 11.5554 21.2451L18.3998 21.2451C21.9345 21.2451 24.7998 24.1105 24.7998 27.6451Z" fill="url(#paint3_linear_98_772)"/>
</g>
<g filter="url(#filter5_f_98_772)">
<path fill-rule="evenodd" clip-rule="evenodd" d="M40.8908 12.8433C43.3902 15.3426 43.3902 19.3949 40.8908 21.8942L36.0511 26.734C33.5517 29.2333 29.4995 29.2333 27.0001 26.734C24.5008 24.2346 24.5008 20.1824 27.0001 17.683L31.8399 12.8433C34.3392 10.3439 38.3915 10.3439 40.8908 12.8433Z" fill="url(#paint4_linear_98_772)"/>
</g>
<g filter="url(#filter6_f_98_772)">
<path fill-rule="evenodd" clip-rule="evenodd" d="M25.1772 28.5571C27.6766 31.0565 27.6766 35.1087 25.1772 37.6081L20.3375 42.4479C17.8381 44.9472 13.7859 44.9472 11.2865 42.4479C8.78715 39.9485 8.78715 35.8962 11.2865 33.3969L16.1263 28.5571C18.6256 26.0578 22.6779 26.0578 25.1772 28.5571Z" fill="url(#paint5_linear_98_772)"/>
</g>
<g filter="url(#filter7_f_98_772)">
<path fill-rule="evenodd" clip-rule="evenodd" d="M40.8908 42.4479C38.3915 44.9472 34.3392 44.9472 31.8399 42.4479L27.0001 37.6081C24.5008 35.1087 24.5008 31.0565 27.0001 28.5571C29.4995 26.0578 33.5517 26.0578 36.0511 28.5571L40.8908 33.3969C43.3902 35.8962 43.3902 39.9485 40.8908 42.4479Z" fill="url(#paint6_linear_98_772)"/>
</g>
<g filter="url(#filter8_f_98_772)">
<path fill-rule="evenodd" clip-rule="evenodd" d="M25.1772 26.734C22.6779 29.2333 18.6256 29.2333 16.1263 26.734L11.2865 21.8942C8.78715 19.3949 8.78715 15.3426 11.2865 12.8433C13.7859 10.3439 17.8381 10.3439 20.3375 12.8433L25.1772 17.683C27.6766 20.1824 27.6766 24.2346 25.1772 26.734Z" fill="url(#paint7_linear_98_772)"/>
</g>
</g>
<g filter="url(#filter9_f_98_772)">
<path fill-rule="evenodd" clip-rule="evenodd" d="M26.0886 5.82227C29.6232 5.82227 32.4886 8.68764 32.4886 12.2223V19.0667C32.4886 22.6013 29.6232 25.4667 26.0886 25.4667C22.554 25.4667 19.6886 22.6013 19.6886 19.0667V12.2223C19.6886 8.68764 22.554 5.82227 26.0886 5.82227Z" fill="black" fill-opacity="0.41"/>
</g>
<g filter="url(#filter10_f_98_772)">
<path fill-rule="evenodd" clip-rule="evenodd" d="M26.0886 28.0449C29.6232 28.0449 32.4886 30.9103 32.4886 34.4449V41.2894C32.4886 44.824 29.6232 47.6894 26.0886 47.6894C22.554 47.6894 19.6886 44.824 19.6886 41.2894V34.4449C19.6886 30.9103 22.554 28.0449 26.0886 28.0449Z" fill="black" fill-opacity="0.41"/>
</g>
<g filter="url(#filter11_f_98_772)">
<path fill-rule="evenodd" clip-rule="evenodd" d="M47.022 26.7555C47.022 30.2901 44.1566 33.1555 40.622 33.1555H33.7776C30.2429 33.1555 27.3776 30.2901 27.3776 26.7555C27.3776 23.2208 30.2429 20.3555 33.7776 20.3555L40.622 20.3555C44.1566 20.3555 47.022 23.2208 47.022 26.7555Z" fill="black" fill-opacity="0.41"/>
</g>
<g filter="url(#filter12_f_98_772)">
<path fill-rule="evenodd" clip-rule="evenodd" d="M24.7998 26.7555C24.7998 30.2901 21.9345 33.1555 18.3998 33.1555H11.5554C8.02077 33.1555 5.1554 30.2901 5.1554 26.7555C5.1554 23.2208 8.02077 20.3555 11.5554 20.3555L18.3998 20.3555C21.9345 20.3555 24.7998 23.2208 24.7998 26.7555Z" fill="black" fill-opacity="0.41"/>
</g>
<g filter="url(#filter13_f_98_772)">
<path fill-rule="evenodd" clip-rule="evenodd" d="M40.8907 11.9536C43.3901 14.453 43.3901 18.5052 40.8907 21.0046L36.051 25.8443C33.5516 28.3437 29.4994 28.3437 27 25.8443C24.5006 23.345 24.5006 19.2927 27 16.7934L31.8398 11.9536C34.3391 9.45426 38.3914 9.45426 40.8907 11.9536Z" fill="black" fill-opacity="0.41"/>
</g>
<g filter="url(#filter14_f_98_772)">
<path fill-rule="evenodd" clip-rule="evenodd" d="M25.1772 27.6675C27.6766 30.1668 27.6766 34.2191 25.1772 36.7185L20.3375 41.5582C17.8381 44.0576 13.7859 44.0576 11.2865 41.5582C8.78715 39.0589 8.78715 35.0066 11.2865 32.5072L16.1263 27.6675C18.6256 25.1681 22.6779 25.1681 25.1772 27.6675Z" fill="black" fill-opacity="0.41"/>
</g>
<g filter="url(#filter15_f_98_772)">
<path fill-rule="evenodd" clip-rule="evenodd" d="M40.8907 41.5582C38.3914 44.0576 34.3391 44.0576 31.8398 41.5582L27 36.7185C24.5006 34.2191 24.5006 30.1668 27 27.6675C29.4994 25.1681 33.5516 25.1681 36.051 27.6675L40.8907 32.5072C43.3901 35.0066 43.3901 39.0589 40.8907 41.5582Z" fill="black" fill-opacity="0.41"/>
</g>
<g filter="url(#filter16_f_98_772)">
<path fill-rule="evenodd" clip-rule="evenodd" d="M25.1772 25.8443C22.6779 28.3437 18.6256 28.3437 16.1263 25.8443L11.2865 21.0046C8.78715 18.5052 8.78715 14.453 11.2865 11.9536C13.7859 9.45426 17.8381 9.45426 20.3375 11.9536L25.1772 16.7934C27.6766 19.2927 27.6766 23.345 25.1772 25.8443Z" fill="black" fill-opacity="0.41"/>
</g>
<path fill-rule="evenodd" clip-rule="evenodd" d="M26.0887 5.37891C29.6233 5.37891 32.4887 8.24428 32.4887 11.7789V18.6234C32.4887 22.158 29.6233 25.0234 26.0887 25.0234C22.5541 25.0234 19.6887 22.158 19.6887 18.6234V11.7789C19.6887 8.24428 22.5541 5.37891 26.0887 5.37891Z" fill="url(#paint8_linear_98_772)"/>
<path fill-rule="evenodd" clip-rule="evenodd" d="M26.0887 27.6016C29.6233 27.6016 32.4887 30.4669 32.4887 34.0016V40.846C32.4887 44.3806 29.6233 47.246 26.0887 47.246C22.5541 47.246 19.6887 44.3806 19.6887 40.846V34.0016C19.6887 30.4669 22.5541 27.6016 26.0887 27.6016Z" fill="url(#paint9_linear_98_772)"/>
<path fill-rule="evenodd" clip-rule="evenodd" d="M47.0221 26.3121C47.0221 29.8467 44.1568 32.7121 40.6221 32.7121H33.7777C30.2431 32.7121 27.3777 29.8467 27.3777 26.3121C27.3777 22.7775 30.2431 19.9121 33.7777 19.9121L40.6221 19.9121C44.1568 19.9121 47.0221 22.7775 47.0221 26.3121Z" fill="url(#paint10_linear_98_772)"/>
<path fill-rule="evenodd" clip-rule="evenodd" d="M24.8 26.3121C24.8 29.8467 21.9346 32.7121 18.4 32.7121H11.5555C8.0209 32.7121 5.15552 29.8467 5.15552 26.3121C5.15552 22.7775 8.0209 19.9121 11.5555 19.9121L18.4 19.9121C21.9346 19.9121 24.8 22.7775 24.8 26.3121Z" fill="url(#paint11_linear_98_772)"/>
<path fill-rule="evenodd" clip-rule="evenodd" d="M40.8908 11.5103C43.3902 14.0096 43.3902 18.0619 40.8908 20.5612L36.0511 25.401C33.5517 27.9003 29.4995 27.9003 27.0001 25.401C24.5008 22.9016 24.5008 18.8494 27.0001 16.35L31.8399 11.5103C34.3392 9.0109 38.3915 9.0109 40.8908 11.5103Z" fill="url(#paint12_linear_98_772)"/>
<path fill-rule="evenodd" clip-rule="evenodd" d="M25.1773 27.2241C27.6767 29.7235 27.6767 33.7757 25.1773 36.2751L20.3376 41.1148C17.8382 43.6142 13.786 43.6142 11.2866 41.1148C8.78727 38.6155 8.78727 34.5632 11.2866 32.0639L16.1264 27.2241C18.6257 24.7248 22.678 24.7248 25.1773 27.2241Z" fill="url(#paint13_linear_98_772)"/>
<path fill-rule="evenodd" clip-rule="evenodd" d="M40.8908 41.1148C38.3915 43.6142 34.3392 43.6142 31.8399 41.1148L27.0001 36.2751C24.5008 33.7757 24.5008 29.7235 27.0001 27.2241C29.4995 24.7248 33.5517 24.7248 36.0511 27.2241L40.8908 32.0639C43.3902 34.5632 43.3902 38.6155 40.8908 41.1148Z" fill="url(#paint14_linear_98_772)"/>
<path fill-rule="evenodd" clip-rule="evenodd" d="M25.1773 25.401C22.678 27.9003 18.6257 27.9003 16.1264 25.401L11.2866 20.5612C8.78727 18.0619 8.78727 14.0096 11.2866 11.5103C13.786 9.0109 17.8382 9.0109 20.3376 11.5103L25.1773 16.35C27.6767 18.8494 27.6767 22.9016 25.1773 25.401Z" fill="url(#paint15_linear_98_772)"/>
<path fill-rule="evenodd" clip-rule="evenodd" d="M20.3376 11.509L25.1773 16.3488C27.5473 18.7187 27.67 22.4849 25.5455 24.9994C22.2651 24.7237 19.6887 21.9738 19.6887 18.6222V11.7778C19.6887 11.5074 19.7055 11.241 19.738 10.9795C19.9462 11.1413 20.1464 11.3179 20.3376 11.509Z" fill="url(#paint16_linear_98_772)"/>
<path fill-rule="evenodd" clip-rule="evenodd" d="M32.4887 34.0003V40.8447C32.4887 41.1151 32.472 41.3815 32.4395 41.643C32.2312 41.4812 32.031 41.3047 31.8399 41.1135L27.0001 36.2738C24.6302 33.9038 24.5075 30.1376 26.632 27.623C29.9124 27.8989 32.4887 30.6487 32.4887 34.0003Z" fill="url(#paint17_linear_98_772)"/>
<path fill-rule="evenodd" clip-rule="evenodd" d="M40.6221 19.9111C40.8924 19.9111 41.1588 19.9279 41.4203 19.9604C41.2585 20.1686 41.082 20.3689 40.8909 20.56L36.0511 25.3998C33.6811 27.7697 29.9149 27.8924 27.4004 25.7678C27.6762 22.4874 30.4261 19.9111 33.7776 19.9111H40.6221Z" fill="url(#paint18_linear_98_772)"/>
<path fill-rule="evenodd" clip-rule="evenodd" d="M24.777 26.855L24.7694 26.9403C24.4536 30.1799 21.7224 32.7118 18.3998 32.7118H11.5554C11.2851 32.7118 11.0187 32.695 10.7572 32.6625C10.919 32.4543 11.0955 32.254 11.2866 32.0629L16.1264 27.2231C18.4963 24.8532 22.2625 24.7305 24.777 26.855Z" fill="url(#paint19_linear_98_772)"/>
<path fill-rule="evenodd" clip-rule="evenodd" d="M11.5555 19.9111L18.3999 19.9111C21.7515 19.9111 24.5014 22.4874 24.7772 25.7677C22.2626 27.8924 18.4964 27.7697 16.1264 25.3998L11.2867 20.56C11.0955 20.3688 10.919 20.1686 10.7571 19.9607C11.0187 19.9279 11.2851 19.9111 11.5555 19.9111Z" fill="url(#paint20_linear_98_772)"/>
<path fill-rule="evenodd" clip-rule="evenodd" d="M36.0511 27.2231L40.8909 32.0629C41.082 32.254 41.2585 32.4543 41.4204 32.6622C41.1588 32.695 40.8924 32.7118 40.6221 32.7118H33.7777C30.426 32.7118 27.6761 30.1354 27.4004 26.8551C29.915 24.7305 33.6812 24.8532 36.0511 27.2231Z" fill="url(#paint21_linear_98_772)"/>
<path fill-rule="evenodd" clip-rule="evenodd" d="M31.8399 11.5091C32.031 11.3179 32.2312 11.1414 32.4391 10.9795C32.472 11.2411 32.4887 11.5075 32.4887 11.7778V18.6223C32.4887 21.9739 29.9124 24.7238 26.632 24.9995C24.5075 22.4849 24.6302 18.7187 27.0001 16.3488L31.8399 11.5091Z" fill="url(#paint22_linear_98_772)"/>
<path fill-rule="evenodd" clip-rule="evenodd" d="M25.5453 27.623L25.6002 27.6888C27.6677 30.2028 27.5267 33.9244 25.1773 36.2738L20.3376 41.1135C20.1465 41.3046 19.9462 41.4812 19.7383 41.6431C19.7055 41.3814 19.6887 41.1151 19.6887 40.8447L19.6887 34.0003C19.6887 30.6487 22.265 27.8988 25.5453 27.623Z" fill="url(#paint23_linear_98_772)"/>
<path fill-rule="evenodd" clip-rule="evenodd" d="M26.1157 24.2102L26.0888 24.2531C24.8048 22.191 24.8049 19.5571 26.089 17.4951C27.3514 19.5224 27.3728 22.1024 26.153 24.1483L26.1157 24.2102Z" fill="url(#paint24_linear_98_772)"/>
<path fill-rule="evenodd" clip-rule="evenodd" d="M26.1356 35.0511L26.0889 35.1274C24.8047 33.0653 24.8047 30.4313 26.0888 28.3691C27.3446 30.3856 27.3724 32.9488 26.1724 34.9894L26.1356 35.0511Z" fill="url(#paint25_linear_98_772)"/>
<path fill-rule="evenodd" clip-rule="evenodd" d="M34.9047 26.3116L34.8993 26.3151C32.8381 27.5958 30.207 27.5948 28.1467 26.3119C30.2089 25.0276 32.8427 25.0276 34.9047 26.3116Z" fill="url(#paint26_linear_98_772)"/>
<path fill-rule="evenodd" clip-rule="evenodd" d="M24.0308 26.3116L23.9879 26.3383C21.9323 27.5959 19.3206 27.587 17.2728 26.3118C19.3349 25.0276 21.9688 25.0276 24.0308 26.3116Z" fill="url(#paint27_linear_98_772)"/>
<path fill-rule="evenodd" clip-rule="evenodd" d="M27.5933 24.8453L27.5439 24.8567C28.0942 22.4906 29.9566 20.6282 32.3227 20.0781C31.7819 22.4043 29.9726 24.2437 27.6634 24.8279L27.5933 24.8453Z" fill="url(#paint28_linear_98_772)"/>
<path fill-rule="evenodd" clip-rule="evenodd" d="M19.9419 32.5236L19.855 32.5445C20.4051 30.1783 22.2675 28.3158 24.6337 27.7656C24.0958 30.0795 22.303 31.9116 20.0115 32.506L19.9419 32.5236Z" fill="url(#paint29_linear_98_772)"/>
<path fill-rule="evenodd" clip-rule="evenodd" d="M32.3227 32.5441L32.3165 32.5428C29.9533 31.9908 28.0936 30.1296 27.5439 27.7656C29.9102 28.3157 31.7726 30.1781 32.3227 32.5441Z" fill="url(#paint30_linear_98_772)"/>
<path fill-rule="evenodd" clip-rule="evenodd" d="M24.6338 24.8566L24.5845 24.8452C22.2417 24.2808 20.4013 22.4278 19.855 20.0781C22.2211 20.6282 24.0836 22.4906 24.6338 24.8566Z" fill="url(#paint31_linear_98_772)"/>
<g clip-path="url(#clip0_98_772)">
<g filter="url(#filter17_i_98_772)">
<path fill-rule="evenodd" clip-rule="evenodd" d="M26.0891 5.37891C29.6237 5.37891 32.4891 8.24428 32.4891 11.7789V18.6234C32.4891 22.158 29.6237 25.0234 26.0891 25.0234C22.5545 25.0234 19.6891 22.158 19.6891 18.6234V11.7789C19.6891 8.24428 22.5545 5.37891 26.0891 5.37891Z" fill="black" fill-opacity="0.01"/>
</g>
<g filter="url(#filter18_i_98_772)">
<path fill-rule="evenodd" clip-rule="evenodd" d="M26.0891 27.6006C29.6237 27.6006 32.4891 30.466 32.4891 34.0006V40.845C32.4891 44.3797 29.6237 47.245 26.0891 47.245C22.5545 47.245 19.6891 44.3797 19.6891 40.845V34.0006C19.6891 30.466 22.5545 27.6006 26.0891 27.6006Z" fill="black" fill-opacity="0.01"/>
</g>
<g filter="url(#filter19_i_98_772)">
<path fill-rule="evenodd" clip-rule="evenodd" d="M5.15576 26.3121C5.15576 22.7775 8.02114 19.9121 11.5558 19.9121H18.4002C21.9348 19.9121 24.8002 22.7775 24.8002 26.3121C24.8002 29.8467 21.9348 32.7121 18.4002 32.7121H11.5558C8.02114 32.7121 5.15576 29.8467 5.15576 26.3121Z" fill="black" fill-opacity="0.01"/>
</g>
<g filter="url(#filter20_i_98_772)">
<path fill-rule="evenodd" clip-rule="evenodd" d="M27.3779 26.3121C27.3779 22.7775 30.2433 19.9121 33.7779 19.9121H40.6224C44.157 19.9121 47.0224 22.7775 47.0224 26.3121C47.0224 29.8467 44.157 32.7121 40.6224 32.7121H33.7779C30.2433 32.7121 27.3779 29.8467 27.3779 26.3121Z" fill="black" fill-opacity="0.01"/>
</g>
<g filter="url(#filter21_i_98_772)">
<path fill-rule="evenodd" clip-rule="evenodd" d="M27.0004 25.401C24.501 22.9016 24.501 18.8494 27.0004 16.35L31.8401 11.5103C34.3395 9.0109 38.3917 9.0109 40.8911 11.5103C43.3904 14.0096 43.3904 18.0619 40.8911 20.5612L36.0513 25.401C33.552 27.9003 29.4997 27.9003 27.0004 25.401Z" fill="black" fill-opacity="0.01"/>
</g>
<g filter="url(#filter22_i_98_772)">
<path fill-rule="evenodd" clip-rule="evenodd" d="M11.2869 41.1139C8.78751 38.6145 8.78751 34.5623 11.2869 32.0629L16.1266 27.2231C18.626 24.7238 22.6782 24.7238 25.1776 27.2231C27.6769 29.7225 27.6769 33.7748 25.1776 36.2741L20.3378 41.1139C17.8385 43.6132 13.7862 43.6132 11.2869 41.1139Z" fill="black" fill-opacity="0.01"/>
</g>
<g filter="url(#filter23_i_98_772)">
<path fill-rule="evenodd" clip-rule="evenodd" d="M27.0004 27.2231C29.4997 24.7238 33.552 24.7238 36.0513 27.2231L40.8911 32.0629C43.3904 34.5623 43.3904 38.6145 40.8911 41.1139C38.3917 43.6132 34.3395 43.6132 31.8401 41.1139L27.0004 36.2741C24.501 33.7748 24.501 29.7225 27.0004 27.2231Z" fill="black" fill-opacity="0.01"/>
</g>
<g filter="url(#filter24_i_98_772)">
<path fill-rule="evenodd" clip-rule="evenodd" d="M11.2869 11.5103C13.7862 9.0109 17.8385 9.0109 20.3378 11.5103L25.1776 16.35C27.6769 18.8494 27.6769 22.9016 25.1776 25.401C22.6782 27.9003 18.626 27.9003 16.1266 25.401L11.2869 20.5612C8.78751 18.0619 8.78751 14.0096 11.2869 11.5103Z" fill="black" fill-opacity="0.01"/>
</g>
</g>
<mask id="mask1_98_772" style="mask-type:alpha" maskUnits="userSpaceOnUse" x="5" y="9" width="21" height="24">
<path fill-rule="evenodd" clip-rule="evenodd" d="M5.13696 26.3878C5.13696 29.9252 8.00438 32.7928 11.5417 32.7931L18.3829 32.7936C21.8845 32.7939 24.7299 29.984 24.7868 26.4959L24.7876 26.3894C24.7876 26.1934 24.7788 25.9994 24.7616 25.8078C24.8581 25.7248 24.9528 25.6383 25.0454 25.5484L25.1148 25.48C25.2724 25.3224 25.4201 25.1587 25.5579 24.9895C22.3156 24.719 19.7618 22.0263 19.711 18.7265L19.7103 18.6263L19.7103 11.6638C19.7104 11.4735 19.7188 11.2851 19.7352 11.099C17.2465 9.11499 13.622 9.25334 11.2915 11.5142L11.2209 11.5838C8.91151 13.8931 8.73418 17.5272 10.689 20.04C7.58656 20.4522 5.18566 23.086 5.13769 26.29L5.13696 26.3878Z" fill="white"/>
</mask>
<g mask="url(#mask1_98_772)">
<g filter="url(#filter25_f_98_772)">
<path fill-rule="evenodd" clip-rule="evenodd" d="M31.8007 17.7581C31.7547 14.6079 29.274 12.0329 26.1277 11.8695C22.9391 11.704 20.1823 14.0709 19.8634 17.2478L19.7074 18.8021C19.3404 22.4587 22.2795 25.6009 25.9524 25.4788C29.2608 25.3688 31.8718 22.6298 31.8235 19.32L31.8007 17.7581Z" fill="#250007" fill-opacity="0.4829"/>
</g>
</g>
<mask id="mask2_98_772" style="mask-type:alpha" maskUnits="userSpaceOnUse" x="5" y="20" width="23" height="24">
<path fill-rule="evenodd" clip-rule="evenodd" d="M11.31 41.1811C13.8113 43.6824 17.8666 43.6826 20.3681 41.1815L25.2059 36.3444C27.6821 33.8686 27.7072 29.8697 25.2809 27.363L25.2063 27.2871C25.0677 27.1485 24.9243 27.0176 24.7766 26.8943C24.7862 26.7674 24.792 26.6393 24.7939 26.5102L24.7946 26.4127C24.7946 26.1898 24.7832 25.9696 24.761 25.7526C22.2771 27.854 18.5673 27.7558 16.1981 25.4583L16.1267 25.388L11.2035 20.4648C11.069 20.3302 10.9417 20.191 10.8217 20.0478C7.65904 20.4047 5.19394 23.0654 5.1447 26.312L5.14394 26.4111C5.14394 29.677 7.58821 32.3721 10.7473 32.7667C8.84507 35.2519 9.00971 38.8119 11.2414 41.1115L11.31 41.1811Z" fill="white"/>
</mask>
<g mask="url(#mask2_98_772)">
<g filter="url(#filter26_f_98_772)">
<path fill-rule="evenodd" clip-rule="evenodd" d="M24.0619 16.2265C21.8018 14.0315 18.2269 13.9648 15.8866 16.0741C13.5149 18.2117 13.2392 21.8348 15.2601 24.3066L16.2488 25.5159C18.5749 28.3611 22.875 28.5047 25.3859 25.8212C27.6474 23.4041 27.5569 19.6211 25.1824 17.3148L24.0619 16.2265Z" fill="#250013" fill-opacity="0.528054"/>
</g>
</g>
<mask id="mask3_98_772" style="mask-type:alpha" maskUnits="userSpaceOnUse" x="9" y="26" width="24" height="22">
<path fill-rule="evenodd" clip-rule="evenodd" d="M26.1724 47.2188C29.7097 47.2188 32.5773 44.3513 32.5776 40.814L32.5782 33.9728C32.5785 30.4712 29.7685 27.6258 26.2804 27.5689L26.174 27.5681C25.9779 27.5681 25.7839 27.5769 25.5924 27.5941C25.5094 27.4976 25.4229 27.4029 25.333 27.3103L25.2646 27.2409C25.107 27.0833 24.9432 26.9356 24.774 26.7979C24.5035 30.0401 21.8109 32.5939 18.511 32.6447L18.4108 32.6454L11.4484 32.6454C11.258 32.6454 11.0696 32.6369 10.8835 32.6205C8.89954 35.1092 9.03789 38.7337 11.2988 41.0643L11.3683 41.1349C13.6777 43.4442 17.3117 43.6215 19.8245 41.6668C20.2368 44.7692 22.8705 47.1701 26.0746 47.218L26.1724 47.2188Z" fill="white"/>
</mask>
<g mask="url(#mask3_98_772)">
<g filter="url(#filter27_f_98_772)">
<path fill-rule="evenodd" clip-rule="evenodd" d="M17.5425 20.5554C14.3923 20.6013 11.8173 23.0821 11.654 26.2284C11.4884 29.417 13.8554 32.1738 17.0322 32.4927L18.5865 32.6487C22.2431 33.0157 25.3853 30.0766 25.2632 26.4037C25.1532 23.0953 22.4143 20.4843 19.1044 20.5326L17.5425 20.5554Z" fill="#040025" fill-opacity="0.528054"/>
</g>
</g>
<mask id="mask4_98_772" style="mask-type:alpha" maskUnits="userSpaceOnUse" x="19" y="25" width="24" height="23">
<path fill-rule="evenodd" clip-rule="evenodd" d="M40.9663 41.0464C43.4676 38.5451 43.4677 34.4898 40.9667 31.9884L36.1296 27.1505C33.6538 24.6743 29.6548 24.6492 27.1482 27.0755L27.0723 27.1501C26.9337 27.2888 26.8027 27.4322 26.6795 27.5798C26.5525 27.5702 26.4244 27.5645 26.2954 27.5625L26.1979 27.5618C25.975 27.5618 25.7548 27.5732 25.5378 27.5954C27.6391 30.0793 27.5409 33.7891 25.2435 36.1584L25.1732 36.2298L20.25 41.153C20.1153 41.2875 19.9761 41.4148 19.8329 41.5348C20.1898 44.6974 22.8506 47.1625 26.0972 47.2117L26.1963 47.2125C29.4622 47.2125 32.1572 44.7682 32.5518 41.6092C35.0371 43.5114 38.5971 43.3467 40.8966 41.115L40.9663 41.0464Z" fill="white"/>
</mask>
<g mask="url(#mask4_98_772)">
<g filter="url(#filter28_f_98_772)">
<path fill-rule="evenodd" clip-rule="evenodd" d="M16.01 28.2952C13.8149 30.5552 13.7482 34.1302 15.8575 36.4705C17.9951 38.8422 21.6182 39.1179 24.0901 37.097L25.2994 36.1083C28.1445 33.7822 28.2882 29.482 25.6047 26.9712C23.1875 24.7096 19.4045 24.8001 17.0983 27.1746L16.01 28.2952Z" fill="#000725" fill-opacity="0.528054"/>
</g>
</g>
<mask id="mask5_98_772" style="mask-type:alpha" maskUnits="userSpaceOnUse" x="26" y="19" width="22" height="24">
<path fill-rule="evenodd" clip-rule="evenodd" d="M47.0038 26.2723C47.0038 22.735 44.1364 19.8674 40.599 19.8671L33.7578 19.8665C30.2563 19.8662 27.4108 22.6762 27.354 26.1643L27.3531 26.2707C27.3531 26.4668 27.3619 26.6608 27.3792 26.8523C27.2826 26.9353 27.188 27.0218 27.0953 27.1117L27.0259 27.1801C26.8683 27.3377 26.7206 27.5015 26.5829 27.6707C29.8252 27.9412 32.379 30.6338 32.4297 33.9337L32.4305 34.0339L32.4305 40.9963C32.4304 41.1867 32.422 41.3751 32.4056 41.5612C34.8942 43.5452 38.5188 43.4068 40.8493 41.1459L40.9199 41.0764C43.2292 38.7671 43.4066 35.133 41.4518 32.6202C44.5542 32.2079 46.9551 29.5742 47.0031 26.3701L47.0038 26.2723Z" fill="white"/>
</mask>
<g mask="url(#mask5_98_772)">
<g filter="url(#filter29_f_98_772)">
<path fill-rule="evenodd" clip-rule="evenodd" d="M20.34 34.902C20.386 38.0523 22.8667 40.6273 26.0131 40.7906C29.2016 40.9562 31.9585 38.5892 32.2773 35.4123L32.4333 33.8581C32.8003 30.2015 29.8613 27.0592 26.1883 27.1814C22.88 27.2914 20.269 30.0303 20.3173 33.3401L20.34 34.902Z" fill="#001225" fill-opacity="0.528054"/>
</g>
</g>
<mask id="mask6_98_772" style="mask-type:alpha" maskUnits="userSpaceOnUse" x="25" y="9" width="22" height="24">
<path fill-rule="evenodd" clip-rule="evenodd" d="M40.8307 11.478C38.3294 8.97678 34.2741 8.97661 31.7727 11.4777L26.9348 16.3147C24.4586 18.7905 24.4335 22.7895 26.8598 25.2962L26.9344 25.372C27.0731 25.5107 27.2165 25.6416 27.3641 25.7649C27.3545 25.8918 27.3488 26.0199 27.3469 26.149L27.3461 26.2465C27.3461 26.4693 27.3575 26.6896 27.3797 26.9066C29.8636 24.8052 33.5734 24.9034 35.9427 27.2009L36.0141 27.2712L40.9373 32.1944C41.0718 32.329 41.1991 32.4682 41.3191 32.6114C44.4817 32.2545 46.9468 29.5938 46.9961 26.3472L46.9968 26.2481C46.9968 22.9822 44.5525 20.2871 41.3935 19.8925C43.2957 17.4073 43.131 13.8472 40.8993 11.5477L40.8307 11.478Z" fill="white"/>
</mask>
<g mask="url(#mask6_98_772)">
<g filter="url(#filter30_f_98_772)">
<path fill-rule="evenodd" clip-rule="evenodd" d="M28.0788 36.4336C30.3388 38.6287 33.9138 38.6954 36.2541 36.5861C38.6258 34.4485 38.9015 30.8254 36.8805 28.3535L35.8918 27.1442C33.5657 24.2991 29.2656 24.1554 26.7548 26.8389C24.4932 29.2561 24.5837 33.0391 26.9582 35.3453L28.0788 36.4336Z" fill="#002515" fill-opacity="0.601972"/>
</g>
</g>
<mask id="mask7_98_772" style="mask-type:alpha" maskUnits="userSpaceOnUse" x="19" y="5" width="24" height="21">
<path fill-rule="evenodd" clip-rule="evenodd" d="M26.0128 5.37988C22.4716 5.37988 19.6008 8.25046 19.6005 11.7917L19.5999 18.6415C19.5996 22.1469 22.4127 24.9955 25.9046 25.0524L26.0112 25.0533C26.2074 25.0533 26.4016 25.0445 26.5933 25.0272C26.6746 25.1217 26.7592 25.2144 26.8471 25.3052L26.9216 25.3809C27.0794 25.5387 27.2433 25.6865 27.4126 25.8244C27.6835 22.5784 30.3792 20.0216 33.683 19.9708L33.7833 19.97H40.7496L40.8584 19.971C41.0132 19.9735 41.1667 19.9816 41.3186 19.995C43.3033 17.5052 43.1664 13.88 40.9077 11.5465L40.8332 11.4708C38.5213 9.15882 34.8832 8.98129 32.3676 10.9384C31.9555 7.83513 29.3231 5.43296 26.1193 5.38075L26.0128 5.37988Z" fill="white"/>
</mask>
<g mask="url(#mask7_98_772)">
<g filter="url(#filter31_f_98_772)">
<path fill-rule="evenodd" clip-rule="evenodd" d="M40.5782 26.2919C40.7422 23.1323 38.3968 20.4004 35.2487 20.0845L33.155 19.8743C30.0532 19.563 27.2864 21.8251 26.975 24.9269C26.95 25.1765 26.9416 25.4275 26.95 25.6782C27.069 29.2587 30.0333 32.0845 33.6154 32.0322L34.6351 32.0174C37.8145 31.971 40.4133 29.4673 40.5782 26.2919Z" fill="#0F2500" fill-opacity="0.528054"/>
</g>
</g>
<mask id="mask8_98_772" style="mask-type:alpha" maskUnits="userSpaceOnUse" x="9" y="5" width="24" height="23">
<path fill-rule="evenodd" clip-rule="evenodd" d="M11.198 11.5444C8.69675 14.0457 8.69658 18.101 11.1976 20.6025L16.0347 25.4403C18.5105 27.9165 22.5095 27.9416 25.0161 25.5153L25.092 25.4407C25.2306 25.3021 25.3616 25.1586 25.4848 25.011C25.6118 25.0206 25.7399 25.0263 25.8689 25.0283L25.9664 25.029C26.1893 25.029 26.4094 25.0176 26.6264 24.9954C24.5252 22.5115 24.6234 18.8017 26.9208 16.4324L26.9911 16.3611L31.8515 11.5007C32.0061 11.3462 32.1667 11.2013 32.3325 11.066C31.98 7.89859 29.3172 5.42842 26.0672 5.37907L25.968 5.37832C22.7021 5.37832 20.0071 7.82259 19.6125 10.9816C17.1272 9.07945 13.5672 9.24408 11.2677 11.4758L11.198 11.5444Z" fill="white"/>
</mask>
<g mask="url(#mask8_98_772)">
<g filter="url(#filter32_f_98_772)">
<path fill-rule="evenodd" clip-rule="evenodd" d="M36.2721 16.0824C34.154 13.7323 30.5638 13.459 28.1144 15.4616L26.4853 16.7935C24.0718 18.7667 23.7149 22.3227 25.6881 24.7361C25.8469 24.9303 26.0184 25.1137 26.2016 25.2851C28.8175 27.7327 32.9117 27.6348 35.4077 25.0649L36.1183 24.3333C38.3337 22.0524 38.4009 18.4444 36.2721 16.0824Z" fill="#3F0000" fill-opacity="0.5"/>
</g>
</g>
<path fill-rule="evenodd" clip-rule="evenodd" d="M19.8738 20.0967C19.8738 20.0967 20.3403 22.409 22.4652 23.8794C24.5902 25.3498 26.6392 25.0012 26.6392 25.0012L26.4451 24.8009C26.4451 24.8009 24.7676 25.0439 22.8078 23.8794C20.848 22.715 19.8738 20.0967 19.8738 20.0967Z" fill="url(#paint32_linear_98_772)"/>
<path fill-rule="evenodd" clip-rule="evenodd" d="M26.0341 17.5684C25.1639 18.8783 24.8831 20.3807 25.1917 22.0756C25.5003 23.7705 26.2366 25.0407 27.4007 25.8863L27.4052 25.6074C26.4659 24.8872 25.8089 23.7906 25.4339 22.3179C25.059 20.8451 25.259 19.2619 26.0341 17.5684Z" fill="url(#paint33_linear_98_772)"/>
<path fill-rule="evenodd" clip-rule="evenodd" d="M32.2313 20.1276C30.6897 20.4386 29.4288 21.3024 28.4485 22.7191C27.4683 24.1357 27.0907 25.5546 27.3159 26.9757L27.5163 26.7817C27.3615 25.6082 27.6722 24.3682 28.4485 23.0617C29.2248 21.7551 30.4857 20.7771 32.2313 20.1276Z" fill="url(#paint34_linear_98_772)"/>
<path fill-rule="evenodd" clip-rule="evenodd" d="M34.8564 26.3376C33.5464 25.4674 32.044 25.1866 30.3491 25.4952C28.6542 25.8037 27.406 26.5231 26.6045 27.6533L26.8833 27.6578C27.5596 26.7525 28.6341 26.1123 30.1069 25.7374C31.5796 25.3625 33.1628 25.5625 34.8564 26.3376Z" fill="url(#paint35_linear_98_772)"/>
<path fill-rule="evenodd" clip-rule="evenodd" d="M32.2629 32.5065C31.9519 30.965 31.0881 29.704 29.6714 28.7238C28.2548 27.7435 26.8635 27.3696 25.4975 27.602L25.6915 27.8023C26.8099 27.6403 28.0223 27.9475 29.3288 28.7238C30.6354 29.5001 31.6134 30.761 32.2629 32.5065Z" fill="url(#paint36_linear_98_772)"/>
<path fill-rule="evenodd" clip-rule="evenodd" d="M26.1088 34.9974C26.9789 33.6874 27.2597 32.185 26.9512 30.4901C26.6426 28.7953 25.9232 27.547 24.793 26.7455L24.7885 27.0243C25.6938 27.7006 26.334 28.7751 26.7089 30.2479C27.0838 31.7207 26.8838 33.3038 26.1088 34.9974Z" fill="url(#paint37_linear_98_772)"/>
<path fill-rule="evenodd" clip-rule="evenodd" d="M19.8502 32.4931C21.3918 32.1822 22.6527 31.3184 23.633 29.9017C24.6132 28.485 24.9871 27.0937 24.7548 25.7278L24.5544 25.9218C24.7164 27.0401 24.4092 28.2526 23.633 29.5591C22.8567 30.8656 21.5957 31.8437 19.8502 32.4931Z" fill="url(#paint38_linear_98_772)"/>
<path fill-rule="evenodd" clip-rule="evenodd" d="M17.2712 26.3385C18.5812 27.2087 20.0836 27.4895 21.7785 27.1809C23.4733 26.8723 24.7215 26.1529 25.5231 25.0227L25.2442 25.0183C24.568 25.9236 23.4935 26.5637 22.0207 26.9387C20.5479 27.3136 18.9648 27.1136 17.2712 26.3385Z" fill="url(#paint39_linear_98_772)"/>
</g>
</g>
<defs>
<filter id="filter0_d_98_772" x="0.4" y="0.844445" width="51.2" height="51.2" filterUnits="userSpaceOnUse" color-interpolation-filters="sRGB">
<feFlood flood-opacity="0" result="BackgroundImageFix"/>
<feColorMatrix in="SourceAlpha" type="matrix" values="0 0 0 0 0 0 0 0 0 0 0 0 0 0 0 0 0 0 127 0" result="hardAlpha"/>
<feOffset dy="0.444444"/>
<feGaussianBlur stdDeviation="0.8"/>
<feColorMatrix type="matrix" values="0 0 0 0 0 0 0 0 0 0 0 0 0 0 0 0 0 0 0.4 0"/>
<feBlend mode="normal" in2="BackgroundImageFix" result="effect1_dropShadow_98_772"/>
<feBlend mode="normal" in="SourceGraphic" in2="effect1_dropShadow_98_772" result="shape"/>
</filter>
<filter id="filter1_f_98_772" x="17.5141" y="4.53729" width="17.1493" height="23.9938" filterUnits="userSpaceOnUse" color-interpolation-filters="sRGB">
<feFlood flood-opacity="0" result="BackgroundImageFix"/>
<feBlend mode="normal" in="SourceGraphic" in2="BackgroundImageFix" result="shape"/>
<feGaussianBlur stdDeviation="1.08731" result="effect1_foregroundBlur_98_772"/>
</filter>
<filter id="filter2_f_98_772" x="17.5141" y="26.7599" width="17.1493" height="23.9938" filterUnits="userSpaceOnUse" color-interpolation-filters="sRGB">
<feFlood flood-opacity="0" result="BackgroundImageFix"/>
<feBlend mode="normal" in="SourceGraphic" in2="BackgroundImageFix" result="shape"/>
<feGaussianBlur stdDeviation="1.08731" result="effect1_foregroundBlur_98_772"/>
</filter>
<filter id="filter3_f_98_772" x="25.2031" y="19.0705" width="23.9937" height="17.1491" filterUnits="userSpaceOnUse" color-interpolation-filters="sRGB">
<feFlood flood-opacity="0" result="BackgroundImageFix"/>
<feBlend mode="normal" in="SourceGraphic" in2="BackgroundImageFix" result="shape"/>
<feGaussianBlur stdDeviation="1.08731" result="effect1_foregroundBlur_98_772"/>
</filter>
<filter id="filter4_f_98_772" x="2.98077" y="19.0705" width="23.9937" height="17.1491" filterUnits="userSpaceOnUse" color-interpolation-filters="sRGB">
<feFlood flood-opacity="0" result="BackgroundImageFix"/>
<feBlend mode="normal" in="SourceGraphic" in2="BackgroundImageFix" result="shape"/>
<feGaussianBlur stdDeviation="1.08731" result="effect1_foregroundBlur_98_772"/>
</filter>
<filter id="filter5_f_98_772" x="22.951" y="8.79412" width="21.989" height="21.9889" filterUnits="userSpaceOnUse" color-interpolation-filters="sRGB">
<feFlood flood-opacity="0" result="BackgroundImageFix"/>
<feBlend mode="normal" in="SourceGraphic" in2="BackgroundImageFix" result="shape"/>
<feGaussianBlur stdDeviation="1.08731" result="effect1_foregroundBlur_98_772"/>
</filter>
<filter id="filter6_f_98_772" x="7.23736" y="24.508" width="21.989" height="21.9889" filterUnits="userSpaceOnUse" color-interpolation-filters="sRGB">
<feFlood flood-opacity="0" result="BackgroundImageFix"/>
<feBlend mode="normal" in="SourceGraphic" in2="BackgroundImageFix" result="shape"/>
<feGaussianBlur stdDeviation="1.08731" result="effect1_foregroundBlur_98_772"/>
</filter>
<filter id="filter7_f_98_772" x="22.951" y="24.508" width="21.989" height="21.9889" filterUnits="userSpaceOnUse" color-interpolation-filters="sRGB">
<feFlood flood-opacity="0" result="BackgroundImageFix"/>
<feBlend mode="normal" in="SourceGraphic" in2="BackgroundImageFix" result="shape"/>
<feGaussianBlur stdDeviation="1.08731" result="effect1_foregroundBlur_98_772"/>
</filter>
<filter id="filter8_f_98_772" x="7.23736" y="8.79412" width="21.989" height="21.9889" filterUnits="userSpaceOnUse" color-interpolation-filters="sRGB">
<feFlood flood-opacity="0" result="BackgroundImageFix"/>
<feBlend mode="normal" in="SourceGraphic" in2="BackgroundImageFix" result="shape"/>
<feGaussianBlur stdDeviation="1.08731" result="effect1_foregroundBlur_98_772"/>
</filter>
<filter id="filter9_f_98_772" x="18.9637" y="5.09739" width="14.2498" height="21.0943" filterUnits="userSpaceOnUse" color-interpolation-filters="sRGB">
<feFlood flood-opacity="0" result="BackgroundImageFix"/>
<feBlend mode="normal" in="SourceGraphic" in2="BackgroundImageFix" result="shape"/>
<feGaussianBlur stdDeviation="0.362438" result="effect1_foregroundBlur_98_772"/>
</filter>
<filter id="filter10_f_98_772" x="18.9637" y="27.32" width="14.2498" height="21.0943" filterUnits="userSpaceOnUse" color-interpolation-filters="sRGB">
<feFlood flood-opacity="0" result="BackgroundImageFix"/>
<feBlend mode="normal" in="SourceGraphic" in2="BackgroundImageFix" result="shape"/>
<feGaussianBlur stdDeviation="0.362438" result="effect1_foregroundBlur_98_772"/>
</filter>
<filter id="filter11_f_98_772" x="26.6527" y="19.6306" width="21.0942" height="14.2496" filterUnits="userSpaceOnUse" color-interpolation-filters="sRGB">
<feFlood flood-opacity="0" result="BackgroundImageFix"/>
<feBlend mode="normal" in="SourceGraphic" in2="BackgroundImageFix" result="shape"/>
<feGaussianBlur stdDeviation="0.362438" result="effect1_foregroundBlur_98_772"/>
</filter>
<filter id="filter12_f_98_772" x="4.43052" y="19.6306" width="21.0942" height="14.2496" filterUnits="userSpaceOnUse" color-interpolation-filters="sRGB">
<feFlood flood-opacity="0" result="BackgroundImageFix"/>
<feBlend mode="normal" in="SourceGraphic" in2="BackgroundImageFix" result="shape"/>
<feGaussianBlur stdDeviation="0.362438" result="effect1_foregroundBlur_98_772"/>
</filter>
<filter id="filter13_f_98_772" x="24.4006" y="9.35423" width="19.0895" height="19.0894" filterUnits="userSpaceOnUse" color-interpolation-filters="sRGB">
<feFlood flood-opacity="0" result="BackgroundImageFix"/>
<feBlend mode="normal" in="SourceGraphic" in2="BackgroundImageFix" result="shape"/>
<feGaussianBlur stdDeviation="0.362438" result="effect1_foregroundBlur_98_772"/>
</filter>
<filter id="filter14_f_98_772" x="8.68711" y="25.0681" width="19.0895" height="19.0894" filterUnits="userSpaceOnUse" color-interpolation-filters="sRGB">
<feFlood flood-opacity="0" result="BackgroundImageFix"/>
<feBlend mode="normal" in="SourceGraphic" in2="BackgroundImageFix" result="shape"/>
<feGaussianBlur stdDeviation="0.362438" result="effect1_foregroundBlur_98_772"/>
</filter>
<filter id="filter15_f_98_772" x="24.4006" y="25.0681" width="19.0895" height="19.0894" filterUnits="userSpaceOnUse" color-interpolation-filters="sRGB">
<feFlood flood-opacity="0" result="BackgroundImageFix"/>
<feBlend mode="normal" in="SourceGraphic" in2="BackgroundImageFix" result="shape"/>
<feGaussianBlur stdDeviation="0.362438" result="effect1_foregroundBlur_98_772"/>
</filter>
<filter id="filter16_f_98_772" x="8.68711" y="9.35423" width="19.0895" height="19.0894" filterUnits="userSpaceOnUse" color-interpolation-filters="sRGB">
<feFlood flood-opacity="0" result="BackgroundImageFix"/>
<feBlend mode="normal" in="SourceGraphic" in2="BackgroundImageFix" result="shape"/>
<feGaussianBlur stdDeviation="0.362438" result="effect1_foregroundBlur_98_772"/>
</filter>
<filter id="filter17_i_98_772" x="19.6891" y="5.37891" width="12.8" height="19.6445" filterUnits="userSpaceOnUse" color-interpolation-filters="sRGB">
<feFlood flood-opacity="0" result="BackgroundImageFix"/>
<feBlend mode="normal" in="SourceGraphic" in2="BackgroundImageFix" result="shape"/>
<feColorMatrix in="SourceAlpha" type="matrix" values="0 0 0 0 0 0 0 0 0 0 0 0 0 0 0 0 0 0 127 0" result="hardAlpha"/>
<feOffset dx="0.355556" dy="-0.0888889"/>
<feComposite in2="hardAlpha" operator="arithmetic" k2="-1" k3="1"/>
<feColorMatrix type="matrix" values="0 0 0 0 0 0 0 0 0 0 0 0 0 0 0 0 0 0 0.05 0"/>
<feBlend mode="normal" in2="shape" result="effect1_innerShadow_98_772"/>
</filter>
<filter id="filter18_i_98_772" x="19.6891" y="27.6006" width="12.8" height="19.6445" filterUnits="userSpaceOnUse" color-interpolation-filters="sRGB">
<feFlood flood-opacity="0" result="BackgroundImageFix"/>
<feBlend mode="normal" in="SourceGraphic" in2="BackgroundImageFix" result="shape"/>
<feColorMatrix in="SourceAlpha" type="matrix" values="0 0 0 0 0 0 0 0 0 0 0 0 0 0 0 0 0 0 127 0" result="hardAlpha"/>
<feOffset dx="-0.355556" dy="-0.0888889"/>
<feComposite in2="hardAlpha" operator="arithmetic" k2="-1" k3="1"/>
<feColorMatrix type="matrix" values="0 0 0 0 0 0 0 0 0 0 0 0 0 0 0 0 0 0 0.05 0"/>
<feBlend mode="normal" in2="shape" result="effect1_innerShadow_98_772"/>
</filter>
<filter id="filter19_i_98_772" x="5.15576" y="19.9121" width="19.6444" height="12.7998" filterUnits="userSpaceOnUse" color-interpolation-filters="sRGB">
<feFlood flood-opacity="0" result="BackgroundImageFix"/>
<feBlend mode="normal" in="SourceGraphic" in2="BackgroundImageFix" result="shape"/>
<feColorMatrix in="SourceAlpha" type="matrix" values="0 0 0 0 0 0 0 0 0 0 0 0 0 0 0 0 0 0 127 0" result="hardAlpha"/>
<feOffset dx="0.355556" dy="-0.0888889"/>
<feComposite in2="hardAlpha" operator="arithmetic" k2="-1" k3="1"/>
<feColorMatrix type="matrix" values="0 0 0 0 0 0 0 0 0 0 0 0 0 0 0 0 0 0 0.05 0"/>
<feBlend mode="normal" in2="shape" result="effect1_innerShadow_98_772"/>
</filter>
<filter id="filter20_i_98_772" x="27.3779" y="19.9121" width="19.6444" height="12.7998" filterUnits="userSpaceOnUse" color-interpolation-filters="sRGB">
<feFlood flood-opacity="0" result="BackgroundImageFix"/>
<feBlend mode="normal" in="SourceGraphic" in2="BackgroundImageFix" result="shape"/>
<feColorMatrix in="SourceAlpha" type="matrix" values="0 0 0 0 0 0 0 0 0 0 0 0 0 0 0 0 0 0 127 0" result="hardAlpha"/>
<feOffset dx="-0.355556" dy="-0.0888889"/>
<feComposite in2="hardAlpha" operator="arithmetic" k2="-1" k3="1"/>
<feColorMatrix type="matrix" values="0 0 0 0 0 0 0 0 0 0 0 0 0 0 0 0 0 0 0.05 0"/>
<feBlend mode="normal" in2="shape" result="effect1_innerShadow_98_772"/>
</filter>
<filter id="filter21_i_98_772" x="25.1259" y="9.63574" width="17.6398" height="17.6396" filterUnits="userSpaceOnUse" color-interpolation-filters="sRGB">
<feFlood flood-opacity="0" result="BackgroundImageFix"/>
<feBlend mode="normal" in="SourceGraphic" in2="BackgroundImageFix" result="shape"/>
<feColorMatrix in="SourceAlpha" type="matrix" values="0 0 0 0 0 0 0 0 0 0 0 0 0 0 0 0 0 0 127 0" result="hardAlpha"/>
<feOffset dx="-0.355556" dy="-0.0888889"/>
<feComposite in2="hardAlpha" operator="arithmetic" k2="-1" k3="1"/>
<feColorMatrix type="matrix" values="0 0 0 0 0 0 0 0 0 0 0 0 0 0 0 0 0 0 0.05 0"/>
<feBlend mode="normal" in2="shape" result="effect1_innerShadow_98_772"/>
</filter>
<filter id="filter22_i_98_772" x="9.41235" y="25.3486" width="17.6398" height="17.6396" filterUnits="userSpaceOnUse" color-interpolation-filters="sRGB">
<feFlood flood-opacity="0" result="BackgroundImageFix"/>
<feBlend mode="normal" in="SourceGraphic" in2="BackgroundImageFix" result="shape"/>
<feColorMatrix in="SourceAlpha" type="matrix" values="0 0 0 0 0 0 0 0 0 0 0 0 0 0 0 0 0 0 127 0" result="hardAlpha"/>
<feOffset dx="0.355556" dy="-0.0888889"/>
<feComposite in2="hardAlpha" operator="arithmetic" k2="-1" k3="1"/>
<feColorMatrix type="matrix" values="0 0 0 0 0 0 0 0 0 0 0 0 0 0 0 0 0 0 0.05 0"/>
<feBlend mode="normal" in2="shape" result="effect1_innerShadow_98_772"/>
</filter>
<filter id="filter23_i_98_772" x="25.1259" y="25.3486" width="17.6398" height="17.6396" filterUnits="userSpaceOnUse" color-interpolation-filters="sRGB">
<feFlood flood-opacity="0" result="BackgroundImageFix"/>
<feBlend mode="normal" in="SourceGraphic" in2="BackgroundImageFix" result="shape"/>
<feColorMatrix in="SourceAlpha" type="matrix" values="0 0 0 0 0 0 0 0 0 0 0 0 0 0 0 0 0 0 127 0" result="hardAlpha"/>
<feOffset dx="-0.533333" dy="-0.0888889"/>
<feComposite in2="hardAlpha" operator="arithmetic" k2="-1" k3="1"/>
<feColorMatrix type="matrix" values="0 0 0 0 0 0 0 0 0 0 0 0 0 0 0 0 0 0 0.05 0"/>
<feBlend mode="normal" in2="shape" result="effect1_innerShadow_98_772"/>
</filter>
<filter id="filter24_i_98_772" x="9.41235" y="9.63574" width="17.6398" height="17.6396" filterUnits="userSpaceOnUse" color-interpolation-filters="sRGB">
<feFlood flood-opacity="0" result="BackgroundImageFix"/>
<feBlend mode="normal" in="SourceGraphic" in2="BackgroundImageFix" result="shape"/>
<feColorMatrix in="SourceAlpha" type="matrix" values="0 0 0 0 0 0 0 0 0 0 0 0 0 0 0 0 0 0 127 0" result="hardAlpha"/>
<feOffset dx="0.355556" dy="-0.0888889"/>
<feComposite in2="hardAlpha" operator="arithmetic" k2="-1" k3="1"/>
<feColorMatrix type="matrix" values="0 0 0 0 0 0 0 0 0 0 0 0 0 0 0 0 0 0 0.05 0"/>
<feBlend mode="normal" in2="shape" result="effect1_innerShadow_98_772"/>
</filter>
<filter id="filter25_f_98_772" x="18.4683" y="10.6532" width="14.564" height="16.0373" filterUnits="userSpaceOnUse" color-interpolation-filters="sRGB">
<feFlood flood-opacity="0" result="BackgroundImageFix"/>
<feBlend mode="normal" in="SourceGraphic" in2="BackgroundImageFix" result="shape"/>
<feGaussianBlur stdDeviation="0.604063" result="effect1_foregroundBlur_98_772"/>
</filter>
<filter id="filter26_f_98_772" x="12.7006" y="13.327" width="15.532" height="15.6262" filterUnits="userSpaceOnUse" color-interpolation-filters="sRGB">
<feFlood flood-opacity="0" result="BackgroundImageFix"/>
<feBlend mode="normal" in="SourceGraphic" in2="BackgroundImageFix" result="shape"/>
<feGaussianBlur stdDeviation="0.604063" result="effect1_foregroundBlur_98_772"/>
</filter>
<filter id="filter27_f_98_772" x="10.4376" y="19.3241" width="16.0372" height="14.5637" filterUnits="userSpaceOnUse" color-interpolation-filters="sRGB">
<feFlood flood-opacity="0" result="BackgroundImageFix"/>
<feBlend mode="normal" in="SourceGraphic" in2="BackgroundImageFix" result="shape"/>
<feGaussianBlur stdDeviation="0.604063" result="effect1_foregroundBlur_98_772"/>
</filter>
<filter id="filter28_f_98_772" x="13.1105" y="24.1249" width="15.6263" height="15.5315" filterUnits="userSpaceOnUse" color-interpolation-filters="sRGB">
<feFlood flood-opacity="0" result="BackgroundImageFix"/>
<feBlend mode="normal" in="SourceGraphic" in2="BackgroundImageFix" result="shape"/>
<feGaussianBlur stdDeviation="0.604063" result="effect1_foregroundBlur_98_772"/>
</filter>
<filter id="filter29_f_98_772" x="19.1085" y="25.9696" width="14.564" height="16.0373" filterUnits="userSpaceOnUse" color-interpolation-filters="sRGB">
<feFlood flood-opacity="0" result="BackgroundImageFix"/>
<feBlend mode="normal" in="SourceGraphic" in2="BackgroundImageFix" result="shape"/>
<feGaussianBlur stdDeviation="0.604063" result="effect1_foregroundBlur_98_772"/>
</filter>
<filter id="filter30_f_98_772" x="23.9081" y="23.7069" width="15.532" height="15.6262" filterUnits="userSpaceOnUse" color-interpolation-filters="sRGB">
<feFlood flood-opacity="0" result="BackgroundImageFix"/>
<feBlend mode="normal" in="SourceGraphic" in2="BackgroundImageFix" result="shape"/>
<feGaussianBlur stdDeviation="0.604063" result="effect1_foregroundBlur_98_772"/>
</filter>
<filter id="filter31_f_98_772" x="25.7387" y="18.6376" width="16.0558" height="14.6038" filterUnits="userSpaceOnUse" color-interpolation-filters="sRGB">
<feFlood flood-opacity="0" result="BackgroundImageFix"/>
<feBlend mode="normal" in="SourceGraphic" in2="BackgroundImageFix" result="shape"/>
<feGaussianBlur stdDeviation="0.604063" result="effect1_foregroundBlur_98_772"/>
</filter>
<filter id="filter32_f_98_772" x="23.2052" y="12.9139" width="15.8282" height="15.3528" filterUnits="userSpaceOnUse" color-interpolation-filters="sRGB">
<feFlood flood-opacity="0" result="BackgroundImageFix"/>
<feBlend mode="normal" in="SourceGraphic" in2="BackgroundImageFix" result="shape"/>
<feGaussianBlur stdDeviation="0.604063" result="effect1_foregroundBlur_98_772"/>
</filter>
<linearGradient id="paint0_linear_98_772" x1="22.1036" y1="6.71191" x2="22.1036" y2="18.944" gradientUnits="userSpaceOnUse">
<stop stop-color="#FA972A"/>
<stop offset="1" stop-color="#FEB32C"/>
</linearGradient>
<linearGradient id="paint1_linear_98_772" x1="19.6887" y1="28.9346" x2="19.6887" y2="48.579" gradientUnits="userSpaceOnUse">
<stop stop-color="#769CD4"/>
<stop offset="1" stop-color="#5EB4E6"/>
</linearGradient>
<linearGradient id="paint2_linear_98_772" x1="27.3777" y1="21.2451" x2="27.3777" y2="34.0451" gradientUnits="userSpaceOnUse">
<stop stop-color="#C1D835"/>
<stop offset="1" stop-color="#8CC549"/>
</linearGradient>
<linearGradient id="paint3_linear_98_772" x1="5.1554" y1="21.2451" x2="5.1554" y2="34.0451" gradientUnits="userSpaceOnUse">
<stop stop-color="#F0638F"/>
<stop offset="1" stop-color="#CC86BC"/>
</linearGradient>
<linearGradient id="paint4_linear_98_772" x1="25.1256" y1="10.9688" x2="25.1256" y2="28.6085" gradientUnits="userSpaceOnUse">
<stop stop-color="#FEE214"/>
<stop offset="1" stop-color="#ECE01A"/>
</linearGradient>
<linearGradient id="paint5_linear_98_772" x1="9.41199" y1="26.6826" x2="9.41199" y2="44.3224" gradientUnits="userSpaceOnUse">
<stop stop-color="#D8A6F6"/>
<stop offset="1" stop-color="#897DC8"/>
</linearGradient>
<linearGradient id="paint6_linear_98_772" x1="25.1256" y1="26.6826" x2="25.1256" y2="44.3224" gradientUnits="userSpaceOnUse">
<stop stop-color="#64C27C"/>
<stop offset="1" stop-color="#6AB5DB"/>
</linearGradient>
<linearGradient id="paint7_linear_98_772" x1="9.41199" y1="10.9688" x2="9.41199" y2="28.6085" gradientUnits="userSpaceOnUse">
<stop stop-color="#FC7657"/>
<stop offset="1" stop-color="#F54956"/>
</linearGradient>
<linearGradient id="paint8_linear_98_772" x1="22.1036" y1="5.37891" x2="22.1036" y2="17.611" gradientUnits="userSpaceOnUse">
<stop stop-color="#FA972A"/>
<stop offset="1" stop-color="#FEB32C"/>
</linearGradient>
<linearGradient id="paint9_linear_98_772" x1="27.8963" y1="47.8961" x2="33.0879" y2="39.5844" gradientUnits="userSpaceOnUse">
<stop stop-color="#769CD4"/>
<stop offset="1" stop-color="#5EB4E6"/>
</linearGradient>
<linearGradient id="paint10_linear_98_772" x1="38.7446" y1="31.5252" x2="47.4987" y2="27.2993" gradientUnits="userSpaceOnUse">
<stop stop-color="#C1D835"/>
<stop offset="1" stop-color="#8CC549"/>
</linearGradient>
<linearGradient id="paint11_linear_98_772" x1="16.2481" y1="23.1937" x2="6.67639" y2="23.1937" gradientUnits="userSpaceOnUse">
<stop stop-color="#F0638F"/>
<stop offset="1" stop-color="#CC86BC"/>
</linearGradient>
<linearGradient id="paint12_linear_98_772" x1="37.1867" y1="8.47015" x2="30.5996" y2="15.162" gradientUnits="userSpaceOnUse">
<stop stop-color="#FEE214"/>
<stop offset="1" stop-color="#ECE01A"/>
</linearGradient>
<linearGradient id="paint13_linear_98_772" x1="15.4808" y1="28.7074" x2="7.26991" y2="37.1316" gradientUnits="userSpaceOnUse">
<stop stop-color="#D8A6F6"/>
<stop offset="1" stop-color="#897DC8"/>
</linearGradient>
<linearGradient id="paint14_linear_98_772" x1="44.1246" y1="36.6943" x2="36.406" y2="28.965" gradientUnits="userSpaceOnUse">
<stop stop-color="#64C27C"/>
<stop offset="1" stop-color="#6AB5DB"/>
</linearGradient>
<linearGradient id="paint15_linear_98_772" x1="23.0768" y1="16.1614" x2="15.4219" y2="8.92792" gradientUnits="userSpaceOnUse">
<stop stop-color="#FC7657"/>
<stop offset="1" stop-color="#F54956"/>
</linearGradient>
<linearGradient id="paint16_linear_98_772" x1="16.0072" y1="16.5474" x2="26.5266" y2="23.503" gradientUnits="userSpaceOnUse">
<stop stop-color="#F75111"/>
<stop offset="1" stop-color="#FF8216"/>
</linearGradient>
<linearGradient id="paint17_linear_98_772" x1="22.8941" y1="33.2525" x2="33.4579" y2="40.161" gradientUnits="userSpaceOnUse">
<stop stop-color="#6A90D3"/>
<stop offset="1" stop-color="#378494"/>
</linearGradient>
<linearGradient id="paint18_linear_98_772" x1="35.9216" y1="16.2296" x2="28.912" y2="26.699" gradientUnits="userSpaceOnUse">
<stop stop-color="#A0BF10"/>
<stop offset="1" stop-color="#93BB26"/>
</linearGradient>
<linearGradient id="paint19_linear_98_772" x1="19.2184" y1="23.1915" x2="12.2556" y2="33.7042" gradientUnits="userSpaceOnUse">
<stop stop-color="#E25773"/>
<stop offset="1" stop-color="#985289"/>
</linearGradient>
<linearGradient id="paint20_linear_98_772" x1="3.74704" y1="22.844" x2="8.0325" y2="33.087" gradientUnits="userSpaceOnUse">
<stop stop-color="#D2242B"/>
<stop offset="1" stop-color="#FF422C"/>
</linearGradient>
<linearGradient id="paint21_linear_98_772" x1="23.4287" y1="28.2324" x2="27.6087" y2="38.3935" gradientUnits="userSpaceOnUse">
<stop stop-color="#50AE93"/>
<stop offset="1" stop-color="#4FA84B"/>
</linearGradient>
<linearGradient id="paint22_linear_98_772" x1="29.5967" y1="3.96947" x2="19.4219" y2="8.16711" gradientUnits="userSpaceOnUse">
<stop stop-color="#EAA208"/>
<stop offset="1" stop-color="#D7D00B"/>
</linearGradient>
<linearGradient id="paint23_linear_98_772" x1="24.1319" y1="23.5134" x2="13.9105" y2="27.7711" gradientUnits="userSpaceOnUse">
<stop stop-color="#9E7DC1"/>
<stop offset="1" stop-color="#495FA6"/>
</linearGradient>
<linearGradient id="paint24_linear_98_772" x1="25.1259" y1="17.4951" x2="25.1259" y2="24.2531" gradientUnits="userSpaceOnUse">
<stop stop-color="#C7621B"/>
<stop offset="1" stop-color="#B57C13"/>
</linearGradient>
<linearGradient id="paint25_linear_98_772" x1="25.1257" y1="28.3691" x2="25.1257" y2="35.1274" gradientUnits="userSpaceOnUse">
<stop stop-color="#534F91"/>
<stop offset="1" stop-color="#3F417F"/>
</linearGradient>
<linearGradient id="paint26_linear_98_772" x1="28.1467" y1="27.2748" x2="34.9047" y2="27.2748" gradientUnits="userSpaceOnUse">
<stop stop-color="#327638"/>
<stop offset="1" stop-color="#2C732B"/>
</linearGradient>
<linearGradient id="paint27_linear_98_772" x1="24.0308" y1="25.3486" x2="17.2728" y2="25.3486" gradientUnits="userSpaceOnUse">
<stop stop-color="#BA2920"/>
<stop offset="1" stop-color="#952425"/>
</linearGradient>
<linearGradient id="paint28_linear_98_772" x1="27.5439" y1="20.0781" x2="27.5439" y2="24.8567" gradientUnits="userSpaceOnUse">
<stop stop-color="#789A1B"/>
<stop offset="1" stop-color="#609C1C"/>
</linearGradient>
<linearGradient id="paint29_linear_98_772" x1="19.855" y1="27.7656" x2="19.855" y2="32.5445" gradientUnits="userSpaceOnUse">
<stop stop-color="#7D3B5D"/>
<stop offset="1" stop-color="#5C2F55"/>
</linearGradient>
<linearGradient id="paint30_linear_98_772" x1="32.3227" y1="27.7656" x2="27.5439" y2="27.7656" gradientUnits="userSpaceOnUse">
<stop stop-color="#2E6043"/>
<stop offset="1" stop-color="#366157"/>
</linearGradient>
<linearGradient id="paint31_linear_98_772" x1="19.855" y1="24.8566" x2="24.6338" y2="24.8566" gradientUnits="userSpaceOnUse">
<stop stop-color="#C01D0E"/>
<stop offset="1" stop-color="#D12C11"/>
</linearGradient>
<linearGradient id="paint32_linear_98_772" x1="20.8074" y1="19.1631" x2="26.6423" y2="24.9981" gradientUnits="userSpaceOnUse">
<stop stop-color="#B80000"/>
<stop offset="1" stop-color="#4D0801"/>
</linearGradient>
<linearGradient id="paint33_linear_98_772" x1="28.7038" y1="19.794" x2="27.8808" y2="25.495" gradientUnits="userSpaceOnUse">
<stop stop-color="#B1560C"/>
<stop offset="1" stop-color="#2D2803"/>
</linearGradient>
<linearGradient id="paint34_linear_98_772" x1="33.5051" y1="20.6656" x2="33.7179" y2="26.3616" gradientUnits="userSpaceOnUse">
<stop stop-color="#6F7F01"/>
<stop offset="1" stop-color="#354B01"/>
</linearGradient>
<linearGradient id="paint35_linear_98_772" x1="34.1181" y1="30.3832" x2="26.5343" y2="28.9993" gradientUnits="userSpaceOnUse">
<stop stop-color="#126105"/>
<stop offset="1" stop-color="#274D23"/>
</linearGradient>
<linearGradient id="paint36_linear_98_772" x1="35.5474" y1="34.5945" x2="31.9224" y2="36.6166" gradientUnits="userSpaceOnUse">
<stop stop-color="#18572E"/>
<stop offset="1" stop-color="#0A446C"/>
</linearGradient>
<linearGradient id="paint37_linear_98_772" x1="21.6265" y1="33.2611" x2="24.0434" y2="26.1351" gradientUnits="userSpaceOnUse">
<stop stop-color="#28356F"/>
<stop offset="1" stop-color="#2C1C59"/>
</linearGradient>
<linearGradient id="paint38_linear_98_772" x1="25.8261" y1="27.6487" x2="20.8269" y2="32.6478" gradientUnits="userSpaceOnUse">
<stop stop-color="#432150"/>
<stop offset="1" stop-color="#6D0D34"/>
</linearGradient>
<linearGradient id="paint39_linear_98_772" x1="25.3303" y1="28.8253" x2="17.7596" y2="28.3414" gradientUnits="userSpaceOnUse">
<stop stop-color="#790718"/>
<stop offset="1" stop-color="#8C0A0D"/>
</linearGradient>
<clipPath id="clip0_98_772">
<rect width="41.9556" height="41.8667" fill="white" transform="translate(5.11108 5.37891)"/>
</clipPath>
</defs>
</svg>
