<svg width="52" height="53" viewBox="0 0 52 53" fill="none" xmlns="http://www.w3.org/2000/svg">
<g filter="url(#filter0_d_98_402)">
<path d="M49.9968 15.2396C49.994 14.7595 49.9885 14.2796 49.9751 13.7997C49.9469 12.7539 49.8855 11.6992 49.6995 10.665C49.5108 9.61594 49.2029 8.6396 48.7174 7.68638C48.2402 6.74955 47.6168 5.89224 46.873 5.149C46.1294 4.40576 45.2719 3.78281 44.3347 3.3059C43.3805 2.82037 42.4031 2.51245 41.3529 2.32388C40.3186 2.13817 39.2636 2.0766 38.2178 2.04835C37.7376 2.03536 37.2574 2.02988 36.7772 2.02691C36.207 2.02342 35.6368 2.02371 35.0666 2.02371L28.4464 2H23.495L16.9919 2.02371C16.4206 2.02371 15.8493 2.02342 15.2781 2.02691C14.7968 2.02988 14.3157 2.03536 13.8346 2.04835C12.7864 2.0766 11.729 2.13823 10.6922 2.32417C9.64063 2.51268 8.66175 2.82048 7.70632 3.30566C6.76709 3.78263 5.90772 4.40564 5.16256 5.149C4.41752 5.89218 3.793 6.74932 3.31492 7.68602C2.82817 8.63965 2.51955 9.61659 2.33046 10.6663C2.14429 11.7 2.0826 12.7544 2.05423 13.7997C2.0413 14.2796 2.03571 14.7596 2.0328 15.2396C2.0293 15.8095 2 16.5175 2 17.0873V23.5003V28.5048L2.02959 35.054C2.02959 35.6246 2.02936 36.1953 2.0328 36.7659C2.03571 37.2466 2.0413 37.7272 2.05429 38.2077C2.0826 39.2548 2.14441 40.3112 2.33075 41.3467C2.51978 42.3972 2.82834 43.3749 3.31469 44.3293C3.79282 45.2675 4.41746 46.1259 5.16256 46.8702C5.90766 47.6145 6.76682 48.2383 7.70586 48.716C8.66189 49.202 9.64118 49.5103 10.6935 49.6991C11.7297 49.8851 12.7868 49.9469 13.8346 49.9751C14.3157 49.988 14.7968 49.9935 15.2781 49.9968C15.8494 50 16.4206 50 16.9919 50H23.5538H28.5175H35.0666C35.6368 50 36.207 50 36.7772 49.9968C37.2574 49.9935 37.7376 49.988 38.2178 49.9751C39.264 49.9469 40.3194 49.8851 41.3541 49.6991C42.4037 49.5103 43.3807 49.202 44.3343 48.716C45.2717 48.2383 46.1294 47.6146 46.873 46.8702C47.6167 46.126 48.2402 45.2678 48.7174 44.3297C49.2029 43.3748 49.5108 42.3966 49.6995 41.3455C49.8855 40.3103 49.9469 39.2545 49.9755 38.2077C49.9885 37.7271 49.994 37.2465 49.9968 36.7659C50 36.1953 50 35.6246 50 35.054C50 35.054 50 28.6204 50 28.5048V23.495C50 23.4097 50 16.9491 50 16.9491C50 16.3793 50 15.8095 49.9968 15.2396Z" fill="url(#paint0_linear_98_402)"/>
<mask id="mask0_98_402" style="mask-type:alpha" maskUnits="userSpaceOnUse" x="2" y="2" width="48" height="48">
<path d="M49.9968 15.2396C49.994 14.7595 49.9885 14.2796 49.9751 13.7997C49.9469 12.7539 49.8855 11.6992 49.6995 10.665C49.5108 9.61594 49.2029 8.6396 48.7174 7.68638C48.2402 6.74955 47.6168 5.89224 46.873 5.149C46.1294 4.40576 45.2719 3.78281 44.3347 3.3059C43.3805 2.82037 42.4031 2.51245 41.3529 2.32388C40.3186 2.13817 39.2636 2.0766 38.2178 2.04835C37.7376 2.03536 37.2574 2.02988 36.7772 2.02691C36.207 2.02342 35.6368 2.02371 35.0666 2.02371L28.4464 2H23.495L16.9919 2.02371C16.4206 2.02371 15.8493 2.02342 15.2781 2.02691C14.7968 2.02988 14.3157 2.03536 13.8346 2.04835C12.7864 2.0766 11.729 2.13823 10.6922 2.32417C9.64063 2.51268 8.66175 2.82048 7.70632 3.30566C6.76709 3.78263 5.90772 4.40564 5.16256 5.149C4.41752 5.89218 3.793 6.74932 3.31492 7.68602C2.82817 8.63965 2.51955 9.61659 2.33046 10.6663C2.14429 11.7 2.0826 12.7544 2.05423 13.7997C2.0413 14.2796 2.03571 14.7596 2.0328 15.2396C2.0293 15.8095 2 16.5175 2 17.0873V23.5003V28.5048L2.02959 35.054C2.02959 35.6246 2.02936 36.1953 2.0328 36.7659C2.03571 37.2466 2.0413 37.7272 2.05429 38.2077C2.0826 39.2548 2.14441 40.3112 2.33075 41.3467C2.51978 42.3972 2.82834 43.3749 3.31469 44.3293C3.79282 45.2675 4.41746 46.1259 5.16256 46.8702C5.90766 47.6145 6.76682 48.2383 7.70586 48.716C8.66189 49.202 9.64118 49.5103 10.6935 49.6991C11.7297 49.8851 12.7868 49.9469 13.8346 49.9751C14.3157 49.988 14.7968 49.9935 15.2781 49.9968C15.8494 50 16.4206 50 16.9919 50H23.5538H28.5175H35.0666C35.6368 50 36.207 50 36.7772 49.9968C37.2574 49.9935 37.7376 49.988 38.2178 49.9751C39.264 49.9469 40.3194 49.8851 41.3541 49.6991C42.4037 49.5103 43.3807 49.202 44.3343 48.716C45.2717 48.2383 46.1294 47.6146 46.873 46.8702C47.6167 46.126 48.2402 45.2678 48.7174 44.3297C49.2029 43.3748 49.5108 42.3966 49.6995 41.3455C49.8855 40.3103 49.9469 39.2545 49.9755 38.2077C49.9885 37.7271 49.994 37.2465 49.9968 36.7659C50 36.1953 50 35.6246 50 35.054C50 35.054 50 28.6204 50 28.5048V23.495C50 23.4097 50 16.9491 50 16.9491C50 16.3793 50 15.8095 49.9968 15.2396Z" fill="white"/>
</mask>
<g mask="url(#mask0_98_402)">
<g opacity="0.843296" filter="url(#filter1_f_98_402)">
<circle cx="26.5333" cy="5.73294" r="22.1333" fill="#C45FEF"/>
</g>
</g>
<g filter="url(#filter2_i_98_402)">
<path fill-rule="evenodd" clip-rule="evenodd" d="M26.1372 38.8807L26.1077 41.0159C25.9538 41.0201 25.7994 41.0222 25.6445 41.0222C25.5143 41.0222 25.3844 41.0207 25.2549 41.0177L25.2253 38.8829C25.3645 38.8868 25.5043 38.8888 25.6445 38.8888C25.8094 38.8888 25.9736 38.8861 26.1372 38.8807ZM25.6445 7.59961C34.8738 7.59961 42.3556 15.0814 42.3556 24.3107C42.3556 31.5868 37.7054 37.7769 31.2148 40.0709C31.0839 40.0602 31.005 40.0226 30.9778 39.9582C30.9753 39.9521 30.9735 39.9432 30.9724 39.9316L30.9714 39.9122C30.9713 39.9086 30.9712 39.9049 30.9712 39.9011L30.9717 39.8761L30.9731 39.8476L30.9754 39.8158L30.9805 39.7623L30.985 39.7229L30.9931 39.659L31.0099 39.5406L31.0261 39.4371L31.0492 39.2989L31.0853 39.0945L31.1349 38.8297L31.2057 38.4693L31.2804 38.1065L31.3176 37.9342C31.3395 37.8377 31.4155 37.7412 31.5454 37.6446C36.6567 35.3794 40.2222 30.2614 40.2222 24.3107C40.2222 16.2596 33.6956 9.73294 25.6445 9.73294C17.5934 9.73294 11.0667 16.2596 11.0667 24.3107C11.0667 30.3217 14.7048 35.483 19.8992 37.7127C19.9797 37.7864 20.0282 37.8603 20.045 37.9342L20.0878 38.1333L20.1551 38.4606L20.2154 38.7659L20.254 38.9684L20.2923 39.1782L20.3127 39.2945L20.3359 39.4335L20.3483 39.5124L20.3595 39.587L20.3721 39.679L20.3797 39.7415L20.3856 39.7976L20.3894 39.8469L20.3909 39.8756L20.3914 39.9007C20.3914 39.9046 20.3913 39.9083 20.3912 39.9119L20.3902 39.9314C20.3891 39.9431 20.3873 39.9521 20.3847 39.9582C20.3533 40.0328 20.2525 40.0713 20.0825 40.0737C13.5875 37.7821 8.93335 31.5899 8.93335 24.3107C8.93335 15.0814 16.4152 7.59961 25.6445 7.59961ZM25.1496 33.4511C25.3281 33.4615 25.5079 33.4668 25.6889 33.4668C25.8647 33.4668 26.0394 33.4618 26.2129 33.452L26.1831 35.5895C26.0192 35.5966 25.8545 35.6002 25.6889 35.6002C25.5181 35.6002 25.3483 35.5964 25.1794 35.5888L25.1496 33.4511ZM25.6889 13.1114C31.899 13.1114 36.9333 18.1457 36.9333 24.3558C36.9333 28.169 35.0353 31.5388 32.1324 33.5721C32.0729 33.5973 32.0119 33.6048 31.9492 33.5943C31.8367 33.5755 31.7674 33.4368 31.7413 33.178L31.7387 33.1498V31.4367L31.7393 31.4084C31.7421 31.3419 31.7554 31.2731 31.7794 31.202L31.7881 31.1772L31.8055 31.1315L31.82 31.0954C33.6509 29.4289 34.8 27.0266 34.8 24.3558C34.8 19.3239 30.7208 15.2447 25.6889 15.2447C20.6569 15.2447 16.5778 19.3239 16.5778 24.3558C16.5778 27.0146 17.7167 29.4074 19.5332 31.073L19.5565 31.1301L19.5689 31.1624L19.579 31.1899C19.5805 31.1941 19.5819 31.1981 19.5832 31.202C19.6071 31.2731 19.6205 31.3419 19.6233 31.4084L19.6238 31.4367V33.1498C19.6 33.4267 19.5299 33.5749 19.4133 33.5943C19.3619 33.6029 19.3117 33.5995 19.2626 33.5839C16.3499 31.552 14.4444 28.1765 14.4444 24.3558C14.4444 18.1457 19.4787 13.1114 25.6889 13.1114Z" fill="#FDFCFD"/>
</g>
<g filter="url(#filter3_i_98_402)">
<path fill-rule="evenodd" clip-rule="evenodd" d="M25.6444 26.8007C27.8045 26.8007 29.5555 25.0497 29.5555 22.8896C29.5555 20.7296 27.8045 18.9785 25.6444 18.9785C23.4844 18.9785 21.7333 20.7296 21.7333 22.8896C21.7333 25.0497 23.4844 26.8007 25.6444 26.8007ZM21.462 31.9275C21.462 34.1645 21.7587 36.2444 21.9514 37.8867C22.2407 40.353 22.5549 41.8398 22.7894 42.6488C23.0506 43.5494 24.2044 44.4005 25.6889 44.4005C27.1733 44.4005 28.2183 43.7243 28.465 42.6488C28.6058 42.0347 28.9367 40.5414 29.3151 37.6002C29.8647 33.3293 29.8647 31.545 29.7152 30.9685C29.5658 30.392 29.1078 28.3116 25.6889 28.3116C22.27 28.3116 21.6077 30.2636 21.5229 30.9685C21.4381 31.6735 21.462 31.9231 21.462 31.9275Z" fill="#FDFCFD"/>
</g>
</g>
<defs>
<filter id="filter0_d_98_402" x="0.4" y="0.844444" width="51.2" height="51.2" filterUnits="userSpaceOnUse" color-interpolation-filters="sRGB">
<feFlood flood-opacity="0" result="BackgroundImageFix"/>
<feColorMatrix in="SourceAlpha" type="matrix" values="0 0 0 0 0 0 0 0 0 0 0 0 0 0 0 0 0 0 127 0" result="hardAlpha"/>
<feOffset dy="0.444444"/>
<feGaussianBlur stdDeviation="0.8"/>
<feColorMatrix type="matrix" values="0 0 0 0 0 0 0 0 0 0 0 0 0 0 0 0 0 0 0.4 0"/>
<feBlend mode="normal" in2="BackgroundImageFix" result="effect1_dropShadow_98_402"/>
<feBlend mode="normal" in="SourceGraphic" in2="effect1_dropShadow_98_402" result="shape"/>
</filter>
<filter id="filter1_f_98_402" x="-7.68129" y="-28.4816" width="68.4292" height="68.4291" filterUnits="userSpaceOnUse" color-interpolation-filters="sRGB">
<feFlood flood-opacity="0" result="BackgroundImageFix"/>
<feBlend mode="normal" in="SourceGraphic" in2="BackgroundImageFix" result="shape"/>
<feGaussianBlur stdDeviation="6.04063" result="effect1_foregroundBlur_98_402"/>
</filter>
<filter id="filter2_i_98_402" x="8.93335" y="7.59961" width="33.4222" height="33.8673" filterUnits="userSpaceOnUse" color-interpolation-filters="sRGB">
<feFlood flood-opacity="0" result="BackgroundImageFix"/>
<feBlend mode="normal" in="SourceGraphic" in2="BackgroundImageFix" result="shape"/>
<feColorMatrix in="SourceAlpha" type="matrix" values="0 0 0 0 0 0 0 0 0 0 0 0 0 0 0 0 0 0 127 0" result="hardAlpha"/>
<feOffset dy="0.444444"/>
<feGaussianBlur stdDeviation="0.311111"/>
<feComposite in2="hardAlpha" operator="arithmetic" k2="-1" k3="1"/>
<feColorMatrix type="matrix" values="0 0 0 0 0.339398 0 0 0 0 0 0 0 0 0 0.484545 0 0 0 1 0"/>
<feBlend mode="normal" in2="shape" result="effect1_innerShadow_98_402"/>
</filter>
<filter id="filter3_i_98_402" x="21.4589" y="18.9785" width="8.34119" height="25.8663" filterUnits="userSpaceOnUse" color-interpolation-filters="sRGB">
<feFlood flood-opacity="0" result="BackgroundImageFix"/>
<feBlend mode="normal" in="SourceGraphic" in2="BackgroundImageFix" result="shape"/>
<feColorMatrix in="SourceAlpha" type="matrix" values="0 0 0 0 0 0 0 0 0 0 0 0 0 0 0 0 0 0 127 0" result="hardAlpha"/>
<feOffset dy="0.444444"/>
<feGaussianBlur stdDeviation="0.311111"/>
<feComposite in2="hardAlpha" operator="arithmetic" k2="-1" k3="1"/>
<feColorMatrix type="matrix" values="0 0 0 0 0.339398 0 0 0 0 0 0 0 0 0 0.484545 0 0 0 1 0"/>
<feBlend mode="normal" in2="shape" result="effect1_innerShadow_98_402"/>
</filter>
<linearGradient id="paint0_linear_98_402" x1="49.9614" y1="49.9227" x2="49.9614" y2="2" gradientUnits="userSpaceOnUse">
<stop stop-color="#7725B3"/>
<stop offset="1" stop-color="#C35EEC"/>
</linearGradient>
</defs>
</svg>
