<svg width="32" height="32" viewBox="0 0 32 32" fill="none" xmlns="http://www.w3.org/2000/svg">
    <path d="M7.5 15.708C7.5 18.0405 8.44629 20.1572 9.96533 21.6929C10.0732 21.7925 10.1895 21.7925 10.2808 21.6763L10.6543 21.2612C10.7539 21.145 10.7456 21.0454 10.646 20.9375C9.33447 19.5845 8.5127 17.7334 8.5127 15.708C8.5127 11.624 11.8994 8.229 16 8.229C20.1006 8.229 23.4873 11.624 23.4873 15.708C23.4873 17.7334 22.6655 19.5845 21.354 20.9375C21.2544 21.0454 21.2461 21.145 21.3457 21.2612L21.7192 21.6763C21.8105 21.7925 21.9268 21.7925 22.0347 21.6846C23.5537 20.1572 24.5 18.0405 24.5 15.708C24.5 11.0513 20.6899 7.20801 16 7.20801C11.3101 7.20801 7.5 11.0513 7.5 15.708ZM9.91553 15.708C9.91553 17.3184 10.5381 18.771 11.5674 19.8667C11.6753 19.9829 11.7915 19.9746 11.8911 19.8667L12.2646 19.4517C12.3726 19.3438 12.356 19.2441 12.2563 19.1279C11.4346 18.2231 10.9365 17.0278 10.9365 15.708C10.9365 12.9438 13.2192 10.6445 16 10.6445C18.7808 10.6445 21.0635 12.9438 21.0635 15.708C21.0635 17.0278 20.5654 18.2231 19.7437 19.1196C19.644 19.2358 19.6274 19.3438 19.7354 19.4434L20.1172 19.8667C20.2085 19.9746 20.333 19.9829 20.4326 19.8667C21.4536 18.771 22.0845 17.3184 22.0845 15.708C22.0845 12.3711 19.3535 9.62354 16 9.62354C12.6465 9.62354 9.91553 12.3711 9.91553 15.708ZM12.3311 15.708C12.3311 16.5879 12.6382 17.3931 13.1694 18.0405C13.2607 18.1484 13.377 18.1484 13.4849 18.0322L13.875 17.6338C13.9746 17.5259 13.9663 17.418 13.8916 17.3018C13.5513 16.8618 13.3521 16.3057 13.3521 15.708C13.3521 14.2637 14.5557 13.0601 16 13.0601C17.4443 13.0601 18.6479 14.2637 18.6479 15.708C18.6479 16.3057 18.4487 16.8618 18.1084 17.3018C18.0254 17.418 18.0171 17.5259 18.125 17.6338L18.5151 18.0405C18.6147 18.1484 18.7393 18.1567 18.8306 18.0322C19.3618 17.3931 19.6689 16.5879 19.6689 15.708C19.6689 13.6992 18.0171 12.0391 16 12.0391C13.9829 12.0391 12.3311 13.6992 12.3311 15.708ZM10.6294 23.2451C10.3721 23.519 10.5298 23.9341 10.9199 23.9341H21.0635C21.4536 23.9341 21.6113 23.519 21.3623 23.2451L16.3486 17.5757C16.1494 17.3682 15.834 17.3682 15.6348 17.5757L10.6294 23.2451Z"
          fill="currentColor"/>
</svg>
