<svg width="32" height="32" viewBox="0 0 32 32" fill="none" xmlns="http://www.w3.org/2000/svg">
<path d="M18.4155 9.96387C18.9302 9.34961 19.2871 8.51123 19.2871 7.66455C19.2871 7.54834 19.2788 7.43213 19.2539 7.34082C18.4321 7.37402 17.436 7.88867 16.8384 8.58594C16.3735 9.11719 15.9419 9.96387 15.9419 10.8105C15.9419 10.9434 15.9585 11.0679 15.9751 11.1094C16.0249 11.1177 16.1079 11.1343 16.1909 11.1343C16.938 11.1343 17.8677 10.6362 18.4155 9.96387ZM19.0049 11.3086C17.7598 11.3086 16.7554 12.064 16.1079 12.064C15.4189 12.064 14.5225 11.3584 13.4434 11.3584C11.3931 11.3584 9.31787 13.0518 9.31787 16.2393C9.31787 18.2314 10.0815 20.3315 11.0361 21.6846C11.8496 22.8301 12.5635 23.7681 13.5845 23.7681C14.6055 23.7681 15.0537 23.0957 16.3071 23.0957C17.5938 23.0957 17.876 23.7515 19.0049 23.7515C20.1172 23.7515 20.856 22.7305 21.5532 21.7261C22.3418 20.5723 22.6655 19.4517 22.6821 19.3936C22.6157 19.377 20.4824 18.5054 20.4824 16.0732C20.4824 13.9648 22.1592 13.0186 22.2505 12.9438C21.1548 11.3584 19.4697 11.3086 19.0049 11.3086Z" fill="white"/>
</svg>
