<svg width="14" height="14" viewBox="0 0 14 14" fill="none" xmlns="http://www.w3.org/2000/svg">
    <path d="M11.082 5.12354C12.0972 5.12354 12.9404 4.28027 12.9404 3.25977C12.9404 2.23926 12.0972 1.396 11.082 1.396C10.0562 1.396 9.21826 2.23926 9.21826 3.25977C9.21826 4.28027 10.0562 5.12354 11.082 5.12354ZM2.04785 9.38281C2.04785 10.3013 2.12842 11.064 2.67627 11.6118C3.22412 12.1597 3.99756 12.2456 4.91064 12.2456H9.08398C10.0024 12.2456 10.7759 12.1597 11.3237 11.6118C11.8716 11.064 11.9521 10.3013 11.9521 9.38281V5.7251C11.7158 5.80566 11.458 5.84863 11.1895 5.83789C11.1519 5.84863 11.125 5.84863 11.0874 5.854V9.52783C11.0874 10.0864 11.0176 10.6558 10.6899 10.9834C10.3677 11.3057 9.7876 11.3809 9.23438 11.3809H4.76562C4.2124 11.3809 3.63232 11.3057 3.30469 10.9834C2.98242 10.6558 2.9126 10.0864 2.9126 9.52783V5.11816C2.9126 4.5542 2.98242 3.97412 3.30469 3.65186C3.63232 3.32422 4.21777 3.25439 4.78174 3.25439H8.48779C8.48779 3.2168 8.49316 3.18457 8.49854 3.15234C8.48779 2.88379 8.53076 2.62598 8.61133 2.38965H4.8999C3.99756 2.38965 3.22412 2.47559 2.67627 3.02344C2.12842 3.57129 2.04785 4.33936 2.04785 5.23633V9.38281Z"
          fill="#007AFF"/>
</svg>
