<svg width="24" height="24" viewBox="0 0 24 24" fill="none" xmlns="http://www.w3.org/2000/svg">
<path d="M5.34375 17.6108H17.0405C18.2856 17.6108 19.3403 17.4937 20.0874 16.7466C20.8345 15.9995 20.9443 14.9521 20.9443 13.6997V11.2241C20.9443 9.979 20.8345 8.93164 20.0874 8.18457C19.3403 7.4375 18.2856 7.32031 17.0405 7.32031H5.3291C4.09863 7.32031 3.04395 7.4375 2.29688 8.19189C1.5498 8.93896 1.43994 9.979 1.43994 11.2095V13.6997C1.43994 14.9521 1.5498 15.9995 2.29688 16.7466C3.04395 17.4937 4.09863 17.6108 5.34375 17.6108ZM5.146 16.4316C4.3916 16.4316 3.60059 16.3291 3.15381 15.8823C2.71436 15.4429 2.61914 14.6592 2.61914 13.9048V11.0483C2.61914 10.272 2.71436 9.48828 3.15381 9.0415C3.60059 8.60205 4.39893 8.49951 5.16797 8.49951H17.2383C17.9927 8.49951 18.7837 8.60205 19.2305 9.04883C19.6699 9.48828 19.7651 10.272 19.7651 11.0264V13.9048C19.7651 14.6592 19.6699 15.4429 19.2305 15.8823C18.7837 16.3291 17.9927 16.4316 17.2383 16.4316H5.146ZM4.85303 15.5015H17.5386C18.0513 15.5015 18.3369 15.4429 18.5566 15.2231C18.7764 15.0034 18.8423 14.7178 18.8423 14.2051V10.7261C18.8423 10.2134 18.769 9.92773 18.5566 9.70801C18.3369 9.48828 18.0513 9.42969 17.5386 9.42969H4.85303C4.34033 9.42969 4.05469 9.48828 3.83496 9.70801C3.62256 9.92773 3.54932 10.2134 3.54932 10.7261V14.2051C3.54932 14.7178 3.62256 15.0034 3.83496 15.2231C4.05469 15.4429 4.34033 15.5015 4.85303 15.5015ZM21.9404 14.3589C22.5264 14.3223 23.3027 13.5825 23.3027 12.4619C23.3027 11.3486 22.5264 10.6089 21.9404 10.5723V14.3589Z" fill="white"/>
</svg>
