<svg width="32" height="32" viewBox="0 0 32 32" fill="none" xmlns="http://www.w3.org/2000/svg">
    <path d="M16.7222 7.68945C16.7222 7.29932 16.3901 6.96729 15.9917 6.96729C15.6016 6.96729 15.2695 7.29932 15.2695 7.68945V9.43262C15.2695 9.82275 15.6016 10.1548 15.9917 10.1548C16.3901 10.1548 16.7222 9.82275 16.7222 9.43262V7.68945ZM20.0923 10.8521C19.8184 11.1343 19.8184 11.5991 20.0923 11.873C20.3745 12.1553 20.8394 12.1636 21.1216 11.873L22.3584 10.6362C22.6406 10.354 22.6406 9.88916 22.3584 9.60693C22.0845 9.33301 21.6196 9.33301 21.3457 9.60693L20.0923 10.8521ZM10.8618 11.873C11.144 12.1553 11.6089 12.1553 11.8828 11.873C12.165 11.6074 12.165 11.126 11.8911 10.8521L10.6543 9.60693C10.3887 9.34131 9.91553 9.33301 9.6333 9.60693C9.35938 9.88086 9.35938 10.354 9.625 10.6279L10.8618 11.873ZM15.9917 11.7402C13.6758 11.7402 11.7583 13.6577 11.7583 15.9736C11.7583 18.2896 13.6758 20.2153 15.9917 20.2153C18.2993 20.2153 20.2168 18.2896 20.2168 15.9736C20.2168 13.6577 18.2993 11.7402 15.9917 11.7402ZM24.251 16.6958C24.6494 16.6958 24.9814 16.3638 24.9814 15.9736C24.9814 15.5835 24.6494 15.2515 24.251 15.2515H22.5161C22.126 15.2515 21.7939 15.5835 21.7939 15.9736C21.7939 16.3638 22.126 16.6958 22.5161 16.6958H24.251ZM7.73242 15.2515C7.34229 15.2515 7.01025 15.5835 7.01025 15.9736C7.01025 16.3638 7.34229 16.6958 7.73242 16.6958H9.46729C9.86572 16.6958 10.1978 16.3638 10.1978 15.9736C10.1978 15.5835 9.86572 15.2515 9.46729 15.2515H7.73242ZM21.1133 20.0825C20.8394 19.8086 20.3745 19.8086 20.0923 20.0825C19.8184 20.3564 19.8184 20.8213 20.0923 21.1035L21.3457 22.3486C21.6196 22.6226 22.0845 22.6143 22.3584 22.3403C22.6406 22.0664 22.6406 21.6016 22.3584 21.3193L21.1133 20.0825ZM9.625 21.311C9.35107 21.585 9.35107 22.0581 9.6167 22.332C9.89062 22.606 10.3638 22.6143 10.646 22.3403L11.8828 21.1035C12.165 20.8296 12.165 20.3647 11.8911 20.0825C11.6172 19.8086 11.144 19.8086 10.8618 20.0825L9.625 21.311ZM16.7222 22.5146C16.7222 22.1245 16.3901 21.7925 15.9917 21.7925C15.6016 21.7925 15.2695 22.1245 15.2695 22.5146V24.2578C15.2695 24.6479 15.6016 24.98 15.9917 24.98C16.3901 24.98 16.7222 24.6479 16.7222 24.2578V22.5146Z"
          fill="currentColor"/>
</svg>
