<svg width="32" height="32" viewBox="0 0 32 32" fill="none" xmlns="http://www.w3.org/2000/svg">
<path d="M10.8867 16.0068C10.8867 16.2144 10.9614 16.397 11.1191 16.5547L17.7017 22.9878C17.8428 23.1372 18.0254 23.2119 18.2412 23.2119C18.6729 23.2119 19.0049 22.8882 19.0049 22.4565C19.0049 22.2407 18.9136 22.0581 18.7808 21.917L12.7378 16.0068L18.7808 10.0967C18.9136 9.95557 19.0049 9.76465 19.0049 9.55713C19.0049 9.12549 18.6729 8.80176 18.2412 8.80176C18.0254 8.80176 17.8428 8.87646 17.7017 9.01758L11.1191 15.459C10.9614 15.6084 10.8867 15.7993 10.8867 16.0068Z" fill="#007AFF"/>
</svg>
