<svg width="32" height="32" viewBox="0 0 32 32" fill="none" xmlns="http://www.w3.org/2000/svg">
    <path d="M21.1216 16.0068C21.1216 15.7993 21.0386 15.6084 20.8809 15.459L14.3066 9.01758C14.1572 8.87646 13.9746 8.80176 13.7588 8.80176C13.3354 8.80176 13.0034 9.12549 13.0034 9.55713C13.0034 9.76465 13.0864 9.95557 13.2192 10.0967L19.2622 16.0068L13.2192 21.917C13.0864 22.0581 13.0034 22.2407 13.0034 22.4565C13.0034 22.8882 13.3354 23.2119 13.7588 23.2119C13.9746 23.2119 14.1572 23.1372 14.3066 22.9878L20.8809 16.5547C21.0386 16.397 21.1216 16.2144 21.1216 16.0068Z"
          fill="currentColor"/>
</svg>
