<svg width="14" height="14" viewBox="0 0 14 14" fill="none" xmlns="http://www.w3.org/2000/svg">
    <path d="M2.354 12.2617H11.646C12.7739 12.2617 13.3325 11.7031 13.3325 10.5967V4.03857C13.3325 2.93213 12.7739 2.37354 11.646 2.37354H2.354C1.23145 2.37354 0.66748 2.92676 0.66748 4.03857V10.5967C0.66748 11.7085 1.23145 12.2617 2.354 12.2617ZM1.53223 4.08154C1.53223 3.52295 1.82764 3.23828 2.36475 3.23828H11.6353C12.167 3.23828 12.4678 3.52295 12.4678 4.08154V4.17822H1.53223V4.08154ZM2.36475 11.397C1.82764 11.397 1.53223 11.1123 1.53223 10.5537V4.93555H12.4678V10.5537C12.4678 11.1123 12.167 11.397 11.6353 11.397H2.36475ZM2.97705 10.0757C2.97705 10.355 3.17041 10.5376 3.45508 10.5376H10.561C10.8457 10.5376 11.0391 10.355 11.0391 10.0757V9.27002C11.0391 8.98535 10.8457 8.80273 10.561 8.80273H3.45508C3.17041 8.80273 2.97705 8.98535 2.97705 9.27002V10.0757Z"
          fill="#007AFF"/>
</svg>
