<svg width="14" height="14" viewBox="0 0 14 14" fill="none" xmlns="http://www.w3.org/2000/svg">
    <path d="M7 12.7881C9.99707 12.7881 12.4785 10.3013 12.4785 7.30957C12.4785 4.3125 9.9917 1.83105 6.99463 1.83105C4.00293 1.83105 1.52148 4.3125 1.52148 7.30957C1.52148 10.3013 4.0083 12.7881 7 12.7881ZM7 11.875C4.46484 11.875 2.43994 9.84473 2.43994 7.30957C2.43994 4.77441 4.45947 2.74414 6.99463 2.74414C9.52979 2.74414 11.5601 4.77441 11.5654 7.30957C11.5708 9.84473 9.53516 11.875 7 11.875ZM7 4.57568C6.76904 4.57568 6.59717 4.74219 6.59717 4.97852V7.66406L6.64014 8.79736L6.10303 8.15283L5.46387 7.5083C5.38867 7.43848 5.29199 7.39014 5.1792 7.39014C4.95898 7.39014 4.79248 7.56201 4.79248 7.77686C4.79248 7.88965 4.82471 7.98633 4.89453 8.05615L6.68848 9.84473C6.7959 9.95215 6.88721 9.99512 7 9.99512C7.11816 9.99512 7.21484 9.94678 7.31689 9.84473L9.10547 8.05615C9.17529 7.98633 9.21826 7.88965 9.21826 7.77686C9.21826 7.56201 9.04639 7.39014 8.82617 7.39014C8.70801 7.39014 8.61133 7.43311 8.5415 7.5083L7.90771 8.15283L7.35986 8.80273L7.40283 7.66406V4.97852C7.40283 4.74219 7.23633 4.57568 7 4.57568Z"
          fill="#007AFF"/>
</svg>
