<svg width="14" height="14" viewBox="0 0 14 14" fill="none" xmlns="http://www.w3.org/2000/svg">
    <path d="M4.14795 13.0674H9.85205C10.9639 13.0674 11.5171 12.5034 11.5171 11.3862V6.50928C11.5171 5.81641 11.4365 5.51562 11.0068 5.0752L8.04736 2.06201C7.63916 1.64307 7.30078 1.55176 6.69922 1.55176H4.14795C3.0415 1.55176 2.48291 2.12109 2.48291 3.23828V11.3862C2.48291 12.5088 3.03613 13.0674 4.14795 13.0674ZM4.18555 12.2026C3.63232 12.2026 3.34766 11.9072 3.34766 11.3701V3.25439C3.34766 2.72266 3.63232 2.4165 4.19092 2.4165H6.58105V5.53711C6.58105 6.21387 6.91943 6.54688 7.59082 6.54688H10.6523V11.3701C10.6523 11.9072 10.3677 12.2026 9.80908 12.2026H4.18555ZM7.6875 5.73584C7.47266 5.73584 7.39209 5.6499 7.39209 5.43506V2.58301L10.4858 5.73584H7.6875Z"
          fill="#007AFF"/>
</svg>
