<svg width="52" height="53" viewBox="0 0 52 53" fill="none" xmlns="http://www.w3.org/2000/svg">
<g filter="url(#filter0_d_98_220)">
<path d="M49.9968 15.2396C49.994 14.7595 49.9885 14.2796 49.9751 13.7997C49.9469 12.7539 49.8855 11.6992 49.6995 10.665C49.5108 9.61594 49.2029 8.6396 48.7174 7.68638C48.2402 6.74955 47.6168 5.89224 46.873 5.149C46.1294 4.40576 45.2719 3.78281 44.3347 3.3059C43.3805 2.82037 42.4031 2.51245 41.3529 2.32388C40.3186 2.13817 39.2636 2.0766 38.2178 2.04835C37.7376 2.03536 37.2574 2.02988 36.7772 2.02691C36.207 2.02342 35.6368 2.02371 35.0666 2.02371L28.4464 2H23.495L16.9919 2.02371C16.4206 2.02371 15.8493 2.02342 15.2781 2.02691C14.7968 2.02988 14.3157 2.03536 13.8346 2.04835C12.7864 2.0766 11.729 2.13823 10.6922 2.32417C9.64063 2.51268 8.66175 2.82048 7.70632 3.30566C6.76709 3.78263 5.90772 4.40564 5.16256 5.149C4.41752 5.89218 3.793 6.74932 3.31492 7.68602C2.82817 8.63965 2.51955 9.61659 2.33046 10.6663C2.14429 11.7 2.0826 12.7544 2.05423 13.7997C2.0413 14.2796 2.03571 14.7596 2.0328 15.2396C2.0293 15.8095 2 16.5175 2 17.0873V23.5003V28.5048L2.02959 35.054C2.02959 35.6246 2.02936 36.1953 2.0328 36.7659C2.03571 37.2466 2.0413 37.7272 2.05429 38.2077C2.0826 39.2548 2.14441 40.3112 2.33075 41.3467C2.51978 42.3972 2.82834 43.3749 3.31469 44.3293C3.79282 45.2675 4.41746 46.1259 5.16256 46.8702C5.90766 47.6145 6.76682 48.2383 7.70586 48.716C8.66189 49.202 9.64118 49.5103 10.6935 49.6991C11.7297 49.8851 12.7868 49.9469 13.8346 49.9751C14.3157 49.988 14.7968 49.9935 15.2781 49.9968C15.8494 50 16.4206 50 16.9919 50H23.5538H28.5175H35.0666C35.6368 50 36.207 50 36.7772 49.9968C37.2574 49.9935 37.7376 49.988 38.2178 49.9751C39.264 49.9469 40.3194 49.8851 41.3541 49.6991C42.4037 49.5103 43.3807 49.202 44.3343 48.716C45.2717 48.2383 46.1294 47.6146 46.873 46.8702C47.6167 46.126 48.2402 45.2678 48.7174 44.3297C49.2029 43.3748 49.5108 42.3966 49.6995 41.3455C49.8855 40.3103 49.9469 39.2545 49.9755 38.2077C49.9885 37.7271 49.994 37.2465 49.9968 36.7659C50 36.1953 50 35.6246 50 35.054C50 35.054 50 28.6204 50 28.5048V23.495C50 23.4097 50 16.9491 50 16.9491C50 16.3793 50 15.8095 49.9968 15.2396Z" fill="url(#paint0_linear_98_220)"/>
<mask id="mask0_98_220" style="mask-type:alpha" maskUnits="userSpaceOnUse" x="2" y="2" width="48" height="48">
<path d="M49.9968 15.2396C49.994 14.7595 49.9885 14.2796 49.9751 13.7997C49.9469 12.7539 49.8855 11.6992 49.6995 10.665C49.5108 9.61594 49.2029 8.6396 48.7174 7.68638C48.2402 6.74955 47.6168 5.89224 46.873 5.149C46.1294 4.40576 45.2719 3.78281 44.3347 3.3059C43.3805 2.82037 42.4031 2.51245 41.3529 2.32388C40.3186 2.13817 39.2636 2.0766 38.2178 2.04835C37.7376 2.03536 37.2574 2.02988 36.7772 2.02691C36.207 2.02342 35.6368 2.02371 35.0666 2.02371L28.4464 2H23.495L16.9919 2.02371C16.4206 2.02371 15.8493 2.02342 15.2781 2.02691C14.7968 2.02988 14.3157 2.03536 13.8346 2.04835C12.7864 2.0766 11.729 2.13823 10.6922 2.32417C9.64063 2.51268 8.66175 2.82048 7.70632 3.30566C6.76709 3.78263 5.90772 4.40564 5.16256 5.149C4.41752 5.89218 3.793 6.74932 3.31492 7.68602C2.82817 8.63965 2.51955 9.61659 2.33046 10.6663C2.14429 11.7 2.0826 12.7544 2.05423 13.7997C2.0413 14.2796 2.03571 14.7596 2.0328 15.2396C2.0293 15.8095 2 16.5175 2 17.0873V23.5003V28.5048L2.02959 35.054C2.02959 35.6246 2.02936 36.1953 2.0328 36.7659C2.03571 37.2466 2.0413 37.7272 2.05429 38.2077C2.0826 39.2548 2.14441 40.3112 2.33075 41.3467C2.51978 42.3972 2.82834 43.3749 3.31469 44.3293C3.79282 45.2675 4.41746 46.1259 5.16256 46.8702C5.90766 47.6145 6.76682 48.2383 7.70586 48.716C8.66189 49.202 9.64118 49.5103 10.6935 49.6991C11.7297 49.8851 12.7868 49.9469 13.8346 49.9751C14.3157 49.988 14.7968 49.9935 15.2781 49.9968C15.8494 50 16.4206 50 16.9919 50H23.5538H28.5175H35.0666C35.6368 50 36.207 50 36.7772 49.9968C37.2574 49.9935 37.7376 49.988 38.2178 49.9751C39.264 49.9469 40.3194 49.8851 41.3541 49.6991C42.4037 49.5103 43.3807 49.202 44.3343 48.716C45.2717 48.2383 46.1294 47.6146 46.873 46.8702C47.6167 46.126 48.2402 45.2678 48.7174 44.3297C49.2029 43.3748 49.5108 42.3966 49.6995 41.3455C49.8855 40.3103 49.9469 39.2545 49.9755 38.2077C49.9885 37.7271 49.994 37.2465 49.9968 36.7659C50 36.1953 50 35.6246 50 35.054C50 35.054 50 28.6204 50 28.5048V23.495C50 23.4097 50 16.9491 50 16.9491C50 16.3793 50 15.8095 49.9968 15.2396Z" fill="white"/>
</mask>
<g mask="url(#mask0_98_220)">
<g filter="url(#filter1_d_98_220)">
<path d="M50 50V2H27.0815C27.0815 2 22.0742 10.8389 20.9927 26.1056C20.9635 26.5173 20.9382 26.911 20.917 27.3008C20.8646 28.2644 20.8384 28.7462 21.0257 29.1593C21.1917 29.5255 21.4227 29.715 21.7797 29.9003C22.1826 30.1095 27.3857 29.9003 27.7945 30.1172C28.1928 30.3286 28.1261 30.8651 28.1261 31.5431C28.1261 32.221 27.4737 41.1834 30.8445 50H50Z" fill="url(#paint1_linear_98_220)"/>
</g>
<mask id="mask1_98_220" style="mask-type:alpha" maskUnits="userSpaceOnUse" x="20" y="2" width="30" height="48">
<path d="M50 50V2H27.0815C27.0815 2 22.0742 10.8389 20.9927 26.1056C20.9635 26.5173 20.9382 26.911 20.917 27.3008C20.8646 28.2644 20.8384 28.7462 21.0257 29.1593C21.1917 29.5255 21.4227 29.715 21.7797 29.9003C22.1826 30.1095 27.3857 29.9003 27.7945 30.1172C28.1928 30.3286 28.1261 30.8651 28.1261 31.5431C28.1261 32.221 27.4737 41.1834 30.8445 50H50Z" fill="white"/>
</mask>
<g mask="url(#mask1_98_220)">
<g filter="url(#filter2_f_98_220)">
<path fill-rule="evenodd" clip-rule="evenodd" d="M21.0257 29.248C21.0257 29.248 21.5561 29.6128 22.8992 29.6128C24.2424 29.6128 26.4704 29.6128 27.2445 29.6128C28.0186 29.6128 28.1902 30.1467 28.1902 30.626C28.1902 31.1053 21.6769 30.626 21.6769 30.626L21.0257 29.248Z" fill="#8B8F93" fill-opacity="0.62"/>
</g>
</g>
<g filter="url(#filter3_ii_98_220)">
<path d="M38.7445 33.4847C39.0323 33.1495 39.5199 32.8991 40.0472 33.3525C40.5744 33.8059 40.335 34.3698 40.0472 34.7049C36.6544 38.6555 31.7311 40.7174 25.5201 40.7174C19.3092 40.7174 14.3859 38.7444 10.9931 34.7938C10.7053 34.4586 10.5878 33.9071 10.9931 33.4847C11.3985 33.0624 12.008 33.1495 12.2958 33.4847C15.3668 37.0606 19.7532 38.8508 25.5201 38.8508C31.2871 38.8508 35.6735 37.0606 38.7445 33.4847Z" fill="#424242"/>
</g>
<g filter="url(#filter4_ii_98_220)">
<path fill-rule="evenodd" clip-rule="evenodd" d="M14.8889 15.6895C15.478 15.6895 15.9556 16.167 15.9556 16.7561V19.9561C15.9556 20.5452 15.478 21.0228 14.8889 21.0228C14.2998 21.0228 13.8222 20.5452 13.8222 19.9561V16.7561C13.8222 16.167 14.2998 15.6895 14.8889 15.6895Z" fill="#474747"/>
</g>
<g filter="url(#filter5_ii_98_220)">
<path fill-rule="evenodd" clip-rule="evenodd" d="M35.9556 15.6895C36.5447 15.6895 37.0222 16.167 37.0222 16.7561V19.9561C37.0222 20.5452 36.5447 21.0228 35.9556 21.0228C35.3664 21.0228 34.8889 20.5452 34.8889 19.9561V16.7561C34.8889 16.167 35.3664 15.6895 35.9556 15.6895Z" fill="#474747"/>
</g>
</g>
</g>
<defs>
<filter id="filter0_d_98_220" x="0.4" y="0.844444" width="51.2" height="51.2" filterUnits="userSpaceOnUse" color-interpolation-filters="sRGB">
<feFlood flood-opacity="0" result="BackgroundImageFix"/>
<feColorMatrix in="SourceAlpha" type="matrix" values="0 0 0 0 0 0 0 0 0 0 0 0 0 0 0 0 0 0 127 0" result="hardAlpha"/>
<feOffset dy="0.444444"/>
<feGaussianBlur stdDeviation="0.8"/>
<feColorMatrix type="matrix" values="0 0 0 0 0 0 0 0 0 0 0 0 0 0 0 0 0 0 0.4 0"/>
<feBlend mode="normal" in2="BackgroundImageFix" result="effect1_dropShadow_98_220"/>
<feBlend mode="normal" in="SourceGraphic" in2="effect1_dropShadow_98_220" result="shape"/>
</filter>
<filter id="filter1_d_98_220" x="19.9898" y="2" width="30.0102" height="48.9778" filterUnits="userSpaceOnUse" color-interpolation-filters="sRGB">
<feFlood flood-opacity="0" result="BackgroundImageFix"/>
<feColorMatrix in="SourceAlpha" type="matrix" values="0 0 0 0 0 0 0 0 0 0 0 0 0 0 0 0 0 0 127 0" result="hardAlpha"/>
<feOffset dx="-0.444444" dy="0.533333"/>
<feGaussianBlur stdDeviation="0.222222"/>
<feColorMatrix type="matrix" values="0 0 0 0 0 0 0 0 0 0 0 0 0 0 0 0 0 0 0.240658 0"/>
<feBlend mode="normal" in2="BackgroundImageFix" result="effect1_dropShadow_98_220"/>
<feBlend mode="normal" in="SourceGraphic" in2="effect1_dropShadow_98_220" result="shape"/>
</filter>
<filter id="filter2_f_98_220" x="20.5424" y="28.7648" width="8.13099" height="2.55732" filterUnits="userSpaceOnUse" color-interpolation-filters="sRGB">
<feFlood flood-opacity="0" result="BackgroundImageFix"/>
<feBlend mode="normal" in="SourceGraphic" in2="BackgroundImageFix" result="shape"/>
<feGaussianBlur stdDeviation="0.241625" result="effect1_foregroundBlur_98_220"/>
</filter>
<filter id="filter3_ii_98_220" x="10.7313" y="32.9287" width="29.6278" height="8.05577" filterUnits="userSpaceOnUse" color-interpolation-filters="sRGB">
<feFlood flood-opacity="0" result="BackgroundImageFix"/>
<feBlend mode="normal" in="SourceGraphic" in2="BackgroundImageFix" result="shape"/>
<feColorMatrix in="SourceAlpha" type="matrix" values="0 0 0 0 0 0 0 0 0 0 0 0 0 0 0 0 0 0 127 0" result="hardAlpha"/>
<feOffset dy="0.533333"/>
<feGaussianBlur stdDeviation="0.133333"/>
<feComposite in2="hardAlpha" operator="arithmetic" k2="-1" k3="1"/>
<feColorMatrix type="matrix" values="0 0 0 0 0 0 0 0 0 0 0 0 0 0 0 0 0 0 0.725852 0"/>
<feBlend mode="normal" in2="shape" result="effect1_innerShadow_98_220"/>
<feColorMatrix in="SourceAlpha" type="matrix" values="0 0 0 0 0 0 0 0 0 0 0 0 0 0 0 0 0 0 127 0" result="hardAlpha"/>
<feOffset dy="-0.177778"/>
<feGaussianBlur stdDeviation="0.133333"/>
<feComposite in2="hardAlpha" operator="arithmetic" k2="-1" k3="1"/>
<feColorMatrix type="matrix" values="0 0 0 0 1 0 0 0 0 1 0 0 0 0 1 0 0 0 0.27311 0"/>
<feBlend mode="normal" in2="effect1_innerShadow_98_220" result="effect2_innerShadow_98_220"/>
</filter>
<filter id="filter4_ii_98_220" x="13.8222" y="15.5117" width="2.13333" height="6.2219" filterUnits="userSpaceOnUse" color-interpolation-filters="sRGB">
<feFlood flood-opacity="0" result="BackgroundImageFix"/>
<feBlend mode="normal" in="SourceGraphic" in2="BackgroundImageFix" result="shape"/>
<feColorMatrix in="SourceAlpha" type="matrix" values="0 0 0 0 0 0 0 0 0 0 0 0 0 0 0 0 0 0 127 0" result="hardAlpha"/>
<feOffset dy="0.711111"/>
<feGaussianBlur stdDeviation="0.355556"/>
<feComposite in2="hardAlpha" operator="arithmetic" k2="-1" k3="1"/>
<feColorMatrix type="matrix" values="0 0 0 0 0 0 0 0 0 0 0 0 0 0 0 0 0 0 1 0"/>
<feBlend mode="normal" in2="shape" result="effect1_innerShadow_98_220"/>
<feColorMatrix in="SourceAlpha" type="matrix" values="0 0 0 0 0 0 0 0 0 0 0 0 0 0 0 0 0 0 127 0" result="hardAlpha"/>
<feOffset dy="-0.177778"/>
<feGaussianBlur stdDeviation="0.0888889"/>
<feComposite in2="hardAlpha" operator="arithmetic" k2="-1" k3="1"/>
<feColorMatrix type="matrix" values="0 0 0 0 1 0 0 0 0 1 0 0 0 0 1 0 0 0 0.5 0"/>
<feBlend mode="normal" in2="effect1_innerShadow_98_220" result="effect2_innerShadow_98_220"/>
</filter>
<filter id="filter5_ii_98_220" x="34.8889" y="15.5117" width="2.13333" height="6.2219" filterUnits="userSpaceOnUse" color-interpolation-filters="sRGB">
<feFlood flood-opacity="0" result="BackgroundImageFix"/>
<feBlend mode="normal" in="SourceGraphic" in2="BackgroundImageFix" result="shape"/>
<feColorMatrix in="SourceAlpha" type="matrix" values="0 0 0 0 0 0 0 0 0 0 0 0 0 0 0 0 0 0 127 0" result="hardAlpha"/>
<feOffset dy="0.711111"/>
<feGaussianBlur stdDeviation="0.355556"/>
<feComposite in2="hardAlpha" operator="arithmetic" k2="-1" k3="1"/>
<feColorMatrix type="matrix" values="0 0 0 0 0 0 0 0 0 0 0 0 0 0 0 0 0 0 1 0"/>
<feBlend mode="normal" in2="shape" result="effect1_innerShadow_98_220"/>
<feColorMatrix in="SourceAlpha" type="matrix" values="0 0 0 0 0 0 0 0 0 0 0 0 0 0 0 0 0 0 127 0" result="hardAlpha"/>
<feOffset dy="-0.177778"/>
<feGaussianBlur stdDeviation="0.0888889"/>
<feComposite in2="hardAlpha" operator="arithmetic" k2="-1" k3="1"/>
<feColorMatrix type="matrix" values="0 0 0 0 1 0 0 0 0 1 0 0 0 0 1 0 0 0 0.5 0"/>
<feBlend mode="normal" in2="effect1_innerShadow_98_220" result="effect2_innerShadow_98_220"/>
</filter>
<linearGradient id="paint0_linear_98_220" x1="2.37699" y1="2" x2="2.37699" y2="49.246" gradientUnits="userSpaceOnUse">
<stop stop-color="#2ED2FA"/>
<stop offset="1" stop-color="#1965E7"/>
</linearGradient>
<linearGradient id="paint1_linear_98_220" x1="20.6861" y1="5.2" x2="20.6861" y2="46.8" gradientUnits="userSpaceOnUse">
<stop stop-color="#EEEEF0"/>
<stop offset="1" stop-color="#D0DBE5"/>
</linearGradient>
</defs>
</svg>
