<svg width="52" height="51" viewBox="0 0 52 51" fill="none" xmlns="http://www.w3.org/2000/svg">
<g filter="url(#filter0_d_98_234)">
<path d="M49.9968 14.2396C49.994 13.7595 49.9885 13.2796 49.9751 12.7997C49.9469 11.7539 49.8855 10.6992 49.6995 9.66502C49.5108 8.61594 49.2029 7.6396 48.7174 6.68638C48.2402 5.74955 47.6168 4.89224 46.873 4.149C46.1294 3.40576 45.2719 2.78281 44.3347 2.3059C43.3805 1.82037 42.4031 1.51245 41.3529 1.32388C40.3186 1.13817 39.2636 1.0766 38.2178 1.04835C37.7376 1.03536 37.2574 1.02988 36.7772 1.02691C36.207 1.02342 35.6368 1.02371 35.0666 1.02371L28.4464 1H23.495L16.9919 1.02371C16.4206 1.02371 15.8493 1.02342 15.2781 1.02691C14.7968 1.02988 14.3157 1.03536 13.8346 1.04835C12.7864 1.0766 11.729 1.13823 10.6922 1.32417C9.64063 1.51268 8.66175 1.82048 7.70632 2.30566C6.76709 2.78263 5.90772 3.40564 5.16256 4.149C4.41752 4.89218 3.793 5.74932 3.31492 6.68602C2.82817 7.63965 2.51955 8.61659 2.33046 9.66626C2.14429 10.7 2.0826 11.7544 2.05423 12.7997C2.0413 13.2796 2.03571 13.7596 2.0328 14.2396C2.0293 14.8095 2 15.5175 2 16.0873V22.5003V27.5048L2.02959 34.054C2.02959 34.6246 2.02936 35.1953 2.0328 35.7659C2.03571 36.2466 2.0413 36.7272 2.05429 37.2077C2.0826 38.2548 2.14441 39.3112 2.33075 40.3467C2.51978 41.3972 2.82834 42.3749 3.31469 43.3293C3.79282 44.2675 4.41746 45.1259 5.16256 45.8702C5.90766 46.6145 6.76682 47.2383 7.70586 47.716C8.66189 48.202 9.64118 48.5103 10.6935 48.6991C11.7297 48.8851 12.7868 48.9469 13.8346 48.9751C14.3157 48.988 14.7968 48.9935 15.2781 48.9968C15.8494 49 16.4206 49 16.9919 49H23.5538H28.5175H35.0666C35.6368 49 36.207 49 36.7772 48.9968C37.2574 48.9935 37.7376 48.988 38.2178 48.9751C39.264 48.9469 40.3194 48.8851 41.3541 48.6991C42.4037 48.5103 43.3807 48.202 44.3343 47.716C45.2717 47.2383 46.1294 46.6146 46.873 45.8702C47.6167 45.126 48.2402 44.2678 48.7174 43.3297C49.2029 42.3748 49.5108 41.3966 49.6995 40.3455C49.8855 39.3103 49.9469 38.2545 49.9755 37.2077C49.9885 36.7271 49.994 36.2465 49.9968 35.7659C50 35.1953 50 34.6246 50 34.054C50 34.054 50 27.6204 50 27.5048V22.495C50 22.4097 50 15.9491 50 15.9491C50 15.3793 50 14.8095 49.9968 14.2396Z" fill="white" fill-opacity="0.5"/>
<mask id="mask0_98_234" style="mask-type:alpha" maskUnits="userSpaceOnUse" x="2" y="1" width="48" height="48">
<path d="M49.9968 14.2396C49.994 13.7595 49.9885 13.2796 49.9751 12.7997C49.9469 11.7539 49.8855 10.6992 49.6995 9.66502C49.5108 8.61594 49.2029 7.6396 48.7174 6.68638C48.2402 5.74955 47.6168 4.89224 46.873 4.149C46.1294 3.40576 45.2719 2.78281 44.3347 2.3059C43.3805 1.82037 42.4031 1.51245 41.3529 1.32388C40.3186 1.13817 39.2636 1.0766 38.2178 1.04835C37.7376 1.03536 37.2574 1.02988 36.7772 1.02691C36.207 1.02342 35.6368 1.02371 35.0666 1.02371L28.4464 1H23.495L16.9919 1.02371C16.4206 1.02371 15.8493 1.02342 15.2781 1.02691C14.7968 1.02988 14.3157 1.03536 13.8346 1.04835C12.7864 1.0766 11.729 1.13823 10.6922 1.32417C9.64063 1.51268 8.66175 1.82048 7.70632 2.30566C6.76709 2.78263 5.90772 3.40564 5.16256 4.149C4.41752 4.89218 3.793 5.74932 3.31492 6.68602C2.82817 7.63965 2.51955 8.61659 2.33046 9.66626C2.14429 10.7 2.0826 11.7544 2.05423 12.7997C2.0413 13.2796 2.03571 13.7596 2.0328 14.2396C2.0293 14.8095 2 15.5175 2 16.0873V22.5003V27.5048L2.02959 34.054C2.02959 34.6246 2.02936 35.1953 2.0328 35.7659C2.03571 36.2466 2.0413 36.7272 2.05429 37.2077C2.0826 38.2548 2.14441 39.3112 2.33075 40.3467C2.51978 41.3972 2.82834 42.3749 3.31469 43.3293C3.79282 44.2675 4.41746 45.1259 5.16256 45.8702C5.90766 46.6145 6.76682 47.2383 7.70586 47.716C8.66189 48.202 9.64118 48.5103 10.6935 48.6991C11.7297 48.8851 12.7868 48.9469 13.8346 48.9751C14.3157 48.988 14.7968 48.9935 15.2781 48.9968C15.8494 49 16.4206 49 16.9919 49H23.5538H28.5175H35.0666C35.6368 49 36.207 49 36.7772 48.9968C37.2574 48.9935 37.7376 48.988 38.2178 48.9751C39.264 48.9469 40.3194 48.8851 41.3541 48.6991C42.4037 48.5103 43.3807 48.202 44.3343 47.716C45.2717 47.2383 46.1294 46.6146 46.873 45.8702C47.6167 45.126 48.2402 44.2678 48.7174 43.3297C49.2029 42.3748 49.5108 41.3966 49.6995 40.3455C49.8855 39.3103 49.9469 38.2545 49.9755 37.2077C49.9885 36.7271 49.994 36.2465 49.9968 35.7659C50 35.1953 50 34.6246 50 34.054C50 34.054 50 27.6204 50 27.5048V22.495C50 22.4097 50 15.9491 50 15.9491C50 15.3793 50 14.8095 49.9968 14.2396Z" fill="white"/>
</mask>
<g mask="url(#mask0_98_234)">
<g filter="url(#filter1_dii_98_234)">
<path fill-rule="evenodd" clip-rule="evenodd" d="M11.6 32.2002H17.2C18.0345 32.2002 18.7111 32.8767 18.7111 33.7113V39.3113C18.7111 40.1459 18.0345 40.8224 17.2 40.8224H11.6C10.7654 40.8224 10.0889 40.1459 10.0889 39.3113V33.7113C10.0889 32.8767 10.7654 32.2002 11.6 32.2002Z" fill="url(#paint0_linear_98_234)"/>
</g>
<g filter="url(#filter2_dii_98_234)">
<path fill-rule="evenodd" clip-rule="evenodd" d="M23.2444 32.2002H28.8444C29.679 32.2002 30.3556 32.8767 30.3556 33.7113V39.3113C30.3556 40.1459 29.679 40.8224 28.8444 40.8224H23.2444C22.4099 40.8224 21.7333 40.1459 21.7333 39.3113V33.7113C21.7333 32.8767 22.4099 32.2002 23.2444 32.2002Z" fill="url(#paint1_linear_98_234)"/>
</g>
<g filter="url(#filter3_dii_98_234)">
<path fill-rule="evenodd" clip-rule="evenodd" d="M34.8889 32.2002H40.4889C41.3234 32.2002 42 32.8767 42 33.7113V39.3113C42 40.1459 41.3234 40.8224 40.4889 40.8224H34.8889C34.0543 40.8224 33.3777 40.1459 33.3777 39.3113V33.7113C33.3777 32.8767 34.0543 32.2002 34.8889 32.2002Z" fill="url(#paint2_linear_98_234)"/>
</g>
<g filter="url(#filter4_dii_98_234)">
<path fill-rule="evenodd" clip-rule="evenodd" d="M11.6 20.6445H17.2C18.0345 20.6445 18.7111 21.3211 18.7111 22.1556V27.7556C18.7111 28.5902 18.0345 29.2668 17.2 29.2668H11.6C10.7654 29.2668 10.0889 28.5902 10.0889 27.7556V22.1556C10.0889 21.3211 10.7654 20.6445 11.6 20.6445Z" fill="url(#paint3_linear_98_234)"/>
</g>
<g filter="url(#filter5_dii_98_234)">
<path fill-rule="evenodd" clip-rule="evenodd" d="M23.2444 20.6445H28.8444C29.679 20.6445 30.3556 21.3211 30.3556 22.1556V27.7556C30.3556 28.5902 29.679 29.2668 28.8444 29.2668H23.2444C22.4099 29.2668 21.7333 28.5902 21.7333 27.7556V22.1556C21.7333 21.3211 22.4099 20.6445 23.2444 20.6445Z" fill="url(#paint4_linear_98_234)"/>
</g>
<g filter="url(#filter6_dii_98_234)">
<path fill-rule="evenodd" clip-rule="evenodd" d="M34.8889 20.6445H40.4889C41.3234 20.6445 42 21.3211 42 22.1556V27.7556C42 28.5902 41.3234 29.2668 40.4889 29.2668H34.8889C34.0543 29.2668 33.3777 28.5902 33.3777 27.7556V22.1556C33.3777 21.3211 34.0543 20.6445 34.8889 20.6445Z" fill="url(#paint5_linear_98_234)"/>
</g>
<g filter="url(#filter7_dii_98_234)">
<path fill-rule="evenodd" clip-rule="evenodd" d="M11.6 9.08887H17.2C18.0345 9.08887 18.7111 9.76541 18.7111 10.6V16.2C18.7111 17.0345 18.0345 17.7111 17.2 17.7111H11.6C10.7654 17.7111 10.0889 17.0345 10.0889 16.2V10.6C10.0889 9.76541 10.7654 9.08887 11.6 9.08887Z" fill="url(#paint6_linear_98_234)"/>
</g>
<g filter="url(#filter8_dii_98_234)">
<path fill-rule="evenodd" clip-rule="evenodd" d="M23.2444 9.08887H28.8444C29.679 9.08887 30.3556 9.76541 30.3556 10.6V16.2C30.3556 17.0345 29.679 17.7111 28.8444 17.7111H23.2444C22.4099 17.7111 21.7333 17.0345 21.7333 16.2V10.6C21.7333 9.76541 22.4099 9.08887 23.2444 9.08887Z" fill="url(#paint7_linear_98_234)"/>
</g>
<g filter="url(#filter9_dii_98_234)">
<path fill-rule="evenodd" clip-rule="evenodd" d="M34.8889 9.08887H40.4889C41.3234 9.08887 42 9.76541 42 10.6V16.2C42 17.0345 41.3234 17.7111 40.4889 17.7111H34.8889C34.0543 17.7111 33.3777 17.0345 33.3777 16.2V10.6C33.3777 9.76541 34.0543 9.08887 34.8889 9.08887Z" fill="url(#paint8_linear_98_234)"/>
</g>
</g>
</g>
<defs>
<filter id="filter0_d_98_234" x="0.577778" y="0.111111" width="50.8444" height="50.8444" filterUnits="userSpaceOnUse" color-interpolation-filters="sRGB">
<feFlood flood-opacity="0" result="BackgroundImageFix"/>
<feColorMatrix in="SourceAlpha" type="matrix" values="0 0 0 0 0 0 0 0 0 0 0 0 0 0 0 0 0 0 127 0" result="hardAlpha"/>
<feOffset dy="0.533333"/>
<feGaussianBlur stdDeviation="0.711111"/>
<feColorMatrix type="matrix" values="0 0 0 0 0.447011 0 0 0 0 0.447011 0 0 0 0 0.447011 0 0 0 0.5 0"/>
<feBlend mode="normal" in2="BackgroundImageFix" result="effect1_dropShadow_98_234"/>
<feBlend mode="normal" in="SourceGraphic" in2="effect1_dropShadow_98_234" result="shape"/>
</filter>
<filter id="filter1_dii_98_234" x="9.46665" y="31.8446" width="9.86664" height="9.86651" filterUnits="userSpaceOnUse" color-interpolation-filters="sRGB">
<feFlood flood-opacity="0" result="BackgroundImageFix"/>
<feColorMatrix in="SourceAlpha" type="matrix" values="0 0 0 0 0 0 0 0 0 0 0 0 0 0 0 0 0 0 127 0" result="hardAlpha"/>
<feOffset dy="0.266667"/>
<feGaussianBlur stdDeviation="0.311111"/>
<feColorMatrix type="matrix" values="0 0 0 0 0 0 0 0 0 0 0 0 0 0 0 0 0 0 0.3 0"/>
<feBlend mode="normal" in2="BackgroundImageFix" result="effect1_dropShadow_98_234"/>
<feBlend mode="normal" in="SourceGraphic" in2="effect1_dropShadow_98_234" result="shape"/>
<feColorMatrix in="SourceAlpha" type="matrix" values="0 0 0 0 0 0 0 0 0 0 0 0 0 0 0 0 0 0 127 0" result="hardAlpha"/>
<feOffset dy="0.266667"/>
<feGaussianBlur stdDeviation="0.133333"/>
<feComposite in2="hardAlpha" operator="arithmetic" k2="-1" k3="1"/>
<feColorMatrix type="matrix" values="0 0 0 0 1 0 0 0 0 1 0 0 0 0 1 0 0 0 0.5 0"/>
<feBlend mode="normal" in2="shape" result="effect2_innerShadow_98_234"/>
<feColorMatrix in="SourceAlpha" type="matrix" values="0 0 0 0 0 0 0 0 0 0 0 0 0 0 0 0 0 0 127 0" result="hardAlpha"/>
<feOffset dy="-0.266667"/>
<feGaussianBlur stdDeviation="0.133333"/>
<feComposite in2="hardAlpha" operator="arithmetic" k2="-1" k3="1"/>
<feColorMatrix type="matrix" values="0 0 0 0 0 0 0 0 0 0 0 0 0 0 0 0 0 0 0.4 0"/>
<feBlend mode="normal" in2="effect2_innerShadow_98_234" result="effect3_innerShadow_98_234"/>
</filter>
<filter id="filter2_dii_98_234" x="21.1111" y="31.8446" width="9.86664" height="9.86651" filterUnits="userSpaceOnUse" color-interpolation-filters="sRGB">
<feFlood flood-opacity="0" result="BackgroundImageFix"/>
<feColorMatrix in="SourceAlpha" type="matrix" values="0 0 0 0 0 0 0 0 0 0 0 0 0 0 0 0 0 0 127 0" result="hardAlpha"/>
<feOffset dy="0.266667"/>
<feGaussianBlur stdDeviation="0.311111"/>
<feColorMatrix type="matrix" values="0 0 0 0 0 0 0 0 0 0 0 0 0 0 0 0 0 0 0.5 0"/>
<feBlend mode="normal" in2="BackgroundImageFix" result="effect1_dropShadow_98_234"/>
<feBlend mode="normal" in="SourceGraphic" in2="effect1_dropShadow_98_234" result="shape"/>
<feColorMatrix in="SourceAlpha" type="matrix" values="0 0 0 0 0 0 0 0 0 0 0 0 0 0 0 0 0 0 127 0" result="hardAlpha"/>
<feOffset dy="0.266667"/>
<feGaussianBlur stdDeviation="0.133333"/>
<feComposite in2="hardAlpha" operator="arithmetic" k2="-1" k3="1"/>
<feColorMatrix type="matrix" values="0 0 0 0 1 0 0 0 0 1 0 0 0 0 1 0 0 0 0.5 0"/>
<feBlend mode="normal" in2="shape" result="effect2_innerShadow_98_234"/>
<feColorMatrix in="SourceAlpha" type="matrix" values="0 0 0 0 0 0 0 0 0 0 0 0 0 0 0 0 0 0 127 0" result="hardAlpha"/>
<feOffset dy="-0.266667"/>
<feGaussianBlur stdDeviation="0.133333"/>
<feComposite in2="hardAlpha" operator="arithmetic" k2="-1" k3="1"/>
<feColorMatrix type="matrix" values="0 0 0 0 0 0 0 0 0 0 0 0 0 0 0 0 0 0 0.4 0"/>
<feBlend mode="normal" in2="effect2_innerShadow_98_234" result="effect3_innerShadow_98_234"/>
</filter>
<filter id="filter3_dii_98_234" x="32.7555" y="31.8446" width="9.86664" height="9.86651" filterUnits="userSpaceOnUse" color-interpolation-filters="sRGB">
<feFlood flood-opacity="0" result="BackgroundImageFix"/>
<feColorMatrix in="SourceAlpha" type="matrix" values="0 0 0 0 0 0 0 0 0 0 0 0 0 0 0 0 0 0 127 0" result="hardAlpha"/>
<feOffset dy="0.266667"/>
<feGaussianBlur stdDeviation="0.311111"/>
<feColorMatrix type="matrix" values="0 0 0 0 0 0 0 0 0 0 0 0 0 0 0 0 0 0 0.3 0"/>
<feBlend mode="normal" in2="BackgroundImageFix" result="effect1_dropShadow_98_234"/>
<feBlend mode="normal" in="SourceGraphic" in2="effect1_dropShadow_98_234" result="shape"/>
<feColorMatrix in="SourceAlpha" type="matrix" values="0 0 0 0 0 0 0 0 0 0 0 0 0 0 0 0 0 0 127 0" result="hardAlpha"/>
<feOffset dy="0.266667"/>
<feGaussianBlur stdDeviation="0.133333"/>
<feComposite in2="hardAlpha" operator="arithmetic" k2="-1" k3="1"/>
<feColorMatrix type="matrix" values="0 0 0 0 1 0 0 0 0 1 0 0 0 0 1 0 0 0 0.5 0"/>
<feBlend mode="normal" in2="shape" result="effect2_innerShadow_98_234"/>
<feColorMatrix in="SourceAlpha" type="matrix" values="0 0 0 0 0 0 0 0 0 0 0 0 0 0 0 0 0 0 127 0" result="hardAlpha"/>
<feOffset dy="-0.266667"/>
<feGaussianBlur stdDeviation="0.133333"/>
<feComposite in2="hardAlpha" operator="arithmetic" k2="-1" k3="1"/>
<feColorMatrix type="matrix" values="0 0 0 0 0 0 0 0 0 0 0 0 0 0 0 0 0 0 0.4 0"/>
<feBlend mode="normal" in2="effect2_innerShadow_98_234" result="effect3_innerShadow_98_234"/>
</filter>
<filter id="filter4_dii_98_234" x="9.46665" y="20.289" width="9.86664" height="9.86651" filterUnits="userSpaceOnUse" color-interpolation-filters="sRGB">
<feFlood flood-opacity="0" result="BackgroundImageFix"/>
<feColorMatrix in="SourceAlpha" type="matrix" values="0 0 0 0 0 0 0 0 0 0 0 0 0 0 0 0 0 0 127 0" result="hardAlpha"/>
<feOffset dy="0.266667"/>
<feGaussianBlur stdDeviation="0.311111"/>
<feColorMatrix type="matrix" values="0 0 0 0 0 0 0 0 0 0 0 0 0 0 0 0 0 0 0.5 0"/>
<feBlend mode="normal" in2="BackgroundImageFix" result="effect1_dropShadow_98_234"/>
<feBlend mode="normal" in="SourceGraphic" in2="effect1_dropShadow_98_234" result="shape"/>
<feColorMatrix in="SourceAlpha" type="matrix" values="0 0 0 0 0 0 0 0 0 0 0 0 0 0 0 0 0 0 127 0" result="hardAlpha"/>
<feOffset dy="0.266667"/>
<feGaussianBlur stdDeviation="0.133333"/>
<feComposite in2="hardAlpha" operator="arithmetic" k2="-1" k3="1"/>
<feColorMatrix type="matrix" values="0 0 0 0 1 0 0 0 0 1 0 0 0 0 1 0 0 0 0.5 0"/>
<feBlend mode="normal" in2="shape" result="effect2_innerShadow_98_234"/>
<feColorMatrix in="SourceAlpha" type="matrix" values="0 0 0 0 0 0 0 0 0 0 0 0 0 0 0 0 0 0 127 0" result="hardAlpha"/>
<feOffset dy="-0.266667"/>
<feGaussianBlur stdDeviation="0.133333"/>
<feComposite in2="hardAlpha" operator="arithmetic" k2="-1" k3="1"/>
<feColorMatrix type="matrix" values="0 0 0 0 0 0 0 0 0 0 0 0 0 0 0 0 0 0 0.4 0"/>
<feBlend mode="normal" in2="effect2_innerShadow_98_234" result="effect3_innerShadow_98_234"/>
</filter>
<filter id="filter5_dii_98_234" x="21.1111" y="20.289" width="9.86664" height="9.86651" filterUnits="userSpaceOnUse" color-interpolation-filters="sRGB">
<feFlood flood-opacity="0" result="BackgroundImageFix"/>
<feColorMatrix in="SourceAlpha" type="matrix" values="0 0 0 0 0 0 0 0 0 0 0 0 0 0 0 0 0 0 127 0" result="hardAlpha"/>
<feOffset dy="0.266667"/>
<feGaussianBlur stdDeviation="0.311111"/>
<feColorMatrix type="matrix" values="0 0 0 0 0 0 0 0 0 0 0 0 0 0 0 0 0 0 0.3 0"/>
<feBlend mode="normal" in2="BackgroundImageFix" result="effect1_dropShadow_98_234"/>
<feBlend mode="normal" in="SourceGraphic" in2="effect1_dropShadow_98_234" result="shape"/>
<feColorMatrix in="SourceAlpha" type="matrix" values="0 0 0 0 0 0 0 0 0 0 0 0 0 0 0 0 0 0 127 0" result="hardAlpha"/>
<feOffset dy="0.266667"/>
<feGaussianBlur stdDeviation="0.133333"/>
<feComposite in2="hardAlpha" operator="arithmetic" k2="-1" k3="1"/>
<feColorMatrix type="matrix" values="0 0 0 0 1 0 0 0 0 1 0 0 0 0 1 0 0 0 0.5 0"/>
<feBlend mode="normal" in2="shape" result="effect2_innerShadow_98_234"/>
<feColorMatrix in="SourceAlpha" type="matrix" values="0 0 0 0 0 0 0 0 0 0 0 0 0 0 0 0 0 0 127 0" result="hardAlpha"/>
<feOffset dy="-0.266667"/>
<feGaussianBlur stdDeviation="0.133333"/>
<feComposite in2="hardAlpha" operator="arithmetic" k2="-1" k3="1"/>
<feColorMatrix type="matrix" values="0 0 0 0 0 0 0 0 0 0 0 0 0 0 0 0 0 0 0.4 0"/>
<feBlend mode="normal" in2="effect2_innerShadow_98_234" result="effect3_innerShadow_98_234"/>
</filter>
<filter id="filter6_dii_98_234" x="32.7555" y="20.289" width="9.86664" height="9.86651" filterUnits="userSpaceOnUse" color-interpolation-filters="sRGB">
<feFlood flood-opacity="0" result="BackgroundImageFix"/>
<feColorMatrix in="SourceAlpha" type="matrix" values="0 0 0 0 0 0 0 0 0 0 0 0 0 0 0 0 0 0 127 0" result="hardAlpha"/>
<feOffset dy="0.266667"/>
<feGaussianBlur stdDeviation="0.311111"/>
<feColorMatrix type="matrix" values="0 0 0 0 0 0 0 0 0 0 0 0 0 0 0 0 0 0 0.3 0"/>
<feBlend mode="normal" in2="BackgroundImageFix" result="effect1_dropShadow_98_234"/>
<feBlend mode="normal" in="SourceGraphic" in2="effect1_dropShadow_98_234" result="shape"/>
<feColorMatrix in="SourceAlpha" type="matrix" values="0 0 0 0 0 0 0 0 0 0 0 0 0 0 0 0 0 0 127 0" result="hardAlpha"/>
<feOffset dy="0.266667"/>
<feGaussianBlur stdDeviation="0.133333"/>
<feComposite in2="hardAlpha" operator="arithmetic" k2="-1" k3="1"/>
<feColorMatrix type="matrix" values="0 0 0 0 1 0 0 0 0 1 0 0 0 0 1 0 0 0 0.5 0"/>
<feBlend mode="normal" in2="shape" result="effect2_innerShadow_98_234"/>
<feColorMatrix in="SourceAlpha" type="matrix" values="0 0 0 0 0 0 0 0 0 0 0 0 0 0 0 0 0 0 127 0" result="hardAlpha"/>
<feOffset dy="-0.266667"/>
<feGaussianBlur stdDeviation="0.133333"/>
<feComposite in2="hardAlpha" operator="arithmetic" k2="-1" k3="1"/>
<feColorMatrix type="matrix" values="0 0 0 0 0 0 0 0 0 0 0 0 0 0 0 0 0 0 0.4 0"/>
<feBlend mode="normal" in2="effect2_innerShadow_98_234" result="effect3_innerShadow_98_234"/>
</filter>
<filter id="filter7_dii_98_234" x="9.46665" y="8.73331" width="9.86664" height="9.86651" filterUnits="userSpaceOnUse" color-interpolation-filters="sRGB">
<feFlood flood-opacity="0" result="BackgroundImageFix"/>
<feColorMatrix in="SourceAlpha" type="matrix" values="0 0 0 0 0 0 0 0 0 0 0 0 0 0 0 0 0 0 127 0" result="hardAlpha"/>
<feOffset dy="0.266667"/>
<feGaussianBlur stdDeviation="0.311111"/>
<feColorMatrix type="matrix" values="0 0 0 0 0 0 0 0 0 0 0 0 0 0 0 0 0 0 0.3 0"/>
<feBlend mode="normal" in2="BackgroundImageFix" result="effect1_dropShadow_98_234"/>
<feBlend mode="normal" in="SourceGraphic" in2="effect1_dropShadow_98_234" result="shape"/>
<feColorMatrix in="SourceAlpha" type="matrix" values="0 0 0 0 0 0 0 0 0 0 0 0 0 0 0 0 0 0 127 0" result="hardAlpha"/>
<feOffset dy="0.266667"/>
<feGaussianBlur stdDeviation="0.133333"/>
<feComposite in2="hardAlpha" operator="arithmetic" k2="-1" k3="1"/>
<feColorMatrix type="matrix" values="0 0 0 0 1 0 0 0 0 1 0 0 0 0 1 0 0 0 0.5 0"/>
<feBlend mode="normal" in2="shape" result="effect2_innerShadow_98_234"/>
<feColorMatrix in="SourceAlpha" type="matrix" values="0 0 0 0 0 0 0 0 0 0 0 0 0 0 0 0 0 0 127 0" result="hardAlpha"/>
<feOffset dy="-0.266667"/>
<feGaussianBlur stdDeviation="0.133333"/>
<feComposite in2="hardAlpha" operator="arithmetic" k2="-1" k3="1"/>
<feColorMatrix type="matrix" values="0 0 0 0 0 0 0 0 0 0 0 0 0 0 0 0 0 0 0.4 0"/>
<feBlend mode="normal" in2="effect2_innerShadow_98_234" result="effect3_innerShadow_98_234"/>
</filter>
<filter id="filter8_dii_98_234" x="21.1111" y="8.73331" width="9.86664" height="9.86651" filterUnits="userSpaceOnUse" color-interpolation-filters="sRGB">
<feFlood flood-opacity="0" result="BackgroundImageFix"/>
<feColorMatrix in="SourceAlpha" type="matrix" values="0 0 0 0 0 0 0 0 0 0 0 0 0 0 0 0 0 0 127 0" result="hardAlpha"/>
<feOffset dy="0.266667"/>
<feGaussianBlur stdDeviation="0.311111"/>
<feColorMatrix type="matrix" values="0 0 0 0 0 0 0 0 0 0 0 0 0 0 0 0 0 0 0.3 0"/>
<feBlend mode="normal" in2="BackgroundImageFix" result="effect1_dropShadow_98_234"/>
<feBlend mode="normal" in="SourceGraphic" in2="effect1_dropShadow_98_234" result="shape"/>
<feColorMatrix in="SourceAlpha" type="matrix" values="0 0 0 0 0 0 0 0 0 0 0 0 0 0 0 0 0 0 127 0" result="hardAlpha"/>
<feOffset dy="0.266667"/>
<feGaussianBlur stdDeviation="0.133333"/>
<feComposite in2="hardAlpha" operator="arithmetic" k2="-1" k3="1"/>
<feColorMatrix type="matrix" values="0 0 0 0 1 0 0 0 0 1 0 0 0 0 1 0 0 0 0.5 0"/>
<feBlend mode="normal" in2="shape" result="effect2_innerShadow_98_234"/>
<feColorMatrix in="SourceAlpha" type="matrix" values="0 0 0 0 0 0 0 0 0 0 0 0 0 0 0 0 0 0 127 0" result="hardAlpha"/>
<feOffset dy="-0.266667"/>
<feGaussianBlur stdDeviation="0.133333"/>
<feComposite in2="hardAlpha" operator="arithmetic" k2="-1" k3="1"/>
<feColorMatrix type="matrix" values="0 0 0 0 0 0 0 0 0 0 0 0 0 0 0 0 0 0 0.4 0"/>
<feBlend mode="normal" in2="effect2_innerShadow_98_234" result="effect3_innerShadow_98_234"/>
</filter>
<filter id="filter9_dii_98_234" x="32.7555" y="8.73331" width="9.86664" height="9.86651" filterUnits="userSpaceOnUse" color-interpolation-filters="sRGB">
<feFlood flood-opacity="0" result="BackgroundImageFix"/>
<feColorMatrix in="SourceAlpha" type="matrix" values="0 0 0 0 0 0 0 0 0 0 0 0 0 0 0 0 0 0 127 0" result="hardAlpha"/>
<feOffset dy="0.266667"/>
<feGaussianBlur stdDeviation="0.311111"/>
<feColorMatrix type="matrix" values="0 0 0 0 0 0 0 0 0 0 0 0 0 0 0 0 0 0 0.3 0"/>
<feBlend mode="normal" in2="BackgroundImageFix" result="effect1_dropShadow_98_234"/>
<feBlend mode="normal" in="SourceGraphic" in2="effect1_dropShadow_98_234" result="shape"/>
<feColorMatrix in="SourceAlpha" type="matrix" values="0 0 0 0 0 0 0 0 0 0 0 0 0 0 0 0 0 0 127 0" result="hardAlpha"/>
<feOffset dy="0.266667"/>
<feGaussianBlur stdDeviation="0.133333"/>
<feComposite in2="hardAlpha" operator="arithmetic" k2="-1" k3="1"/>
<feColorMatrix type="matrix" values="0 0 0 0 1 0 0 0 0 1 0 0 0 0 1 0 0 0 0.5 0"/>
<feBlend mode="normal" in2="shape" result="effect2_innerShadow_98_234"/>
<feColorMatrix in="SourceAlpha" type="matrix" values="0 0 0 0 0 0 0 0 0 0 0 0 0 0 0 0 0 0 127 0" result="hardAlpha"/>
<feOffset dy="-0.266667"/>
<feGaussianBlur stdDeviation="0.133333"/>
<feComposite in2="hardAlpha" operator="arithmetic" k2="-1" k3="1"/>
<feColorMatrix type="matrix" values="0 0 0 0 0 0 0 0 0 0 0 0 0 0 0 0 0 0 0.4 0"/>
<feBlend mode="normal" in2="effect2_innerShadow_98_234" result="effect3_innerShadow_98_234"/>
</filter>
<linearGradient id="paint0_linear_98_234" x1="10.0889" y1="32.2002" x2="10.0889" y2="40.8224" gradientUnits="userSpaceOnUse">
<stop stop-color="#C45FEE"/>
<stop offset="1" stop-color="#7625B1"/>
</linearGradient>
<linearGradient id="paint1_linear_98_234" x1="21.7333" y1="32.2002" x2="21.7333" y2="40.8224" gradientUnits="userSpaceOnUse">
<stop stop-color="#19E2FF"/>
<stop offset="1" stop-color="#1E57EE"/>
</linearGradient>
<linearGradient id="paint2_linear_98_234" x1="33.3777" y1="32.2002" x2="33.3777" y2="40.8224" gradientUnits="userSpaceOnUse">
<stop stop-color="#5EE5E2"/>
<stop offset="1" stop-color="#03BC77"/>
</linearGradient>
<linearGradient id="paint3_linear_98_234" x1="10.0889" y1="20.6445" x2="10.0889" y2="29.2668" gradientUnits="userSpaceOnUse">
<stop stop-color="#FD392E"/>
<stop offset="1" stop-color="#BD0502"/>
</linearGradient>
<linearGradient id="paint4_linear_98_234" x1="21.7333" y1="20.6445" x2="21.7333" y2="29.2668" gradientUnits="userSpaceOnUse">
<stop stop-color="#CFE3EA"/>
<stop offset="1" stop-color="#7A7A79"/>
</linearGradient>
<linearGradient id="paint5_linear_98_234" x1="33.3777" y1="20.6445" x2="33.3777" y2="29.2668" gradientUnits="userSpaceOnUse">
<stop stop-color="#FD325A"/>
<stop offset="1" stop-color="#FD5263"/>
</linearGradient>
<linearGradient id="paint6_linear_98_234" x1="10.0889" y1="9.08887" x2="10.0889" y2="17.7111" gradientUnits="userSpaceOnUse">
<stop stop-color="#85FB70"/>
<stop offset="1" stop-color="#0ED41A"/>
</linearGradient>
<linearGradient id="paint7_linear_98_234" x1="21.7333" y1="9.08887" x2="21.7333" y2="17.7111" gradientUnits="userSpaceOnUse">
<stop stop-color="#FDD528"/>
<stop offset="1" stop-color="#FFAA02"/>
</linearGradient>
<linearGradient id="paint8_linear_98_234" x1="33.3777" y1="9.08887" x2="33.3777" y2="17.7111" gradientUnits="userSpaceOnUse">
<stop stop-color="#F9A401"/>
<stop offset="1" stop-color="#F06D21"/>
</linearGradient>
</defs>
</svg>
