<svg width="32" height="32" viewBox="0 0 32 32" fill="none" xmlns="http://www.w3.org/2000/svg">
    <path d="M20.6484 18.8955C16.1577 18.8955 13.2856 16.0815 13.2856 11.5825C13.2856 10.6528 13.5098 9.32471 13.8086 8.63574C13.8833 8.44482 13.8999 8.32861 13.8999 8.24561C13.8999 8.02148 13.7339 7.77246 13.4102 7.77246C13.3188 7.77246 13.1196 7.79736 12.937 7.86377C9.86572 9.09229 7.80713 12.396 7.80713 15.874C7.80713 20.7549 11.5259 24.2412 16.3901 24.2412C19.9678 24.2412 23.064 22.0747 24.0933 19.3687C24.168 19.1777 24.1846 18.9785 24.1846 18.9038C24.1846 18.5967 23.9272 18.3892 23.6948 18.3892C23.5869 18.3892 23.4956 18.4141 23.3379 18.4639C22.6987 18.6714 21.6694 18.8955 20.6484 18.8955Z"
          fill="currentColor"/>
</svg>
