<svg width="32" height="32" viewBox="0 0 32 32" fill="none" xmlns="http://www.w3.org/2000/svg">
    <path d="M26.8076 16.0151C26.8076 13.2344 25.7617 10.686 23.9521 8.79346C23.6533 8.47803 23.2466 8.51123 23.0142 8.76855C22.7734 9.03418 22.8232 9.40771 23.1055 9.70654C24.6909 11.3667 25.5625 13.5913 25.5625 16.0151C25.5625 18.439 24.6909 20.6636 23.1055 22.3237C22.8232 22.6143 22.7734 22.9961 23.0142 23.2534C23.2466 23.519 23.6533 23.5522 23.9521 23.2368C25.7617 21.3442 26.8076 18.7959 26.8076 16.0151ZM5.18408 16.0151C5.18408 18.7959 6.22998 21.3442 8.03955 23.2368C8.33838 23.5522 8.74512 23.519 8.97754 23.2534C9.21826 22.9961 9.16846 22.6143 8.88623 22.3237C7.29248 20.6636 6.4292 18.439 6.4292 16.0151C6.4292 13.5913 7.29248 11.3667 8.88623 9.70654C9.16846 9.40771 9.21826 9.03418 8.97754 8.76855C8.74512 8.51123 8.33838 8.47803 8.03955 8.79346C6.22998 10.686 5.18408 13.2344 5.18408 16.0151ZM8.15576 16.0151C8.15576 17.9824 8.86133 19.8169 10.1313 21.1865C10.4219 21.5103 10.8452 21.5186 11.0942 21.228C11.335 20.9541 11.2686 20.5972 10.9863 20.29C9.95703 19.1362 9.39258 17.6421 9.39258 16.0151C9.39258 14.3882 9.95703 12.894 10.9863 11.7402C11.2686 11.4331 11.335 11.0762 11.0942 10.7939C10.8452 10.5117 10.4219 10.5117 10.1313 10.8354C8.86133 12.2134 8.15576 14.0396 8.15576 16.0151ZM23.8359 16.0151C23.8359 14.0396 23.1304 12.2134 21.8604 10.8354C21.5698 10.5117 21.1465 10.5117 20.8975 10.7939C20.6484 11.0762 20.7231 11.4331 20.9971 11.7402C22.0347 12.894 22.5991 14.3882 22.5991 16.0151C22.5991 17.6421 22.0347 19.1362 20.9971 20.29C20.7231 20.5972 20.6484 20.9541 20.8975 21.228C21.1465 21.5186 21.5698 21.5103 21.8604 21.1865C23.1304 19.8169 23.8359 17.9824 23.8359 16.0151ZM11.1191 16.0151C11.1191 17.1274 11.501 18.1733 12.165 18.9951C12.439 19.3438 12.8955 19.3438 13.1445 19.0615C13.3936 18.7793 13.2856 18.4473 13.0449 18.1069C12.5967 17.5425 12.3643 16.812 12.3643 16.0151C12.3643 15.2183 12.5967 14.4878 13.0449 13.915C13.2856 13.583 13.3936 13.251 13.1445 12.9688C12.8955 12.6865 12.439 12.6865 12.165 13.0269C11.501 13.8486 11.1191 14.8945 11.1191 16.0151ZM20.8726 16.0151C20.8726 14.8945 20.4907 13.8486 19.8267 13.0269C19.5527 12.6865 19.0962 12.6865 18.8472 12.9688C18.5981 13.251 18.6978 13.583 18.9468 13.915C19.395 14.4878 19.6274 15.2183 19.6274 16.0151C19.6274 16.812 19.395 17.5425 18.9468 18.1069C18.6978 18.4473 18.5981 18.7793 18.8472 19.0615C19.0962 19.3438 19.5527 19.3438 19.8267 18.9951C20.4907 18.1733 20.8726 17.1274 20.8726 16.0151ZM15.9917 17.9492C17.0293 17.9492 17.9258 17.0693 17.9258 16.0068C17.9258 14.9443 17.0293 14.0728 15.9917 14.0728C14.9541 14.0728 14.0659 14.9443 14.0659 16.0068C14.0659 17.0693 14.9541 17.9492 15.9917 17.9492Z"
          fill="#007AFF"/>
</svg>
