<svg width="52" height="53" viewBox="0 0 52 53" fill="none" xmlns="http://www.w3.org/2000/svg">
<g filter="url(#filter0_d_98_387)">
<path d="M49.9968 15.2396C49.994 14.7595 49.9885 14.2796 49.9751 13.7997C49.9469 12.7539 49.8855 11.6992 49.6995 10.665C49.5108 9.61594 49.2029 8.6396 48.7174 7.68638C48.2402 6.74955 47.6168 5.89224 46.873 5.149C46.1294 4.40576 45.2719 3.78281 44.3347 3.3059C43.3805 2.82037 42.4031 2.51245 41.3529 2.32388C40.3186 2.13817 39.2636 2.0766 38.2178 2.04835C37.7376 2.03536 37.2574 2.02988 36.7772 2.02691C36.207 2.02342 35.6368 2.02371 35.0666 2.02371L28.4464 2H23.495L16.9919 2.02371C16.4206 2.02371 15.8493 2.02342 15.2781 2.02691C14.7968 2.02988 14.3157 2.03536 13.8346 2.04835C12.7864 2.0766 11.729 2.13823 10.6922 2.32417C9.64063 2.51268 8.66175 2.82048 7.70632 3.30566C6.76709 3.78263 5.90772 4.40564 5.16256 5.149C4.41752 5.89218 3.793 6.74932 3.31492 7.68602C2.82817 8.63965 2.51955 9.61659 2.33046 10.6663C2.14429 11.7 2.0826 12.7544 2.05423 13.7997C2.0413 14.2796 2.03571 14.7596 2.0328 15.2396C2.0293 15.8095 2 16.5175 2 17.0873V23.5003V28.5048L2.02959 35.054C2.02959 35.6246 2.02936 36.1953 2.0328 36.7659C2.03571 37.2466 2.0413 37.7272 2.05429 38.2077C2.0826 39.2548 2.14441 40.3112 2.33075 41.3467C2.51978 42.3972 2.82834 43.3749 3.31469 44.3293C3.79282 45.2675 4.41746 46.1259 5.16256 46.8702C5.90766 47.6145 6.76682 48.2383 7.70586 48.716C8.66189 49.202 9.64118 49.5103 10.6935 49.6991C11.7297 49.8851 12.7868 49.9469 13.8346 49.9751C14.3157 49.988 14.7968 49.9935 15.2781 49.9968C15.8494 50 16.4206 50 16.9919 50H23.5538H28.5175H35.0666C35.6368 50 36.207 50 36.7772 49.9968C37.2574 49.9935 37.7376 49.988 38.2178 49.9751C39.264 49.9469 40.3194 49.8851 41.3541 49.6991C42.4037 49.5103 43.3807 49.202 44.3343 48.716C45.2717 48.2383 46.1294 47.6146 46.873 46.8702C47.6167 46.126 48.2402 45.2678 48.7174 44.3297C49.2029 43.3748 49.5108 42.3966 49.6995 41.3455C49.8855 40.3103 49.9469 39.2545 49.9755 38.2077C49.9885 37.7271 49.994 37.2465 49.9968 36.7659C50 36.1953 50 35.6246 50 35.054C50 35.054 50 28.6204 50 28.5048V23.495C50 23.4097 50 16.9491 50 16.9491C50 16.3793 50 15.8095 49.9968 15.2396Z" fill="url(#paint0_linear_98_387)"/>
<g filter="url(#filter1_ii_98_387)">
<circle cx="26.0445" cy="26.0446" r="20.5778" fill="url(#paint1_linear_98_387)"/>
</g>
<mask id="mask0_98_387" style="mask-type:alpha" maskUnits="userSpaceOnUse" x="5" y="5" width="42" height="42">
<circle cx="26.0445" cy="26.0446" r="20.5778" fill="white"/>
</mask>
<g mask="url(#mask0_98_387)">
<g filter="url(#filter2_f_98_387)">
<circle cx="24.1405" cy="19.8668" r="14.4" fill="#23A8F2"/>
</g>
</g>
<g filter="url(#filter3_d_98_387)">
<path fill-rule="evenodd" clip-rule="evenodd" d="M26.0444 42.0762C26.2075 42.0762 26.3398 42.2084 26.3398 42.3715V44.8185C26.3398 44.9816 26.2075 45.1138 26.0444 45.1138C25.8813 45.1138 25.7491 44.9816 25.7491 44.8185V42.3715C25.7491 42.2084 25.8813 42.0762 26.0444 42.0762ZM24.5479 43.1074C24.6871 43.1196 24.7902 43.2424 24.778 43.3817L24.6603 44.7266C24.6481 44.8658 24.5254 44.9689 24.3861 44.9567C24.2468 44.9445 24.1438 44.8217 24.156 44.6824L24.2736 43.3375C24.2858 43.1983 24.4086 43.0952 24.5479 43.1074ZM27.8152 43.3375L27.9329 44.6824C27.9451 44.8217 27.8421 44.9445 27.7028 44.9567C27.5635 44.9689 27.4407 44.8658 27.4285 44.7266L27.3109 43.3817C27.2987 43.2424 27.4017 43.1196 27.541 43.1074C27.6803 43.0952 27.803 43.1983 27.8152 43.3375ZM23.2605 41.8327C23.4211 41.861 23.5284 42.0142 23.5001 42.1748L23.0752 44.5846C23.0468 44.7452 22.8937 44.8525 22.733 44.8241C22.5724 44.7958 22.4652 44.6426 22.4935 44.482L22.9184 42.0722C22.9467 41.9116 23.0999 41.8043 23.2605 41.8327ZM29.1705 42.0722L29.5954 44.482C29.6237 44.6426 29.5165 44.7958 29.3558 44.8241C29.1952 44.8525 29.042 44.7452 29.0137 44.5846L28.5888 42.1748C28.5605 42.0142 28.6677 41.861 28.8284 41.8327C28.989 41.8043 29.1421 41.9116 29.1705 42.0722ZM21.6003 42.5878C21.7353 42.624 21.8154 42.7628 21.7793 42.8978L21.4298 44.2019C21.3937 44.3369 21.2548 44.417 21.1198 44.3809C20.9848 44.3447 20.9046 44.2059 20.9408 44.0708L21.2902 42.7668C21.3264 42.6317 21.4652 42.5516 21.6003 42.5878ZM30.7986 42.7668L31.1481 44.0708C31.1842 44.2059 31.1041 44.3447 30.9691 44.3809C30.834 44.417 30.6952 44.3369 30.659 44.2019L30.3096 42.8978C30.2734 42.7628 30.3536 42.624 30.4886 42.5878C30.6237 42.5516 30.7625 42.6317 30.7986 42.7668ZM20.5612 41.1092C20.7145 41.165 20.7935 41.3345 20.7377 41.4877L19.9008 43.7871C19.845 43.9404 19.6755 44.0194 19.5223 43.9636C19.369 43.9078 19.29 43.7384 19.3458 43.5851L20.1827 41.2857C20.2385 41.1324 20.4079 41.0534 20.5612 41.1092ZM31.9062 41.2857L32.7431 43.5851C32.7989 43.7384 32.7199 43.9078 32.5666 43.9636C32.4133 44.0194 32.2439 43.9404 32.1881 43.7871L31.3512 41.4877C31.2954 41.3345 31.3744 41.165 31.5277 41.1092C31.6809 41.0534 31.8504 41.1324 31.9062 41.2857ZM18.7877 41.5643C18.9144 41.6234 18.9692 41.774 18.9101 41.9007L18.3395 43.1243C18.2805 43.251 18.1299 43.3058 18.0031 43.2467C17.8764 43.1876 17.8216 43.037 17.8807 42.9103L18.4513 41.6867C18.5104 41.56 18.661 41.5052 18.7877 41.5643ZM33.6376 41.6867L34.2082 42.9103C34.2673 43.037 34.2124 43.1876 34.0857 43.2467C33.959 43.3058 33.8084 43.251 33.7493 43.1243L33.1788 41.9007C33.1197 41.774 33.1745 41.6234 33.3012 41.5643C33.4279 41.5052 33.5785 41.56 33.6376 41.6867ZM18.0285 39.9283C18.1697 40.0098 18.2181 40.1905 18.1366 40.3317L16.9131 42.4509C16.8315 42.5921 16.6509 42.6405 16.5097 42.5589C16.3684 42.4774 16.32 42.2968 16.4016 42.1555L17.6251 40.0364C17.7066 39.8951 17.8872 39.8467 18.0285 39.9283ZM34.4638 40.0364L35.6873 42.1555C35.7689 42.2968 35.7205 42.4774 35.5792 42.5589C35.438 42.6405 35.2573 42.5921 35.1758 42.4509L33.9523 40.3317C33.8708 40.1905 33.9191 40.0098 34.0604 39.9283C34.2017 39.8467 34.3823 39.8951 34.4638 40.0364ZM16.1955 40.0678C16.3101 40.148 16.3379 40.3058 16.2577 40.4203L15.4833 41.5262C15.4032 41.6407 15.2453 41.6686 15.1308 41.5884C15.0163 41.5082 14.9884 41.3504 15.0686 41.2358L15.843 40.1299C15.9232 40.0154 16.081 39.9876 16.1955 40.0678ZM36.2459 40.1299L37.0202 41.2358C37.1004 41.3504 37.0726 41.5082 36.9581 41.5884C36.8436 41.6686 36.6857 41.6407 36.6055 41.5262L35.8312 40.4203C35.751 40.3058 35.7788 40.148 35.8933 40.0678C36.0079 39.9876 36.1657 40.0154 36.2459 40.1299ZM15.7393 38.3254C15.8643 38.4303 15.8806 38.6166 15.7757 38.7415L14.2028 40.616C14.098 40.7409 13.9117 40.7572 13.7868 40.6524C13.6618 40.5476 13.6455 40.3613 13.7504 40.2363L15.3233 38.3618C15.4281 38.2369 15.6144 38.2206 15.7393 38.3254ZM36.7656 38.3618L38.3385 40.2363C38.4433 40.3613 38.427 40.5476 38.3021 40.6524C38.1772 40.7572 37.9909 40.7409 37.886 40.616L36.3131 38.7415C36.2083 38.6166 36.2246 38.4303 36.3496 38.3254C36.4745 38.2206 36.6608 38.2369 36.7656 38.3618ZM13.9027 38.1435C14.0015 38.2423 14.0015 38.4026 13.9027 38.5015L12.9481 39.4561C12.8492 39.555 12.6889 39.555 12.5901 39.4561C12.4912 39.3572 12.4912 39.197 12.5901 39.0981L13.5447 38.1435C13.6436 38.0446 13.8038 38.0446 13.9027 38.1435ZM38.5442 38.1435L39.4988 39.0981C39.5976 39.197 39.5976 39.3572 39.4988 39.4561C39.3999 39.555 39.2397 39.555 39.1408 39.4561L38.1862 38.5015C38.0873 38.4026 38.0873 38.2423 38.1862 38.1435C38.285 38.0446 38.4453 38.0446 38.5442 38.1435ZM13.7633 36.3492C13.8681 36.4741 13.8518 36.6604 13.7269 36.7652L11.8524 38.3381C11.7275 38.4429 11.5412 38.4266 11.4363 38.3017C11.3315 38.1768 11.3478 37.9905 11.4727 37.8856L13.3472 36.3128C13.4722 36.2079 13.6585 36.2242 13.7633 36.3492ZM38.7416 36.3128L40.6161 37.8856C40.7411 37.9905 40.7574 38.1768 40.6525 38.3017C40.5477 38.4266 40.3614 38.4429 40.2365 38.3381L38.362 36.7652C38.237 36.6604 38.2207 36.4741 38.3256 36.3492C38.4304 36.2242 38.6167 36.2079 38.7416 36.3128ZM11.9788 35.8506C12.059 35.9652 12.0311 36.123 11.9166 36.2032L10.8107 36.9775C10.6962 37.0577 10.5383 37.0299 10.4582 36.9154C10.378 36.8009 10.4058 36.643 10.5203 36.5628L11.6262 35.7885C11.7407 35.7083 11.8986 35.7361 11.9788 35.8506ZM40.4627 35.7885L41.5686 36.5628C41.6831 36.643 41.7109 36.8009 41.6307 36.9154C41.5505 37.0299 41.3927 37.0577 41.2782 36.9775L40.1723 36.2032C40.0577 36.123 40.0299 35.9652 40.1101 35.8506C40.1903 35.7361 40.3481 35.7083 40.4627 35.7885ZM12.1604 34.0603C12.242 34.2016 12.1936 34.3822 12.0523 34.4637L9.93318 35.6872C9.79193 35.7688 9.61131 35.7204 9.52976 35.5791C9.44821 35.4379 9.4966 35.2573 9.63785 35.1757L11.757 33.9522C11.8982 33.8707 12.0789 33.9191 12.1604 34.0603ZM40.3319 33.9522L42.451 35.1757C42.5923 35.2573 42.6407 35.4379 42.5591 35.5791C42.4776 35.7204 42.297 35.7688 42.1557 35.6872L40.0366 34.4637C39.8953 34.3822 39.8469 34.2016 39.9285 34.0603C40.01 33.9191 40.1906 33.8707 40.3319 33.9522ZM10.4822 33.2585C10.5413 33.3852 10.4865 33.5358 10.3598 33.5949L9.13621 34.1655C9.0095 34.2246 8.85889 34.1697 8.79981 34.043C8.74073 33.9163 8.79554 33.7657 8.92225 33.7066L10.1458 33.1361C10.2725 33.077 10.4231 33.1318 10.4822 33.2585ZM41.9431 33.1361L43.1666 33.7066C43.2933 33.7657 43.3481 33.9163 43.2891 34.043C43.23 34.1697 43.0794 34.2246 42.9527 34.1655L41.7291 33.5949C41.6024 33.5358 41.5476 33.3852 41.6067 33.2585C41.6657 33.1318 41.8164 33.077 41.9431 33.1361ZM10.9794 31.5274C11.0352 31.6807 10.9561 31.8501 10.8029 31.9059L8.50347 32.7428C8.3502 32.7986 8.18073 32.7196 8.12495 32.5663C8.06916 32.4131 8.14819 32.2436 8.30145 32.1878L10.6009 31.3509C10.7541 31.2951 10.9236 31.3741 10.9794 31.5274ZM41.488 31.3509L43.7874 32.1878C43.9407 32.2436 44.0197 32.4131 43.9639 32.5663C43.9082 32.7196 43.7387 32.7986 43.5854 32.7428L41.286 31.9059C41.1327 31.8501 41.0537 31.6807 41.1095 31.5274C41.1653 31.3741 41.3348 31.2951 41.488 31.3509ZM9.45853 30.446C9.49471 30.581 9.41458 30.7198 9.27954 30.756L7.97548 31.1054C7.84044 31.1416 7.70164 31.0615 7.66546 30.9264C7.62927 30.7914 7.70941 30.6526 7.84445 30.6164L9.1485 30.267C9.28354 30.2308 9.42235 30.3109 9.45853 30.446ZM42.9404 30.267L44.2444 30.6164C44.3795 30.6526 44.4596 30.7914 44.4234 30.9264C44.3872 31.0615 44.2484 31.1416 44.1134 31.1054L42.8094 30.756C42.6743 30.7198 42.5942 30.581 42.6304 30.446C42.6665 30.3109 42.8053 30.2308 42.9404 30.267ZM10.2561 28.8281C10.2844 28.9887 10.1772 29.1419 10.0166 29.1702L7.60676 29.5951C7.44613 29.6234 7.29296 29.5162 7.26464 29.3556C7.23631 29.1949 7.34357 29.0418 7.50419 29.0134L9.91399 28.5885C10.0746 28.5602 10.2278 28.6674 10.2561 28.8281ZM42.1749 28.5885L44.5847 29.0134C44.7453 29.0418 44.8526 29.1949 44.8243 29.3556C44.7959 29.5162 44.6428 29.6234 44.4821 29.5951L42.0723 29.1702C41.9117 29.1419 41.8045 28.9887 41.8328 28.8281C41.8611 28.6674 42.0143 28.5602 42.1749 28.5885ZM8.93877 27.4987C8.95096 27.6379 8.84793 27.7607 8.70866 27.7729L7.36374 27.8906C7.22447 27.9028 7.10169 27.7997 7.08951 27.6605C7.07733 27.5212 7.18035 27.3984 7.31962 27.3862L8.66454 27.2686C8.80381 27.2564 8.92659 27.3594 8.93877 27.4987ZM43.4244 27.2686L44.7693 27.3862C44.9085 27.3984 45.0116 27.5212 44.9994 27.6605C44.9872 27.7997 44.8644 27.9028 44.7251 27.8906L43.3802 27.7729C43.241 27.7607 43.1379 27.6379 43.1501 27.4987C43.1623 27.3594 43.2851 27.2564 43.4244 27.2686ZM9.71721 25.749C9.88032 25.749 10.0125 25.8812 10.0125 26.0443C10.0125 26.2075 9.88032 26.3397 9.71721 26.3397H7.27024C7.10714 26.3397 6.97491 26.2075 6.97491 26.0443C6.97491 25.8812 7.10714 25.749 7.27024 25.749H9.71721ZM44.8187 25.749C44.9818 25.749 45.114 25.8812 45.114 26.0443C45.114 26.2075 44.9818 26.3397 44.8187 26.3397H42.3717C42.2086 26.3397 42.0764 26.2075 42.0764 26.0443C42.0764 25.8812 42.2086 25.749 42.3717 25.749H44.8187ZM7.36374 24.1133L8.70866 24.2309C8.84793 24.2431 8.95096 24.3659 8.93877 24.5052C8.92659 24.6445 8.80381 24.7475 8.66454 24.7353L7.31962 24.6176C7.18035 24.6054 7.07733 24.4827 7.08951 24.3434C7.10169 24.2041 7.22447 24.1011 7.36374 24.1133ZM44.9994 24.3434C45.0116 24.4827 44.9085 24.6054 44.7693 24.6176L43.4244 24.7353C43.2851 24.7475 43.1623 24.6445 43.1501 24.5052C43.1379 24.3659 43.241 24.2431 43.3802 24.2309L44.7251 24.1133C44.8644 24.1011 44.9872 24.2041 44.9994 24.3434ZM7.60676 22.4933L10.0166 22.9182C10.1772 22.9465 10.2844 23.0997 10.2561 23.2603C10.2278 23.421 10.0746 23.5282 9.91399 23.4999L7.50419 23.075C7.34357 23.0467 7.23631 22.8935 7.26464 22.7329C7.29296 22.5722 7.44613 22.465 7.60676 22.4933ZM44.8243 22.7329C44.8526 22.8935 44.7453 23.0467 44.5847 23.075L42.1749 23.4999C42.0143 23.5282 41.8611 23.421 41.8328 23.2603C41.8045 23.0997 41.9117 22.9465 42.0723 22.9182L44.4821 22.4933C44.6428 22.465 44.7959 22.5722 44.8243 22.7329ZM7.97548 20.8983L9.27954 21.2478C9.41458 21.2839 9.49471 21.4227 9.45853 21.5578C9.42235 21.6928 9.28354 21.773 9.1485 21.7368L7.84445 21.3874C7.70941 21.3512 7.62927 21.2124 7.66546 21.0773C7.70164 20.9423 7.84044 20.8622 7.97548 20.8983ZM44.4234 21.0773C44.4596 21.2124 44.3795 21.3512 44.2444 21.3874L42.9404 21.7368C42.8053 21.773 42.6665 21.6928 42.6304 21.5578C42.5942 21.4227 42.6743 21.2839 42.8094 21.2478L44.1134 20.8983C44.2484 20.8622 44.3872 20.9423 44.4234 21.0773ZM8.50347 19.3455L10.8029 20.1824C10.9561 20.2382 11.0352 20.4077 10.9794 20.561C10.9236 20.7142 10.7541 20.7933 10.6009 20.7375L8.30145 19.9006C8.14819 19.8448 8.06916 19.6753 8.12495 19.522C8.18073 19.3688 8.3502 19.2897 8.50347 19.3455ZM43.9639 19.522C44.0197 19.6753 43.9407 19.8448 43.7874 19.9006L41.488 20.7375C41.3348 20.7933 41.1653 20.7142 41.1095 20.561C41.0537 20.4077 41.1327 20.2382 41.286 20.1824L43.5854 19.3455C43.7387 19.2897 43.9082 19.3688 43.9639 19.522ZM9.13621 17.8382L10.3598 18.4088C10.4865 18.4679 10.5413 18.6185 10.4822 18.7452C10.4231 18.8719 10.2725 18.9267 10.1458 18.8676L8.92225 18.2971C8.79554 18.238 8.74073 18.0874 8.79981 17.9607C8.85889 17.834 9.0095 17.7791 9.13621 17.8382ZM43.2891 17.9607C43.3481 18.0874 43.2933 18.238 43.1666 18.2971L41.9431 18.8676C41.8164 18.9267 41.6657 18.8719 41.6067 18.7452C41.5476 18.6185 41.6024 18.4679 41.7291 18.4088L42.9527 17.8382C43.0794 17.7791 43.23 17.834 43.2891 17.9607ZM9.93318 16.4014L12.0523 17.6249C12.1936 17.7065 12.242 17.8871 12.1604 18.0283C12.0789 18.1696 11.8982 18.218 11.757 18.1364L9.63785 16.9129C9.4966 16.8314 9.44821 16.6508 9.52976 16.5095C9.61131 16.3683 9.79193 16.3199 9.93318 16.4014ZM42.5591 16.5095C42.6407 16.6508 42.5923 16.8314 42.451 16.9129L40.3319 18.1364C40.1906 18.218 40.01 18.1696 39.9285 18.0283C39.8469 17.8871 39.8953 17.7065 40.0366 17.6249L42.1557 16.4014C42.297 16.3199 42.4776 16.3683 42.5591 16.5095ZM10.8107 15.0263L11.9166 15.8006C12.0311 15.8808 12.059 16.0387 11.9788 16.1532C11.8986 16.2677 11.7407 16.2955 11.6262 16.2153L10.5203 15.441C10.4058 15.3608 10.378 15.203 10.4582 15.0884C10.5383 14.9739 10.6962 14.9461 10.8107 15.0263ZM11.8524 13.7503L13.7269 15.3231C13.8518 15.428 13.8681 15.6143 13.7633 15.7392C13.6585 15.8641 13.4722 15.8804 13.3472 15.7756L11.4727 14.2027C11.3478 14.0979 11.3315 13.9116 11.4363 13.7867C11.5412 13.6617 11.7275 13.6454 11.8524 13.7503ZM41.6307 15.0884C41.7109 15.203 41.6831 15.3608 41.5686 15.441L40.4627 16.2153C40.3481 16.2955 40.1903 16.2677 40.1101 16.1532C40.0299 16.0387 40.0577 15.8808 40.1723 15.8006L41.2782 15.0263C41.3927 14.9461 41.5505 14.9739 41.6307 15.0884ZM40.6525 13.7867C40.7574 13.9116 40.7411 14.0979 40.6161 14.2027L38.7416 15.7756C38.6167 15.8804 38.4304 15.8641 38.3256 15.7392C38.2207 15.6143 38.237 15.428 38.362 15.3231L40.2365 13.7503C40.3614 13.6454 40.5477 13.6617 40.6525 13.7867ZM12.9481 12.5478L13.9027 13.5024C14.0015 13.6013 14.0015 13.7615 13.9027 13.8604C13.8038 13.9593 13.6436 13.9593 13.5447 13.8604L12.5901 12.9058C12.4912 12.8069 12.4912 12.6466 12.5901 12.5478C12.6889 12.4489 12.8492 12.4489 12.9481 12.5478ZM14.2028 11.4727L15.7757 13.3472C15.8806 13.4721 15.8643 13.6584 15.7393 13.7632C15.6144 13.8681 15.4281 13.8518 15.3233 13.7268L13.7504 11.8523C13.6455 11.7274 13.6618 11.5411 13.7868 11.4363C13.9117 11.3314 14.098 11.3477 14.2028 11.4727ZM39.4988 12.5478C39.5976 12.6466 39.5976 12.8069 39.4988 12.9058L38.5442 13.8604C38.4453 13.9593 38.285 13.9593 38.1862 13.8604C38.0873 13.7615 38.0873 13.6013 38.1862 13.5024L39.1408 12.5478C39.2397 12.4489 39.3999 12.4489 39.4988 12.5478ZM38.3021 11.4363C38.427 11.5411 38.4433 11.7274 38.3385 11.8523L36.7656 13.7268C36.6608 13.8518 36.4745 13.8681 36.3496 13.7632C36.2246 13.6584 36.2083 13.4721 36.3131 13.3472L37.886 11.4727C37.9909 11.3477 38.1772 11.3314 38.3021 11.4363ZM16.9131 9.63746L18.1366 11.7566C18.2181 11.8979 18.1697 12.0785 18.0285 12.16C17.8872 12.2416 17.7066 12.1932 17.6251 12.0519L16.4016 9.93278C16.32 9.79153 16.3684 9.61091 16.5097 9.52936C16.6509 9.44781 16.8315 9.49621 16.9131 9.63746ZM15.4833 10.4776L16.2577 11.5835C16.3379 11.698 16.3101 11.8559 16.1955 11.936C16.081 12.0162 15.9232 11.9884 15.843 11.8739L15.0686 10.768C14.9884 10.6535 15.0163 10.4956 15.1308 10.4154C15.2453 10.3352 15.4032 10.3631 15.4833 10.4776ZM35.5792 9.52936C35.7205 9.61091 35.7689 9.79153 35.6873 9.93278L34.4638 12.0519C34.3823 12.1932 34.2017 12.2416 34.0604 12.16C33.9191 12.0785 33.8708 11.8979 33.9523 11.7566L35.1758 9.63746C35.2573 9.49621 35.438 9.44781 35.5792 9.52936ZM36.9581 10.4154C37.0726 10.4956 37.1004 10.6535 37.0202 10.768L36.2459 11.8739C36.1657 11.9884 36.0079 12.0162 35.8933 11.936C35.7788 11.8559 35.751 11.698 35.8312 11.5835L36.6055 10.4776C36.6857 10.3631 36.8436 10.3352 36.9581 10.4154ZM19.9008 8.30133L20.7377 10.6007C20.7935 10.754 20.7145 10.9235 20.5612 10.9793C20.4079 11.035 20.2385 10.956 20.1827 10.8027L19.3458 8.50335C19.29 8.35008 19.369 8.18061 19.5223 8.12482C19.6755 8.06904 19.845 8.14806 19.9008 8.30133ZM32.5666 8.12482C32.7199 8.18061 32.7989 8.35008 32.7431 8.50335L31.9062 10.8027C31.8504 10.956 31.6809 11.035 31.5277 10.9793C31.3744 10.9235 31.2954 10.754 31.3512 10.6007L32.1881 8.30133C32.2439 8.14806 32.4133 8.06904 32.5666 8.12482ZM18.3395 8.87961L18.9101 10.1032C18.9692 10.2299 18.9144 10.3805 18.7877 10.4396C18.661 10.4987 18.5104 10.4438 18.4513 10.3171L17.8807 9.09357C17.8216 8.96687 17.8764 8.81626 18.0031 8.75718C18.1299 8.69809 18.2805 8.75291 18.3395 8.87961ZM34.0857 8.75718C34.2124 8.81626 34.2673 8.96687 34.2082 9.09357L33.6376 10.3171C33.5785 10.4438 33.4279 10.4987 33.3012 10.4396C33.1745 10.3805 33.1197 10.2299 33.1788 10.1032L33.7493 8.87961C33.8084 8.75291 33.959 8.69809 34.0857 8.75718ZM23.0752 7.50386L23.5001 9.91366C23.5284 10.0743 23.4211 10.2275 23.2605 10.2558C23.0999 10.2841 22.9467 10.1768 22.9184 10.0162L22.4935 7.60642C22.4652 7.4458 22.5724 7.29262 22.733 7.2643C22.8937 7.23598 23.0468 7.34323 23.0752 7.50386ZM29.3558 7.2643C29.5165 7.29262 29.6237 7.4458 29.5954 7.60642L29.1705 10.0162C29.1421 10.1768 28.989 10.2841 28.8284 10.2558C28.6677 10.2275 28.5605 10.0743 28.5888 9.91366L29.0137 7.50386C29.042 7.34323 29.1952 7.23598 29.3558 7.2643ZM26.0444 6.97461C26.2075 6.97461 26.3398 7.10683 26.3398 7.26993V9.71691C26.3398 9.88001 26.2075 10.0122 26.0444 10.0122C25.8813 10.0122 25.7491 9.88001 25.7491 9.71691V7.26993C25.7491 7.10683 25.8813 6.97461 26.0444 6.97461ZM21.4298 7.80194L21.7793 9.10599C21.8154 9.24103 21.7353 9.37983 21.6003 9.41602C21.4652 9.4522 21.3264 9.37206 21.2902 9.23703L20.9408 7.93297C20.9046 7.79793 20.9848 7.65913 21.1198 7.62295C21.2548 7.58676 21.3937 7.6669 21.4298 7.80194ZM30.9691 7.62295C31.1041 7.65913 31.1842 7.79793 31.1481 7.93297L30.7986 9.23703C30.7625 9.37206 30.6237 9.4522 30.4886 9.41602C30.3536 9.37983 30.2734 9.24103 30.3096 9.10599L30.659 7.80194C30.6952 7.6669 30.834 7.58676 30.9691 7.62295ZM24.6603 7.27699L24.778 8.6219C24.7902 8.76118 24.6871 8.88395 24.5479 8.89614C24.4086 8.90832 24.2858 8.8053 24.2736 8.66603L24.156 7.32111C24.1438 7.18184 24.2468 7.05906 24.3861 7.04688C24.5254 7.03469 24.6481 7.13772 24.6603 7.27699ZM27.7028 7.04688C27.8421 7.05906 27.9451 7.18184 27.9329 7.32111L27.8152 8.66603C27.803 8.8053 27.6803 8.90832 27.541 8.89614C27.4017 8.88395 27.2987 8.76118 27.3109 8.6219L27.4285 7.27699C27.4407 7.13772 27.5635 7.03469 27.7028 7.04688Z" fill="white"/>
</g>
<g filter="url(#filter4_d_98_387)">
<path fill-rule="evenodd" clip-rule="evenodd" d="M11.2523 38.032L24.467 24.0781L40.2296 13.6295C40.3933 13.5211 40.6139 13.5658 40.7224 13.7295C40.8141 13.8677 40.7979 14.051 40.6835 14.1712L27.6219 27.882L11.7087 38.5716C11.5457 38.6811 11.3248 38.6378 11.2153 38.4748C11.1226 38.3367 11.1379 38.1528 11.2523 38.032Z" fill="#C7C7C7"/>
<mask id="mask1_98_387" style="mask-type:alpha" maskUnits="userSpaceOnUse" x="11" y="13" width="30" height="26">
<path fill-rule="evenodd" clip-rule="evenodd" d="M11.2523 38.032L24.467 24.0781L40.2296 13.6295C40.3933 13.5211 40.6139 13.5658 40.7224 13.7295C40.8141 13.8677 40.7979 14.051 40.6835 14.1712L27.6219 27.882L11.7087 38.5716C11.5457 38.6811 11.3248 38.6378 11.2153 38.4748C11.1226 38.3367 11.1379 38.1528 11.2523 38.032Z" fill="white"/>
</mask>
<g mask="url(#mask1_98_387)">
<path fill-rule="evenodd" clip-rule="evenodd" d="M24.467 24.0915L27.6219 27.9126L41.4997 13.5603L40.8424 12.5996L24.467 24.0915Z" fill="#C72E25"/>
<path fill-rule="evenodd" clip-rule="evenodd" d="M10.8451 38.8002L26.0445 26.0022L41.2438 13.2041L40.3842 13.2041L24.467 24.0916L10.5892 38.4372L10.8451 38.8002Z" fill="white"/>
<path fill-rule="evenodd" clip-rule="evenodd" d="M26.0445 26.0022L41.2439 13.2041L40.3843 13.2041L24.467 24.0916L26.0445 26.0022Z" fill="#FF6159"/>
</g>
</g>
</g>
<defs>
<filter id="filter0_d_98_387" x="0.4" y="0.844444" width="51.2" height="51.2" filterUnits="userSpaceOnUse" color-interpolation-filters="sRGB">
<feFlood flood-opacity="0" result="BackgroundImageFix"/>
<feColorMatrix in="SourceAlpha" type="matrix" values="0 0 0 0 0 0 0 0 0 0 0 0 0 0 0 0 0 0 127 0" result="hardAlpha"/>
<feOffset dy="0.444444"/>
<feGaussianBlur stdDeviation="0.8"/>
<feColorMatrix type="matrix" values="0 0 0 0 0 0 0 0 0 0 0 0 0 0 0 0 0 0 0.4 0"/>
<feBlend mode="normal" in2="BackgroundImageFix" result="effect1_dropShadow_98_387"/>
<feBlend mode="normal" in="SourceGraphic" in2="effect1_dropShadow_98_387" result="shape"/>
</filter>
<filter id="filter1_ii_98_387" x="5.46667" y="4.84457" width="41.1556" height="42.3997" filterUnits="userSpaceOnUse" color-interpolation-filters="sRGB">
<feFlood flood-opacity="0" result="BackgroundImageFix"/>
<feBlend mode="normal" in="SourceGraphic" in2="BackgroundImageFix" result="shape"/>
<feColorMatrix in="SourceAlpha" type="matrix" values="0 0 0 0 0 0 0 0 0 0 0 0 0 0 0 0 0 0 127 0" result="hardAlpha"/>
<feOffset dy="1.06667"/>
<feGaussianBlur stdDeviation="0.311111"/>
<feComposite in2="hardAlpha" operator="arithmetic" k2="-1" k3="1"/>
<feColorMatrix type="matrix" values="0 0 0 0 0.0295054 0 0 0 0 0 0 0 0 0 0.278816 0 0 0 0.40879 0"/>
<feBlend mode="normal" in2="shape" result="effect1_innerShadow_98_387"/>
<feColorMatrix in="SourceAlpha" type="matrix" values="0 0 0 0 0 0 0 0 0 0 0 0 0 0 0 0 0 0 127 0" result="hardAlpha"/>
<feOffset dy="-0.977778"/>
<feGaussianBlur stdDeviation="0.311111"/>
<feComposite in2="hardAlpha" operator="arithmetic" k2="-1" k3="1"/>
<feColorMatrix type="matrix" values="0 0 0 0 0.356863 0 0 0 0 0.580392 0 0 0 0 0.917647 0 0 0 1 0"/>
<feBlend mode="normal" in2="effect1_innerShadow_98_387" result="effect2_innerShadow_98_387"/>
</filter>
<filter id="filter2_f_98_387" x="-0.649399" y="-4.92308" width="49.5797" height="49.5796" filterUnits="userSpaceOnUse" color-interpolation-filters="sRGB">
<feFlood flood-opacity="0" result="BackgroundImageFix"/>
<feBlend mode="normal" in="SourceGraphic" in2="BackgroundImageFix" result="shape"/>
<feGaussianBlur stdDeviation="5.19494" result="effect1_foregroundBlur_98_387"/>
</filter>
<filter id="filter3_d_98_387" x="6.61936" y="6.79683" width="38.8501" height="38.8508" filterUnits="userSpaceOnUse" color-interpolation-filters="sRGB">
<feFlood flood-opacity="0" result="BackgroundImageFix"/>
<feColorMatrix in="SourceAlpha" type="matrix" values="0 0 0 0 0 0 0 0 0 0 0 0 0 0 0 0 0 0 127 0" result="hardAlpha"/>
<feOffset dy="0.177778"/>
<feGaussianBlur stdDeviation="0.177778"/>
<feColorMatrix type="matrix" values="0 0 0 0 0 0 0 0 0 0 0 0 0 0 0 0 0 0 0.5 0"/>
<feBlend mode="normal" in2="BackgroundImageFix" result="effect1_dropShadow_98_387"/>
<feBlend mode="normal" in="SourceGraphic" in2="effect1_dropShadow_98_387" result="shape"/>
</filter>
<filter id="filter4_d_98_387" x="10.9771" y="13.1259" width="30.8712" height="26.306" filterUnits="userSpaceOnUse" color-interpolation-filters="sRGB">
<feFlood flood-opacity="0" result="BackgroundImageFix"/>
<feColorMatrix in="SourceAlpha" type="matrix" values="0 0 0 0 0 0 0 0 0 0 0 0 0 0 0 0 0 0 127 0" result="hardAlpha"/>
<feOffset dx="0.444444" dy="0.177778"/>
<feGaussianBlur stdDeviation="0.311111"/>
<feColorMatrix type="matrix" values="0 0 0 0 0 0 0 0 0 0.0211722 0 0 0 0 0.216259 0 0 0 0.5 0"/>
<feBlend mode="normal" in2="BackgroundImageFix" result="effect1_dropShadow_98_387"/>
<feBlend mode="normal" in="SourceGraphic" in2="effect1_dropShadow_98_387" result="shape"/>
</filter>
<linearGradient id="paint0_linear_98_387" x1="49.9614" y1="49.9227" x2="49.9614" y2="2" gradientUnits="userSpaceOnUse">
<stop stop-color="#D1D1D1"/>
<stop offset="1" stop-color="white"/>
</linearGradient>
<linearGradient id="paint1_linear_98_387" x1="44.4065" y1="46.6224" x2="44.4065" y2="9.89829" gradientUnits="userSpaceOnUse">
<stop stop-color="#1964D0"/>
<stop offset="1" stop-color="#22A7F2"/>
</linearGradient>
</defs>
</svg>
