<svg width="24" height="24" viewBox="0 0 24 24" fill="none" xmlns="http://www.w3.org/2000/svg">
<path d="M15.5083 14.3735V6.87354C15.5083 6.39746 15.1641 6.00928 14.666 6.00928C14.3218 6.00928 14.0947 6.16309 13.7139 6.51465L10.7695 9.24658C10.7329 9.27588 10.689 9.30518 10.645 9.30518H10.4253L15.5083 14.3735ZM18.0352 19.6982C18.2549 19.918 18.6211 19.918 18.8335 19.6982C19.0532 19.4712 19.0532 19.1196 18.8335 18.8999L6.29443 6.36084C6.07471 6.14111 5.7085 6.14111 5.48877 6.36084C5.26904 6.57324 5.26904 6.94678 5.48877 7.15918L18.0352 19.6982ZM8.2793 15.4429H10.3667C10.4399 15.4429 10.4985 15.4648 10.5498 15.5088L13.7139 18.4678C14.0581 18.79 14.3364 18.9292 14.6733 18.9292C15.0542 18.9292 15.3398 18.7388 15.457 18.3213L7.10742 9.979C6.89502 10.2207 6.78516 10.5869 6.78516 11.0776V13.8828C6.78516 14.9448 7.2832 15.4429 8.2793 15.4429Z" fill="white"/>
</svg>
