<svg width="14" height="14" viewBox="0 0 14 14" fill="none" xmlns="http://www.w3.org/2000/svg">
    <path d="M2.354 11.9019H11.646C12.7739 11.9019 13.3325 11.3433 13.3325 10.2368V7.05713C13.3325 6.57373 13.2681 6.33203 13.0264 6.03662L11.1733 3.74316C10.5449 2.96973 10.2656 2.7334 9.30957 2.7334H4.69043C3.73438 2.7334 3.46045 2.96973 2.83203 3.74316L0.973633 6.03662C0.737305 6.33203 0.66748 6.57373 0.66748 7.05713V10.2368C0.66748 11.3486 1.23145 11.9019 2.354 11.9019ZM7 8.46973C6.24268 8.46973 5.75391 7.80908 5.75391 7.18604V7.16992C5.75391 6.94434 5.61963 6.73486 5.34033 6.73486H1.80078C1.62354 6.73486 1.58594 6.5791 1.67725 6.46631L3.66992 3.95264C3.93311 3.61963 4.23389 3.48535 4.62598 3.48535H9.37402C9.76611 3.48535 10.0669 3.61963 10.3301 3.95264L12.3281 6.46631C12.4141 6.5791 12.3818 6.73486 12.2046 6.73486H8.65967C8.38037 6.73486 8.25146 6.94434 8.25146 7.16992V7.18604C8.25146 7.80908 7.7627 8.46973 7 8.46973ZM2.36475 11.0371C1.82764 11.0371 1.53223 10.7524 1.53223 10.1938V7.51904H4.9375C5.06641 8.52344 5.90967 9.26465 7 9.26465C8.09033 9.26465 8.93359 8.51807 9.0625 7.51904H12.4678V10.1938C12.4678 10.7524 12.167 11.0371 11.6353 11.0371H2.36475Z"
          fill="#007AFF"/>
</svg>
