<svg width="32" height="32" viewBox="0 0 32 32" fill="none" xmlns="http://www.w3.org/2000/svg">
    <path d="M7.69922 14.9277C7.85693 15.0938 8.09766 15.0854 8.25537 14.9194C10.2974 12.7529 12.9868 11.6074 16 11.6074C19.0298 11.6074 21.7358 12.7612 23.7612 14.9277C23.9106 15.0771 24.1431 15.0771 24.3008 14.9111L25.4463 13.7656C25.5874 13.6162 25.5874 13.4336 25.4712 13.2925C23.5205 10.8853 19.8516 9.11719 16 9.11719C12.1567 9.11719 8.47119 10.8853 6.52881 13.2925C6.4126 13.4336 6.4126 13.6162 6.55371 13.7656L7.69922 14.9277ZM11.1523 18.3975C11.3267 18.5718 11.5508 18.5469 11.7168 18.3643C12.7129 17.2603 14.3398 16.4551 16 16.4634C17.6851 16.4551 19.3037 17.2852 20.3164 18.3892C20.4741 18.5635 20.6899 18.5635 20.856 18.3892L22.1426 17.1108C22.2837 16.978 22.292 16.7954 22.1675 16.646C20.9141 15.1104 18.5898 13.9565 16 13.9565C13.4102 13.9565 11.0942 15.1104 9.83252 16.646C9.71631 16.7954 9.72461 16.9614 9.86572 17.1108L11.1523 18.3975ZM16 22.9131C16.1826 22.9131 16.3403 22.8301 16.6641 22.5146L18.6895 20.5723C18.8223 20.4478 18.8472 20.2651 18.7393 20.1157C18.1914 19.4185 17.1704 18.8125 16 18.8125C14.8047 18.8125 13.7754 19.4434 13.2441 20.1655C13.1528 20.2983 13.1943 20.4478 13.3188 20.5723L15.3359 22.5146C15.6597 22.8218 15.8174 22.9131 16 22.9131Z"
          fill="#007AFF"/>
</svg>
